<svg width="13" height="42" viewBox="0 0 13 42" fill="none" xmlns="http://www.w3.org/2000/svg">
<rect x="6.75" y="0.25" width="29.5" height="0.5" transform="rotate(90 6.75 0.25)" stroke="#24BF79" stroke-width="0.5" stroke-dasharray="2.5 2.5"/>
<g clip-path="url(#clip0)">
<path d="M6.85672 41.8596L12.853 35.8966C13.0493 35.7012 13.049 35.3849 12.852 35.1899C12.655 34.995 12.3358 34.9955 12.1393 35.1909L6.49995 40.7989L0.860594 35.1907C0.664071 34.9953 0.345139 34.9948 0.148108 35.1897C0.0493383 35.2874 -4.67463e-05 35.4155 -4.67519e-05 35.5436C-4.67575e-05 35.6714 0.0490083 35.799 0.147092 35.8966L6.14321 41.8596C6.23762 41.9537 6.36609 42.0065 6.49995 42.0065C6.63381 42.0065 6.76214 41.9535 6.85672 41.8596Z" fill="#24BF79"/>
</g>
<defs>
<clipPath id="clip0">
<rect width="7" height="13" fill="white" transform="translate(13 35) rotate(90)"/>
</clipPath>
</defs>
</svg>
