<svg width="16" height="16" viewBox="0 0 16 16" fill="none" xmlns="http://www.w3.org/2000/svg">
<path d="M2.5 2.53125C4.02083 1.01042 5.85417 0.25 8 0.25C10.1458 0.25 11.9688 1.01042 13.4688 2.53125C14.9896 4.03125 15.75 5.85417 15.75 8C15.75 10.1458 14.9896 11.9792 13.4688 13.5C11.9688 15 10.1458 15.75 8 15.75C5.85417 15.75 4.02083 15 2.5 13.5C1 11.9792 0.25 10.1458 0.25 8C0.25 5.85417 1 4.03125 2.5 2.53125ZM9.78125 11.1875C9.98958 11.3333 10.1667 11.3125 10.3125 11.125L11.1875 9.90625C11.3333 9.69792 11.3125 9.52083 11.125 9.375L9.125 7.9375V3.625C9.125 3.375 9 3.25 8.75 3.25H7.25C7 3.25 6.875 3.375 6.875 3.625V8.875C6.875 9 6.92708 9.10417 7.03125 9.1875L9.78125 11.1875Z" fill="white"/>
</svg>
