<svg width="14" height="15" viewBox="0 0 14 15" fill="none" xmlns="http://www.w3.org/2000/svg">
<path d="M2.1875 2.96484C3.51823 1.63411 5.1224 0.96875 7 0.96875C8.8776 0.96875 10.4727 1.63411 11.7852 2.96484C13.1159 4.27734 13.7812 5.8724 13.7812 7.75C13.7812 9.6276 13.1159 11.2318 11.7852 12.5625C10.4727 13.875 8.8776 14.5312 7 14.5312C5.1224 14.5312 3.51823 13.875 2.1875 12.5625C0.875 11.2318 0.21875 9.6276 0.21875 7.75C0.21875 5.8724 0.875 4.27734 2.1875 2.96484ZM8.55859 10.5391C8.74089 10.6667 8.89583 10.6484 9.02344 10.4844L9.78906 9.41797C9.91667 9.23568 9.89844 9.08073 9.73438 8.95312L7.98438 7.69531V3.92188C7.98438 3.70312 7.875 3.59375 7.65625 3.59375H6.34375C6.125 3.59375 6.01562 3.70312 6.01562 3.92188V8.51562C6.01562 8.625 6.0612 8.71615 6.15234 8.78906L8.55859 10.5391Z" fill="#24BF79"/>
</svg>
