<svg width="13" height="13" viewBox="0 0 13 13" fill="none" xmlns="http://www.w3.org/2000/svg">
<path d="M8.60983 6.25787C8.51774 6.07425 8.33033 5.95834 8.12505 5.95834H7.0417V0.541658C7.0417 0.242658 6.79958 0 6.50005 0C6.20051 0 5.95839 0.242658 5.95839 0.541658V5.95832H4.87505C4.66976 5.95832 4.48233 6.07422 4.39026 6.25785C4.29926 6.44147 4.31876 6.66085 4.44173 6.82498L6.06673 8.99163C6.07376 9.00085 6.08461 9.0041 6.0922 9.01276C6.12795 9.05501 6.1702 9.08751 6.21732 9.11729C6.23682 9.1292 6.25198 9.14492 6.27311 9.15467C6.34245 9.18717 6.41826 9.20829 6.50007 9.20829C6.58188 9.20829 6.6577 9.18717 6.72757 9.15467C6.74816 9.14492 6.76385 9.1292 6.78282 9.11729C6.82995 9.08751 6.8722 9.05501 6.90795 9.01276C6.91498 9.0041 6.92636 9.00085 6.93341 8.99163L8.55841 6.82498C8.68189 6.66088 8.70139 6.4415 8.60983 6.25787Z" fill="white"/>
<path d="M12.4583 8.125C12.1588 8.125 11.9167 8.36766 11.9167 8.66666V10.2917C11.9167 11.1876 11.1876 11.9167 10.2917 11.9167H2.70834C1.81243 11.9167 1.08334 11.1876 1.08334 10.2917V8.66666C1.08334 8.36766 0.841217 8.125 0.541684 8.125C0.242125 8.125 0 8.36766 0 8.66666V10.2917C0 11.785 1.21497 13 2.70834 13H10.2917C11.785 13 13 11.785 13 10.2917V8.66666C13 8.36766 12.7579 8.125 12.4583 8.125Z" fill="white"/>
</svg>
