<svg width="900" height="900" viewBox="0 0 900 900" fill="none" xmlns="http://www.w3.org/2000/svg">
<path d="M216.595 483.997C125.829 481.277 109.887 357.105 200.485 336.307C283.363 317.281 325.525 477.992 416.928 403.91C447.197 380.569 484.341 367.911 522.562 367.911C600.291 367.91 562.485 284.115 562.487 244.776C562.491 173.102 620.583 115 692.243 115C763.906 115 822 173.106 822 244.783C822 302.479 784.36 351.381 732.301 368.264C648.755 395.359 695.575 482.694 695.57 540.97C695.563 636.532 618.108 713.999 522.563 714C448.895 714.001 387.76 668.91 363.443 600.912C352.833 571.243 345.287 536.697 323.313 512.848C294.886 481.998 255.287 485.141 216.595 483.997Z" fill="url(#paint0_linear)" style="mix-blend-mode:multiply"/>
<path d="M381.434 322.109H371.41V387.39H381.434V322.109Z" fill="#196E57"/>
<path d="M397.903 354.329H387.879V387.39H397.903V354.329Z" fill="#2A508A"/>
<path d="M414.372 337.268H404.348V387.39H414.372V337.268Z" fill="#3A69AF"/>
<path d="M430.9 368.291H420.875V387.39H430.9V368.291Z" fill="#163666"/>
<path d="M448.741 308.627H438.717V387.39H448.741V308.627Z" fill="#24BF79"/>
<path opacity="0.25" d="M375.766 284.998H339.964V287.862H375.766V284.998Z" fill="#24BF79"/>
<path opacity="0.25" d="M361.445 290.726H339.964V293.59H361.445V290.726Z" fill="#24BF79"/>
<path opacity="0.25" d="M365.741 296.454H339.964V299.318H365.741V296.454Z" fill="#24BF79"/>
<path opacity="0.25" d="M350.704 302.183H339.964V305.047H350.704V302.183Z" fill="#24BF79"/>
<path d="M335.361 292.158H334.543V282.85C334.544 281.792 334.965 280.778 335.712 280.03C336.46 279.282 337.474 278.862 338.532 278.86H345.692V279.679H338.532C337.691 279.679 336.885 280.014 336.291 280.608C335.696 281.203 335.362 282.009 335.361 282.85V292.158Z" fill="#24BF79"/>
<path d="M377.914 310.468H368.605V309.65H377.914C378.754 309.649 379.56 309.314 380.155 308.72C380.749 308.125 381.084 307.319 381.085 306.479V299.318H381.903V306.479C381.902 307.536 381.481 308.55 380.733 309.298C379.985 310.046 378.971 310.467 377.914 310.468Z" fill="#24BF79"/>
<path opacity="0.4" d="M411.101 424.565C406.259 424.565 401.527 423.13 397.501 420.44C393.476 417.75 390.338 413.927 388.485 409.454C386.632 404.981 386.148 400.059 387.092 395.311C388.037 390.562 390.368 386.2 393.792 382.777C397.215 379.353 401.577 377.022 406.325 376.078C411.074 375.133 415.996 375.618 420.469 377.471C424.942 379.323 428.765 382.461 431.455 386.486C434.144 390.512 435.58 395.245 435.58 400.086C435.573 406.576 432.991 412.798 428.402 417.388C423.813 421.977 417.591 424.558 411.101 424.565ZM411.101 376.221C406.381 376.221 401.767 377.621 397.842 380.243C393.917 382.865 390.858 386.593 389.052 390.953C387.246 395.314 386.773 400.113 387.694 404.742C388.615 409.372 390.888 413.624 394.226 416.962C397.563 420.299 401.816 422.572 406.445 423.493C411.075 424.414 415.873 423.941 420.234 422.135C424.595 420.329 428.322 417.27 430.944 413.345C433.567 409.421 434.966 404.806 434.966 400.086C434.959 393.759 432.443 387.693 427.969 383.219C423.494 378.745 417.428 376.228 411.101 376.221Z" fill="#24BF79"/>
<path d="M411.101 418.944C407.372 418.944 403.726 417.838 400.624 415.766C397.523 413.694 395.106 410.749 393.679 407.303C392.252 403.857 391.878 400.066 392.606 396.408C393.333 392.749 395.129 389.389 397.767 386.752C400.404 384.115 403.764 382.319 407.422 381.591C411.08 380.863 414.872 381.237 418.318 382.664C421.763 384.091 424.709 386.508 426.781 389.61C428.853 392.711 429.959 396.357 429.959 400.086C429.953 405.086 427.965 409.879 424.429 413.414C420.894 416.95 416.101 418.938 411.101 418.944ZM411.101 381.842C407.493 381.842 403.966 382.912 400.965 384.917C397.965 386.922 395.627 389.771 394.246 393.105C392.865 396.438 392.504 400.107 393.208 403.646C393.912 407.185 395.649 410.435 398.201 412.987C400.752 415.538 404.003 417.276 407.542 417.98C411.081 418.684 414.749 418.322 418.083 416.942C421.417 415.561 424.266 413.222 426.271 410.222C428.275 407.222 429.345 403.695 429.345 400.086C429.34 395.249 427.416 390.612 423.996 387.192C420.575 383.772 415.938 381.848 411.101 381.842Z" fill="#24BF79"/>
<path d="M413.251 404.396C415.631 403.208 416.598 400.316 415.41 397.936C414.223 395.556 411.331 394.59 408.951 395.777C406.571 396.965 405.604 399.857 406.792 402.237C407.979 404.616 410.871 405.583 413.251 404.396Z" fill="#24BF79"/>
<path d="M441.071 512.266L439.851 510.181C435.329 496.746 420.255 487.078 420.255 487.078L421.294 488.353L409.354 474.311C408.706 473.549 408.356 472.578 408.368 471.577L408.494 461.129L394.514 458.945L392.554 469.163C391.564 474.321 392.569 479.662 395.366 484.108L419.106 524.957C420.216 526.867 422.034 528.262 424.167 528.839C426.299 529.416 428.573 529.128 430.494 528.038L437.972 523.796C438.938 523.248 439.786 522.513 440.466 521.635C441.145 520.757 441.644 519.752 441.932 518.679C442.221 517.606 442.293 516.487 442.145 515.386C441.998 514.285 441.632 513.224 441.071 512.266Z" fill="#D1E6F7"/>
<g style="mix-blend-mode:multiply" opacity="0.5">
<path d="M441.071 512.266L439.851 510.181C435.329 496.746 420.255 487.078 420.255 487.078L421.294 488.353L409.354 474.311C408.706 473.549 408.356 472.578 408.368 471.577L408.494 461.129L394.514 458.945L392.554 469.163C391.564 474.321 392.569 479.662 395.366 484.108L419.106 524.957C420.216 526.867 422.034 528.262 424.167 528.839C426.299 529.416 428.573 529.128 430.494 528.038L437.972 523.796C438.938 523.248 439.786 522.513 440.466 521.635C441.145 520.757 441.644 519.752 441.932 518.679C442.221 517.606 442.293 516.487 442.145 515.386C441.998 514.285 441.632 513.224 441.071 512.266Z" fill="#D1E6F7"/>
</g>
<path d="M471.049 468.257H451.354C449.445 468.257 447.898 469.804 447.898 471.712V477.241C447.898 479.149 449.445 480.696 451.354 480.696H471.049C472.958 480.696 474.505 479.149 474.505 477.241V471.712C474.505 469.804 472.958 468.257 471.049 468.257Z" fill="white"/>
<path opacity="0.5" d="M447.207 468.257H466.903C467.819 468.257 468.698 468.621 469.346 469.269C469.994 469.917 470.358 470.796 470.358 471.712V477.241C470.358 478.157 469.994 479.036 469.346 479.684C468.698 480.332 467.819 480.696 466.903 480.696H447.207C446.291 480.696 445.412 480.332 444.764 479.684C444.116 479.036 443.752 478.157 443.752 477.24V471.712C443.752 470.796 444.116 469.917 444.764 469.269C445.412 468.621 446.291 468.257 447.207 468.257Z" fill="#0E1B30"/>
<path d="M447.207 468.257H466.903C467.819 468.257 468.698 468.621 469.346 469.269C469.994 469.917 470.358 470.796 470.358 471.712V477.241C470.358 478.157 469.994 479.036 469.346 479.684C468.698 480.332 467.819 480.696 466.903 480.696H447.207C446.291 480.696 445.412 480.332 444.764 479.684C444.116 479.036 443.752 478.157 443.752 477.24V471.712C443.752 470.796 444.116 469.917 444.764 469.269C445.412 468.621 446.291 468.257 447.207 468.257Z" fill="#1D7664"/>
<path d="M473.051 752.421L462.153 788.203L462.144 788.232C460.609 793.215 465.736 801.783 465.736 801.783L464.443 806.677L460.26 803.498L453.223 784.907L460.732 752.421H473.051Z" fill="#F5D3AF"/>
<path d="M448.495 759.032L445.113 792.628C444.925 795.857 447.877 798.961 450.553 800.778C452.097 801.811 453.764 802.648 455.515 803.27L457.446 807.948H452.192L435.343 797.402L435.934 792.848L437.384 764.432L448.495 759.032Z" fill="#F5D3AF"/>
<path d="M435.342 797.405C435.342 797.405 430.858 803.867 431.155 811.591H470.832C471.251 811.591 471.659 811.451 471.99 811.194C472.322 810.937 472.559 810.577 472.664 810.171C472.768 809.765 472.735 809.336 472.57 808.95C472.404 808.565 472.115 808.246 471.748 808.042C470.413 807.306 468.463 806.897 465.629 807.436C464.755 807.602 463.85 807.476 463.055 807.075L455.514 803.273L454.029 805.65L435.342 797.405Z" fill="url(#paint1_linear)"/>
<path d="M453.22 784.911L463.113 802.78L465.735 801.787L468.437 807.331C469.064 807.522 469.728 807.558 470.372 807.435C473.203 806.896 475.157 807.307 476.492 808.042C476.859 808.245 477.148 808.565 477.313 808.95C477.478 809.336 477.511 809.765 477.406 810.171C477.3 810.577 477.063 810.936 476.732 811.193C476.4 811.449 475.993 811.588 475.573 811.588H464.89L454.727 803.87L441.306 793.67C445.741 787.343 453.22 784.911 453.22 784.911Z" fill="white"/>
<path d="M466.151 485.395V485.399L464.26 491.089L455.003 495.367V495.585L455.049 497.064L455.078 498.006L455.003 500.065H440.467V487.277L440.484 487.239L440.501 487.197L444.585 476.25L444.795 475.687L448.313 466.262L455.318 461.959L460.713 458.647C460.713 458.647 463.378 460.069 463.5 460.325C465.702 465.044 468.156 476.087 466.151 485.395Z" fill="#F5D3AF"/>
<path d="M444.509 624.666L472.77 687.709C468.175 694.709 465.357 704.151 463.269 714.861C459.632 733.447 458.183 755.86 453.436 775.94L468.914 779.599L480.458 741.295L495.545 687.875C496.235 685.423 496.238 682.829 495.552 680.376L470.755 591.645L470.494 591.551L460.987 588.203H442.61L437.436 589.348L435.814 594.232C435.814 594.232 428.074 611.449 444.509 624.666Z" fill="#163666"/>
<path d="M428.774 625.158C429.12 625.827 429.325 626.56 429.376 627.311C430.627 645.15 431.354 662.125 435.11 689.216C426.647 711.506 433.707 752.991 433.663 785.599H448.371L453.03 722.085L455.849 691.397L457.987 654.738V654.724L458.69 646.789L462.023 595.116L462.139 593.369L437.139 590.246L436.944 590.217L429.973 589.348C429.38 590.587 428.853 591.857 428.393 593.152C428.234 593.587 428.074 594.058 427.908 594.551C427.429 595.978 426.944 597.659 426.516 599.521C424.887 606.592 424.189 616.288 428.774 625.158Z" fill="#163666"/>
<g style="mix-blend-mode:screen" opacity="0.5">
<path d="M473.495 631.91C447.409 604.374 453.93 590.606 453.93 590.606L466.974 591.331L467.222 592.261L470.495 591.548L470.756 591.643L495.553 680.373C496.239 682.827 496.236 685.421 495.546 687.873L480.459 741.293L490.645 685.774L474.489 633.402L473.495 631.91Z" fill="#163666"/>
</g>
<g style="mix-blend-mode:multiply" opacity="0.5">
<path d="M472.77 687.709C468.175 694.709 465.357 704.151 463.269 714.861C469.299 698.723 475.668 690.122 475.668 690.122L483.885 686.738H477.117L444.509 624.667L472.77 687.709Z" fill="#182F57"/>
</g>
<path d="M426.516 599.521C426.944 597.659 427.429 595.978 427.908 594.551C430.224 596.272 432.342 597.184 434.818 597.306C433.433 602.836 432.317 614.807 444.44 624.607C444.48 624.642 444.509 624.666 444.509 624.666L457.987 654.733V654.738L455.849 691.397L453.03 722.085L451.031 661.622L449.589 653.463C449.783 641.575 434.477 629.806 430.321 626.832C429.59 626.309 428.997 625.614 428.597 624.809C424.207 616.035 424.908 606.499 426.516 599.521Z" fill="#112441"/>
<path d="M460.537 502.326L448.161 502.943L447.212 502.989L435.576 503.574V501.661C435.958 497.253 439.21 497.064 439.21 497.064H455.372C455.402 497.073 455.423 497.073 455.452 497.081C458.138 497.552 459.663 500.275 460.247 501.603C460.251 501.615 460.26 501.628 460.264 501.64C460.449 502.052 460.537 502.326 460.537 502.326Z" fill="white"/>
<path d="M473.219 591.838C473.547 593.792 475.459 595.927 474.026 597.238C471.656 599.423 465.731 598.948 462.025 598.167C457.032 597.104 451.338 595.183 446.375 597.352C442.837 598.898 438.723 598.722 435.256 600.335C435.067 600.426 434.885 600.533 434.714 600.655C433.096 601.785 430.978 604.563 428.402 605.412C428.395 605.413 428.388 605.416 428.381 605.42C428.297 605.445 428.213 605.47 428.129 605.491C428.109 605.499 428.087 605.505 428.066 605.508C427.982 605.529 427.894 605.55 427.806 605.567C427.709 605.588 427.608 605.605 427.511 605.618C427.41 605.63 427.31 605.643 427.209 605.647C427.108 605.655 427.007 605.659 426.906 605.659C425.667 605.622 424.482 605.145 423.561 604.315C418.96 600.55 424.351 587.413 424.507 583.089C424.94 570.831 426.62 557.384 421.099 545.966C418.035 539.642 415.926 535.889 415.926 526.203C415.951 522.374 416.972 518.617 418.888 515.301C420.804 511.986 423.55 509.226 426.856 507.293L435.264 502.481L435.575 502.447C439.126 500.834 443.081 500.863 448.056 500.741C448.346 500.737 448.636 500.729 448.935 500.72C450.031 500.603 451.136 500.598 452.233 500.704L460.243 501.636L460.264 501.641L470.879 502.88C477.771 504.851 478.535 513.949 478.535 513.949V526.203C478.922 544.386 472.03 547.946 470.879 560.594C470.676 563.113 470.615 565.641 470.698 568.167C470.715 568.995 470.744 569.831 470.782 570.671C471.212 577.766 472.026 584.832 473.219 591.838Z" fill="#D1E6F7"/>
<g style="mix-blend-mode:multiply" opacity="0.5">
<path d="M470.879 560.594C470.676 563.112 470.615 565.639 470.697 568.163C469.13 562.459 467.233 556.192 468.355 550.231C469.159 545.953 470.654 542.768 468.482 538.671C466.25 534.463 463.584 531.483 462.833 526.54C462.005 521.086 461.709 517.06 463.932 511.98L478.535 518.891V526.203C478.922 544.386 472.03 547.945 470.879 560.594Z" fill="#D1E6F7"/>
</g>
<path d="M464.613 486.953C464.341 487.046 464.05 487.068 463.767 487.017C463.484 486.967 463.218 486.845 462.995 486.664C462.76 486.469 462.571 486.224 462.441 485.947C462.312 485.67 462.246 485.368 462.247 485.062V473.822C462.309 471.384 461.781 468.968 460.709 466.778L460.709 466.777L461.959 464.667C470.913 461.857 466.378 453.026 466.378 453.026C464.429 449.129 459.457 447.537 454.683 448.491L452.301 449.21L452.296 449.211C451.143 449.411 449.975 449.514 448.804 449.517C437.66 449.068 435.35 458.038 435.35 458.038C429.198 458.904 430.882 466.476 431.899 470.413C432.274 471.812 432.773 473.175 433.39 474.485C434.634 477.166 436.412 481.705 438.261 484.651C438.387 484.844 438.509 485.033 438.635 485.214C439.113 485.997 439.748 486.672 440.501 487.197C440.597 487.262 440.7 487.316 440.807 487.361C443.215 488.374 445.728 488.34 448.153 488C448.603 487.937 449.052 487.861 449.493 487.781C455.343 486.71 456.255 479.818 456.255 479.818C456.255 476.944 457.406 475.788 458.444 475.33C458.617 475.254 458.807 475.225 458.994 475.246C459.182 475.268 459.36 475.339 459.512 475.452C459.671 475.574 459.799 475.731 459.887 475.911C459.974 476.091 460.018 476.29 460.016 476.49V485.394C455.377 488.853 455.003 492.908 455.003 492.908V495.551C455.032 495.556 455.015 495.564 455.003 495.568C454.99 495.577 454.977 495.581 455.003 495.585C466.092 497.606 466.151 485.647 466.151 485.399C466.023 485.754 465.819 486.077 465.553 486.345C465.288 486.614 464.967 486.821 464.613 486.953Z" fill="#24BF79"/>
<path opacity="0.5" d="M448.649 497.064C448.657 496.963 448.657 496.863 448.657 496.757C448.657 496.552 448.657 496.358 448.649 496.161C448.642 493.433 448.477 490.708 448.153 488C448.014 486.874 447.855 485.823 447.674 484.848C446.846 480.255 445.644 477.322 444.795 475.687C444.511 475.107 444.173 474.554 443.787 474.036C443.661 473.742 443.522 473.468 443.379 473.204C440.059 466.863 434.504 468.951 431.899 470.413C432.274 471.812 432.773 473.175 433.39 474.486C434.634 477.166 436.412 481.705 438.261 484.651C438.382 484.723 438.514 484.776 438.652 484.806L438.635 484.848V485.214C439.113 485.997 439.749 486.672 440.501 487.198L440.484 487.239L440.467 487.277V497.064H448.649Z" fill="#1D7664"/>
<g style="mix-blend-mode:multiply" opacity="0.5">
<path d="M445.394 585.152C442.188 579.727 440.421 573.573 440.262 567.273C440.063 559.538 438.415 551.728 434.748 542.563C426.494 521.934 442.223 513.878 447.212 502.99C447.249 502.906 447.287 502.826 447.325 502.742C447.615 502.093 447.859 501.424 448.056 500.741C448.107 500.578 448.149 500.409 448.191 500.246C448.208 500.187 448.224 500.124 448.237 500.065C448.384 499.502 448.49 498.929 448.556 498.351C448.613 497.924 448.644 497.495 448.649 497.065H439.21C439.21 497.065 435.958 497.254 435.576 501.662V502.448L435.265 502.481L426.856 507.293C423.55 509.226 420.805 511.986 418.888 515.301C416.972 518.617 415.951 522.374 415.926 526.203C415.926 535.889 418.035 539.642 421.099 545.966C426.62 557.384 424.94 570.831 424.507 583.089C424.351 587.413 418.96 600.549 423.561 604.315C424.482 605.145 425.667 605.622 426.906 605.659C427.007 605.659 427.108 605.655 427.209 605.647C427.31 605.643 427.41 605.63 427.511 605.618C427.608 605.605 427.709 605.588 427.806 605.567C427.894 605.55 427.982 605.53 428.066 605.508C428.088 605.505 428.109 605.499 428.129 605.492C428.213 605.47 428.297 605.445 428.381 605.42C428.388 605.416 428.395 605.413 428.402 605.412C430.978 604.563 433.096 601.785 434.714 600.655C434.886 600.533 435.067 600.426 435.256 600.335C438.723 598.722 442.837 598.898 446.375 597.352C451.338 595.183 457.032 597.104 462.025 598.167C453.93 596.23 448.71 590.747 445.394 585.152Z" fill="#D1E6F7"/>
</g>
<path d="M333.385 709.948C333.193 710.05 332.975 710.094 332.758 710.074C332.426 710.043 331.913 709.992 331.586 709.949C322.551 708.755 315.562 703.048 311.12 695.342C308.523 690.835 308.18 686.044 308.973 680.999C309.712 676.299 311.69 671.68 311.061 666.853C310.599 663.311 308.818 660.062 308.248 656.543L308.223 656.388C308.223 656.388 327.604 661.03 337.136 678.267C340.27 683.93 341.51 690.446 340.675 696.864C340.022 701.854 338.166 707.416 333.385 709.948Z" fill="#163666"/>
<path d="M338.018 811.59H335.553C335.655 809.038 335.497 806.483 335.082 803.963C334.857 802.444 334.27 801.002 333.368 799.759C332.467 798.515 331.279 797.508 329.904 796.823C327.458 795.564 324.943 794.445 322.37 793.469C317.486 791.746 318.066 784.42 313.182 780.835C308.237 777.203 307.912 774.723 308.538 773.262C308.757 772.754 309.155 772.344 309.656 772.11C310.158 771.876 310.728 771.835 311.258 771.995C325.206 776.137 331.249 786.321 333.807 793.145C335.878 797.727 338.281 804.636 338.018 811.59Z" fill="#163666"/>
<path d="M362.569 745.229C362.569 745.229 379.511 731.446 396.164 735.466C402.552 737.008 410.253 742.756 410.302 749.891C410.35 756.984 403.468 755.678 398.838 753.692C393.013 751.194 388.293 746.768 382.104 745.077C379.141 744.301 376.084 743.941 373.022 744.009C370.654 744.04 364.448 743.7 362.569 745.229Z" fill="#163666"/>
<path d="M411.955 710.484C411.955 726.82 399.081 729.37 390.341 729.903C386.032 730.156 381.887 731.645 378.402 734.192C377.861 734.578 377.32 734.972 376.772 735.366C373.062 738.056 369.276 740.745 365.59 743.558C365.111 743.905 364.686 744.268 364.268 744.639C363.828 744.991 363.409 745.371 363.016 745.775L361.857 747.004C361.479 747.421 361.154 747.893 360.799 748.333L360.281 749.005C360.111 749.229 359.972 749.477 359.81 749.709L358.883 751.13L358.063 752.614C357.785 753.101 357.522 753.603 357.291 754.121C355.403 758.132 353.942 762.331 352.932 766.647C351.413 773.191 350.411 779.844 349.934 786.545C349.841 787.759 349.756 788.941 349.687 790.093C349.277 797.024 349.308 802.827 349.393 806.876C349.439 808.917 349.509 810.509 349.563 811.59H347.832C347.786 810.501 347.724 808.909 347.693 806.907C347.631 802.827 347.631 796.985 348.087 789.992C348.486 783.279 349.351 776.602 350.676 770.009C350.931 768.78 351.209 767.544 351.518 766.3C352.575 761.889 354.096 757.602 356.054 753.511C356.294 752.979 356.563 752.46 356.858 751.957L357.723 750.427L358.689 748.951C358.859 748.704 359.014 748.457 359.184 748.217L359.732 747.514C360.111 747.058 360.451 746.571 360.853 746.131L362.081 744.833C362.507 744.411 362.953 744.011 363.418 743.635C363.874 743.241 364.338 742.854 364.802 742.522C368.526 739.709 372.344 737.036 376.061 734.377C379.793 731.719 383.425 729.076 386.825 726.372C390.107 723.8 393.227 721.029 396.168 718.072C398.797 715.431 401.179 712.555 403.285 709.479C407.697 702.865 409.559 695.647 411.816 688.121L411.955 710.484Z" fill="#163666"/>
<path d="M356.754 780.978C356.754 780.978 350.509 764.18 363.215 755.782C363.215 755.782 368.168 751.69 377.213 749.536C377.213 749.536 385.397 775.164 356.754 780.978Z" fill="#163666"/>
<path d="M358.349 776.987C358.349 776.987 358.187 777.551 357.947 778.54C357.831 779.027 357.669 779.622 357.522 780.317C357.368 781.005 357.198 781.786 357.005 782.635C356.811 783.486 356.649 784.413 356.448 785.386C356.263 786.368 356.031 787.396 355.868 788.47C355.683 789.544 355.498 790.657 355.304 791.777C355.104 792.905 354.964 794.057 354.802 795.208C354.648 796.352 354.486 797.503 354.331 798.631C354.176 799.768 354.099 800.888 353.975 801.962C353.96 802.078 353.952 802.194 353.945 802.31C353.844 803.268 353.759 804.195 353.666 805.084C353.62 805.478 353.589 805.864 353.558 806.243C353.52 806.807 353.489 807.356 353.458 807.873C353.365 809.357 353.288 810.625 353.234 811.59H350.699C350.807 810.594 350.954 809.249 351.124 807.657C351.217 806.776 351.302 805.833 351.472 804.836C351.618 803.84 351.773 802.789 351.943 801.699C352.113 800.617 352.252 799.489 352.461 798.361C352.67 797.225 352.886 796.074 353.102 794.922C353.319 793.771 353.512 792.62 353.774 791.499C354.022 790.371 354.269 789.266 354.501 788.191C354.725 787.118 355.003 786.097 355.235 785.124C355.482 784.142 355.699 783.223 355.93 782.373C356.162 781.531 356.379 780.758 356.564 780.07C356.75 779.382 356.943 778.787 357.082 778.293C357.375 777.304 357.561 776.755 357.561 776.755L358.349 776.987Z" fill="#163666"/>
<path d="M352.326 806.81C352.326 806.81 354.797 795.449 363.996 792.836C364.195 792.779 364.405 792.777 364.606 792.827C364.806 792.878 364.989 792.981 365.137 793.126C365.285 793.27 365.392 793.451 365.447 793.65C365.503 793.849 365.504 794.059 365.452 794.259C364.722 797.061 362.053 802.588 352.326 806.81Z" fill="#163666"/>
<path d="M396.453 679.474C396.453 679.474 344.865 684.767 355.204 724.563C355.809 726.874 355.72 729.312 354.949 731.573C352.291 739.385 351.039 748.264 350.83 749.855C351.974 740.227 346.217 715.932 344.919 710.646C344.85 710.377 344.677 710.146 344.438 710.004C344.199 709.862 343.913 709.821 343.644 709.889L343.613 709.897C343.47 709.935 343.337 710.001 343.22 710.091C343.103 710.181 343.006 710.294 342.933 710.422C342.86 710.552 342.815 710.695 342.801 710.842C342.786 710.99 342.802 711.139 342.848 711.28C345.104 718.567 350.042 747.135 347.059 764.468C345.089 775.959 345.058 795.656 345.313 808.801C345.336 809.767 345.359 810.702 345.375 811.59H349.934V810.408C349.748 801.576 349.764 793.655 349.934 786.545C350.081 780.449 350.336 774.954 350.676 770.009C352.067 749.608 354.841 738.542 356.834 732.971C357.14 732.116 357.708 731.379 358.458 730.867C359.207 730.355 360.1 730.093 361.008 730.119C371.517 730.413 398.069 726.534 396.453 679.474ZM350.799 750.111C350.807 750.072 350.807 750.033 350.815 749.995C350.807 750.072 350.799 750.111 350.799 750.111Z" fill="#163666"/>
<path d="M338.162 724.555C338.162 724.555 348.915 733.812 348.383 750.292C348.452 748.153 345.921 744.608 344.752 743.011C336.891 732.271 326.17 734.411 314.764 736.914L338.162 724.555Z" fill="#163666"/>
<path d="M329.696 773.762C329.675 773.605 329.69 773.446 329.74 773.296C329.79 773.146 329.874 773.01 329.985 772.897C330.096 772.784 330.231 772.698 330.38 772.646C330.529 772.593 330.688 772.576 330.846 772.594C334.469 773.021 344.642 775.541 347.924 790.31C347.924 790.31 332.461 794.452 329.696 773.762Z" fill="#163666"/>
<path d="M336.045 755.215C336.045 755.215 347.243 759.809 347.243 770.72C347.243 770.72 338.629 773.305 336.045 755.215Z" fill="#163666"/>
<path d="M297.962 742.932C297.962 742.932 327.384 736.736 331.557 762.17C331.557 762.17 321.043 767.178 310.883 762.17C300.804 757.203 297.962 742.932 297.962 742.932Z" fill="#163666"/>
<path d="M325.427 756.923C325.427 756.923 325.523 756.972 325.704 757.063C325.892 757.157 326.143 757.303 326.471 757.489C327.352 758.021 328.204 758.6 329.024 759.221C329.52 759.621 330.078 760.034 330.62 760.523C331.176 760.997 331.746 761.516 332.31 762.079C332.898 762.621 333.438 763.244 334.018 763.849C334.578 764.472 335.117 765.131 335.666 765.783C336.176 766.464 336.706 767.133 337.192 767.816C337.659 768.511 338.132 769.19 338.566 769.861C338.977 770.547 339.374 771.21 339.751 771.839C340.119 772.472 340.422 773.095 340.725 773.659C341.023 774.226 341.304 774.743 341.507 775.221C341.722 775.694 341.91 776.107 342.065 776.446C342.374 777.127 342.551 777.516 342.551 777.516L340.394 778.357C340.394 778.357 340.245 777.976 339.985 777.309C339.855 776.975 339.697 776.569 339.516 776.104C339.347 775.632 339.105 775.124 338.851 774.566C338.59 774.01 338.333 773.393 338.014 772.766C337.686 772.142 337.34 771.485 336.983 770.804C336.591 770.143 336.185 769.46 335.773 768.766C335.342 768.083 334.869 767.414 334.414 766.729C333.921 766.074 333.437 765.408 332.931 764.778C332.406 764.165 331.918 763.533 331.381 762.98C330.866 762.406 330.344 761.875 329.833 761.387C329.335 760.883 328.821 760.458 328.363 760.044C327.607 759.401 326.818 758.799 325.999 758.239C325.701 758.047 325.463 757.89 325.306 757.801C325.141 757.706 325.053 757.655 325.053 757.655L325.427 756.923Z" fill="#163666"/>
<path d="M277 731.733C277 731.733 299.397 694.979 338.161 724.555C338.161 724.555 311.17 750.398 277 731.733Z" fill="#163666"/>
<path d="M346.395 811.59H339.641C344.888 756.424 331.025 704.001 331.025 704.001L332.501 702.965C340.406 734.586 342.631 773.324 343.242 795.548C343.316 798.179 343.585 800.8 344.046 803.391C344.361 805.218 344.785 807.024 345.313 808.801C345.595 809.759 345.957 810.692 346.395 811.59Z" fill="#163666"/>
<path d="M355.957 772.575C352.372 773.242 348.857 774.175 345.266 774.654C348.513 772.883 351.99 771.115 355.428 769.524C355.228 768.48 355.005 767.424 354.761 766.355C349.84 768.287 344.939 770.226 339.799 771.449C344.402 768.09 348.843 764.568 353.443 761.26C352.558 758.176 351.501 755.032 350.279 751.875C348.874 752.154 347.45 752.332 346.02 752.409C347.243 751.656 348.42 750.904 349.596 750.151C349.253 749.303 348.897 748.455 348.531 747.607C345.786 748.956 342.927 750.059 339.987 750.901C342.512 748.698 344.738 746.173 346.607 743.391C343.996 737.941 340.95 732.71 337.5 727.748L337.5 727.337C337.452 727.405 337.406 727.475 337.359 727.543C337.311 727.475 337.265 727.405 337.217 727.337L337.218 727.747C335.576 730.1 334.026 732.522 332.578 734.994C333.689 737.232 334.827 739.479 336.028 741.664C334.513 740.149 332.998 738.535 331.41 737.039C329.883 739.774 328.476 742.557 327.194 745.355C328.545 747.789 329.916 750.215 331.693 752.409C329.687 751.021 327.934 749.38 326.02 748.004C325.655 748.856 325.3 749.708 324.957 750.561C327.988 753.941 331.509 756.923 334.332 760.516C330.963 758.066 327.347 755.989 323.683 753.882C322.002 758.445 320.645 763.121 319.621 767.875C322.621 770.97 325.939 773.747 328.865 776.916C325.452 775.454 322.179 773.712 318.806 772.293C318.614 773.519 318.452 774.726 318.328 775.905C323.756 779.194 329.291 782.147 334.332 785.965C328.887 784.389 323.442 782.813 317.997 781.237C317.938 785.245 318.354 788.828 319.275 791.8C323.674 793.973 327.741 796.847 332.258 798.596C328.424 797.974 324.76 796.726 321.049 795.791C321.327 796.241 321.633 796.673 321.966 797.084C326.99 803.261 332.721 804.449 335.564 804.626V811.591H339.472V804.603C342.409 804.356 347.908 803.038 352.751 797.084C354.491 794.944 355.64 791.972 356.236 788.392C352.08 789.831 347.909 791.207 343.569 791.621C348.074 788.97 352.301 785.949 356.705 783.274C356.773 779.693 356.522 776.112 355.957 772.575Z" fill="#24BF79"/>
<path d="M332.055 765.944C332.055 765.944 332.465 772.242 331.781 776.35C331.096 780.457 330.343 781.415 330.891 786.823C331.438 792.232 333.629 804.759 333.766 805.238C333.903 805.718 334.861 784.907 334.861 784.907C334.861 784.907 334.177 783.469 334.177 780.799C334.177 778.129 334.382 770.325 332.055 765.944Z" fill="#00BF96"/>
<path d="M331.996 811.591H327.23C326.265 810.364 325.639 808.905 325.415 807.361C325.301 806.276 325.023 805.214 324.592 804.212L323.497 801.119L323.429 800.925C322.06 797.229 322.266 794.765 322.266 794.765C322.33 788.916 320.946 786.99 320.777 786.777C322.677 788.979 323.905 791.68 324.318 794.559C324.537 796.05 325.825 798.871 325.825 798.871L327.034 801.362L331.996 811.591Z" fill="#163666"/>
<path d="M328.754 811.591H325.776C325.112 810.584 324.883 809.66 324.936 807.771C325.003 805.307 324.114 805.513 323.497 804.76C322.882 804.006 322.608 804.554 322.334 802.706C322.06 800.857 319.733 799.077 319.733 799.077C321.161 799.374 322.47 800.084 323.497 801.119C326.64 804.113 328.214 809.417 328.754 811.591Z" fill="#112441"/>
<path d="M326.912 794.201C326.912 794.201 325.883 776.064 325.51 772.599C325.51 772.599 329.212 783.705 329.088 793.998L326.912 794.201Z" fill="#00BF96"/>
<path d="M328.769 799.112C328.769 799.112 327.844 794.593 328.769 787.2L328.289 782.853C328.289 782.853 328.358 777.924 328.632 773.337C328.906 768.751 328.906 767.587 328.7 765.602C328.7 765.602 330.685 768.682 330.959 775.254C331.233 781.826 331.028 782.374 331.781 785.386C332.534 788.398 333.766 793.327 333.766 798.187L334.588 802.569C334.588 802.569 336.094 807.908 335.341 811.536L328.769 799.112Z" fill="#196E57"/>
<path d="M335.968 811.591H330.344C329.003 809.176 327.145 805.26 327.057 801.952C327.051 801.75 327.044 801.554 327.034 801.362C326.861 798.12 326.025 796.072 325.5 795.086C325.023 794.187 324.699 793.214 324.541 792.208C324.38 791.197 324.351 790.169 324.456 789.151C324.765 786.379 324.456 780.525 323.635 778.78C323.025 777.487 325.066 780.137 326.331 784.812C326.343 784.855 326.355 784.897 326.364 784.94C326.863 786.817 327.153 788.744 327.228 790.684C327.259 791.602 327.543 792.493 328.049 793.259C328.137 793.385 328.242 793.562 328.358 793.773C328.405 793.861 328.455 793.954 328.508 794.053C329.245 795.476 330.35 798.054 331.031 799.685C331.41 800.588 331.848 801.467 332.342 802.313C332.54 802.653 332.769 803.057 333.013 803.509C333.225 803.897 333.446 804.322 333.672 804.775C333.716 804.864 333.761 804.955 333.805 805.049C334.323 806.092 334.779 807.166 335.17 808.263C335.312 808.665 335.44 809.069 335.551 809.469C335.753 810.162 335.892 810.873 335.968 811.591Z" fill="#079488"/>
<path d="M354.782 802.568C354.782 802.568 350.744 801.679 349.923 803.321C349.099 804.965 348.552 803.732 347.731 807.361C347.127 810.028 347.152 810.549 346.337 811.591H342.736L346.568 802.568C346.902 802.159 347.288 801.796 347.717 801.488C347.947 801.323 348.193 801.181 348.451 801.063C349.076 800.784 349.784 800.758 350.427 800.991L354.782 802.568Z" fill="#112441"/>
<path d="M349.579 793.739C349.649 795.587 349.649 798.462 348.622 799.763C348.245 800.295 347.94 800.875 347.717 801.488C347.341 802.467 347.026 803.468 346.774 804.486C346.308 806.92 345.599 809.3 344.656 811.591H341.227L343.419 802.158C344.488 801.373 345.377 800.368 346.027 799.211C346.676 798.053 347.07 796.771 347.183 795.449C347.857 789.114 350.921 786.693 351.016 786.62C349.923 788.332 349.511 791.889 349.579 793.739Z" fill="#163666"/>
<path d="M338.49 788.568C338.921 793.847 337.783 806.452 337.281 811.591H333.013V797.4C333.029 795.728 333.132 794.088 333.293 792.509C333.591 789.741 334.039 786.99 334.635 784.27C335.104 782.055 335.561 780.215 335.821 778.916C336.504 775.493 335.477 774.808 335.889 769.538C336.29 764.377 337.941 761.578 338.009 761.463C337.972 761.572 337.071 764.208 338.011 767.963C338.97 771.797 338.108 773.787 338.626 776.726C339.094 779.376 338.086 781.566 338.407 787.345C338.428 787.736 338.456 788.143 338.49 788.568Z" fill="#196E57"/>
<path d="M342.186 793.327C340.886 795.79 341.159 796.817 341.159 796.817C341.19 797.34 341.216 797.856 341.231 798.368C341.254 799.075 341.264 799.772 341.264 800.453C341.252 804.185 340.939 807.909 340.33 811.591H334.741C334.798 811.302 334.848 811.003 334.895 810.692C335.007 809.95 335.096 809.145 335.17 808.264C335.227 807.6 335.273 806.891 335.314 806.136C335.432 804.016 335.508 801.515 335.615 798.53C335.883 791.034 337.197 791.847 338.406 787.345C338.436 787.242 338.463 787.138 338.49 787.029C339.231 784.118 339.645 781.133 339.723 778.13C339.173 770.393 341.639 765.602 341.639 765.602C341.365 767.93 341.227 769.093 341.845 774.158C342.46 779.225 342.322 781.415 342.322 781.415L342.095 784.598C342.018 785.721 342.114 786.85 342.382 787.943C342.394 787.99 342.406 788.035 342.415 788.079C342.92 790.127 343.207 791.389 342.186 793.327Z" fill="#163666"/>
<path d="M345.13 782.031C345.13 782.031 342.734 784.838 341.912 790.657L340.475 797.64L341.159 800.583L344.035 797.023C344.035 797.023 343.624 785.18 345.13 782.031Z" fill="#112441"/>
<path d="M347.5 787.134C347.539 789.667 347.418 791.811 346.704 794.218C346.156 796.064 345.129 795.724 344.65 801.063C344.65 801.068 344.649 801.072 344.648 801.077C344.17 806.404 343.349 807.567 343.349 807.567L341.631 811.591H339.014L339.791 806.54C340.28 803.455 340.478 801.343 340.911 799.52C341.006 799.124 341.109 798.743 341.231 798.368C341.589 797.264 342.095 796.212 342.734 795.243C343.217 794.549 343.636 793.813 343.986 793.043C344.475 791.82 344.244 790.947 344.856 786.891C345.25 784.29 347.865 778.716 349.379 776.521C348.764 779.089 347.461 784.521 347.5 787.134Z" fill="#079488"/>
<path d="M333.398 704.467C333.398 704.467 343.518 702.335 344.954 711.084C344.954 711.084 341.337 712.807 337.842 711.084C334.375 709.376 333.398 704.467 333.398 704.467Z" fill="#163666"/>
<path d="M344.299 698.879C344.299 698.879 350.814 705.888 344.562 711.198C344.562 711.198 341.472 709.151 341.171 705.559C340.872 701.995 344.299 698.879 344.299 698.879Z" fill="#163666"/>
<path d="M648.758 478.328H682.302C682.312 470.408 680.757 462.565 677.726 455.248C674.696 447.932 670.249 441.286 664.642 435.693L640.922 459.413C643.41 461.894 645.383 464.842 646.728 468.088C648.072 471.335 648.762 474.814 648.758 478.328Z" fill="#163666"/>
<path d="M622.007 505.078V538.622C629.927 538.632 637.77 537.077 645.087 534.047C652.403 531.016 659.049 526.57 664.642 520.963L640.923 497.243C638.441 499.731 635.493 501.704 632.247 503.048C629.001 504.393 625.521 505.083 622.007 505.078Z" fill="#2A5B9B"/>
<path d="M682.302 478.328H648.758C648.762 481.841 648.072 485.321 646.728 488.567C645.383 491.813 643.41 494.762 640.923 497.243L664.642 520.962C670.249 515.37 674.696 508.724 677.726 501.407C680.757 494.091 682.312 486.247 682.302 478.328Z" fill="#204B84"/>
<path d="M640.922 459.413L664.642 435.693C659.049 430.086 652.403 425.64 645.087 422.609C637.77 419.578 629.927 418.023 622.007 418.033V451.578C625.521 451.573 629.001 452.263 632.247 453.608C635.493 454.952 638.441 456.925 640.922 459.413Z" fill="#14315B"/>
<path d="M603.092 497.243L579.373 520.963C584.965 526.57 591.611 531.016 598.928 534.047C606.244 537.077 614.088 538.632 622.007 538.622V505.078C618.494 505.083 615.014 504.393 611.768 503.048C608.521 501.704 605.573 499.731 603.092 497.243Z" fill="#167248"/>
<path d="M622.007 451.578V418.033C614.088 418.023 606.244 419.578 598.928 422.609C591.611 425.64 584.965 430.086 579.373 435.693L603.092 459.413C605.573 456.925 608.522 454.952 611.768 453.608C615.014 452.263 618.494 451.573 622.007 451.578Z" fill="#24BF79"/>
<path d="M603.092 459.413L579.373 435.693C573.766 441.286 569.319 447.932 566.288 455.248C563.257 462.565 561.703 470.408 561.713 478.328H595.257C595.252 474.814 595.942 471.335 597.287 468.088C598.631 464.842 600.604 461.894 603.092 459.413Z" fill="#239D66"/>
<path d="M595.257 478.328H561.713C561.703 486.247 563.258 494.091 566.288 501.407C569.319 508.724 573.766 515.37 579.373 520.962L603.092 497.243C600.604 494.762 598.631 491.813 597.287 488.567C595.942 485.321 595.252 481.841 595.257 478.328Z" fill="#1C8656"/>
<path d="M724.55 427.914H697.375V433.469H724.55V427.914Z" fill="#163666"/>
<path d="M718.605 437.255H697.375V442.81H718.605V437.255Z" fill="#163666"/>
<path d="M724.55 456.558H697.375V462.113H724.55V456.558Z" fill="#163666"/>
<path d="M718.605 465.899H697.375V471.454H718.605V465.899Z" fill="#163666"/>
<path d="M724.55 485.201H697.375V490.756H724.55V485.201Z" fill="#163666"/>
<path d="M718.605 494.543H697.375V500.097H718.605V494.543Z" fill="#163666"/>
<path d="M724.55 513.845H697.375V519.4H724.55V513.845Z" fill="#163666"/>
<path d="M718.605 523.186H697.375V528.741H718.605V523.186Z" fill="#163666"/>
<path d="M733.148 404.107C734.745 404.109 736.276 404.744 737.405 405.873C738.534 407.002 739.169 408.533 739.17 410.13V547.702C739.169 549.299 738.534 550.83 737.405 551.959C736.276 553.088 734.745 553.723 733.148 553.725H553.115C551.518 553.723 549.987 553.088 548.858 551.959C547.729 550.83 547.094 549.299 547.093 547.702V410.13C547.094 408.533 547.729 407.002 548.858 405.873C549.987 404.744 551.518 404.109 553.115 404.107H733.148ZM733.148 402.062H553.115C552.055 402.062 551.006 402.271 550.027 402.676C549.049 403.082 548.159 403.676 547.41 404.425C546.661 405.174 546.067 406.063 545.661 407.042C545.256 408.021 545.047 409.07 545.047 410.13V547.702C545.047 549.842 545.897 551.894 547.41 553.407C548.923 554.92 550.975 555.77 553.115 555.77H733.148C735.288 555.77 737.34 554.92 738.853 553.407C740.366 551.894 741.216 549.842 741.216 547.702V410.13C741.216 409.07 741.007 408.021 740.602 407.042C740.196 406.063 739.602 405.174 738.853 404.425C738.104 403.676 737.214 403.082 736.236 402.676C735.257 402.271 734.208 402.062 733.148 402.062Z" fill="#163666"/>
<path d="M367.884 480.583C369.075 480.584 370.216 481.058 371.058 481.9C371.9 482.742 372.374 483.883 372.375 485.074V609.604C372.374 610.795 371.9 611.936 371.058 612.778C370.216 613.62 369.075 614.094 367.884 614.095H222.022C220.831 614.094 219.689 613.62 218.848 612.778C218.006 611.936 217.532 610.795 217.531 609.604V485.074C217.532 483.883 218.006 482.742 218.848 481.9C219.689 481.058 220.831 480.584 222.022 480.583H367.884ZM367.884 478.538H222.022C221.163 478.538 220.313 478.707 219.52 479.035C218.727 479.364 218.007 479.845 217.4 480.452C216.793 481.059 216.311 481.78 215.983 482.573C215.654 483.366 215.485 484.216 215.485 485.074V609.604C215.485 610.462 215.654 611.312 215.983 612.105C216.311 612.898 216.793 613.619 217.4 614.226C218.007 614.833 218.727 615.314 219.52 615.643C220.313 615.971 221.163 616.14 222.022 616.14H367.884C368.743 616.14 369.592 615.971 370.385 615.643C371.179 615.314 371.899 614.833 372.506 614.226C373.113 613.619 373.594 612.898 373.923 612.105C374.251 611.312 374.42 610.462 374.42 609.604V485.074C374.42 484.216 374.251 483.366 373.923 482.573C373.594 481.78 373.113 481.059 372.506 480.452C371.899 479.845 371.179 479.364 370.385 479.035C369.592 478.707 368.743 478.538 367.884 478.538Z" fill="#163666"/>
<path opacity="0.25" d="M519.574 422.489H483.772V425.353H519.574V422.489Z" fill="#24BF79"/>
<path opacity="0.25" d="M505.253 428.217H483.772V431.081H505.253V428.217Z" fill="#24BF79"/>
<path opacity="0.25" d="M509.55 433.945H483.772V436.809H509.55V433.945Z" fill="#24BF79"/>
<path opacity="0.25" d="M494.513 439.673H483.772V442.537H494.513V439.673Z" fill="#24BF79"/>
<path d="M479.521 429.649H478V420.34C478.001 419.19 478.459 418.086 479.273 417.273C480.086 416.459 481.19 416.001 482.34 416H489.501V417.521H482.34C481.593 417.522 480.876 417.819 480.348 418.348C479.819 418.876 479.522 419.593 479.521 420.34V429.649Z" fill="#24BF79"/>
<path d="M521.722 448.31H512.414V446.789H521.722C522.47 446.789 523.186 446.491 523.715 445.963C524.244 445.434 524.541 444.718 524.542 443.97V436.809H526.063V443.97C526.061 445.121 525.604 446.224 524.79 447.038C523.976 447.851 522.873 448.309 521.722 448.31Z" fill="#24BF79"/>
<path d="M524.248 752.88L524.259 745.888C524.258 745.185 524.397 744.488 524.667 743.839C524.936 743.19 525.332 742.6 525.83 742.104C526.329 741.608 526.921 741.216 527.571 740.949C528.222 740.683 528.919 740.548 529.622 740.552L541.789 740.556C542.492 740.557 543.189 740.696 543.839 740.966C544.488 741.236 545.078 741.632 545.575 742.13C546.072 742.628 546.466 743.219 546.734 743.87C547.002 744.52 547.14 745.217 547.139 745.921L547.129 752.912L544.223 752.908L544.233 745.916C544.234 745.594 544.171 745.275 544.048 744.978C543.925 744.68 543.745 744.41 543.518 744.182C543.291 743.954 543.021 743.773 542.723 743.649C542.426 743.526 542.107 743.462 541.785 743.462L529.619 743.444C529.297 743.444 528.978 743.506 528.681 743.629C528.383 743.752 528.113 743.932 527.885 744.159C527.657 744.387 527.476 744.657 527.352 744.954C527.229 745.251 527.165 745.569 527.164 745.891L527.154 752.883L524.248 752.88Z" fill="#163666"/>
<path d="M495.289 773.085L495.262 805.615C495.263 807.183 495.882 808.687 496.984 809.802C498.086 810.916 499.583 811.552 501.15 811.571L570.175 811.591C571.735 811.595 573.233 810.98 574.34 809.881C575.447 808.783 576.074 807.29 576.084 805.73L576.11 773.11L495.289 773.085Z" fill="#112441"/>
<path d="M576.125 755.55C576.13 753.985 575.517 752.481 574.419 751.366C573.322 750.251 571.828 749.614 570.263 749.594L501.238 749.573C499.676 749.569 498.175 750.183 497.063 751.281C495.951 752.379 495.319 753.872 495.304 755.435L495.289 773.085L576.11 773.109L576.125 755.55Z" fill="#163666"/>
<g style="mix-blend-mode:multiply">
<path d="M540.574 774.486C540.573 775.649 540.109 776.765 539.285 777.587C538.461 778.408 537.344 778.869 536.18 778.867C535.017 778.866 533.901 778.402 533.08 777.578C532.258 776.754 531.797 775.637 531.799 774.473L531.806 769.72C531.807 768.556 532.271 767.441 533.095 766.619C533.919 765.797 535.036 765.336 536.2 765.338C537.363 765.34 538.479 765.804 539.3 766.628C540.122 767.452 540.583 768.569 540.581 769.732L540.574 774.486Z" fill="#112441"/>
</g>
<path d="M539.582 774.485C539.58 775.649 539.116 776.764 538.292 777.586C537.468 778.408 536.351 778.868 535.188 778.867C534.024 778.865 532.909 778.401 532.087 777.577C531.265 776.753 530.804 775.636 530.806 774.473L530.813 769.719C530.814 769.143 530.928 768.573 531.149 768.041C531.371 767.509 531.694 767.025 532.102 766.619C532.511 766.212 532.995 765.889 533.527 765.669C534.06 765.45 534.631 765.337 535.207 765.338C535.783 765.339 536.354 765.453 536.886 765.674C537.418 765.896 537.901 766.219 538.308 766.627C538.715 767.035 539.037 767.52 539.257 768.052C539.477 768.585 539.589 769.156 539.588 769.732L539.582 774.485Z" fill="#163666"/>
<path d="M536.844 770.668C536.843 770.993 536.747 771.311 536.565 771.581C536.384 771.852 536.127 772.062 535.826 772.186C535.526 772.31 535.195 772.342 534.876 772.278C534.557 772.214 534.264 772.057 534.035 771.827C533.805 771.597 533.649 771.303 533.586 770.984C533.523 770.665 533.556 770.335 533.681 770.034C533.806 769.734 534.017 769.477 534.288 769.297C534.558 769.117 534.876 769.021 535.202 769.021C535.418 769.022 535.631 769.064 535.831 769.147C536.03 769.23 536.211 769.352 536.364 769.505C536.516 769.658 536.637 769.839 536.72 770.039C536.802 770.238 536.844 770.452 536.844 770.668Z" fill="white"/>
<path d="M535.872 771.692L534.523 771.69L534.519 774.511C534.519 774.599 534.536 774.687 534.57 774.769C534.604 774.851 534.653 774.925 534.716 774.988C534.779 775.051 534.853 775.1 534.935 775.135C535.016 775.169 535.104 775.186 535.193 775.186C535.281 775.187 535.369 775.169 535.451 775.135C535.533 775.102 535.607 775.052 535.67 774.99C535.733 774.927 535.783 774.853 535.817 774.771C535.851 774.689 535.868 774.602 535.868 774.513L535.872 771.692Z" fill="white"/>
<path d="M643.131 588.495C647.403 588.495 651.579 589.762 655.131 592.135C658.683 594.509 661.452 597.882 663.086 601.829C664.721 605.775 665.149 610.118 664.316 614.308C663.482 618.498 661.425 622.346 658.404 625.367C655.384 628.388 651.535 630.445 647.345 631.278C643.155 632.112 638.813 631.684 634.866 630.049C630.919 628.414 627.546 625.646 625.172 622.094C622.799 618.542 621.532 614.366 621.532 610.094C621.532 607.258 622.091 604.449 623.176 601.829C624.262 599.208 625.853 596.827 627.858 594.821C629.864 592.816 632.245 591.225 634.866 590.139C637.486 589.054 640.295 588.495 643.131 588.495ZM643.131 584.455C638.061 584.455 633.103 585.959 628.887 588.776C624.671 591.593 621.384 595.598 619.444 600.282C617.503 604.967 616.996 610.123 617.985 615.096C618.974 620.07 621.416 624.638 625.002 628.224C628.587 631.809 633.156 634.251 638.129 635.241C643.103 636.23 648.258 635.722 652.943 633.782C657.628 631.841 661.632 628.555 664.45 624.339C667.267 620.122 668.771 615.165 668.771 610.094C668.763 603.297 666.059 596.78 661.253 591.973C656.446 587.167 649.929 584.463 643.131 584.455Z" fill="#196E57"/>
<path d="M432.403 473.99C432.481 474.169 432.609 474.321 432.772 474.428C432.935 474.534 433.126 474.591 433.321 474.591H471.51V470.906H432.321C432.183 470.906 432.048 470.94 431.927 471.005C431.806 471.071 431.703 471.165 431.627 471.281C431.552 471.396 431.507 471.528 431.495 471.665C431.484 471.802 431.506 471.94 431.562 472.066L432.403 473.99Z" fill="white"/>
<path d="M418.238 408.949C418.238 408.949 416.53 407.952 414.803 409.966L413.325 411.281C413.277 411.324 413.217 411.351 413.153 411.357C413.089 411.364 413.025 411.351 412.969 411.319C412.913 411.287 412.869 411.239 412.842 411.181C412.815 411.122 412.807 411.057 412.819 410.994L414.637 401.519C414.707 401.157 414.651 400.783 414.478 400.458C414.305 400.133 414.025 399.878 413.686 399.734C413.347 399.591 412.969 399.569 412.615 399.671C412.262 399.773 411.954 399.994 411.744 400.296L411.827 399.863C411.907 399.443 411.818 399.01 411.579 398.656C411.339 398.303 410.969 398.059 410.55 397.979C410.131 397.899 409.697 397.988 409.344 398.227C408.991 398.467 408.747 398.837 408.667 399.256L407.24 406.689C407.295 406.346 407.212 405.996 407.01 405.713C406.808 405.431 406.503 405.239 406.161 405.18C405.819 405.121 405.467 405.198 405.182 405.396C404.896 405.594 404.7 405.896 404.636 406.238C404.636 406.238 403.1 404.593 402.168 406.537C402.168 406.537 400.012 411.373 401.248 415.408C401.842 417.345 402.446 419.97 402.413 421.223L394.514 458.945L408.678 461.129V422.118C408.678 422.118 411.915 417.455 413.795 415.805C413.795 415.805 418.762 409.348 418.238 408.949Z" fill="#F5D3AF"/>
<path d="M393.955 453.667L391.673 462.799L409.556 464.321L409.937 455.188L393.955 453.667Z" fill="white"/>
<path d="M733.148 574.523C734.745 574.525 736.276 575.16 737.405 576.289C738.534 577.418 739.169 578.948 739.17 580.545V685.975C739.169 687.572 738.534 689.103 737.405 690.232C736.276 691.361 734.745 691.996 733.148 691.997H553.115C551.518 691.996 549.987 691.361 548.858 690.232C547.729 689.103 547.094 687.572 547.093 685.975V580.545C547.094 578.948 547.729 577.418 548.858 576.289C549.987 575.16 551.518 574.525 553.115 574.523H733.148ZM733.148 572.478H553.115C550.975 572.478 548.923 573.328 547.41 574.84C545.897 576.353 545.047 578.405 545.047 580.545V685.975C545.047 687.035 545.256 688.084 545.661 689.063C546.067 690.041 546.661 690.931 547.41 691.68C548.159 692.429 549.049 693.023 550.027 693.429C551.006 693.834 552.055 694.043 553.115 694.043H733.148C734.208 694.043 735.257 693.834 736.236 693.429C737.214 693.023 738.104 692.429 738.853 691.68C739.602 690.931 740.196 690.041 740.602 689.063C741.007 688.084 741.216 687.035 741.216 685.975V580.545C741.216 579.486 741.007 578.437 740.602 577.458C740.196 576.479 739.602 575.59 738.853 574.84C738.104 574.091 737.214 573.497 736.236 573.092C735.257 572.686 734.208 572.478 733.148 572.478Z" fill="#163666"/>
<path d="M658.404 625.367C666.839 616.932 666.839 603.256 658.404 594.821C649.969 586.386 636.293 586.386 627.858 594.821C619.423 603.256 619.423 616.932 627.858 625.367C636.293 633.802 649.969 633.802 658.404 625.367Z" fill="#112441"/>
<path d="M635.602 601.547L636.727 604.908L638.494 610.188L639.78 611.058L641.287 612.075L645.759 615.097L646.068 614.811L646.588 614.329L650.485 610.725C651.149 609.073 651.55 606.229 651.748 604.467C651.8 604.003 651.813 603.535 651.785 603.069C651.784 603.033 651.782 602.996 651.779 602.959C651.717 602.088 651.516 601.232 651.184 600.424C650.292 598.351 648.968 596.492 647.3 594.972L647.153 594.93L643.953 594.03L635.602 601.547Z" fill="#FBE1EA"/>
<path d="M638.494 608.302V621.312H648.054L646.588 614.329L645.583 609.541L643.93 609.252L638.494 608.302Z" fill="#FBE1EA"/>
<g style="mix-blend-mode:multiply">
<path d="M636.727 604.909L638.494 610.189V621.312H642.651C642.386 619.833 641.612 618.447 640.211 615.97C639.759 615.242 639.485 614.419 639.41 613.565C639.335 612.712 639.462 611.854 639.78 611.058C639.925 610.688 640.12 610.34 640.36 610.022C640.609 610.732 640.92 611.419 641.287 612.075C642.665 614.502 644.719 616.476 647.199 617.754L646.068 614.811L643.93 609.252L642.739 606.156L641.847 601.993L637.981 601.398L636.727 604.909Z" fill="#FBE1EA"/>
</g>
<g style="mix-blend-mode:screen" opacity="0.5">
<path d="M642.69 596.591C642.69 596.591 646.356 596.293 648.24 597.383C648.24 597.383 649.912 597.973 651.785 603.069C651.793 603.09 651.801 603.112 651.809 603.133L651.779 602.959L651.494 601.32C651.408 601.016 651.305 600.716 651.184 600.424C650.292 598.351 648.968 596.492 647.301 594.971L647.153 594.93L642.69 596.591Z" fill="#EED8E9"/>
</g>
<path d="M648.456 596.214C648.456 596.214 648.403 591.23 644.094 591.853C643.396 591.964 642.728 592.218 642.133 592.599C641.537 592.98 641.026 593.479 640.632 594.066C639.836 595.353 637.99 596.051 636.841 596.375C636.207 596.554 635.625 596.884 635.146 597.338C634.668 597.791 634.306 598.354 634.093 598.978C633.703 600.126 633.601 601.737 634.36 603.908C634.697 604.871 635.181 605.776 635.795 606.592L638.494 610.189C638.577 608.58 638.278 606.975 637.623 605.504C637.556 605.279 637.508 605.049 637.479 604.816C637.423 604.39 637.503 603.957 637.709 603.58C637.915 603.202 638.236 602.9 638.624 602.717C639.013 602.533 639.45 602.478 639.872 602.559C640.294 602.64 640.679 602.853 640.973 603.167C641.583 603.822 641.975 604.65 642.095 605.537C642.439 607.877 641.566 619.435 651.181 617.852C651.56 617.789 651.919 617.641 652.232 617.419C652.545 617.197 652.803 616.906 652.986 616.569C653.17 616.232 653.274 615.858 653.292 615.475C653.309 615.091 653.238 614.709 653.086 614.357L653.07 614.322C652.907 613.952 652.68 613.614 652.401 613.323C651.88 612.788 651.453 612.168 651.14 611.49C650.621 610.282 651.38 609.383 649.689 610.159C649.689 610.159 645.278 613.496 643.03 605.783L643.727 602.442C643.727 602.442 645.582 598.485 642.214 598.669C642.214 598.669 639.863 598.435 642.364 596.857C644.865 595.278 648.456 596.214 648.456 596.214Z" fill="#24BF79"/>
<path d="M650.64 650.641L651.531 652.588L651.532 652.589L651.693 652.943V652.945L653.071 655.954V655.955L654.417 658.895V658.897L654.438 658.943L655.498 661.258V661.259L656.766 664.028H665.344C663.426 657.704 660.767 648.551 660.724 648.368L657.73 636.446V636.444L657.272 634.615L657.267 634.601L657.233 634.467L657.23 634.474L656.235 636.916L652.271 646.64L651.216 649.229L650.64 650.641Z" fill="#163666"/>
<path fill-rule="evenodd" clip-rule="evenodd" d="M653.071 655.954V655.955L654.417 658.895V658.897L654.438 658.943L655.498 661.258V661.259L656.766 664.028H659.335C657.921 660.833 659.251 655.877 659.173 652.741C659.105 649.94 658.858 647.141 658.544 644.358C658.516 644.103 658.443 643.766 658.362 643.393V643.39C658.146 642.426 657.856 641.225 658.049 640.572C657.966 640.826 657.306 642.865 656.492 645.381C655.044 649.856 653.11 655.838 653.071 655.954Z" fill="#112441"/>
<path fill-rule="evenodd" clip-rule="evenodd" d="M648.847 622.784C648.766 622.741 648.723 622.722 648.723 622.722L649.679 632.898L651.215 649.229L651.531 652.588L651.532 652.589L651.615 653.478L652.444 662.291L651.548 664.028H654.818C654.988 663.363 655.226 662.413 655.498 661.259V661.258C656.558 656.761 658.149 649.186 658.362 643.393V643.388C658.418 642.165 658.385 640.939 658.263 639.72C658.142 638.624 657.965 637.535 657.733 636.458C657.732 636.453 657.731 636.449 657.73 636.444C657.593 635.814 657.441 635.212 657.276 634.633C657.273 634.621 657.27 634.611 657.267 634.601C657.255 634.559 657.242 634.516 657.23 634.474C654.811 626.203 649.702 623.23 648.847 622.784Z" fill="#163666"/>
<path d="M634.241 648.094C635.251 650.311 635.677 652.818 634.555 656.434C633.636 659.398 632.953 661.928 632.446 664.028H653.598V663.725C653.713 662.092 653.987 660.475 654.417 658.897V658.895C654.676 657.841 654.951 656.776 655.172 655.627C655.842 652.245 656.283 648.822 656.493 645.381C656.681 642.557 656.595 639.722 656.235 636.916C656.095 635.634 655.803 634.374 655.365 633.161C654.313 628.712 650.405 624.375 648.847 622.784C648.445 622.374 648.2 622.146 648.2 622.146C644.044 620.459 640.766 620.173 638.187 620.697C637.598 620.815 637.019 620.983 636.458 621.199C632.812 622.609 630.878 625.753 629.901 628.115C629.499 629.064 629.196 630.052 628.998 631.063C628.461 634.752 628.872 637.496 629.69 639.753C630.614 642.31 632.061 644.243 633.243 646.222C633.61 646.827 633.944 647.452 634.241 648.094Z" fill="white"/>
<path d="M638.548 617.869L637.92 620.555L649.084 623.443L647.882 619.957L638.548 617.869Z" fill="white"/>
<path d="M627.722 642.333C627.745 642.427 627.768 642.524 627.793 642.617C628.056 643.674 628.426 644.701 628.897 645.683L631.691 651.532L631.761 651.678L632.186 652.574L632.903 654.077C632.903 654.077 634.132 655.71 633.899 656.427L633.867 656.51L633.162 658.364L631.001 664.027H648.179C648.378 663.599 648.594 663.177 648.826 662.761C649.63 661.323 650.497 659.163 651.173 655.938L651.174 655.937C651.332 655.179 651.48 654.359 651.615 653.479C651.627 653.402 651.637 653.326 651.649 653.249C651.664 653.15 651.679 653.047 651.692 652.944V652.943C651.716 652.795 651.737 652.642 651.757 652.491C651.985 650.772 652.166 648.833 652.271 646.64C652.286 646.316 652.301 645.987 652.313 645.651V645.597C652.505 641.232 651.61 636.887 649.708 632.952C649.699 632.935 649.69 632.915 649.68 632.898C647.111 627.805 643.119 623.568 638.19 620.699L638.187 620.697C638.052 620.623 637.969 620.579 637.935 620.559L637.931 620.558C637.926 620.555 637.925 620.555 637.925 620.555L637.918 620.553C637.323 620.59 636.732 620.673 636.15 620.801C630.532 622.024 628.583 626.996 628.209 628.108C628.19 628.168 628.175 628.216 628.164 628.253V628.254C628.158 628.277 628.153 628.294 628.148 628.306L628.145 628.317L628.142 628.33L627.355 637.193C627.204 638.915 627.328 640.65 627.722 642.333Z" fill="#163666"/>
<path d="M631.001 664.028H632.794C634.074 661.601 635.228 659.343 635.597 658.162L639.512 656.72H635.911C636.348 654.648 636.454 652.52 636.225 650.415C636.12 649.495 638.47 645.589 638.676 644.691L642.785 629.469L642.786 629.466L643.115 628.251L633.245 646.219L633.243 646.222L632.42 647.72L631.761 651.679L632.186 652.574L632.903 654.078C632.903 654.078 634.131 655.71 633.899 656.427L633.866 656.51C633.934 656.696 633.946 656.899 633.899 657.092L633.162 658.364L631.001 664.028Z" fill="#112441" style="mix-blend-mode:multiply"/>
<path d="M622.987 652.208V664.028H628.128L629.495 658.437L632.049 652.873L632.186 652.574L634.241 648.094L642.783 629.474L642.786 629.466L643.918 627.001L637.668 627.499L629.901 628.115L628.21 628.248L628.164 628.253H628.158V628.254L628.145 628.317L628.142 628.33L622.987 652.208Z" fill="#163666"/>
<g style="mix-blend-mode:screen" opacity="0.3">
<path d="M622.987 652.209V664.028H623.464C624.508 662.003 625.287 659.701 625.199 657.429C625.018 652.69 624.43 648.488 627.722 642.737C627.745 642.697 627.768 642.657 627.792 642.617C628.371 641.627 629.004 640.671 629.69 639.753C630.672 638.439 631.725 637.18 632.843 635.979C635.908 632.657 637.239 629.807 637.668 627.499C638.263 624.288 637.112 622.124 636.458 621.199C636.332 621.021 636.225 620.89 636.152 620.805C630.533 622.056 628.582 627.114 628.21 628.249L628.164 628.253V628.255H628.158L628.148 628.307L628.145 628.317L628.142 628.33L622.987 652.209Z" fill="#163666"/>
</g>
<path opacity="0.5" d="M637.918 620.553L639.813 627.002H643.917V629.612C643.917 629.612 652.327 634.586 651.173 655.938L651.174 655.937C651.333 655.179 651.48 654.359 651.615 653.479C651.627 653.402 651.638 653.326 651.649 653.25C651.664 653.15 651.679 653.047 651.692 652.944V652.943C651.716 652.795 651.737 652.642 651.757 652.491C651.986 650.772 652.166 648.833 652.271 646.64C652.286 646.316 652.301 645.987 652.313 645.651V645.597C652.505 641.232 651.61 636.887 649.708 632.952C649.699 632.935 649.69 632.915 649.68 632.898C647.111 627.805 643.119 623.568 638.19 620.699L638.187 620.697C638.052 620.623 637.969 620.579 637.935 620.559L637.923 620.555L637.918 620.553Z" fill="#204B84"/>
<path d="M646.158 622.661L646.952 620.579L648.86 622.7V625.128C654.342 636.58 656.188 658.235 656.188 658.235L652.803 662.617L648.987 658.235C648.987 658.235 652.388 641.901 647.975 625.128L646.158 622.661Z" fill="#24BF79"/>
<path d="M564.01 675.473C565.724 675.473 567.113 674.084 567.113 672.37C567.113 670.657 565.724 669.268 564.01 669.268C562.296 669.268 560.907 670.657 560.907 672.37C560.907 674.084 562.296 675.473 564.01 675.473Z" fill="#2A508A"/>
<path d="M587.803 662.587C589.387 661.932 590.138 660.117 589.483 658.533C588.827 656.95 587.012 656.198 585.429 656.854C583.846 657.51 583.094 659.325 583.75 660.908C584.405 662.491 586.22 663.243 587.803 662.587Z" fill="#2A508A"/>
<path d="M609.222 684.066C610.936 684.066 612.325 682.677 612.325 680.963C612.325 679.249 610.936 677.86 609.222 677.86C607.509 677.86 606.119 679.249 606.119 680.963C606.119 682.677 607.509 684.066 609.222 684.066Z" fill="#2A508A"/>
<path d="M631.828 675.473C633.542 675.473 634.931 674.084 634.931 672.37C634.931 670.657 633.542 669.268 631.828 669.268C630.115 669.268 628.726 670.657 628.726 672.37C628.726 674.084 630.115 675.473 631.828 675.473Z" fill="#2A508A"/>
<path d="M654.435 650.651C656.148 650.651 657.537 649.262 657.537 647.548C657.537 645.835 656.148 644.445 654.435 644.445C652.721 644.445 651.332 645.835 651.332 647.548C651.332 649.262 652.721 650.651 654.435 650.651Z" fill="#2A508A"/>
<path d="M679.235 666.688C680.446 665.477 680.446 663.512 679.235 662.3C678.023 661.089 676.058 661.089 674.847 662.3C673.635 663.512 673.635 665.477 674.847 666.688C676.058 667.9 678.023 667.9 679.235 666.688Z" fill="#2A508A"/>
<path d="M700.834 682.875C702.417 682.219 703.169 680.404 702.513 678.821C701.858 677.238 700.043 676.486 698.459 677.142C696.876 677.797 696.124 679.613 696.78 681.196C697.436 682.779 699.251 683.531 700.834 682.875Z" fill="#2A508A"/>
<path d="M722.253 659.482C723.967 659.482 725.356 658.093 725.356 656.379C725.356 654.666 723.967 653.276 722.253 653.276C720.539 653.276 719.15 654.666 719.15 656.379C719.15 658.093 720.539 659.482 722.253 659.482Z" fill="#2A508A"/>
<path d="M611.982 594.344H560.907V597.209H611.982V594.344Z" fill="#163666"/>
<path d="M611.982 601.505H565.418V604.369H611.982V601.505Z" fill="#163666"/>
<path d="M611.982 608.665H569.929V611.529H611.982V608.665Z" fill="#163666"/>
<path d="M611.982 615.826H574.44V618.69H611.982V615.826Z" fill="#163666"/>
<path d="M611.982 622.986H578.951V625.85H611.982V622.986Z" fill="white"/>
<path d="M611.982 594.344H595.229V597.209H611.982V594.344Z" fill="#24BF79"/>
<path d="M611.982 601.505H582.341V604.369H611.982V601.505Z" fill="#24BF79"/>
<path d="M611.982 622.986H578.951V625.85H611.982V622.986Z" fill="#24BF79"/>
<path d="M725.356 594.344H674.281V597.209H725.356V594.344Z" fill="#163666"/>
<path d="M720.845 601.505H674.281V604.369H720.845V601.505Z" fill="white"/>
<path d="M716.334 608.665H674.281V611.529H716.334V608.665Z" fill="#163666"/>
<path d="M711.823 615.825H674.281V618.689H711.823V615.825Z" fill="#163666"/>
<path d="M707.312 622.986H674.281V625.85H707.312V622.986Z" fill="#163666"/>
<path d="M720.845 601.505H674.281V604.369H720.845V601.505Z" fill="#24BF79"/>
<path d="M708.362 608.665H674.281V611.529H708.362V608.665Z" fill="#24BF79"/>
<path d="M609.129 681.436L586.385 660.224L564.211 672.727L563.809 672.014L586.505 659.217L609.315 680.49L631.592 672.023L654.383 646.998L654.68 647.221L677.286 664.167L699.761 679.475L721.956 656.098L722.549 656.661L699.876 680.542L676.811 664.833L654.486 648.099L632.065 672.718L631.974 672.753L609.129 681.436Z" fill="#2A508A"/>
<path opacity="0.4" d="M258.366 602.576C251.474 602.576 244.864 599.838 239.99 594.964C235.116 590.091 232.378 583.48 232.378 576.588C232.378 569.695 235.116 563.085 239.99 558.211C244.864 553.338 251.474 550.6 258.366 550.6V553.259C253.752 553.259 249.242 554.627 245.405 557.19C241.569 559.754 238.579 563.397 236.813 567.66C235.047 571.923 234.585 576.614 235.485 581.139C236.385 585.665 238.607 589.822 241.87 593.084C245.133 596.347 249.29 598.569 253.815 599.469C258.34 600.369 263.031 599.907 267.294 598.141C271.557 596.376 275.201 593.386 277.764 589.549C280.328 585.713 281.696 581.202 281.696 576.588H284.355C284.347 583.478 281.606 590.084 276.734 594.956C271.862 599.828 265.256 602.568 258.366 602.576Z" fill="#204B84"/>
<path opacity="0.6" d="M258.366 596.295C253.14 596.295 248.127 594.219 244.431 590.523C240.735 586.827 238.659 581.815 238.659 576.588C238.659 571.361 240.735 566.348 244.431 562.653C248.127 558.957 253.14 556.88 258.366 556.88V559.539C253.845 559.539 249.509 561.336 246.311 564.533C243.114 567.73 241.318 572.066 241.318 576.588C241.318 581.109 243.114 585.446 246.311 588.643C249.509 591.84 253.845 593.637 258.366 593.637V596.295Z" fill="#204B84"/>
<path opacity="0.8" d="M247.599 576.588H244.94C244.944 573.028 246.36 569.615 248.877 567.098C251.394 564.581 254.807 563.165 258.366 563.161V565.82C255.512 565.823 252.775 566.959 250.756 568.978C248.737 570.996 247.602 573.733 247.599 576.588Z" fill="#204B84"/>
<path d="M258.366 582.404C261.579 582.404 264.183 579.8 264.183 576.588C264.183 573.376 261.579 570.771 258.366 570.771C255.154 570.771 252.55 573.376 252.55 576.588C252.55 579.8 255.154 582.404 258.366 582.404Z" fill="#204B84"/>
<path d="M330.141 535.576C339.452 535.576 347 528.027 347 518.716C347 509.405 339.452 501.856 330.141 501.856C320.83 501.856 313.281 509.405 313.281 518.716C313.281 528.027 320.83 535.576 330.141 535.576Z" fill="#163666"/>
<path d="M259.95 493.995C266.066 494.467 271.762 497.289 275.842 501.869C279.922 506.45 282.069 512.432 281.833 518.562C281.597 524.692 278.996 530.492 274.576 534.745C270.156 538.998 264.26 541.374 258.126 541.374C253.5 541.389 248.973 540.036 245.114 537.485L259.57 518.765L259.95 518.272V493.995ZM258.126 492.102V517.65L242.514 537.867C245.73 540.35 249.492 542.03 253.488 542.769C257.483 543.507 261.597 543.281 265.488 542.111C269.379 540.94 272.934 538.858 275.859 536.038C278.784 533.218 280.995 529.741 282.306 525.896C283.618 522.05 283.994 517.947 283.402 513.927C282.81 509.907 281.268 506.087 278.904 502.782C276.54 499.478 273.421 496.785 269.808 494.928C266.194 493.07 262.189 492.101 258.126 492.102Z" fill="#163666"/>
<path d="M234.703 507.444C236.494 503.346 239.326 499.787 242.918 497.122L258.126 517.65L234.703 507.444Z" fill="#24BF79"/>
<path d="M242.918 497.122C247.314 493.854 252.648 492.093 258.126 492.102V517.65L242.918 497.122Z" fill="#196E57"/>
<path d="M232.578 517.65C232.575 514.138 233.298 510.663 234.703 507.444L258.126 517.65L242.514 537.867C239.42 535.483 236.915 532.42 235.192 528.915C233.47 525.41 232.575 521.556 232.578 517.65Z" fill="#163666"/>
<path d="M330 540C341.598 540 351 530.598 351 519C351 507.402 341.598 498 330 498C318.402 498 309 507.402 309 519C309 530.598 318.402 540 330 540Z" fill="#112441"/>
<path d="M317.172 547.359L318.72 544.454L318.737 544.425L319.302 543.363L321.209 543.659L323.25 543.976L326.408 542.907L331.413 541.214L331.945 541.035L332.103 544.262L332.16 545.422L332.944 561.496C332.944 561.503 332.945 561.51 332.947 561.517H318.842L317.639 558.668C316.779 556.734 316.243 554.671 316.053 552.563C315.932 550.758 316.32 548.955 317.172 547.359Z" fill="#163666"/>
<path d="M316.053 552.564C316.243 554.672 316.779 556.734 317.639 558.668L318.842 561.517H328.064C327.022 558.707 323.868 557.371 321.22 554.411C317.535 550.291 321.022 544.729 321.022 544.729L319.302 543.363L318.736 544.425L318.72 544.454L317.172 547.359C316.32 548.955 315.932 550.758 316.053 552.564Z" fill="#163666"/>
<path d="M318.47 524.815C318.937 525.537 319.485 526.203 320.103 526.8C324.083 530.575 328.614 527.896 331.394 525.43C332.829 524.153 334.03 522.634 334.94 520.942C336.014 518.947 336.918 517.044 336.853 513.92C336.837 512.588 336.73 511.259 336.532 509.943C336.309 508.546 335.581 507.281 334.487 506.385C334.408 506.32 334.33 506.259 334.253 506.201C333.541 505.637 332.683 505.285 331.779 505.187C329.534 504.862 327.342 505.407 326.015 507.319C324.543 509.434 325.333 511.6 324.695 513.927C324.218 515.669 322.686 517.104 321.382 518.244C316.723 522.32 318.47 524.815 318.47 524.815Z" fill="#24BF79"/>
<path d="M318.47 524.815C318.937 525.537 319.485 526.203 320.103 526.8C321.678 526.133 323.141 525.226 324.439 524.112C323.91 523.679 323.477 523.14 323.168 522.531C322.859 521.921 322.681 521.253 322.645 520.57C322.608 519.888 322.715 519.205 322.958 518.566C323.2 517.927 323.574 517.345 324.054 516.859C324.94 515.96 326.554 513.807 326.728 509.899C326.935 505.25 332.637 505.917 334.253 506.201C333.541 505.637 332.683 505.285 331.779 505.187C329.534 504.862 327.342 505.407 326.015 507.319C324.543 509.434 325.333 511.6 324.695 513.927C324.218 515.669 322.686 517.104 321.382 518.244C316.723 522.32 318.47 524.815 318.47 524.815Z" fill="#196E57" style="mix-blend-mode:screen"/>
<path d="M344.292 537.667L344.558 537.273C344.768 536.963 344.999 536.653 345.236 536.363C346.9 534.324 348.563 532.062 349.907 530.366C350.034 529.903 350.395 528.778 351.023 528.251L351.025 528.249C351.185 528.11 351.383 528.023 351.593 528C351.911 527.959 352.209 527.823 352.449 527.611C352.689 527.398 352.86 527.119 352.939 526.808C352.956 526.76 352.986 526.719 353.027 526.689C353.067 526.659 353.116 526.642 353.167 526.641C353.217 526.639 353.267 526.653 353.309 526.68C353.351 526.708 353.384 526.747 353.404 526.794C353.425 526.847 353.441 526.902 353.452 526.958C353.452 526.958 353.484 527.996 352.778 528.335C352.912 528.445 353.075 528.515 353.248 528.537C353.347 528.557 353.448 528.566 353.549 528.564C353.678 528.564 353.806 528.552 353.932 528.526C354.323 528.423 354.734 528.423 355.126 528.526C355.126 528.526 355.792 527.481 356.544 527.682C356.544 527.682 357.021 527.189 357.392 527.605L356.412 528.675L356.029 529.094C356.029 529.094 355.747 529.464 355.439 529.362C355.352 529.492 355.234 529.598 355.096 529.672C354.958 529.745 354.804 529.783 354.648 529.783L352.357 530.068C352.016 530.292 351.688 530.534 351.375 530.795C350.882 531.638 350.236 532.801 349.97 533.38C348.637 536.267 347.033 539.313 345.343 542.329C345.278 542.446 345.188 542.546 345.079 542.624C344.971 542.702 344.847 542.756 344.716 542.781C344.585 542.806 344.45 542.802 344.321 542.77C344.191 542.737 344.071 542.677 343.967 542.593L343.952 542.58C343.952 542.58 341.944 540.212 342.948 540.734L343.47 538.284L344.292 537.667Z" fill="url(#paint2_linear)"/>
<path d="M332.61 521.238L335.585 533.051L335.882 534.229C336.566 535.246 337.139 536.06 337.681 536.761C339.334 538.9 340.685 539.98 343.952 542.581C343.4 541.861 343.13 540.965 343.193 540.06C343.255 539.155 343.646 538.304 344.291 537.667L341.593 532.794C341.043 531.797 340.614 530.738 340.314 529.64C339.42 526.383 336.364 523.028 336.364 523.028C335.384 521.978 334.043 521.339 332.61 521.238Z" fill="#163666"/>
<g style="mix-blend-mode:multiply">
<path d="M335.585 533.051L335.882 534.229C336.566 535.246 337.139 536.06 337.681 536.761C339.977 532.406 337.211 529.224 337.211 529.224L335.585 533.051Z" fill="#DB7BA0"/>
</g>
<path d="M332.61 521.239C332.61 521.239 335.161 521.518 335.688 523.596L337.046 527.725C337.046 527.725 339.053 531.338 337.323 534.325L335.993 536.099C335.899 537.214 335.876 538.333 335.926 539.45C335.957 540.493 336.055 541.533 336.221 542.563C336.484 544.153 337.513 546.398 334.978 546.445C334.553 546.453 334.138 546.322 333.794 546.073C332.599 545.202 331.733 543.955 331.335 542.531L332.61 521.239Z" fill="#163666"/>
<path d="M332.61 521.239C334.104 524.502 334.991 528.01 335.229 531.591C335.352 533.929 334.986 536.267 334.152 538.455L333.044 541.383C332.812 541.996 332.693 542.646 332.693 543.301V544.728C332.693 544.728 332.444 547.701 321.021 544.728L324.126 526.895L326.455 519.991L332.61 521.239Z" fill="white"/>
<path d="M318.744 544.482C318.945 544.694 319.174 544.877 319.424 545.026C319.832 545.277 320.293 545.426 320.77 545.462C325.786 545.85 325.759 544.039 328.142 539.426C330.601 534.658 326.456 519.993 326.456 519.993C324.837 520.272 323.856 520.756 322.575 521.238L321.153 528.841L321.021 529.556C321.312 531.775 323.35 536.988 319.691 540.536C317.716 542.451 318.034 543.721 318.744 544.482Z" fill="#163666"/>
<path d="M332.693 518.328C332.693 518.328 330.531 520.075 332.61 521.239C332.636 521.86 332.506 522.478 332.231 523.036C332.009 523.439 331.64 523.741 331.201 523.879C330.762 524.018 330.286 523.983 329.873 523.78C328.922 523.317 327.092 522.171 326.455 519.991C326.455 519.991 328.036 518.744 328.202 517.247V513.753L332.713 518.276L332.693 518.328Z" fill="#F9C1CF"/>
<path style="mix-blend-mode:multiply" d="M318.737 544.427C318.578 543.304 317.935 542.902 320.826 540.572C323.717 538.245 323.396 533.827 323.396 533.827L324.519 531.5C326.848 526.923 324.439 524.112 324.439 524.112L321.153 528.841L321.021 529.556C321.312 531.775 323.35 536.988 319.691 540.536C317.716 542.451 318.034 543.721 318.744 544.482C318.742 544.465 318.74 544.446 318.737 544.427Z" fill="url(#paint3_linear)"/>
<path d="M306.319 552.738C306.333 552.542 306.403 552.354 306.521 552.197L308.647 549.358L313.438 538.405L316.117 537.441L316.57 540.412C316.57 540.412 311.672 547.23 309.868 549.747C309.862 550.167 309.791 553.278 309.15 554.35C309.124 554.392 309.086 554.425 309.04 554.443C308.995 554.461 308.944 554.464 308.897 554.451C308.849 554.438 308.807 554.41 308.778 554.37C308.748 554.331 308.732 554.283 308.732 554.234C308.839 553.643 308.852 553.039 308.77 552.444C308.767 552.421 308.758 552.4 308.743 552.382C308.729 552.364 308.71 552.35 308.689 552.342C308.667 552.333 308.644 552.33 308.621 552.334C308.599 552.337 308.577 552.347 308.559 552.361L307.319 553.359C307.262 553.405 307.225 553.472 307.217 553.545L307.044 555.127C307.044 555.127 307.837 555.039 308.136 555.258C308.152 555.27 308.165 555.287 308.171 555.306C308.178 555.325 308.18 555.345 308.175 555.365C308.17 555.384 308.16 555.402 308.145 555.416C308.131 555.43 308.112 555.439 308.093 555.442L307.044 555.623C307.044 555.623 307.927 556.469 307.784 556.739C307.777 556.752 307.766 556.762 307.752 556.766C307.738 556.771 307.722 556.769 307.709 556.763C307.265 556.512 306.872 556.182 306.547 555.789L306.339 555.827C306.31 555.832 306.28 555.83 306.251 555.822C306.223 555.814 306.196 555.8 306.174 555.78C306.152 555.76 306.135 555.736 306.124 555.708C306.113 555.681 306.108 555.651 306.11 555.621L306.319 552.738Z" fill="url(#paint4_linear)"/>
<path d="M322.574 521.239C322.734 521.362 322.887 521.495 323.031 521.637C325.302 523.828 325.312 527.156 323.792 529.922C321.468 534.149 316.745 539.798 316.57 540.412C316.374 539.758 315.951 539.196 315.376 538.828C314.802 538.46 314.114 538.31 313.438 538.405C313.438 538.405 315.144 534.103 316.696 530.333C318.249 526.562 319.681 522.184 322.574 521.239Z" fill="#163666"/>
<g style="mix-blend-mode:multiply">
<path d="M328.673 514.918L329.216 514.771L332.713 518.276L332.693 518.328C332.693 518.328 330.531 520.075 332.61 521.239C332.636 521.86 332.506 522.478 332.231 523.036C332.078 523.314 331.853 523.546 331.58 523.709C331.308 523.871 330.997 523.958 330.679 523.962C330.883 523.849 331.059 523.693 331.196 523.506C331.333 523.318 331.427 523.102 331.472 522.874C331.474 522.581 331.434 522.289 331.353 522.007C331.028 520.552 330.425 519.173 329.577 517.946C329.015 517.034 328.704 515.989 328.673 514.918Z" fill="#F9C1CF"/>
</g>
<path d="M328.673 514.918C329.457 516.434 330.647 517.701 332.111 518.578C335.77 520.356 336.496 512.365 335.854 509.678C335.854 509.678 335.355 507.349 331.778 509.179C331.778 509.179 329.2 510.51 328.867 512.339L328.673 514.918Z" fill="#F9C1CF"/>
<path d="M334.179 513.753C334.179 514.683 334.709 515.436 335.362 515.436C336.015 515.436 336.545 514.683 336.545 513.753C336.545 512.824 336.015 512.07 335.362 512.07C334.709 512.07 334.179 512.824 334.179 513.753Z" fill="white"/>
<path d="M331.206 513.753C331.206 514.683 331.736 515.436 332.389 515.436C333.042 515.436 333.571 514.683 333.571 513.753C333.571 512.824 333.042 512.07 332.389 512.07C331.736 512.07 331.206 512.824 331.206 513.753Z" fill="white"/>
<path d="M328.975 513.28C328.995 513.063 328.945 512.845 328.833 512.658C328.721 512.471 328.551 512.325 328.35 512.241C327.995 512.092 327.613 512.052 327.509 512.488C327.509 512.488 326.885 514.071 328.826 514.862L328.975 513.28Z" fill="#F9C1CF"/>
<path d="M335.603 513.573H332.67V513.934H335.603V513.573Z" fill="white"/>
<path d="M329.114 512.514L328.985 512.851L331.483 513.805L331.612 513.467L329.114 512.514Z" fill="white"/>
<path d="M331.847 508.514L329.585 509.326C329.539 509.008 329.498 508.815 329.498 508.815L328.823 510.673C328.791 510.759 328.775 510.85 328.775 510.942V514.438C329.454 513.751 329.681 512.605 329.719 511.526C330.017 511.599 330.333 511.552 330.596 511.394C330.859 511.236 331.049 510.98 331.124 510.682C331.287 509.951 331.716 509.306 332.329 508.875L331.847 508.514Z" fill="#24BF79"/>
<path opacity="0.25" d="M340.046 560.602H320.236V563.824H340.046V560.602Z" fill="#24BF79"/>
<path opacity="0.25" d="M357.528 541.27H302.754V544.492H357.528V541.27Z" fill="#24BF79"/>
<path opacity="0.25" d="M348.03 550.936H312.252V554.158H348.03V550.936Z" fill="#24BF79"/>
<path opacity="0.25" d="M350.691 570.268H309.59V573.49H350.691V570.268Z" fill="#24BF79"/>
<path opacity="0.25" d="M354.493 579.934H305.788V583.156H354.493V579.934Z" fill="#24BF79"/>
<path opacity="0.25" d="M351.452 589.599H308.83V592.821H351.452V589.599Z" fill="#24BF79"/>
<path opacity="0.5" d="M295.362 501.219H294.544V593.987H295.362V501.219Z" fill="white"/>
<path opacity="0.4" d="M543.664 539.519C538.823 539.519 534.09 538.084 530.064 535.394C526.039 532.704 522.901 528.881 521.048 524.408C519.196 519.935 518.711 515.013 519.656 510.264C520.6 505.516 522.931 501.154 526.355 497.731C529.778 494.307 534.14 491.976 538.889 491.031C543.637 490.087 548.559 490.572 553.032 492.424C557.505 494.277 561.328 497.415 564.018 501.44C566.708 505.466 568.143 510.199 568.143 515.04C568.136 521.53 565.555 527.752 560.966 532.341C556.376 536.931 550.154 539.512 543.664 539.519ZM543.664 491.175C538.944 491.175 534.33 492.574 530.405 495.197C526.481 497.819 523.422 501.546 521.615 505.907C519.809 510.268 519.336 515.067 520.257 519.696C521.178 524.325 523.451 528.578 526.789 531.916C530.126 535.253 534.379 537.526 539.008 538.447C543.638 539.368 548.436 538.895 552.797 537.089C557.158 535.283 560.885 532.224 563.508 528.299C566.13 524.374 567.53 519.76 567.53 515.04C567.523 508.713 565.006 502.647 560.532 498.173C556.058 493.698 549.992 491.182 543.664 491.175Z" fill="#24BF79"/>
<path d="M543.664 533.897C539.935 533.897 536.289 532.791 533.188 530.719C530.087 528.647 527.67 525.702 526.242 522.256C524.815 518.81 524.442 515.019 525.169 511.361C525.897 507.703 527.693 504.343 530.33 501.705C532.968 499.068 536.328 497.272 539.986 496.545C543.644 495.817 547.435 496.191 550.881 497.618C554.327 499.045 557.272 501.462 559.344 504.563C561.416 507.665 562.522 511.31 562.522 515.04C562.516 520.04 560.528 524.833 556.992 528.368C553.457 531.903 548.664 533.892 543.664 533.897ZM543.664 496.796C540.056 496.796 536.529 497.866 533.529 499.871C530.528 501.875 528.19 504.725 526.809 508.058C525.428 511.392 525.067 515.06 525.771 518.599C526.475 522.138 528.213 525.389 530.764 527.94C533.315 530.492 536.566 532.229 540.105 532.933C543.644 533.637 547.312 533.276 550.646 531.895C553.98 530.514 556.829 528.176 558.834 525.176C560.838 522.176 561.908 518.648 561.908 515.04C561.903 510.203 559.979 505.566 556.559 502.146C553.138 498.725 548.501 496.801 543.664 496.796Z" fill="#24BF79"/>
<path d="M547.069 518.445C548.95 516.565 548.95 513.515 547.069 511.635C545.189 509.754 542.14 509.754 540.259 511.635C538.378 513.515 538.378 516.565 540.259 518.445C542.14 520.326 545.189 520.326 547.069 518.445Z" fill="#24BF79"/>
<path d="M499.973 552.555L491.261 530.049C490.357 518.674 484.579 511.838 481.711 509.105C479.324 506.243 476.8 504.831 473.769 503.594C471.206 502.549 468.391 502.371 466.369 504.261C459.822 510.377 465.963 526.248 468.716 532.419C469.348 533.832 470.064 535.207 470.86 536.535L488.917 566.599C489.69 567.888 490.759 568.975 492.034 569.77C493.309 570.566 494.754 571.049 496.252 571.178C497.749 571.307 499.256 571.079 500.649 570.513C502.041 569.947 503.28 569.059 504.262 567.922L512.956 557.865L505.552 548.284L499.973 552.555Z" fill="#D1E6F7"/>
<path d="M543.52 524.717C543.758 524.481 543.893 524.161 543.897 523.826C543.901 523.491 543.773 523.167 543.541 522.926C543.308 522.684 542.99 522.544 542.655 522.535C542.32 522.527 541.994 522.65 541.75 522.879L542.174 522.456C542.426 522.205 542.584 521.876 542.622 521.522C542.661 521.169 542.576 520.813 542.383 520.515C542.19 520.216 541.9 519.993 541.562 519.883C541.225 519.772 540.859 519.781 540.527 519.909L544.079 516.365C544.37 516.074 544.534 515.679 544.534 515.268C544.534 514.856 544.371 514.461 544.08 514.169C543.789 513.878 543.395 513.714 542.983 513.713C542.571 513.712 542.176 513.875 541.884 514.166L535.058 520.976C535.024 521.01 534.98 521.032 534.932 521.04C534.884 521.047 534.835 521.039 534.792 521.017C534.75 520.995 534.715 520.96 534.693 520.917C534.672 520.874 534.664 520.825 534.672 520.777L535.037 518.602C535.714 516.131 533.992 515.305 533.992 515.305C532.196 514.404 530.913 522.568 530.913 522.568C530.671 524.144 530.337 525.704 529.911 527.241C529.648 528.23 529.398 529.635 528.673 530.358L505.552 548.284L512.956 557.865L532.731 534.177C533.803 533.3 535.767 533.078 538.018 532.388C541.914 531.195 544.616 526.853 544.616 526.853C545.666 525.056 543.52 524.717 543.52 524.717Z" fill="#F5D3AF"/>
<path d="M502.18 549.691L511.25 561.863L516.739 555.18L508.147 544.917L502.18 549.691Z" fill="white"/>
<defs>
<linearGradient id="paint0_linear" x1="752.12" y1="131.293" x2="395.567" y2="679.908" gradientUnits="userSpaceOnUse">
<stop stop-color="#15315B"/>
<stop offset="1" stop-color="#112441" stop-opacity="0"/>
</linearGradient>
<linearGradient id="paint1_linear" x1="431.141" y1="804.498" x2="461.231" y2="804.498" gradientUnits="userSpaceOnUse">
<stop stop-color="white"/>
<stop offset="0.28541" stop-color="#FDEFF4"/>
<stop offset="0.61902" stop-color="#FBE4EC"/>
<stop offset="1" stop-color="#FBE1EA"/>
</linearGradient>
<linearGradient id="paint2_linear" x1="343.987" y1="542.611" x2="349.515" y2="534.318" gradientUnits="userSpaceOnUse">
<stop stop-color="#F49AAA"/>
<stop offset="1" stop-color="#F9C1CF"/>
</linearGradient>
<linearGradient id="paint3_linear" x1="321.865" y1="544.509" x2="321.865" y2="523.877" gradientUnits="userSpaceOnUse">
<stop stop-color="white"/>
<stop offset="1" stop-color="#DB7BA0"/>
</linearGradient>
<linearGradient id="paint4_linear" x1="165136" y1="25961.8" x2="165344" y2="26149.3" gradientUnits="userSpaceOnUse">
<stop stop-color="#F49AAA"/>
<stop offset="1" stop-color="#F9C1CF"/>
</linearGradient>
</defs>
</svg>
