<svg width="960" height="1003" viewBox="0 0 960 1003" fill="none" xmlns="http://www.w3.org/2000/svg">
<g opacity="0.65" filter="url(#filter0_f)">
<path d="M479.854 799.862C661.939 799.862 809.548 648.223 809.548 461.168C809.548 274.113 661.939 122.474 479.854 122.474C297.77 122.474 150.161 274.113 150.161 461.168C150.161 648.223 297.77 799.862 479.854 799.862Z" fill="url(#paint0_angular)"/>
</g>
<path opacity="0.7" d="M852.181 587.997V663.041C847.409 668.876 842.504 674.627 837.464 680.293C820.434 699.458 802.236 717.262 783.002 733.575C601.164 887.798 349.005 888.203 166.8 734.797C147.033 718.154 128.351 699.94 110.898 680.293C104.517 673.116 98.3412 665.799 92.3698 658.341V587.997H99.3293V577.93H115.062V525.816H118.048V506.801H121.542V525.816H136.442V506.801H139.936V525.816H142.414V558.812H153.347V547.634H160.801V537.003H174.233V457.593H180.197V448.637H184.672V443.047H188.152V436.894H194.116V429.622H201.083V418.443H204.576V429.622H211.529V553.779H216.985V545.395H226.923V522.466H239.353V497.853H268.201V512.954H276.042V558.256H283.609V523.585H288.084V495.059H316.924V531.413H323.39V539.797H331.839V547.634H336.808V550.984H348.743V508.484H364.653V468.215H369.128V434.656H397.968V543.156H407.907V528.055H411.386V517.432H432.272V528.055H434.263V544.275H439.733V527.499H447.186V512.398H473.542V550.984H478.017V549.872H480.502V544.831H491.936V549.872H497.407V510.715H505.361V499.536H521.765V540.361H526.741V480.522H531.71V469.891H534.195V462.062H538.176V449.201H542.651V431.305H545.636V449.201H551.601V462.062H554.586V469.891H558.56V480.522H561.045V553.779H569.995V568.324H574.47V540.361H590.379V535.327H595.355V514.074H600.826V502.887H606.289V488.906H618.225V503.451H626.179V519.671H629.659V510.715H637.12V563.846H643.578V494.503H648.053V476.607H667.449V504.57H674.903V554.342H679.378V521.902H685.349V500.656H695.288V462.618H709.214V425.152H712.694V415.641H738.548V425.152H741.527V519.671H745.508V507.921H761.417V519.671H769.372V529.73H776.113V522.569H797.366V542.703H802.963V533.89H832.043V557.796H844.353V577.93H846.591V587.997H852.181Z" fill="url(#paint1_linear)"/>
<path d="M731.726 719.193C714.207 718.918 696.865 723.162 681.03 731.598C672.954 715.727 660.133 703.596 644.851 697.368C629.569 691.14 612.818 691.218 597.583 697.589C560.769 648.5 536.503 598.522 526.748 540.465C523.435 520.427 521.812 500.082 521.902 479.701V335.34H552.801L473.99 229.003L390.923 335.34H423.72L423.409 479.701C423.39 492.348 422.723 504.983 421.413 517.544C414.686 582.079 390.964 642.877 353.294 692.128C337.012 685.16 318.986 685.401 302.855 692.803C286.725 700.205 273.691 714.217 266.384 732.01C250.714 724.123 233.675 720.284 216.514 720.773C199.354 721.261 182.509 726.067 167.214 734.836C349.302 888.19 601.3 887.785 783.021 733.614C767.154 724.379 749.589 719.441 731.726 719.193Z" fill="url(#paint2_linear)"/>
<path d="M526.713 878.151H532.878V873.357C532.885 871.424 532.307 869.534 531.221 867.935C530.134 866.336 528.59 865.102 526.79 864.397L484.25 847.541L481.979 853.273L524.519 870.129C525.168 870.383 525.724 870.827 526.115 871.403C526.507 871.979 526.715 872.66 526.713 873.357V878.151Z" fill="url(#paint3_linear)"/>
<path d="M464.391 634.782C464.446 634.664 464.534 634.565 464.645 634.497C464.756 634.43 464.884 634.396 465.014 634.401C465.144 634.406 465.269 634.449 465.375 634.525C465.48 634.6 465.561 634.706 465.607 634.827C465.623 634.87 465.639 634.914 465.655 634.958C465.87 635.586 465.891 636.265 465.715 636.905C465.539 637.545 465.174 638.117 464.668 638.547C463.883 639.213 462.31 640.716 462.671 641.79C462.671 641.79 461.799 643.508 458.95 643.431C458.95 643.431 457.072 640.851 461.403 637.905C462.641 637.126 463.667 636.053 464.391 634.782Z" fill="#FFE9D5"/>
<path d="M473.461 653.622C473.343 653.453 473.284 653.25 473.294 653.044L473.429 650.055C473.465 649.251 473.314 648.45 472.987 647.715L471.366 644.069L467.103 649.451L469.554 650.676L460.621 652.993C463.211 654.375 466.061 655.2 468.988 655.415C470.53 656.956 479.778 665.323 479.778 665.323L482.861 661.58L473.461 653.622Z" fill="white"/>
<path d="M463.439 638.795L458.272 641.147L455.315 649.182C455.288 650.975 455.473 652.764 455.867 654.513L452.216 657.47L455.206 660.238L461.386 655.422L467.374 652.597C468.06 652.273 468.696 651.854 469.262 651.35L473.407 647.668L470.963 641.519L469.645 639.879L468.689 640.193L467.912 640.158L463.439 638.795Z" fill="#FFE9D5"/>
<path d="M473.984 645.288C474.108 645.451 474.199 645.637 474.251 645.835C474.304 646.034 474.316 646.24 474.289 646.443C474.261 646.646 474.194 646.842 474.09 647.019C473.987 647.196 473.85 647.351 473.687 647.475L466.895 652.637C466.691 652.792 466.435 652.864 466.18 652.837C465.924 652.811 465.689 652.688 465.521 652.494C465.353 652.3 465.265 652.05 465.275 651.793C465.285 651.537 465.392 651.294 465.575 651.114L471.648 645.123C471.806 644.967 471.995 644.847 472.203 644.77C472.411 644.693 472.632 644.662 472.854 644.677C473.075 644.693 473.29 644.756 473.485 644.861C473.68 644.966 473.85 645.112 473.984 645.288Z" fill="#FFE9D5"/>
<path d="M472.933 642.957C473.049 643.126 473.13 643.316 473.172 643.517C473.214 643.718 473.216 643.924 473.178 644.126C473.141 644.327 473.063 644.519 472.951 644.691C472.839 644.862 472.694 645.01 472.525 645.125L465.48 649.936C465.268 650.081 465.009 650.14 464.756 650.1C464.502 650.061 464.273 649.926 464.115 649.724C463.957 649.522 463.882 649.267 463.905 649.012C463.928 648.756 464.047 648.519 464.239 648.348L470.608 642.673C470.774 642.526 470.969 642.415 471.18 642.349C471.392 642.283 471.615 642.262 471.835 642.289C472.055 642.316 472.267 642.39 472.456 642.505C472.645 642.62 472.808 642.774 472.933 642.957Z" fill="#FFE9D5"/>
<path d="M471.392 640.551C471.508 640.72 471.589 640.91 471.631 641.111C471.673 641.311 471.675 641.518 471.638 641.719C471.6 641.921 471.522 642.113 471.41 642.284C471.298 642.456 471.153 642.604 470.984 642.719L463.939 647.53C463.727 647.675 463.468 647.733 463.215 647.694C462.961 647.654 462.732 647.52 462.574 647.318C462.416 647.116 462.341 646.861 462.364 646.605C462.387 646.35 462.506 646.112 462.698 645.942L469.067 640.267C469.233 640.119 469.428 640.009 469.639 639.943C469.851 639.877 470.074 639.856 470.294 639.883C470.514 639.91 470.726 639.983 470.915 640.099C471.104 640.214 471.267 640.368 471.392 640.551Z" fill="#FFE9D5"/>
<path d="M469.829 638.2C469.945 638.369 470.026 638.559 470.068 638.76C470.11 638.96 470.113 639.167 470.075 639.368C470.037 639.57 469.96 639.762 469.848 639.933C469.735 640.105 469.591 640.253 469.421 640.368L462.376 645.179C462.165 645.324 461.905 645.382 461.652 645.343C461.398 645.303 461.169 645.169 461.011 644.967C460.853 644.765 460.778 644.51 460.801 644.254C460.824 643.999 460.943 643.761 461.135 643.591L467.504 637.916C467.67 637.768 467.865 637.658 468.076 637.592C468.288 637.525 468.511 637.505 468.731 637.532C468.951 637.559 469.163 637.632 469.352 637.747C469.541 637.863 469.704 638.017 469.829 638.2Z" fill="#FFE9D5"/>
<path d="M455.562 641.417C455.653 641.215 455.782 641.033 455.944 640.88C456.105 640.728 456.295 640.61 456.502 640.531C456.71 640.452 456.93 640.415 457.152 640.422C457.374 640.428 457.592 640.479 457.794 640.57L466.213 644.359C466.466 644.473 466.666 644.679 466.773 644.935C466.88 645.191 466.885 645.479 466.788 645.739C466.69 645.999 466.497 646.212 466.249 646.335C466 646.458 465.713 646.482 465.447 646.401L456.612 643.724C456.382 643.655 456.17 643.537 455.99 643.379C455.809 643.221 455.665 643.026 455.565 642.808C455.466 642.59 455.414 642.353 455.414 642.113C455.413 641.873 455.463 641.636 455.562 641.417Z" fill="white"/>
<path d="M453.763 643.844C453.855 643.607 453.994 643.389 454.17 643.205C454.347 643.021 454.558 642.874 454.791 642.771C455.024 642.669 455.276 642.613 455.531 642.608C455.785 642.602 456.039 642.647 456.276 642.74L466.165 646.596C466.462 646.712 466.704 646.937 466.842 647.225C466.98 647.513 467.003 647.843 466.906 648.148C466.809 648.452 466.6 648.708 466.322 648.864C466.043 649.02 465.715 649.064 465.405 648.987L455.104 646.431C454.837 646.365 454.586 646.242 454.37 646.071C454.153 645.901 453.976 645.686 453.849 645.441C453.722 645.196 453.649 644.927 453.634 644.652C453.619 644.376 453.663 644.101 453.763 643.844Z" fill="white"/>
<path d="M453.262 646.966C453.325 646.76 453.427 646.568 453.564 646.402C453.7 646.236 453.869 646.098 454.058 645.997C454.248 645.896 454.456 645.833 454.67 645.812C454.884 645.792 455.1 645.813 455.306 645.876L463.872 648.488C464.129 648.566 464.347 648.74 464.482 648.973C464.616 649.207 464.656 649.483 464.594 649.745C464.533 650.007 464.373 650.236 464.149 650.385C463.924 650.534 463.652 650.592 463.386 650.547L454.556 649.056C454.327 649.017 454.108 648.93 453.915 648.8C453.722 648.671 453.559 648.501 453.436 648.303C453.314 648.106 453.235 647.884 453.205 647.653C453.175 647.423 453.195 647.188 453.262 646.966Z" fill="white"/>
<path d="M453.463 649.821C453.497 649.638 453.567 649.463 453.669 649.306C453.771 649.15 453.903 649.015 454.057 648.91C454.211 648.804 454.385 648.73 454.567 648.692C454.75 648.653 454.939 648.651 455.122 648.685L462.763 650.119C462.993 650.163 463.198 650.292 463.336 650.48C463.474 650.669 463.536 650.903 463.507 651.135C463.479 651.367 463.363 651.58 463.184 651.73C463.005 651.88 462.775 651.956 462.541 651.943L454.779 651.502C454.578 651.49 454.381 651.436 454.202 651.342C454.023 651.249 453.866 651.118 453.741 650.959C453.617 650.8 453.527 650.616 453.479 650.42C453.431 650.224 453.426 650.02 453.463 649.821Z" fill="white"/>
<path d="M470.951 658.061C470.951 658.892 471.198 659.705 471.66 660.396C472.121 661.087 472.778 661.626 473.546 661.944C474.314 662.262 475.159 662.345 475.975 662.183C476.79 662.021 477.539 661.621 478.127 661.033C478.715 660.445 479.115 659.696 479.277 658.881C479.439 658.065 479.356 657.22 479.038 656.452C478.72 655.684 478.181 655.028 477.49 654.566C476.798 654.104 475.986 653.857 475.154 653.857C474.602 653.857 474.056 653.966 473.546 654.177C473.036 654.389 472.573 654.698 472.182 655.089C471.792 655.479 471.482 655.942 471.271 656.452C471.06 656.962 470.951 657.509 470.951 658.061Z" fill="#24BF79"/>
<path d="M473.723 658.059C473.723 658.343 473.807 658.62 473.964 658.855C474.121 659.091 474.345 659.275 474.607 659.383C474.869 659.492 475.157 659.52 475.435 659.465C475.713 659.409 475.968 659.273 476.169 659.072C476.369 658.872 476.505 658.617 476.561 658.339C476.616 658.061 476.588 657.773 476.479 657.511C476.371 657.249 476.187 657.025 475.951 656.868C475.716 656.71 475.439 656.626 475.155 656.626C474.967 656.626 474.781 656.664 474.607 656.736C474.433 656.808 474.275 656.913 474.142 657.046C474.009 657.179 473.904 657.337 473.832 657.511C473.76 657.685 473.723 657.871 473.723 658.059Z" fill="white"/>
<path d="M583.067 628.018V671.757L546.956 719.909H533.744L476.917 664.006L481.101 659.162L538.148 702.002L544.895 689.61L545.74 688.06L558.776 664.129L557.754 665.873L556.847 662.394L567.213 638.34L579.993 627.974L578.769 630.061C580.13 629.238 581.57 628.553 583.067 628.018Z" fill="#112441"/>
<path d="M592.754 580.302H578.321V610.476H592.754V580.302Z" fill="#163666"/>
<path d="M593.887 599.749H575.917V602.455H593.887V599.749Z" fill="#163666"/>
<path d="M593.887 603.605H575.917V606.311H593.887V603.605Z" fill="#163666"/>
<path d="M591.752 595.716H576.629V598.422H591.752V595.716Z" fill="#163666"/>
<path d="M595.16 613.852L575.901 620.671L575.916 608.56H593.807L595.16 609.846V613.852Z" fill="#163666"/>
<path d="M583.303 585.191H596.931L589.015 608.225L585.08 598.259L583.303 585.191Z" fill="#163666"/>
<g filter="url(#filter1_f)">
<path d="M606.098 583C606.129 582.821 606.145 582.639 606.146 582.457C606.967 581.795 607.644 580.966 608.132 580.024C608.62 579.082 608.91 578.047 608.982 576.985C609.054 575.923 608.908 574.858 608.552 573.857C608.196 572.856 607.638 571.941 606.914 571.17C607.317 570.409 607.543 569.565 607.576 568.703C607.609 567.84 607.448 566.981 607.105 566.191C606.761 565.401 606.245 564.701 605.595 564.143C604.945 563.585 604.178 563.184 603.353 562.972C603.013 560.944 601.976 559.104 600.425 557.777C598.875 556.451 596.91 555.724 594.881 555.726C594.406 555.724 593.932 555.761 593.462 555.837C592.596 554.875 591.529 554.123 590.338 553.635C589.147 553.147 587.864 552.936 586.582 553.017C585.3 553.098 584.052 553.47 582.93 554.104C581.809 554.738 580.842 555.62 580.1 556.683C579.37 556.496 578.609 556.466 577.866 556.594C577.123 556.723 576.415 557.007 575.786 557.429C575.158 557.851 574.624 558.401 574.217 559.044C573.811 559.687 573.541 560.409 573.426 561.164C571.672 561.703 570.167 562.862 569.187 564.432C568.206 566.001 567.814 567.875 568.083 569.712C568.351 571.55 569.262 573.228 570.65 574.442C572.037 575.655 573.809 576.323 575.642 576.323H576.973C577.145 577.659 577.791 578.886 578.79 579.776C579.788 580.665 581.072 581.156 582.401 581.158H592.065L594.651 583H606.098Z" fill="#24BF79"/>
</g>
<path d="M602.326 582.558C602.357 582.382 602.372 582.203 602.373 582.023C603.194 581.37 603.869 580.554 604.357 579.626C604.844 578.697 605.133 577.678 605.206 576.632C605.278 575.586 605.132 574.536 604.776 573.55C604.421 572.563 603.864 571.662 603.141 570.902C603.543 570.153 603.769 569.321 603.802 568.472C603.835 567.622 603.674 566.776 603.331 565.997C602.988 565.219 602.473 564.529 601.823 563.979C601.174 563.429 600.409 563.035 599.584 562.825C599.245 560.827 598.209 559.014 596.661 557.708C595.112 556.401 593.151 555.685 591.124 555.686C590.65 555.684 590.176 555.721 589.707 555.795C588.842 554.848 587.776 554.107 586.587 553.626C585.398 553.145 584.116 552.937 582.836 553.017C581.556 553.097 580.31 553.463 579.19 554.088C578.07 554.713 577.104 555.581 576.364 556.629C575.634 556.445 574.874 556.415 574.132 556.542C573.39 556.668 572.683 556.949 572.055 557.364C571.428 557.78 570.894 558.322 570.488 558.955C570.082 559.589 569.813 560.3 569.698 561.044C567.946 561.575 566.444 562.718 565.465 564.264C564.485 565.81 564.094 567.656 564.362 569.466C564.63 571.277 565.54 572.931 566.926 574.126C568.311 575.322 570.081 575.98 571.911 575.98H573.24C573.412 577.296 574.057 578.505 575.055 579.381C576.052 580.257 577.333 580.741 578.661 580.743H588.312L590.895 582.558H602.326Z" fill="#24BF79"/>
<path d="M564.469 603.85L574.971 599.429C578.232 597.117 578.65 594.532 578.65 592.054V583.525C578.65 581.603 578.242 579.703 577.454 577.95L576.227 575.223C575.786 574.243 575.557 573.181 575.557 572.106V559.647H566.279L564.561 584.045L564.469 603.85Z" fill="#D7E3EE"/>
<path d="M599.48 586.058C599.48 586.393 599.414 586.724 599.286 587.033C599.158 587.342 598.97 587.623 598.733 587.86C598.497 588.096 598.216 588.284 597.907 588.412C597.598 588.54 597.266 588.606 596.932 588.606H591.754C591.419 588.606 591.088 588.54 590.779 588.412C590.47 588.284 590.189 588.096 589.952 587.86C589.715 587.623 589.528 587.342 589.4 587.033C589.272 586.724 589.206 586.393 589.206 586.058C589.206 585.724 589.272 585.392 589.4 585.083C589.528 584.774 589.715 584.493 589.952 584.256C590.189 584.02 590.47 583.832 590.779 583.704C591.088 583.576 591.419 583.51 591.754 583.51H596.932C597.266 583.51 597.598 583.576 597.907 583.704C598.216 583.832 598.497 584.02 598.733 584.256C598.97 584.493 599.158 584.774 599.286 585.083C599.414 585.392 599.48 585.724 599.48 586.058Z" fill="#D7E2EE"/>
<path d="M595.86 592.111C595.86 592.446 595.794 592.777 595.666 593.086C595.538 593.395 595.35 593.676 595.113 593.913C594.877 594.15 594.596 594.337 594.287 594.465C593.978 594.593 593.646 594.659 593.312 594.659H588.134C587.799 594.659 587.468 594.593 587.159 594.465C586.849 594.337 586.569 594.15 586.332 593.913C586.095 593.676 585.908 593.395 585.78 593.086C585.652 592.777 585.586 592.446 585.586 592.111C585.586 591.777 585.652 591.445 585.78 591.136C585.908 590.827 586.095 590.546 586.332 590.31C586.569 590.073 586.849 589.885 587.159 589.757C587.468 589.629 587.799 589.563 588.134 589.563H593.312C593.646 589.563 593.978 589.629 594.287 589.757C594.596 589.885 594.877 590.073 595.113 590.31C595.35 590.546 595.538 590.827 595.666 591.136C595.794 591.445 595.86 591.777 595.86 592.111Z" fill="#D7E2EE"/>
<path d="M595.354 598.264C595.354 598.94 595.086 599.588 594.608 600.066C594.13 600.543 593.482 600.812 592.806 600.812H587.628C586.952 600.812 586.304 600.543 585.827 600.066C585.349 599.588 585.08 598.94 585.08 598.264C585.08 597.588 585.349 596.94 585.827 596.463C586.304 595.985 586.952 595.716 587.628 595.716H592.806C593.141 595.716 593.472 595.782 593.781 595.91C594.091 596.038 594.371 596.226 594.608 596.462C594.845 596.699 595.032 596.98 595.16 597.289C595.288 597.598 595.354 597.93 595.354 598.264Z" fill="#D7E2EE"/>
<g style="mix-blend-mode:multiply" opacity="0.25">
<path d="M568.863 597.644L570.51 589.345L570.514 589.328C570.576 589.01 570.747 588.725 570.997 588.52C571.247 588.314 571.561 588.203 571.885 588.203H578.65V586.938H572.69C572.54 586.938 572.392 586.898 572.262 586.822C572.132 586.747 572.024 586.638 571.95 586.507C571.876 586.376 571.838 586.228 571.839 586.078C571.841 585.927 571.883 585.78 571.96 585.651C572.296 585.084 572.692 584.555 573.143 584.075C573.752 583.512 574.125 582.738 574.186 581.91C574.247 581.083 573.992 580.263 573.471 579.617C573.418 579.549 573.384 579.468 573.375 579.383C573.365 579.297 573.38 579.211 573.417 579.133C573.455 579.055 573.513 578.99 573.586 578.944C573.659 578.899 573.743 578.874 573.829 578.874H577.825C577.711 578.563 577.59 578.253 577.454 577.95L577.301 577.61H572.912C572.312 577.61 571.732 577.385 571.289 576.98C570.845 576.575 570.569 576.019 570.515 575.42L570.51 575.366V565.974C570.514 565.461 570.654 564.958 570.914 564.515C571.175 564.073 571.548 563.707 571.995 563.455C572.487 563.183 572.995 562.94 573.516 562.728C574.12 562.478 574.636 562.055 575 561.512C575.363 560.969 575.557 560.33 575.557 559.677V559.647H566.279L564.991 577.946L564.561 584.045L564.469 603.85C565.622 603.214 566.617 602.325 567.377 601.25C568.138 600.176 568.646 598.943 568.863 597.644Z" fill="#24BF79"/>
</g>
<path d="M567.428 565.966V575.357C567.542 576.733 567.997 578.222 569.373 578.796C569.836 579.037 570.233 579.386 570.532 579.814C570.831 580.241 571.023 580.735 571.09 581.252C571.158 581.769 571.099 582.295 570.92 582.785C570.741 583.275 570.446 583.715 570.061 584.066C568.748 585.569 567.842 587.384 567.428 589.336L564.47 603.841L560.814 605.258C560.055 605.552 559.213 605.555 558.452 605.267L557.533 604.919C556.906 604.682 556.366 604.259 555.984 603.707C555.603 603.155 555.399 602.5 555.399 601.83V600.217L554.023 598.268C552.762 597.238 553.487 595.389 553.487 595.389L553.44 595.346L552.648 594.601C552.484 594.343 552.409 594.038 552.434 593.733C552.503 593.234 552.74 592.773 553.108 592.429C553.568 588.762 550.471 588.074 550.471 588.074C548.526 587.273 549.669 586.011 549.669 586.011L556.774 577.535C555.399 575.016 556.661 571.809 556.661 571.809L557.002 569.058C558.89 556.858 573.495 556.175 573.495 556.175V561.844C571.888 562.117 570.339 562.659 568.913 563.447C568.466 563.699 568.093 564.065 567.832 564.507C567.571 564.949 567.432 565.452 567.428 565.966Z" fill="white"/>
<g style="mix-blend-mode:multiply">
<path d="M557.435 595.351H553.441L552.649 594.606C552.485 594.348 552.41 594.043 552.436 593.738L557.435 595.351Z" fill="#D0DDEB"/>
</g>
<path opacity="0.5" d="M554.024 598.263L555.399 600.213V602.106L556.508 601.182C556.797 600.941 557.03 600.639 557.189 600.298C557.349 599.957 557.432 599.585 557.432 599.209L553.771 598.012C553.848 598.103 553.932 598.187 554.024 598.263Z" fill="#D0DDEB"/>
<g style="mix-blend-mode:multiply">
<path d="M549.518 586.224C549.287 586.619 549.02 587.471 550.472 588.069C551.19 588.269 551.832 588.678 552.318 589.243H554.853C553.906 587.571 551.26 586.659 549.518 586.224Z" fill="#D0DDEB"/>
</g>
<path opacity="0.5" d="M568.913 563.447C570.339 562.659 571.888 562.117 573.495 561.844V556.175C572.684 556.232 571.877 556.338 571.079 556.493C571.026 558.09 570.576 560.437 568.514 561.413C565.249 562.96 565.077 564.85 565.077 568.544V574.472C565.077 574.472 564.734 577.307 567.826 579.712C567.826 579.712 570.49 581.516 567.998 583.578C567.659 583.863 567.355 584.187 567.093 584.544L567.086 584.479L563.885 587.206H561.276L564.122 588.274L565.958 586.72C565.457 588.363 565.076 590.041 564.82 591.739L562.844 602.478C562.844 602.478 562.635 603.751 560.739 605.278L564.47 603.841L567.428 589.336C567.841 587.384 568.748 585.569 570.06 584.066C570.446 583.715 570.741 583.275 570.92 582.785C571.099 582.295 571.158 581.769 571.09 581.252C571.022 580.735 570.831 580.241 570.532 579.814C570.233 579.386 569.835 579.037 569.373 578.796C567.997 578.222 567.542 576.733 567.428 575.357V565.966C567.432 565.452 567.571 564.949 567.832 564.507C568.093 564.065 568.465 563.699 568.913 563.447Z" fill="#D0DDEB"/>
<g style="mix-blend-mode:multiply">
<path d="M558.37 580.795C558.498 580.29 558.69 579.803 558.943 579.348C559.053 579.072 559.083 578.771 559.032 578.479C558.98 578.187 558.847 577.916 558.649 577.695C558.358 577.339 558.159 576.918 558.067 576.468C558.854 577.147 559.863 577.514 560.902 577.499C560.902 577.499 563.05 577.585 563.823 578.873C563.823 578.873 560.087 581.338 560.041 581.368C559.578 581.673 558.712 581.763 558.428 581.193C558.372 581.068 558.352 580.931 558.37 580.795Z" fill="#24BF79"/>
</g>
<g opacity="0.4">
<path d="M583.816 561.213C583.816 561.535 583.72 561.851 583.541 562.119C583.361 562.387 583.107 562.596 582.809 562.719C582.511 562.843 582.183 562.875 581.866 562.812C581.55 562.749 581.259 562.594 581.031 562.366C580.803 562.138 580.648 561.847 580.585 561.531C580.522 561.214 580.554 560.886 580.678 560.588C580.801 560.29 581.01 560.036 581.279 559.856C581.547 559.677 581.862 559.582 582.185 559.582C582.399 559.582 582.611 559.624 582.809 559.706C583.007 559.788 583.186 559.908 583.338 560.059C583.489 560.211 583.61 560.391 583.691 560.588C583.773 560.786 583.816 560.998 583.816 561.213Z" fill="white"/>
<path d="M595.865 564.683C595.865 564.955 595.784 565.222 595.633 565.448C595.482 565.674 595.267 565.851 595.015 565.955C594.764 566.059 594.487 566.087 594.22 566.034C593.953 565.98 593.707 565.849 593.515 565.657C593.322 565.464 593.191 565.219 593.138 564.952C593.085 564.685 593.112 564.408 593.216 564.156C593.32 563.905 593.497 563.69 593.723 563.538C593.95 563.387 594.216 563.306 594.488 563.306C594.853 563.306 595.204 563.451 595.462 563.709C595.72 563.968 595.865 564.318 595.865 564.683Z" fill="white"/>
<path d="M588.053 567.893C588.053 568.231 587.953 568.562 587.765 568.843C587.577 569.124 587.31 569.343 586.998 569.472C586.686 569.601 586.342 569.635 586.011 569.569C585.679 569.503 585.375 569.341 585.136 569.102C584.897 568.863 584.734 568.558 584.668 568.227C584.602 567.895 584.636 567.551 584.765 567.239C584.895 566.927 585.114 566.66 585.395 566.472C585.676 566.284 586.006 566.184 586.344 566.184C586.569 566.184 586.791 566.228 586.998 566.314C587.206 566.4 587.394 566.526 587.553 566.685C587.711 566.843 587.837 567.032 587.923 567.239C588.009 567.446 588.053 567.669 588.053 567.893Z" fill="white"/>
<path d="M595.041 564.92H593.933V557.873C593.933 557.726 593.991 557.585 594.095 557.481C594.199 557.377 594.34 557.318 594.487 557.318C594.634 557.318 594.775 557.377 594.879 557.481C594.983 557.585 595.041 557.726 595.041 557.873V564.92Z" fill="white"/>
<path d="M586.988 567.311H585.879V562.586C585.879 562.513 585.894 562.441 585.922 562.374C585.95 562.307 585.99 562.246 586.042 562.194C586.093 562.143 586.154 562.102 586.222 562.074C586.289 562.046 586.361 562.032 586.434 562.032C586.507 562.032 586.579 562.046 586.646 562.074C586.713 562.102 586.774 562.143 586.826 562.194C586.877 562.246 586.918 562.307 586.946 562.374C586.974 562.441 586.988 562.513 586.988 562.586V567.311Z" fill="white"/>
<path d="M582.739 560.381H581.63V554.917C581.63 554.77 581.689 554.629 581.793 554.525C581.897 554.421 582.038 554.363 582.185 554.363C582.332 554.363 582.473 554.421 582.577 554.525C582.681 554.629 582.739 554.77 582.739 554.917V560.381Z" fill="white"/>
<path d="M590.789 574.994C590.789 575.141 590.731 575.282 590.627 575.386C590.523 575.49 590.382 575.548 590.235 575.548C590.088 575.548 589.947 575.49 589.843 575.386C589.739 575.282 589.681 575.141 589.681 574.994V557.026C589.681 556.879 589.739 556.738 589.843 556.635C589.947 556.531 590.088 556.472 590.235 556.472C590.382 556.472 590.523 556.531 590.627 556.635C590.731 556.738 590.789 556.879 590.789 557.026V574.994Z" fill="white"/>
<path d="M594.597 565.26V564.152H600.026C600.173 564.152 600.314 564.21 600.418 564.314C600.522 564.418 600.58 564.559 600.58 564.706C600.58 564.853 600.522 564.994 600.418 565.098C600.314 565.202 600.173 565.26 600.026 565.26H594.597Z" fill="white"/>
<path d="M578.894 568.446C578.747 568.446 578.606 568.388 578.502 568.284C578.398 568.18 578.34 568.039 578.34 567.892C578.34 567.745 578.398 567.604 578.502 567.5C578.606 567.396 578.747 567.338 578.894 567.338H585.836V567.892C585.836 568.039 585.777 568.18 585.673 568.284C585.569 568.388 585.428 568.446 585.281 568.446H578.894Z" fill="white"/>
<path d="M595.514 567.843H590.411V568.952H595.514V567.843Z" fill="white"/>
<path d="M596.469 571.67C596.469 571.942 596.389 572.208 596.237 572.435C596.086 572.661 595.871 572.838 595.619 572.942C595.368 573.046 595.091 573.073 594.824 573.02C594.557 572.967 594.311 572.836 594.119 572.644C593.926 572.451 593.795 572.206 593.742 571.938C593.689 571.671 593.716 571.395 593.82 571.143C593.925 570.891 594.101 570.676 594.328 570.525C594.554 570.374 594.82 570.293 595.093 570.293C595.458 570.293 595.808 570.438 596.066 570.696C596.324 570.954 596.469 571.305 596.469 571.67Z" fill="white"/>
<path d="M595.648 567.843H594.539V570.817H595.648V567.843Z" fill="white"/>
</g>
<path d="M591.16 583.236C591.934 579.197 589.286 575.295 585.246 574.522C581.206 573.749 577.305 576.397 576.532 580.437C575.759 584.476 578.407 588.378 582.446 589.151C586.486 589.924 590.387 587.276 591.16 583.236Z" fill="#B0C6DD"/>
<path d="M585.99 581.842C585.99 582.266 585.864 582.68 585.628 583.033C585.393 583.385 585.058 583.66 584.666 583.822C584.275 583.985 583.843 584.027 583.428 583.944C583.012 583.862 582.63 583.657 582.33 583.358C582.03 583.058 581.826 582.676 581.743 582.26C581.66 581.844 581.703 581.413 581.865 581.021C582.027 580.63 582.302 580.295 582.655 580.059C583.007 579.824 583.422 579.698 583.846 579.698C584.414 579.698 584.96 579.924 585.362 580.326C585.764 580.728 585.99 581.273 585.99 581.842Z" fill="white"/>
<path d="M584.809 581.845C584.809 582.035 584.752 582.221 584.647 582.379C584.541 582.537 584.391 582.661 584.215 582.733C584.039 582.806 583.846 582.825 583.66 582.788C583.473 582.751 583.302 582.66 583.167 582.525C583.033 582.391 582.941 582.219 582.904 582.033C582.867 581.846 582.886 581.653 582.959 581.477C583.032 581.302 583.155 581.151 583.313 581.046C583.471 580.94 583.657 580.884 583.847 580.884C584.102 580.884 584.347 580.985 584.527 581.165C584.707 581.346 584.809 581.59 584.809 581.845Z" fill="#24BF79"/>
<path d="M585.368 585.941C585.297 585.601 585.112 585.297 584.843 585.078C584.574 584.86 584.238 584.74 583.891 584.74C583.545 584.74 583.209 584.86 582.94 585.078C582.671 585.297 582.486 585.601 582.415 585.941L581.888 588.472C581.826 588.77 581.831 589.078 581.903 589.373C581.975 589.669 582.112 589.944 582.303 590.18C582.495 590.417 582.738 590.607 583.012 590.737C583.287 590.868 583.587 590.936 583.891 590.936C584.196 590.936 584.496 590.868 584.771 590.737C585.045 590.607 585.287 590.417 585.479 590.18C585.671 589.944 585.808 589.669 585.88 589.373C585.952 589.078 585.957 588.77 585.895 588.472L585.368 585.941Z" fill="white"/>
<path d="M588.159 582.575C587.83 582.466 587.473 582.475 587.149 582.598C586.826 582.722 586.554 582.953 586.381 583.253C586.208 583.553 586.143 583.904 586.198 584.246C586.253 584.588 586.424 584.901 586.682 585.132L588.611 586.854C588.838 587.057 589.107 587.206 589.399 587.292C589.691 587.377 589.998 587.397 590.298 587.348C590.599 587.3 590.885 587.186 591.135 587.013C591.386 586.841 591.595 586.614 591.747 586.351C591.899 586.088 591.99 585.793 592.014 585.49C592.039 585.187 591.995 584.882 591.886 584.598C591.778 584.314 591.608 584.057 591.388 583.847C591.168 583.637 590.904 583.479 590.615 583.384L588.159 582.575Z" fill="white"/>
<path d="M586.639 578.468C586.38 578.699 586.209 579.012 586.154 579.354C586.099 579.696 586.164 580.047 586.337 580.347C586.51 580.647 586.782 580.878 587.105 581.002C587.429 581.125 587.786 581.133 588.115 581.025L590.571 580.216C590.86 580.121 591.124 579.963 591.344 579.753C591.564 579.542 591.734 579.286 591.842 579.002C591.951 578.718 591.995 578.413 591.97 578.11C591.946 577.806 591.855 577.512 591.703 577.249C591.551 576.985 591.342 576.759 591.091 576.587C590.841 576.414 590.555 576.3 590.255 576.251C589.954 576.203 589.647 576.223 589.355 576.308C589.063 576.394 588.794 576.543 588.567 576.746L586.639 578.468Z" fill="white"/>
<path d="M582.324 577.738C582.395 578.077 582.58 578.382 582.849 578.6C583.118 578.819 583.454 578.938 583.801 578.938C584.147 578.938 584.483 578.819 584.752 578.6C585.021 578.382 585.206 578.077 585.277 577.738L585.804 575.207C585.866 574.909 585.861 574.601 585.789 574.305C585.717 574.01 585.581 573.734 585.389 573.498C585.197 573.262 584.955 573.072 584.68 572.941C584.405 572.81 584.105 572.743 583.801 572.743C583.497 572.743 583.196 572.81 582.922 572.941C582.647 573.072 582.405 573.262 582.213 573.498C582.021 573.734 581.884 574.01 581.812 574.305C581.74 574.601 581.735 574.909 581.797 575.207L582.324 577.738Z" fill="white"/>
<path d="M579.532 581.102C579.862 581.21 580.218 581.202 580.542 581.078C580.866 580.955 581.137 580.724 581.31 580.423C581.483 580.123 581.548 579.773 581.493 579.431C581.438 579.088 581.267 578.776 581.009 578.545L579.08 576.822C578.853 576.62 578.584 576.47 578.292 576.385C578 576.299 577.693 576.28 577.393 576.328C577.092 576.376 576.807 576.491 576.556 576.663C576.306 576.836 576.097 577.062 575.945 577.326C575.792 577.589 575.701 577.883 575.677 578.186C575.653 578.49 575.696 578.794 575.805 579.079C575.913 579.363 576.084 579.619 576.304 579.829C576.524 580.039 576.788 580.198 577.077 580.293L579.532 581.102Z" fill="white"/>
<path d="M581.055 585.208C581.314 584.978 581.485 584.665 581.54 584.323C581.595 583.98 581.53 583.63 581.357 583.33C581.184 583.03 580.912 582.798 580.589 582.675C580.265 582.551 579.908 582.543 579.579 582.651L577.123 583.46C576.834 583.555 576.57 583.714 576.35 583.924C576.13 584.134 575.96 584.39 575.851 584.675C575.743 584.959 575.699 585.264 575.723 585.567C575.748 585.87 575.839 586.164 575.991 586.427C576.143 586.691 576.352 586.917 576.603 587.09C576.853 587.262 577.139 587.377 577.439 587.425C577.74 587.473 578.047 587.454 578.339 587.368C578.631 587.283 578.9 587.133 579.127 586.931L581.055 585.208Z" fill="white"/>
<path d="M595.411 598.733H593.095V597.784H595.411C596.282 597.785 597.135 597.531 597.864 597.053C601.594 594.619 601.848 591.377 601.403 589.086C601.262 588.366 600.877 587.717 600.311 587.25C599.746 586.783 599.035 586.527 598.302 586.525L598.275 585.576H598.302C599.255 585.578 600.179 585.911 600.914 586.518C601.65 587.125 602.152 587.969 602.334 588.905C602.834 591.482 602.554 595.126 598.383 597.847C597.499 598.426 596.466 598.734 595.411 598.733Z" fill="#D7E3EE"/>
<path d="M595.325 592.785L595.291 591.837L595.308 592.311L595.29 591.837C596.347 591.744 597.33 591.255 598.044 590.469C598.899 589.471 599.223 588.004 599.007 586.111L599.95 586.004C600.197 588.176 599.795 589.89 598.755 591.098C597.873 592.082 596.644 592.687 595.325 592.785Z" fill="#D7E3EE"/>
<path d="M581.555 616.482H574.144L571.594 608.56H581.555V616.482Z" fill="#163666"/>
<path d="M539.398 716.526C543.109 716.526 546.117 713.518 546.117 709.808C546.117 706.097 543.109 703.089 539.398 703.089C535.688 703.089 532.68 706.097 532.68 709.808C532.68 713.518 535.688 716.526 539.398 716.526Z" fill="#39547D"/>
<path d="M540.857 708.351C540.568 708.063 540.201 707.866 539.801 707.787C539.401 707.707 538.987 707.748 538.61 707.904C538.234 708.06 537.912 708.324 537.685 708.663C537.459 709.002 537.338 709.401 537.338 709.808C537.338 710.216 537.459 710.615 537.685 710.954C537.912 711.293 538.234 711.557 538.61 711.713C538.987 711.869 539.401 711.91 539.801 711.83C540.201 711.751 540.568 711.554 540.857 711.266C541.243 710.879 541.46 710.355 541.46 709.808C541.46 709.262 541.243 708.737 540.857 708.351Z" fill="#233166"/>
<g style="mix-blend-mode:multiply" opacity="0.5">
<path d="M544.257 709.805C544.258 710.766 543.974 711.705 543.441 712.505C542.908 713.304 542.15 713.927 541.262 714.296C540.375 714.664 539.398 714.761 538.456 714.575C537.514 714.388 536.648 713.926 535.968 713.247C535.288 712.569 534.824 711.704 534.636 710.762C534.448 709.82 534.543 708.843 534.91 707.955C535.277 707.067 535.899 706.308 536.697 705.773C537.495 705.239 538.434 704.953 539.395 704.952C540.02 704.95 540.639 705.07 541.218 705.305L546.467 695.325L544.891 689.609L545.737 688.059L547.78 695.466L542.284 705.912C542.896 706.36 543.393 706.946 543.736 707.623C544.079 708.299 544.257 709.047 544.257 709.805Z" fill="#233166"/>
</g>
<path d="M480.03 715.751L475.967 711.448L465.721 708.928C465.384 708.845 465.033 708.835 464.691 708.898C464.35 708.961 464.026 709.095 463.74 709.293L458.844 712.686H453.62L452.749 716.398H470.774C470.937 716.399 471.099 716.368 471.25 716.307C471.402 716.245 471.539 716.154 471.655 716.039C471.771 715.924 471.863 715.788 471.926 715.637C471.988 715.486 472.021 715.325 472.021 715.161C472.021 714.998 471.988 714.836 471.926 714.686C471.863 714.535 471.771 714.398 471.655 714.283C471.539 714.168 471.402 714.077 471.25 714.016C471.099 713.954 470.937 713.923 470.774 713.925H467.596L468.638 712.201L470.297 712.556L471.985 713.285C474.018 718.045 476.554 716.438 476.554 716.438L474.712 713.502L474.934 713.55C477.857 717.822 480.03 715.751 480.03 715.751Z" fill="#FFE9D5"/>
<path d="M387.905 641.575V703.653L457.556 711.76V716.384H384.827C382.742 716.384 380.709 715.737 379.007 714.534C377.305 713.331 376.018 711.629 375.323 709.664L366.543 684.834L387.905 641.575Z" fill="#112441"/>
<path d="M545.342 766.586C544.321 774.759 541.978 785.549 538.596 798.091C538.411 798.752 538.234 799.412 538.049 800.09C532.694 819.582 524.917 843.081 515.713 867.513V877.387H511.732L511.723 874.568C511.723 874.568 508.667 877.369 504.915 877.387H489.228C489.228 877.387 488.867 873.661 495.341 873.3C495.341 873.3 501.7 873.273 505.796 871.318C506.467 870.918 507.031 870.362 507.443 869.698C507.452 869.689 507.452 869.671 507.46 869.662C507.469 869.662 507.469 869.654 507.478 869.636C507.804 869.16 508.984 868.095 509.592 867.135L530.66 739.872L545.342 766.586Z" fill="#112441"/>
<g style="mix-blend-mode:multiply" opacity="0.5">
<path d="M387.03 643.344L383.208 651.084L377.906 666.714L368.209 681.457L366.543 684.831L370.972 697.357C388.762 668.782 387.97 649.587 387.03 643.344Z" fill="#223166"/>
</g>
<path d="M296.854 749.8C296.854 749.8 278.613 726.372 258.599 731.613L296.801 699.903L296.854 749.8Z" fill="#27426A"/>
<path d="M395.81 610.677C395.81 610.677 389.792 611.078 387.647 612.814L376.663 623.139L358.915 608.023L385.801 584.95L395.81 610.677Z" fill="#FFE9D5"/>
<path d="M381.25 616.657C381.25 616.657 395.636 636.942 382.094 668.691C374.903 685.551 342.199 721.127 342.199 721.127L381.25 616.657Z" fill="#002842"/>
<path d="M381.776 619.29C381.776 619.29 389.558 652.086 370.014 681.124L352.399 704.926C350.095 708.039 345.806 714.447 344.534 718.139V728.098H281.122L281.255 707.569L296.815 688.192L305.978 658.115L331.459 611.565L367.877 601.781L373.346 613.561L381.776 619.29Z" fill="url(#paint4_linear)"/>
<path d="M382.658 621.879L377.951 627.06L376.293 620.13L381.467 618.427L382.658 621.879Z" fill="#24BF79"/>
<path d="M367.898 621.056C366.111 607.333 365.793 606.629 365.521 600.567L368.669 599.54C371.984 606.657 373.982 610.732 382.672 617.79L382.672 617.79L382.672 617.79L386.356 626.158C382.55 624.531 382.219 622.324 382.219 622.324L381.028 618.871C379.094 620.089 376.937 620.91 374.683 621.285C372.428 621.66 370.122 621.582 367.898 621.056Z" fill="white"/>
<g style="mix-blend-mode:multiply" opacity="0.7">
<path d="M300.805 677.482L299.35 679.882L296.817 688.197L286.551 700.98L281.242 709.732L281.135 726.239L305.643 695.284L316.603 688.516C348.703 674.653 363.467 631.808 363.467 631.808L300.805 677.482Z" fill="#D1D1D0"/>
</g>
<path d="M665.865 750.633C665.865 750.633 683.953 740.93 695.138 749.845L679.865 719.107L665.865 750.633Z" fill="#27426A"/>
<path d="M583.067 624.49C583.067 624.49 574.37 653.817 593.576 682.352C601.309 689.955 609.272 695.986 616.537 704.053C621.486 709.548 631.557 717.937 633.498 725.118L634.152 727.54H684.356L656.5 659.742L643.012 632.443C639.041 624.405 632.875 617.656 625.228 612.975C617.582 608.294 608.766 605.874 599.802 605.993L590.302 615.96L583.067 624.49Z" fill="url(#paint5_linear)"/>
<path d="M595.398 603.348L593.636 600.266L575.14 620.667L582.144 632.224L595.398 603.348Z" fill="white"/>
<path d="M582.186 716.427H382.251C382.251 718.175 382.945 719.852 384.182 721.089C385.418 722.325 387.095 723.02 388.844 723.02H575.593C577.341 723.02 579.018 722.325 580.255 721.089C581.491 719.852 582.186 718.175 582.186 716.427Z" fill="white"/>
<path d="M490.172 712.311L490.278 712.198C490.511 711.949 490.794 711.752 491.109 711.619C491.423 711.487 491.762 711.422 492.103 711.429L492.159 711.43C492.102 711.344 492.08 711.24 492.096 711.139C492.112 711.037 492.165 710.945 492.246 710.88L492.349 710.799C492.578 710.618 492.842 710.488 493.124 710.416C493.407 710.344 493.701 710.332 493.988 710.382L494.05 710.393C494.047 710.331 494.061 710.269 494.089 710.214C494.117 710.159 494.159 710.112 494.21 710.078L494.307 710.016C494.52 709.878 494.759 709.786 495.01 709.747C495.26 709.707 495.516 709.721 495.761 709.787L499.982 710.927L502.508 711.57C503.139 711.561 503.762 711.417 504.333 711.148C504.905 710.879 505.413 710.492 505.823 710.012L506.283 709.471C506.462 709.26 506.574 709.001 506.607 708.727C506.639 708.452 506.59 708.174 506.465 707.928L506.28 707.566C505.662 706.323 505.236 704.994 505.016 703.623L505.018 703.41C505.02 703.119 505.137 702.84 505.343 702.634C505.548 702.428 505.827 702.311 506.118 702.309C506.543 702.306 506.725 702.495 506.972 702.84C506.972 702.84 509.254 707.645 509.894 708.146L510.492 708.613C511.229 709.189 511.862 709.886 512.364 710.674L514.636 710.932H524.38V714.891H510.952C510.558 714.863 510.165 714.948 509.818 715.136C509.584 715.23 509.332 715.27 509.081 715.255L504.287 714.951L504.283 715.005L503.927 714.928L503.216 714.883L501.735 715.08C501.509 715.11 501.279 715.084 501.065 715.006L499.375 714.387L495.53 713.677C495.376 713.649 495.22 713.627 495.063 713.611L490.486 713.147C490.393 713.137 490.305 713.102 490.232 713.046C490.158 712.989 490.102 712.913 490.069 712.826C490.037 712.739 490.029 712.645 490.047 712.554C490.065 712.463 490.109 712.378 490.172 712.311Z" fill="white"/>
<path d="M657.052 761.014L611.56 758.337L609.578 758.222L554.838 755.007C557.78 760.142 560.511 766.924 563.091 774.877C563.294 775.512 563.505 776.155 563.708 776.806C564.809 780.312 565.875 784.029 566.923 787.931C567.099 788.547 567.266 789.172 567.425 789.807C573.352 812.257 578.549 840.143 583.878 866.618C584.038 867.216 584.121 867.832 584.124 868.451V877.39H580.143L580.134 874.572C580.134 874.572 577.069 877.373 573.317 877.39H557.631C557.631 877.39 557.269 873.665 563.752 873.304C563.752 873.304 570.111 873.277 574.207 871.322C574.875 870.921 575.437 870.365 575.845 869.701C575.854 869.692 575.863 869.675 575.871 869.666C575.878 869.658 575.884 869.649 575.889 869.64C576.215 869.164 577.395 868.098 578.003 867.138L578.029 866.997L528.16 744.887C527.238 742.64 526.993 740.173 527.455 737.788C527.762 736.114 528.413 734.521 529.367 733.111C529.525 732.874 529.684 732.653 529.86 732.433C531.034 730.911 532.542 729.679 534.268 728.832C535.993 727.984 537.89 727.544 539.813 727.545H684.356C685.554 732.327 686.998 761.014 657.052 761.014Z" fill="#163666"/>
<path d="M420.1 766.589L434.779 739.872L455.844 867.136C456.456 868.102 457.634 869.163 457.957 869.64L457.976 869.668L457.998 869.701C458.41 870.364 458.973 870.921 459.642 871.325C463.737 873.274 470.095 873.3 470.095 873.3C476.574 873.667 476.215 877.388 476.215 877.388H460.526C456.774 877.373 453.716 874.568 453.716 874.568L453.704 877.388H449.727V867.516C434.19 826.296 422.741 787.716 420.1 766.589Z" fill="#112441"/>
<path opacity="0.4" d="M661.157 684.537L664.349 677.666L666.326 679.263L661.157 684.537Z" fill="#4D576C"/>
<path d="M706.689 722.372C706.423 717.258 704.653 712.337 701.602 708.225C701.04 707.462 700.382 706.773 699.643 706.178L680.389 690.624C676.666 687.332 672.396 683.863 667.504 680.215L664.246 677.584L657.194 652.973L655.29 647.684C645.308 605.407 595.397 603.188 595.397 603.188L584.4 619.709L583.904 620.621C582.894 622.479 582.44 624.589 582.598 626.699C582.755 628.808 583.518 630.827 584.794 632.515L598.04 650.033L599.165 649.118L598.04 669.41C598.04 669.41 607.131 683.046 640.771 694.159C648.75 696.795 656.208 700.803 662.809 706.003C675.074 715.697 691.066 732.365 690.521 753.083C690.521 753.083 709.217 741.754 706.689 722.372Z" fill="#163666"/>
<path d="M485.887 729.589H479.721V878.146H485.887V729.589Z" fill="url(#paint6_linear)"/>
<path d="M365.522 600.562H353.047C333.201 602.66 321.045 614.902 314.21 625.206C312.475 627.822 311.154 630.689 310.294 633.708L298.097 676.272L294.782 678.95C289.804 682.662 285.458 686.192 281.669 689.542L261.155 706.115C261.155 706.115 248.935 719.381 258.631 735.138C258.811 735.489 259.022 735.825 259.261 736.14L308.22 687.803C376.8 653.936 365.522 600.562 365.522 600.562Z" fill="#163666"/>
<path d="M464.433 640.655L466.959 638.404C466.207 637.957 465.385 637.637 464.528 637.458C463.156 637.191 461.872 636.59 460.788 635.708C460.698 635.622 460.586 635.564 460.463 635.542C460.341 635.52 460.215 635.535 460.101 635.584C459.987 635.633 459.89 635.715 459.823 635.819C459.755 635.923 459.719 636.044 459.72 636.168C459.721 636.212 459.722 636.257 459.723 636.302C459.748 636.935 459.964 637.547 460.342 638.056C460.719 638.566 461.242 638.95 461.841 639.158C462.812 639.444 463.7 639.958 464.433 640.655Z" fill="white"/>
<path d="M363.761 602.32C363.761 602.32 373.162 654.169 308.418 685.506C308.418 685.506 352.855 651.666 349.682 619.359L358.073 618.493L345.419 610.819L363.761 602.32Z" fill="#204B84"/>
<g style="mix-blend-mode:multiply" opacity="0.5">
<path d="M322.357 620.381C322.357 620.381 316.779 627.721 324.706 640.639L340.553 665.687C343.855 662.517 346.921 659.109 349.726 655.491L322.357 620.381Z" fill="#223166"/>
</g>
<path opacity="0.4" d="M301.239 683.351L297.991 676.359L295.978 677.984L301.239 683.351Z" fill="#B0C6DD"/>
<g style="mix-blend-mode:multiply">
<path d="M387.849 605.365C386.787 603.996 386.08 602.386 385.789 600.678C385.498 598.97 385.632 597.217 386.18 595.574C386.081 595.682 385.982 595.791 385.885 595.901C384.152 597.794 382.828 600.025 381.998 602.454C381.541 603.856 381.312 605.323 381.32 606.799C381.464 606.429 381.709 606.106 382.026 605.867C382.307 608.315 382.973 610.704 384 612.943C384.08 612.609 384.264 612.253 384.344 611.919C384.677 612.902 385.085 613.859 385.563 614.78L387.648 612.821C389.712 611.15 395.344 610.717 395.769 610.686C392.64 609.779 389.871 607.919 387.849 605.365Z" fill="#FFE9D5"/>
</g>
<path d="M278.444 770.987H411.44V766.876C411.44 765.163 410.759 763.521 409.548 762.309C408.337 761.098 406.694 760.417 404.981 760.417H284.903C283.19 760.417 281.547 761.098 280.335 762.309C279.124 763.521 278.444 765.163 278.444 766.876V770.987Z" fill="white"/>
<path d="M420.247 877.38H414.962V778.03C414.961 776.94 414.528 775.896 413.757 775.125C412.987 774.355 411.942 773.921 410.852 773.92H279.03C277.941 773.921 276.896 774.354 276.125 775.125C275.355 775.896 274.921 776.94 274.92 778.03V877.38H269.635V778.03C269.638 775.539 270.629 773.151 272.39 771.39C274.152 769.629 276.54 768.638 279.03 768.635H410.852C413.343 768.638 415.731 769.629 417.492 771.39C419.253 773.151 420.244 775.539 420.247 778.03V877.38Z" fill="white"/>
<path d="M269.635 703.758V770.774C270.999 769.012 272.83 767.668 274.919 766.893L274.919 703.805C274.937 702.769 275.19 678.259 260.053 662.855C252.753 655.426 243.15 651.43 231.481 650.959C231.176 650.947 230.871 650.997 230.585 651.105C230.299 651.214 230.038 651.378 229.818 651.59C229.597 651.802 229.422 652.056 229.302 652.337C229.182 652.618 229.12 652.92 229.119 653.226V653.942C229.119 654.536 229.349 655.107 229.76 655.536C230.172 655.965 230.734 656.218 231.327 656.243C241.576 656.672 249.957 660.13 256.263 666.537C269.845 680.337 269.639 703.482 269.635 703.758Z" fill="white"/>
<g style="mix-blend-mode:multiply">
<path d="M274.919 703.802C274.922 703.661 274.927 703.077 274.9 702.155L272.741 719.903C271.276 723.793 270.235 727.831 269.635 731.945V755.721H274.92L274.919 703.802Z" fill="#B0C5DC"/>
</g>
<path d="M269.61 770.801C270.971 769.031 272.802 767.678 274.894 766.896V749.552C274.891 749.276 274.684 726.131 288.266 712.331C295.02 705.47 304.152 701.991 315.41 701.991V696.706C302.67 696.706 292.263 700.724 284.476 708.648C269.339 724.053 269.592 748.563 269.61 749.599L269.61 770.801Z" fill="white"/>
<path d="M695.806 703.758V770.774C694.441 769.012 692.611 767.668 690.521 766.893L690.521 703.805C690.503 702.769 690.25 678.259 705.387 662.855C712.687 655.426 722.29 651.43 733.959 650.959C734.265 650.947 734.569 650.997 734.855 651.105C735.141 651.214 735.402 651.378 735.622 651.59C735.843 651.802 736.018 652.056 736.138 652.337C736.258 652.618 736.321 652.92 736.321 653.226V653.942C736.321 654.536 736.091 655.107 735.68 655.536C735.268 655.965 734.707 656.218 734.113 656.243C723.864 656.672 715.484 660.13 709.177 666.537C695.595 680.337 695.802 703.482 695.806 703.758Z" fill="white"/>
<g style="mix-blend-mode:multiply">
<path d="M690.521 703.802C690.518 703.661 690.513 703.077 690.541 702.155L692.699 719.903C694.165 723.793 695.206 727.831 695.805 731.945V755.721H690.521L690.521 703.802Z" fill="#B0C5DC"/>
</g>
<g style="mix-blend-mode:multiply" opacity="0.5">
<path d="M638.849 689.959C627.399 686.142 624.935 677.041 624.935 677.041L615.382 635.644C613.699 627.387 610.843 625.662 607.026 624.194L608.763 643.372L604.697 675.997C610.864 680.963 621.988 687.952 640.771 694.157C648.75 696.793 656.208 700.801 662.809 706.001C664.178 707.083 665.595 708.257 667.028 709.508C662.136 702.523 650.078 693.702 638.849 689.959Z" fill="#223166"/>
</g>
<path d="M575.14 620.667L576.608 628.891L581.631 631.27L575.14 620.667Z" fill="#24BF79"/>
<path d="M517.48 716.473C519.802 716.473 521.684 714.591 521.684 712.269C521.684 709.948 519.802 708.066 517.48 708.066C515.159 708.066 513.277 709.948 513.277 712.269C513.277 714.591 515.159 716.473 517.48 716.473Z" fill="#24BF79"/>
<path d="M517.481 713.7C518.273 713.7 518.914 713.059 518.914 712.267C518.914 711.476 518.273 710.834 517.481 710.834C516.69 710.834 516.049 711.476 516.049 712.267C516.049 713.059 516.69 713.7 517.481 713.7Z" fill="white"/>
<g style="mix-blend-mode:multiply" opacity="0.7">
<path d="M684.848 730.937C684.826 730.898 684.803 730.859 684.781 730.82L684.788 730.937H684.848Z" fill="#DEF2F9"/>
</g>
<g style="mix-blend-mode:multiply" opacity="0.7">
<path d="M636.555 697.468C649.229 704.01 666.83 713.212 672.811 727.534H682.852C677.238 718.609 669.477 711.268 662.808 705.997C656.207 700.797 648.749 696.789 640.77 694.153C634.01 691.956 627.414 689.285 621.031 686.159C625.532 690.776 630.78 694.6 636.555 697.468Z" fill="#DEF2F9"/>
</g>
<g style="mix-blend-mode:multiply" opacity="0.8">
<path d="M665.532 756.216C663.328 756.985 661.003 757.352 658.669 757.301L554.84 755.004L657.05 761.01C676.743 761.01 682.86 748.607 684.4 738.751C682.117 749.053 671.406 754.156 665.532 756.216Z" fill="#BBC0E0"/>
</g>
<path d="M542.035 738.643C541.781 740.297 541.043 741.839 539.912 743.073C538.782 744.308 537.311 745.18 535.686 745.578C534.06 745.976 532.353 745.884 530.78 745.312C529.207 744.74 527.839 743.715 526.849 742.366C525.858 741.016 525.291 739.403 525.217 737.731C525.143 736.059 525.567 734.403 526.435 732.972C527.302 731.54 528.575 730.399 530.092 729.691C531.608 728.983 533.301 728.741 534.955 728.994C536.053 729.163 537.108 729.546 538.058 730.122C539.008 730.699 539.836 731.456 540.493 732.352C541.151 733.248 541.626 734.265 541.89 735.344C542.155 736.424 542.204 737.544 542.035 738.643Z" fill="#39547D"/>
<g style="mix-blend-mode:multiply" opacity="0.5">
<path d="M611.559 758.333L609.577 758.218L604.9 747.605L539.715 738.894C539.599 739.342 539.437 739.775 539.23 740.189C538.646 741.343 537.712 742.283 536.561 742.875L559.092 783.919L566.922 787.927C567.098 788.543 567.265 789.169 567.424 789.803L557.991 784.976L535.214 743.395C533.75 743.773 532.199 743.605 530.851 742.922C529.502 742.24 528.448 741.09 527.886 739.687L527.63 738.877C527.536 738.519 527.477 738.153 527.454 737.784C527.375 736.658 527.603 735.532 528.115 734.526C528.532 733.705 529.128 732.989 529.859 732.429C530.588 731.866 531.433 731.47 532.333 731.272C533.233 731.075 534.166 731.079 535.064 731.284L536.5 731.804C537.494 732.306 538.334 733.067 538.932 734.006C539.53 734.946 539.864 736.028 539.9 737.141L606.116 745.984L611.559 758.333Z" fill="#163666"/>
</g>
<path opacity="0.5" d="M536.238 737.753C536.16 738.261 535.933 738.734 535.587 739.113C535.24 739.491 534.789 739.759 534.29 739.881C533.791 740.003 533.267 739.975 532.785 739.799C532.302 739.624 531.882 739.309 531.579 738.895C531.275 738.482 531.101 737.987 531.078 737.474C531.055 736.961 531.185 736.453 531.452 736.013C531.718 735.574 532.108 735.224 532.574 735.007C533.039 734.79 533.558 734.715 534.066 734.793C534.746 734.898 535.358 735.268 535.765 735.823C536.172 736.379 536.342 737.073 536.238 737.753Z" fill="#24BF79"/>
<path d="M686.995 770.987H553.999V766.876C553.999 765.163 554.68 763.521 555.891 762.309C557.102 761.098 558.745 760.417 560.458 760.417H680.536C682.249 760.417 683.892 761.098 685.104 762.309C686.315 763.521 686.995 765.163 686.995 766.876V770.987Z" fill="white"/>
<path d="M545.193 877.38H550.478V778.03C550.479 776.94 550.913 775.896 551.683 775.125C552.454 774.355 553.498 773.921 554.588 773.92H686.41C687.5 773.921 688.544 774.354 689.315 775.125C690.086 775.896 690.519 776.94 690.52 778.03V877.38H695.805V778.03C695.802 775.539 694.811 773.151 693.05 771.39C691.289 769.629 688.901 768.638 686.41 768.635H554.588C552.097 768.638 549.709 769.629 547.948 771.39C546.187 773.151 545.196 775.539 545.193 778.03V877.38Z" fill="white"/>
<path d="M578.843 627.797C578.843 627.797 578.967 627.507 578.988 628.479C578.477 632.271 578.377 636.107 578.693 639.921C579.075 642.401 579.571 645.187 580.303 648.198C580.994 651.212 581.921 654.451 582.977 657.858C584.034 661.264 585.293 664.835 586.625 668.53C587.999 672.237 589.42 676.067 590.863 679.959C591.224 680.94 591.587 681.924 591.951 682.912L592.493 684.401L592.764 685.148L592.9 685.521L592.934 685.615L592.99 685.797L593.052 685.984C593.715 687.979 594.379 689.979 595.045 691.984C595.642 694.099 596.238 696.212 596.834 698.323C597.335 700.417 597.833 702.5 598.329 704.572C598.741 706.656 599.149 708.72 599.553 710.765C599.882 712.818 600.206 714.843 600.526 716.841C601.067 720.838 601.523 724.717 601.798 728.401C601.981 730.245 602.058 732.036 602.15 733.772C602.196 734.641 602.241 735.495 602.285 736.333C602.316 737.162 602.346 737.975 602.376 738.773C602.408 739.531 602.42 740.344 602.429 741.144C602.437 741.94 602.46 742.712 602.441 743.481C602.43 744.247 602.42 744.993 602.41 745.719C602.373 746.462 602.336 747.183 602.301 747.882C602.258 749.27 602.058 750.642 601.946 751.878C601.78 753.134 601.562 754.312 601.39 755.366C601.154 756.437 600.911 757.4 600.708 758.236C600.526 759.07 600.225 759.797 600.05 760.378C599.654 761.546 599.443 762.168 599.443 762.168L585.181 766.954L580.774 754.899C580.774 754.899 580.947 754.556 581.272 753.914C581.493 753.52 581.691 753.115 581.865 752.698C582.074 752.186 582.313 751.596 582.581 750.936C582.798 750.224 583.071 749.456 583.327 748.574C583.538 747.655 583.844 746.719 584.039 745.598C584.149 745.046 584.263 744.478 584.38 743.891C584.478 743.283 584.578 742.658 584.68 742.016C584.792 741.378 584.869 740.701 584.963 740.016C585.055 739.335 585.149 738.632 585.23 737.84C585.311 737.087 585.394 736.319 585.478 735.535C585.549 734.76 585.622 733.971 585.695 733.167C585.843 731.559 586.015 729.893 586.09 728.179C586.331 724.749 586.427 721.126 586.464 717.367C586.435 715.487 586.407 713.578 586.377 711.641C586.276 709.706 586.174 707.75 586.071 705.772C585.889 703.8 585.705 701.814 585.52 699.815C585.26 697.855 585 695.889 584.738 693.918C584.365 691.867 583.993 689.819 583.622 687.774L583.587 687.582L583.578 687.534C583.553 687.438 583.601 687.61 583.593 687.575L583.573 687.481L583.493 687.102L583.333 686.346L583.014 684.836C582.796 683.828 582.579 682.824 582.363 681.822C581.484 677.791 580.618 673.823 579.781 669.984C578.975 666.117 578.221 662.365 577.644 658.777C577.067 655.19 576.599 651.788 576.338 648.633C576.034 645.485 575.938 642.588 575.915 640.03C575.917 637.471 575.983 635.251 576.143 633.414C576.246 631.574 576.449 630.174 576.565 629.209C576.683 628.246 576.746 627.732 576.746 627.732L578.843 627.797Z" fill="#24BF79"/>
<path d="M582.583 626.055L593.928 701.404L523.058 710.578V716.403H604.866C606.227 716.403 607.574 716.131 608.828 715.603C610.083 715.076 611.219 714.303 612.171 713.33C613.123 712.358 613.871 711.205 614.371 709.939C614.871 708.673 615.114 707.32 615.084 705.96L614.658 611.889L582.583 626.055Z" fill="#163666"/>
<path d="M600.677 637.8C607.038 636.927 611.485 631.062 610.612 624.702C609.738 618.342 603.874 613.894 597.514 614.768C591.154 615.641 586.706 621.505 587.579 627.865C588.453 634.226 594.317 638.674 600.677 637.8Z" fill="#39547D"/>
<g style="mix-blend-mode:multiply" opacity="0.5">
<path d="M614.907 666.536L609.033 661.507L601.405 634.52C600.151 634.872 598.833 634.933 597.551 634.698C596.27 634.464 595.059 633.94 594.011 633.166C592.963 632.392 592.105 631.39 591.503 630.234C590.901 629.079 590.571 627.801 590.538 626.499C590.505 625.197 590.769 623.904 591.312 622.719C591.854 621.535 592.659 620.49 593.667 619.664C594.674 618.838 595.857 618.253 597.125 617.953C598.392 617.653 599.712 617.647 600.982 617.935C602.345 618.229 603.611 618.862 604.664 619.776C605.753 620.707 606.591 621.897 607.1 623.237C607.609 624.577 607.773 626.023 607.578 627.442C607.382 628.862 606.833 630.21 605.981 631.362C605.128 632.514 604 633.433 602.7 634.035L610.239 660.714L614.898 664.704L614.907 666.536Z" fill="#233166"/>
</g>
<path d="M601.417 623.568C601.953 624.027 602.341 624.634 602.531 625.313C602.722 625.992 602.707 626.713 602.488 627.383C602.27 628.054 601.857 628.644 601.303 629.081C600.748 629.517 600.077 629.778 599.374 629.833C598.67 629.888 597.967 629.732 597.352 629.387C596.737 629.042 596.238 628.522 595.918 627.893C595.599 627.264 595.473 626.555 595.556 625.854C595.64 625.154 595.93 624.494 596.388 623.958C596.693 623.602 597.064 623.31 597.482 623.098C597.9 622.886 598.355 622.758 598.822 622.722C599.289 622.685 599.758 622.741 600.204 622.887C600.649 623.032 601.061 623.263 601.417 623.568Z" fill="#24BF79"/>
<path d="M695.83 770.801C694.469 769.031 692.638 767.678 690.546 766.896V749.552C690.55 749.276 690.757 726.131 677.174 712.331C670.421 705.47 661.288 701.991 650.03 701.991V696.706C662.77 696.706 673.178 700.724 680.964 708.648C696.101 724.053 695.848 748.563 695.83 749.599L695.83 770.801Z" fill="white"/>
<path d="M653.589 699.643C653.589 701.884 652.698 704.034 651.113 705.619C649.528 707.204 647.378 708.095 645.137 708.095H616.758C614.516 708.095 612.367 707.204 610.781 705.619C609.196 704.034 608.306 701.884 608.306 699.643C608.306 697.401 609.196 695.251 610.781 693.666C612.367 692.081 614.516 691.191 616.758 691.191H645.137C647.378 691.191 649.528 692.081 651.113 693.666C652.698 695.251 653.589 697.401 653.589 699.643Z" fill="#445A79"/>
<g style="mix-blend-mode:multiply" opacity="0.4">
<path d="M650.102 692.817C650.724 694.104 651.008 695.528 650.928 696.956C650.849 698.383 650.407 699.766 649.646 700.976C648.885 702.186 647.829 703.183 646.578 703.873C645.326 704.563 643.919 704.924 642.49 704.921H614.111C612.325 704.922 610.585 704.353 609.144 703.297C609.831 704.734 610.911 705.947 612.258 706.796C613.605 707.645 615.164 708.096 616.757 708.097H645.135C646.92 708.098 648.659 707.534 650.103 706.486C651.547 705.438 652.622 703.959 653.174 702.262C653.725 700.565 653.725 698.737 653.173 697.04C652.622 695.343 651.547 693.865 650.102 692.817Z" fill="#445A79"/>
</g>
<g style="mix-blend-mode:multiply" opacity="0.5">
<path d="M535.718 763.391L534.221 759.725L531.745 792.975L531.718 793.362L538.051 800.091C538.236 799.413 538.412 798.753 538.597 798.092L533.533 792.711L535.718 763.391Z" fill="#163666"/>
</g>
<path d="M395.223 559.626C395.223 559.626 418.447 566.441 409.037 588.135L395.223 559.626Z" fill="#196E57"/>
<path d="M381.917 595.554C381.229 594.846 380.64 594.047 380.167 593.18C379.25 591.867 378.058 590.768 376.673 589.962C375.289 589.156 373.745 588.661 372.15 588.512C371.465 586.017 371.357 583.398 371.833 580.855C372.571 576.836 374.593 573.166 377.595 570.395C380.597 567.625 384.418 565.903 388.482 565.49C390.587 565.314 392.704 565.379 394.794 565.683C397.389 565.927 399.923 566.619 402.283 567.729C404.678 568.941 406.614 570.897 407.802 573.304C409.285 576.381 409.985 579.777 409.84 583.189C409.696 584.858 409.427 586.514 409.038 588.144C408.59 590.249 408.141 592.354 407.692 594.459C406.784 598.723 405.873 602.986 404.961 607.249C404.706 608.813 404.215 610.33 403.506 611.748C403.146 612.455 402.631 613.072 402.001 613.555C401.371 614.037 400.641 614.372 399.864 614.536C395.721 615.155 392.275 610.82 390.321 607.768C389.613 606.661 383.712 596.714 384.674 595.959C383.898 596.568 382.668 596.195 381.917 595.554Z" fill="#FFE9D5"/>
<g style="mix-blend-mode:multiply">
<path d="M387.357 593.34C386.858 593.139 386.407 592.838 386.029 592.456C385.652 592.074 385.357 591.618 385.163 591.117C384.969 590.616 384.88 590.08 384.902 589.544C384.923 589.007 385.055 588.48 385.288 587.996C385.417 587.692 385.607 587.417 385.846 587.188C386.084 586.958 386.367 586.78 386.676 586.662C386.977 586.577 387.294 586.564 387.6 586.624C387.907 586.685 388.195 586.817 388.441 587.01C388.932 587.405 389.259 587.969 389.358 588.591C389.658 590.318 388.083 591.745 387.357 593.34Z" fill="#FFE9D5"/>
</g>
<g style="mix-blend-mode:multiply">
<path d="M388.098 593.974C389.326 591.796 391.083 589.963 393.206 588.643C395.258 587.235 397.466 586.056 399.434 584.534C403.43 581.422 406.249 577.044 407.428 572.118C398.591 576.711 391.868 584.755 388.098 593.974Z" fill="#FFE9D5"/>
</g>
<path d="M380.168 560.45C380.457 563.393 378.698 566.18 376.542 568.203C374.385 570.226 371.791 571.74 369.647 573.777C366.49 576.794 364.457 580.799 363.884 585.129C363.491 582.908 363.601 580.627 364.206 578.453C364.81 576.28 365.894 574.27 367.378 572.572C365.755 573.972 364.514 575.762 363.772 577.773C364.188 574.303 365.64 571.039 367.938 568.406C371.1 564.801 375.818 562.467 380.168 560.45Z" fill="#24BF79"/>
<path d="M372.368 549.661C374.054 549.061 375.893 549.046 377.588 549.618C379.284 550.191 380.737 551.318 381.714 552.817C382.691 554.317 383.134 556.102 382.973 557.884C382.811 559.666 382.055 561.342 380.824 562.642C380.161 563.34 379.376 563.913 378.509 564.332C378.537 564.28 378.565 564.227 378.589 564.172C379.307 562.581 378.505 560.668 377.275 559.43C376.401 558.501 375.243 557.891 373.983 557.695C373.355 557.607 372.715 557.679 372.123 557.906C371.531 558.133 371.006 558.506 370.598 558.991C370.265 559.452 370.044 559.985 369.952 560.546C369.859 561.108 369.898 561.683 370.065 562.227C370.259 562.876 370.586 563.476 371.024 563.992C369.713 563.233 368.647 562.115 367.952 560.768C367.257 559.422 366.963 557.905 367.105 556.396C367.246 554.888 367.817 553.452 368.75 552.258C369.683 551.064 370.938 550.163 372.368 549.661Z" fill="#24BF79"/>
<path d="M401.837 588.861L405.968 589.408L407.053 587.598L401.837 588.861Z" fill="#24BF79"/>
<path d="M407.469 586.461L400.771 588.334L407.22 584.577L407.469 586.461Z" fill="#196E57"/>
<path d="M385.812 599.364C386.466 596.882 387.626 594.562 389.219 592.549C389.308 592.433 389.398 592.317 389.49 592.202C389.061 593.88 389.053 595.639 389.466 597.321C389.879 599.003 390.7 600.558 391.857 601.848C394.216 604.41 397.35 606.128 400.779 606.74C401.863 607.008 403.003 606.941 404.048 606.548C404.369 606.411 404.658 606.21 404.897 605.958C405.137 605.705 405.322 605.406 405.442 605.078C405.651 605.759 405.788 606.459 405.851 607.167C405.652 606.794 405.528 606.68 405.329 606.308C405.745 608.947 405.483 611.65 404.567 614.16C404.475 613.826 404.308 613.377 404.216 613.042C403.601 614.186 402.694 615.147 401.588 615.828C400.481 616.51 399.215 616.886 397.916 616.921C398.159 616.647 398.387 616.24 398.629 615.965C397.308 616.301 395.914 616.214 394.644 615.718C394.896 615.52 394.851 615.116 394.825 614.812C394.187 615.018 393.549 615.225 392.912 615.431C392.745 614.566 392.579 613.701 392.413 612.835C392.293 613.112 392.044 613.492 391.924 613.768C390.653 612.214 389.612 610.486 388.831 608.637C388.776 608.976 388.618 609.344 388.562 609.683C387.377 607.523 386.541 605.189 386.085 602.767C385.786 603.028 385.565 603.367 385.448 603.747C385.334 602.276 385.457 600.796 385.812 599.364Z" fill="#196E57"/>
<path d="M408.772 570.88C408.764 571.328 408.653 571.769 408.449 572.169C408.245 572.568 407.953 572.916 407.594 573.186C406.579 574.014 405.733 575.029 405.1 576.176C404.331 577.657 403.481 579.094 402.553 580.482C400.076 583.768 395.999 585.427 393.064 588.312C391.225 590.158 389.884 592.44 389.166 594.944C388.448 597.449 388.375 600.094 388.956 602.634C387.8 601.568 386.988 600.181 386.622 598.652C386.257 597.122 386.355 595.518 386.905 594.045C386.188 595.235 385.839 596.611 385.902 598C385.611 595.813 385.8 593.589 386.457 591.483C387.114 589.377 388.222 587.44 389.704 585.806C389.492 584.992 388.968 584.294 388.246 583.864C387.523 583.434 386.66 583.306 385.844 583.507C384.903 583.867 384.118 584.547 383.627 585.427C382.781 586.862 382.421 588.532 382.601 590.188C382.781 591.844 383.491 593.398 384.625 594.618C384.053 594.556 383.505 594.357 383.026 594.04C382.546 593.722 382.15 593.294 381.871 592.791C381.808 593.321 381.957 593.855 382.285 594.276C382.614 594.697 383.094 594.972 383.624 595.04C383.099 595.196 382.535 595.147 382.045 594.903C381.555 594.659 381.176 594.238 380.984 593.725C380.811 595.79 380.097 597.773 378.912 599.473C377.727 601.172 376.115 602.529 374.237 603.405C375.888 602.323 377.177 600.771 377.938 598.95C377.071 599.584 376.136 600.12 375.15 600.549C374.204 600.968 373.141 601.046 372.144 600.77C371.651 600.623 371.209 600.34 370.87 599.953C370.531 599.566 370.309 599.091 370.229 598.582C370.644 599.013 371.158 599.336 371.726 599.525C372.294 599.713 372.898 599.762 373.489 599.667C374.057 599.557 374.588 599.307 375.033 598.939C375.479 598.571 375.826 598.097 376.041 597.561C374.689 597.669 373.333 597.437 372.094 596.886C370.855 596.335 369.774 595.483 368.95 594.407C367.395 592.18 366.479 589.571 366.3 586.861C365.638 580.185 367.553 573.507 371.653 568.197C373.066 566.383 374.932 564.657 377.225 564.492C380.543 561.461 384.694 559.494 389.141 558.845C393.521 558.322 397.956 559.15 401.852 561.218C403.988 562.282 405.818 563.871 407.172 565.836C408.18 567.328 408.735 569.079 408.772 570.88Z" fill="#24BF79"/>
<path d="M405.791 600.877C405.754 601.151 405.8 601.43 405.922 601.679C406.045 601.927 406.238 602.134 406.478 602.272C406.717 602.411 406.992 602.475 407.269 602.457C407.545 602.439 407.81 602.34 408.029 602.172C408.249 602.003 408.414 601.774 408.503 601.512C408.592 601.249 408.602 600.967 408.53 600.699C408.459 600.432 408.31 600.192 408.102 600.009C407.894 599.826 407.636 599.71 407.362 599.673C407.18 599.649 406.994 599.661 406.817 599.709C406.639 599.756 406.473 599.838 406.327 599.95C406.181 600.062 406.059 600.201 405.967 600.36C405.875 600.519 405.815 600.695 405.791 600.877Z" fill="#FFE9D5"/>
<path d="M404.733 603.118C404.697 603.393 404.743 603.672 404.865 603.92C404.987 604.168 405.18 604.375 405.42 604.514C405.66 604.652 405.935 604.717 406.211 604.699C406.487 604.681 406.752 604.581 406.972 604.413C407.192 604.245 407.357 604.015 407.446 603.753C407.535 603.491 407.544 603.208 407.473 602.941C407.401 602.673 407.252 602.433 407.044 602.25C406.836 602.068 406.579 601.951 406.304 601.914C406.122 601.89 405.937 601.902 405.76 601.95C405.582 601.997 405.415 602.079 405.27 602.191C405.124 602.303 405.001 602.442 404.909 602.601C404.817 602.76 404.757 602.936 404.733 603.118Z" fill="#FFE9D5"/>
<path d="M410.275 601.053L405.404 600.408L394.501 609.028L406.215 603.32C406.6 603.509 407.026 603.601 407.454 603.588C407.883 603.575 408.302 603.458 408.675 603.247C409.091 603.065 409.455 602.781 409.731 602.42C410.008 602.06 410.189 601.635 410.258 601.186L410.275 601.053Z" fill="#196E57"/>
<path d="M407.851 586.598L411.979 599.071C412.388 600.019 412.228 601.336 410.915 601.13L404.891 600.332L407.851 586.598Z" fill="#FFE9D5"/>
<path d="M551.121 723.008C551.121 724.877 550.379 726.669 549.057 727.991C547.736 729.312 545.944 730.054 544.075 730.054H419.886C418.961 730.054 418.045 729.872 417.19 729.518C416.335 729.164 415.558 728.645 414.904 727.991C414.25 727.336 413.731 726.56 413.377 725.705C413.022 724.85 412.84 723.934 412.84 723.008H551.121Z" fill="#D9DCED"/>
<path d="M438.823 878.151H432.657V873.357C432.65 871.424 433.228 869.534 434.315 867.935C435.401 866.336 436.946 865.102 438.745 864.397L481.286 847.541L483.556 853.273L441.016 870.129C440.368 870.383 439.811 870.827 439.42 871.403C439.029 871.979 438.82 872.66 438.823 873.357V878.151Z" fill="url(#paint7_linear)"/>
<g style="mix-blend-mode:multiply">
<path d="M546.057 726.785L550.584 723.019H412.84C412.841 724.353 413.222 725.66 413.94 726.785H546.057Z" fill="#D9DCED"/>
</g>
<path d="M281.087 727.534H425.63C427.695 727.534 429.727 728.042 431.549 729.013C433.371 729.984 434.926 731.388 436.077 733.101C437.229 734.815 437.941 736.785 438.151 738.839C438.361 740.893 438.062 742.967 437.282 744.878L387.416 866.993L387.439 867.129C388.051 868.095 389.229 869.156 389.552 869.633L389.571 869.661L389.594 869.693C390.005 870.357 390.568 870.914 391.237 871.318C395.332 873.266 401.69 873.293 401.69 873.293C408.169 873.66 407.81 877.381 407.81 877.381H392.121C388.369 877.366 385.311 874.56 385.311 874.56L385.3 877.381H381.322V868.447C381.323 867.827 381.404 867.211 381.563 866.613C390.32 823.066 398.748 775.692 410.601 754.998L420.542 751.021L308.39 761.003C278.444 761.003 279.889 732.323 281.087 727.534Z" fill="#163666"/>
<path d="M379.213 624.627C379.213 624.627 379.1 626.921 378.536 630.835C378.245 632.793 377.867 635.171 377.31 637.874C376.767 640.58 376.076 643.621 375.193 646.906C374.337 650.202 373.253 653.729 372.021 657.439C370.763 661.138 369.329 665.01 367.68 668.956C366.872 670.936 365.965 672.911 365.075 674.929C364.113 676.908 363.212 678.957 362.164 680.948C361.65 681.951 361.135 682.958 360.618 683.968C360.102 684.979 359.531 685.963 358.988 686.966C358.432 687.963 357.896 688.976 357.319 689.965L355.567 692.924C353.224 696.872 350.693 700.711 348.109 704.436C346.822 706.302 345.455 708.086 344.148 709.889C342.819 711.672 341.426 713.372 340.095 715.081C337.357 718.429 334.647 721.63 331.94 724.542C331.271 725.278 330.611 726.004 329.96 726.719C329.285 727.41 328.621 728.091 327.968 728.761C326.652 730.092 325.411 731.415 324.16 732.62C321.63 734.997 319.372 737.266 317.222 739.099C315.095 740.958 313.282 742.645 311.689 743.902C308.545 746.482 306.748 747.957 306.748 747.957L294.259 747.624L297.328 734.761C297.328 734.761 299.127 733.568 302.274 731.48C303.876 730.466 305.697 729.079 307.85 727.557C310.027 726.06 312.317 724.173 314.904 722.203C316.183 721.202 317.456 720.091 318.809 718.977C319.483 718.415 320.167 717.844 320.862 717.264C321.536 716.659 322.219 716.046 322.912 715.424C325.717 712.966 328.549 710.235 331.439 707.359C332.845 705.887 334.32 704.424 335.739 702.877C337.135 701.31 338.599 699.76 339.99 698.127C342.78 694.868 345.546 691.482 348.149 687.967L350.1 685.327C350.745 684.444 351.349 683.534 351.975 682.64C352.589 681.739 353.232 680.855 353.82 679.943C354.411 679.03 355 678.121 355.587 677.215C356.786 675.413 357.84 673.548 358.959 671.743C360.006 669.901 361.073 668.091 362.042 666.27C364.013 662.642 365.775 659.052 367.357 655.601C368.912 652.14 370.314 648.827 371.469 645.714C372.653 642.611 373.627 639.722 374.425 637.141C375.237 634.562 375.841 632.283 376.32 630.402C376.795 628.519 377.105 627.027 377.31 626.011C377.404 625.505 377.476 625.118 377.525 624.857L377.591 624.458L379.213 624.627Z" fill="#24BF79"/>
<path d="M454.767 654.724L397.419 696.707L396.416 702.726L395.629 696.115L365.418 645.196C364.682 643.954 364.121 642.615 363.754 641.219C358.579 619.121 347.731 613.253 343.746 611.812C337.582 609.582 331.881 608.662 326.527 613.517C322.336 617.317 319.823 621.505 320.691 627.373C321.692 634.144 327.073 637.938 331.135 642.882C340.726 654.555 350.319 666.223 359.917 677.887C369.233 689.197 378.537 701.181 387.849 712.493C388.812 713.665 390.009 714.623 391.364 715.305C392.718 715.988 394.201 716.379 395.715 716.454C397.23 716.53 398.744 716.288 400.16 715.744C401.576 715.2 402.862 714.366 403.937 713.295L458.29 658.467L454.767 654.724Z" fill="#163666"/>
<g style="mix-blend-mode:multiply" opacity="0.5">
<path d="M433.611 753.87L422.616 780.797C425.519 794.286 430.333 811.305 436.509 830.107C433.748 812.723 429.135 783.64 429.135 783.64L433.611 753.87Z" fill="#223166"/>
</g>
<path d="M311.851 699.643C311.851 701.884 312.742 704.034 314.327 705.619C315.912 707.204 318.062 708.095 320.303 708.095H348.682C350.924 708.095 353.073 707.204 354.658 705.619C356.243 704.034 357.134 701.884 357.134 699.643C357.134 697.401 356.243 695.251 354.658 693.666C353.073 692.081 350.924 691.191 348.682 691.191H320.303C318.062 691.191 315.912 692.081 314.327 693.666C312.742 695.251 311.851 697.401 311.851 699.643Z" fill="#445A79"/>
<g style="mix-blend-mode:multiply" opacity="0.4">
<path d="M315.336 692.817C314.715 694.104 314.431 695.528 314.51 696.956C314.59 698.383 315.031 699.766 315.792 700.976C316.553 702.186 317.609 703.183 318.861 703.873C320.113 704.563 321.52 704.924 322.949 704.921H351.328C353.114 704.922 354.854 704.353 356.295 703.297C355.608 704.734 354.528 705.947 353.181 706.796C351.834 707.645 350.274 708.096 348.682 708.097H320.303C318.519 708.098 316.78 707.534 315.336 706.486C313.892 705.438 312.817 703.959 312.265 702.262C311.713 700.565 311.713 698.737 312.265 697.04C312.817 695.343 313.892 693.865 315.336 692.817Z" fill="#445A79"/>
</g>
<defs>
<filter id="filter0_f" x="0.160889" y="-27.5259" width="959.387" height="977.388" filterUnits="userSpaceOnUse" color-interpolation-filters="sRGB">
<feFlood flood-opacity="0" result="BackgroundImageFix"/>
<feBlend mode="normal" in="SourceGraphic" in2="BackgroundImageFix" result="shape"/>
<feGaussianBlur stdDeviation="75" result="effect1_foregroundBlur"/>
</filter>
<filter id="filter1_f" x="553" y="538" width="71" height="60" filterUnits="userSpaceOnUse" color-interpolation-filters="sRGB">
<feFlood flood-opacity="0" result="BackgroundImageFix"/>
<feBlend mode="normal" in="SourceGraphic" in2="BackgroundImageFix" result="shape"/>
<feGaussianBlur stdDeviation="7.5" result="effect1_foregroundBlur"/>
</filter>
<radialGradient id="paint0_angular" cx="0" cy="0" r="1" gradientUnits="userSpaceOnUse" gradientTransform="translate(479.854 461.168) scale(329.694 338.694)">
<stop stop-color="#1B3660"/>
</radialGradient>
<linearGradient id="paint1_linear" x1="768" y1="479" x2="92" y2="669.5" gradientUnits="userSpaceOnUse">
<stop stop-color="#0E1B30"/>
<stop offset="1" stop-color="#0F1E35"/>
</linearGradient>
<linearGradient id="paint2_linear" x1="475.117" y1="229.003" x2="475.117" y2="849.547" gradientUnits="userSpaceOnUse">
<stop stop-color="#24BF79"/>
<stop offset="1" stop-color="#1C815F" stop-opacity="0"/>
</linearGradient>
<linearGradient id="paint3_linear" x1="507.429" y1="897.416" x2="507.429" y2="756.482" gradientUnits="userSpaceOnUse">
<stop stop-color="white"/>
<stop offset="0.08717" stop-color="#FBFCFD"/>
<stop offset="1" stop-color="#D9DCED"/>
</linearGradient>
<linearGradient id="paint4_linear" x1="380.457" y1="607.006" x2="294.142" y2="734.718" gradientUnits="userSpaceOnUse">
<stop stop-color="white"/>
<stop offset="0.46642" stop-color="#F5FAF6"/>
<stop offset="1" stop-color="#F0F8F1"/>
</linearGradient>
<linearGradient id="paint5_linear" x1="77032.1" y1="78618" x2="77032.1" y2="94294.5" gradientUnits="userSpaceOnUse">
<stop stop-color="white"/>
<stop offset="0.46642" stop-color="#F5FAF6"/>
<stop offset="1" stop-color="#F0F8F1"/>
</linearGradient>
<linearGradient id="paint6_linear" x1="3880.26" y1="149406" x2="3880.26" y2="123030" gradientUnits="userSpaceOnUse">
<stop stop-color="white"/>
<stop offset="0.08717" stop-color="#FBFCFD"/>
<stop offset="1" stop-color="#D9DCED"/>
</linearGradient>
<linearGradient id="paint7_linear" x1="26922.3" y1="31482.5" x2="26922.3" y2="26047.6" gradientUnits="userSpaceOnUse">
<stop stop-color="white"/>
<stop offset="0.08717" stop-color="#FBFCFD"/>
<stop offset="1" stop-color="#D9DCED"/>
</linearGradient>
</defs>
</svg>
