<svg width="903" height="959" viewBox="0 0 903 959" fill="none" xmlns="http://www.w3.org/2000/svg">
<g opacity="0.35" filter="url(#filter0_f)">
<path d="M442.5 673C586.922 673 704 555.923 704 411.5C704 267.078 586.922 150 442.5 150C298.078 150 181 267.078 181 411.5C181 555.923 298.078 673 442.5 673Z" fill="url(#paint0_angular)"/>
</g>
<path d="M592.44 652.62C592.469 652.501 592.488 652.38 592.497 652.257C592.504 652.175 592.505 652.093 592.501 652.01C592.5 651.881 592.488 651.756 592.475 651.63C592.392 651.047 592.124 650.505 591.71 650.085L591.06 649.439L588.127 652.367L586.407 650.644L591.552 645.494L591.561 645.498L599.122 650.224C600.547 645.133 598.566 641.807 595.926 639.682C595.891 639.652 595.854 639.625 595.814 639.601C593.742 638.365 591.6 637.251 589.398 636.265C587.812 635.533 586.085 635.157 584.338 635.163C584.291 635.16 584.243 635.162 584.197 635.168C583.622 635.172 583.048 635.219 582.48 635.307L570.789 639.948C569.789 640.197 568.98 641.181 570.224 642.138L572.308 643.76L570.882 645.505C570.696 645.316 570.445 645.204 570.18 645.194C569.915 645.184 569.656 645.276 569.456 645.45C569.256 645.625 569.131 645.87 569.106 646.134C569.081 646.398 569.158 646.662 569.321 646.871C569.153 646.83 568.977 646.832 568.81 646.877C568.643 646.923 568.49 647.01 568.366 647.131C568.186 647.348 568.083 647.618 568.073 647.9C568.063 648.181 568.146 648.458 568.31 648.688L565.069 653.047C562.382 656.654 573.605 659.623 575.193 659.982C576.217 660.219 577.278 660.249 578.314 660.073C579.35 659.896 580.341 659.516 581.229 658.953L582.295 658.277L585.896 654.381C585.896 654.381 586.406 655.212 586.422 655.22L586.506 655.298C586.637 655.427 586.781 655.543 586.935 655.643C587.466 655.994 588.102 656.151 588.735 656.088C589.368 656.024 589.96 655.743 590.41 655.294L591.714 653.989C591.831 653.869 591.935 653.736 592.024 653.594C592.091 653.5 592.15 653.4 592.2 653.296C592.242 653.219 592.276 653.138 592.302 653.054C592.361 652.914 592.408 652.769 592.44 652.62Z" fill="url(#paint1_linear)"/>
<path d="M582.411 642.596L579.407 640.381L579.971 638.397L582.411 642.596Z" fill="#24BF79"/>
<path d="M601.622 638.636C601.849 636.485 598.692 634.634 597.317 633.437C594.502 630.987 589.809 626.646 590.644 622.371C577.713 626.155 584.061 635.117 584.061 635.117C587.76 638.2 590.436 639.54 594.581 639.934L593.923 640.058C589.498 641.655 591.334 645.104 591.562 645.497C591.569 645.505 591.575 645.514 591.579 645.525L600.568 651.125L602.705 648.987C602.995 648.699 603.194 648.333 603.28 647.934C603.365 647.535 603.333 647.12 603.187 646.739C601.608 642.602 601.472 640.051 601.622 638.636Z" fill="#196E57"/>
<path d="M591.549 645.494L586.405 650.64L588.131 652.365L591.06 649.435L591.711 650.085C592.175 650.553 592.457 651.172 592.505 651.829C592.554 652.486 592.366 653.138 591.975 653.669L595.125 656.528L600.566 651.125L591.549 645.494Z" fill="#24BF79"/>
<path d="M580.453 637.407L583.423 642.957L581.841 636.391L580.453 637.407Z" fill="#196E57"/>
<g style="mix-blend-mode:multiply" opacity="0.5">
<path d="M572.279 647.699L571.502 650.187C571.446 650.366 571.444 650.558 571.495 650.738C571.547 650.919 571.65 651.08 571.793 651.203L573.671 652.82C575.154 654.097 577.041 654.809 578.998 654.828C580.955 654.847 582.856 654.173 584.364 652.925L584.366 652.922L585.897 654.376C584.326 656.082 583.151 657.35 582.616 657.927C582.404 658.154 582.165 658.354 581.902 658.521L581.229 658.948C580.973 659.109 580.707 659.255 580.434 659.385C580.351 659.426 580.265 659.46 580.181 659.497C579.987 659.582 579.791 659.661 579.592 659.73C579.495 659.764 579.397 659.796 579.299 659.826C579.097 659.888 578.894 659.94 578.689 659.985C578.6 660.005 578.511 660.027 578.421 660.044C578.128 660.1 577.833 660.139 577.536 660.161C577.276 660.179 577.015 660.185 576.754 660.177C576.228 660.163 575.706 660.096 575.193 659.977C575.112 659.959 575.001 659.932 574.873 659.901L574.836 659.892C574.711 659.86 574.562 659.822 574.401 659.78L574.316 659.757C574.15 659.713 573.969 659.663 573.774 659.609C573.743 659.6 573.711 659.59 573.679 659.582C573.47 659.522 573.25 659.458 573.015 659.388C572.869 659.344 572.719 659.298 572.564 659.25C572.317 659.173 572.059 659.089 571.797 659.002C571.761 658.989 571.725 658.978 571.689 658.966C571.437 658.881 571.178 658.791 570.918 658.697L570.774 658.645C570.511 658.549 570.246 658.45 569.981 658.346C569.943 658.331 569.905 658.315 569.868 658.3C569.59 658.19 569.313 658.076 569.039 657.957C568.994 657.938 568.95 657.917 568.905 657.897C568.779 657.841 568.653 657.785 568.529 657.728C568.155 657.555 567.793 657.372 567.448 657.183C567.209 657.052 566.98 656.918 566.76 656.78C566.457 656.592 566.166 656.384 565.888 656.16C565.756 656.051 565.635 655.941 565.521 655.83C565.494 655.803 565.469 655.776 565.442 655.749C565.358 655.663 565.28 655.575 565.208 655.488C565.181 655.455 565.155 655.422 565.129 655.389C565.064 655.302 565.004 655.213 564.949 655.12C564.932 655.091 564.912 655.062 564.896 655.033C564.832 654.918 564.779 654.796 564.738 654.671L564.735 654.658C564.7 654.545 564.678 654.428 564.667 654.31C564.664 654.272 564.666 654.235 564.665 654.197C564.663 654.11 564.668 654.023 564.681 653.937C564.687 653.894 564.695 653.851 564.705 653.808C564.727 653.717 564.756 653.629 564.791 653.544C564.807 653.504 564.82 653.465 564.839 653.425C564.904 653.29 564.981 653.162 565.07 653.042L566.69 650.863L568.31 648.683L568.311 648.683C568.251 648.598 568.204 648.505 568.172 648.407C568.085 648.196 568.056 647.965 568.091 647.739C568.125 647.513 568.22 647.301 568.366 647.126C568.429 647.063 568.5 647.009 568.578 646.965C568.652 646.923 568.732 646.892 568.815 646.871C568.981 646.83 569.155 646.829 569.322 646.866V646.866C569.246 646.766 569.188 646.653 569.151 646.532C569.078 646.296 569.091 646.041 569.187 645.814C569.238 645.696 569.31 645.589 569.4 645.499V645.499C569.597 645.302 569.864 645.192 570.142 645.193C570.42 645.193 570.686 645.304 570.883 645.501C571.003 645.618 571.422 645.926 571.847 646.27C572.053 646.438 572.205 646.663 572.282 646.918C572.359 647.173 572.358 647.445 572.279 647.699Z" fill="#F5C99E"/>
</g>
<path d="M591.977 653.674C591.989 653.658 591.996 653.64 592.008 653.623C591.923 653.756 591.825 653.88 591.715 653.994L590.411 655.298C589.961 655.748 589.369 656.028 588.736 656.092C588.103 656.156 587.467 655.999 586.936 655.648C586.782 655.547 586.638 655.431 586.507 655.302L586.424 655.224C586.407 655.216 585.897 654.385 585.897 654.385C584.326 656.091 583.152 657.359 582.616 657.936L582.61 657.942L582.296 658.281L581.23 658.957C580.973 659.118 580.708 659.264 580.435 659.394L580.434 659.395C580.397 659.412 580.359 659.428 580.321 659.444C580.083 659.555 579.84 659.653 579.594 659.739L579.593 659.74C579.547 659.756 579.501 659.77 579.455 659.785C579.184 659.874 578.908 659.948 578.629 660.008C578.56 660.023 578.491 660.04 578.422 660.053H578.421C577.352 660.252 576.254 660.229 575.194 659.987C575.116 659.969 575.008 659.943 574.886 659.913L574.874 659.91L574.837 659.901H574.836C574.698 659.866 574.537 659.825 574.356 659.777L574.316 659.766L574.309 659.764C574.143 659.72 573.964 659.671 573.769 659.616C573.74 659.608 573.71 659.599 573.68 659.591L573.673 659.589C573.632 659.577 573.581 659.561 573.539 659.549L568.868 673.123L584.906 674.133L588.218 667.614C589.599 664.852 591.947 661.676 595.127 656.533L591.977 653.674Z" fill="url(#paint2_linear)"/>
<path d="M703.627 659.531C730.338 659.531 736.312 646.647 741.652 631.879H764.91V851.856H730.338V684.042H703.627V659.531Z" fill="#112441"/>
<path d="M790.01 836.606H706.987V867.74H790.01V836.606Z" fill="#112441"/>
<path d="M687.026 659.531C713.737 659.531 719.711 646.647 725.052 631.879H748.31V851.856H713.737V684.042H687.026V659.531Z" fill="#163666"/>
<path d="M773.409 836.606H690.386V867.74H773.409V836.606Z" fill="#163666"/>
<path d="M703.523 822.365V807.905H695.644V822.365C695.603 825.75 694.436 829.025 692.327 831.673C690.219 834.321 687.289 836.191 683.999 836.989C682.978 837.235 682.07 837.818 681.42 838.643C680.77 839.468 680.417 840.488 680.416 841.538V841.565H718.754V841.539C718.754 840.489 718.401 839.469 717.752 838.644C717.103 837.819 716.195 837.237 715.175 836.99C711.884 836.193 708.952 834.322 706.843 831.674C704.733 829.026 703.565 825.751 703.523 822.365Z" fill="white"/>
<path d="M726.587 840.503H672.58V862.663H726.587V840.503Z" fill="#112441"/>
<path d="M662.012 867.739L699.586 846.417L737.154 867.739H662.012Z" fill="#112441"/>
<path d="M673.711 802.192C673.16 802.192 672.612 802.127 672.077 801.998C671.02 801.741 670.038 801.244 669.204 800.546C668.371 799.848 667.71 798.968 667.272 797.973L652.191 763.486C651.559 762.039 651.391 760.431 651.71 758.884C652.029 757.337 652.819 755.927 653.972 754.848C655.126 753.769 656.585 753.074 658.15 752.858C659.714 752.642 661.307 752.916 662.709 753.643L669.987 757.416C670.476 757.67 670.843 758.108 671.01 758.633C671.176 759.158 671.127 759.727 670.873 760.216C670.62 760.705 670.183 761.073 669.658 761.24C669.133 761.407 668.564 761.359 668.074 761.106L660.798 757.33C660.158 756.998 659.431 756.873 658.716 756.972C658.002 757.071 657.336 757.388 656.81 757.881C656.284 758.374 655.923 759.018 655.778 759.725C655.633 760.431 655.71 761.165 655.999 761.825L671.079 796.311C671.258 796.718 671.529 797.079 671.871 797.365C672.213 797.651 672.616 797.854 673.049 797.958C673.482 798.062 673.934 798.065 674.368 797.965C674.803 797.866 675.208 797.668 675.553 797.386C675.979 797.037 676.527 796.871 677.075 796.926C677.623 796.981 678.127 797.251 678.476 797.677C678.825 798.103 678.991 798.65 678.936 799.199C678.882 799.747 678.612 800.251 678.185 800.6C676.922 801.63 675.341 802.192 673.711 802.192Z" fill="#D1D1D0"/>
<path d="M725.61 802.192C723.979 802.191 722.398 801.629 721.133 800.6C720.707 800.251 720.437 799.746 720.383 799.198C720.328 798.65 720.494 798.102 720.843 797.676C721.193 797.25 721.697 796.98 722.245 796.925C722.794 796.871 723.341 797.037 723.767 797.386C724.112 797.668 724.518 797.866 724.952 797.965C725.387 798.064 725.838 798.062 726.271 797.957C726.704 797.853 727.108 797.651 727.449 797.365C727.791 797.079 728.063 796.718 728.242 796.31L743.321 761.825C743.61 761.165 743.688 760.43 743.542 759.724C743.397 759.018 743.036 758.374 742.51 757.881C741.983 757.388 741.317 757.07 740.603 756.971C739.888 756.873 739.161 756.998 738.521 757.329L731.244 761.106C730.755 761.356 730.187 761.402 729.665 761.234C729.142 761.066 728.707 760.699 728.454 760.211C728.202 759.724 728.152 759.156 728.317 758.632C728.482 758.108 728.847 757.671 729.333 757.416L736.611 753.643C738.013 752.916 739.607 752.642 741.171 752.858C742.736 753.074 744.195 753.769 745.348 754.848C746.501 755.927 747.292 757.337 747.611 758.884C747.93 760.431 747.762 762.039 747.129 763.486L732.05 797.973C731.612 798.968 730.951 799.849 730.117 800.547C729.284 801.245 728.301 801.741 727.244 801.998C726.709 802.127 726.16 802.192 725.61 802.192Z" fill="#D1D1D0"/>
<path d="M665.047 755.767C665.014 756.255 665.058 756.745 665.177 757.219L676.762 802.364C679.294 812.227 688.73 819.18 699.585 819.18C710.434 819.18 719.874 812.227 722.404 802.364L733.985 757.219C734.106 756.745 734.151 756.255 734.119 755.767H665.047Z" fill="white"/>
<path d="M692.573 801.325V793.531H695.226V773.943H692.573V766.285H703.235V793.531H706.107V801.325H692.573Z" fill="#24BF79"/>
<path opacity="0.5" d="M680.732 802.532C681.916 807.06 684.489 811.102 688.089 814.091C685.466 811.297 683.588 807.889 682.627 804.179L671.15 759.454H669.678L680.732 802.532Z" fill="#D1D1D0"/>
<path opacity="0.5" d="M674.027 849.982V841.813H681.625L674.027 849.982Z" fill="#163666"/>
<path d="M715.046 843.507H684.119V860.127H715.046V843.507Z" fill="#163666"/>
<path d="M688.432 845.937C688.432 846.206 688.352 846.47 688.202 846.694C688.053 846.919 687.84 847.094 687.591 847.197C687.342 847.3 687.067 847.328 686.803 847.275C686.538 847.223 686.295 847.093 686.104 846.902C685.914 846.712 685.784 846.469 685.731 846.204C685.678 845.94 685.705 845.666 685.808 845.416C685.911 845.167 686.086 844.954 686.31 844.804C686.534 844.654 686.798 844.574 687.067 844.574C687.429 844.574 687.776 844.717 688.031 844.973C688.287 845.228 688.431 845.575 688.432 845.937Z" fill="#112441"/>
<path d="M713.673 845.937C713.673 846.206 713.593 846.469 713.444 846.693C713.294 846.918 713.081 847.092 712.832 847.195C712.583 847.299 712.309 847.326 712.045 847.273C711.781 847.221 711.538 847.091 711.347 846.901C711.157 846.71 711.027 846.468 710.974 846.204C710.921 845.939 710.948 845.665 711.051 845.416C711.154 845.167 711.328 844.954 711.552 844.804C711.776 844.654 712.039 844.574 712.308 844.574C712.488 844.574 712.665 844.609 712.831 844.677C712.996 844.745 713.147 844.846 713.273 844.972C713.4 845.099 713.501 845.249 713.569 845.415C713.638 845.58 713.673 845.757 713.673 845.937Z" fill="#112441"/>
<path d="M688.432 857.5C688.432 857.77 688.352 858.033 688.202 858.258C688.052 858.482 687.839 858.656 687.59 858.759C687.34 858.863 687.066 858.889 686.802 858.837C686.537 858.784 686.295 858.654 686.104 858.464C685.913 858.273 685.783 858.03 685.731 857.766C685.678 857.501 685.705 857.227 685.808 856.978C685.911 856.729 686.086 856.516 686.31 856.366C686.534 856.216 686.798 856.136 687.067 856.136C687.429 856.136 687.776 856.28 688.032 856.536C688.287 856.792 688.431 857.138 688.432 857.5Z" fill="#112441"/>
<path d="M713.673 857.5C713.673 857.77 713.593 858.033 713.443 858.257C713.293 858.481 713.08 858.655 712.831 858.758C712.582 858.861 712.308 858.888 712.044 858.835C711.78 858.783 711.537 858.653 711.347 858.462C711.156 858.272 711.026 858.029 710.974 857.765C710.921 857.501 710.948 857.227 711.051 856.978C711.154 856.729 711.328 856.516 711.552 856.366C711.776 856.216 712.039 856.136 712.308 856.136C712.488 856.136 712.665 856.171 712.831 856.239C712.996 856.308 713.147 856.409 713.274 856.535C713.4 856.662 713.501 856.812 713.569 856.978C713.638 857.144 713.673 857.321 713.673 857.5Z" fill="#112441"/>
<path d="M707.893 843.404L699.55 835.091L691.271 843.404V814.631H707.893V843.404Z" fill="#24BF79"/>
<path d="M711.395 820.183C711.395 822.518 710.703 824.8 709.406 826.742C708.11 828.684 706.267 830.198 704.11 831.093C701.953 831.988 699.58 832.224 697.289 831.771C694.998 831.317 692.893 830.195 691.24 828.546C689.587 826.898 688.459 824.796 688 822.506C687.54 820.217 687.769 817.843 688.659 815.684C689.548 813.525 691.057 811.677 692.995 810.375C694.934 809.073 697.214 808.375 699.549 808.369C702.686 808.367 705.695 809.611 707.916 811.826C710.137 814.04 711.388 817.046 711.395 820.183Z" fill="#24BF79"/>
<path d="M707.81 820.18C707.81 821.806 707.329 823.396 706.426 824.749C705.523 826.102 704.24 827.156 702.738 827.78C701.237 828.404 699.584 828.569 697.988 828.254C696.393 827.94 694.926 827.159 693.774 826.012C692.622 824.864 691.836 823.401 691.514 821.807C691.193 820.213 691.351 818.559 691.969 817.055C692.587 815.551 693.636 814.263 694.985 813.355C696.334 812.447 697.922 811.959 699.548 811.952C701.734 811.951 703.831 812.817 705.38 814.359C706.928 815.901 707.802 817.995 707.81 820.18Z" fill="white"/>
<path d="M705.137 820.184C705.13 821.661 704.537 823.074 703.49 824.115C702.443 825.156 701.026 825.74 699.55 825.738C698.082 825.73 696.678 825.141 695.643 824.1C694.609 823.06 694.028 821.652 694.028 820.184C694.028 818.717 694.609 817.309 695.643 816.269C696.678 815.228 698.082 814.639 699.55 814.631C701.026 814.629 702.443 815.213 703.49 816.254C704.537 817.295 705.13 818.708 705.137 820.184Z" fill="#24BF79"/>
<g filter="url(#filter1_f)">
<path d="M650.105 709C650.061 708.743 650.039 708.483 650.038 708.222C648.876 707.272 647.919 706.084 647.228 704.734C646.537 703.384 646.128 701.9 646.025 700.379C645.923 698.857 646.13 697.33 646.634 695.895C647.137 694.46 647.926 693.148 648.95 692.043C648.381 690.953 648.061 689.744 648.014 688.507C647.968 687.271 648.196 686.04 648.681 684.907C649.167 683.775 649.897 682.771 650.817 681.971C651.736 681.172 652.821 680.598 653.988 680.293C654.469 677.386 655.936 674.749 658.13 672.848C660.324 670.946 663.102 669.905 665.973 669.907C666.645 669.904 667.316 669.957 667.98 670.066C669.205 668.688 670.716 667.61 672.4 666.91C674.085 666.211 675.9 665.908 677.714 666.024C679.527 666.141 681.292 666.673 682.879 667.582C684.466 668.492 685.834 669.755 686.882 671.279C687.916 671.011 688.993 670.968 690.043 671.152C691.094 671.336 692.096 671.743 692.985 672.348C693.874 672.953 694.63 673.741 695.205 674.663C695.78 675.585 696.161 676.62 696.325 677.702C698.806 678.474 700.934 680.136 702.321 682.385C703.709 684.634 704.263 687.321 703.883 689.954C703.503 692.588 702.214 694.994 700.252 696.733C698.289 698.473 695.783 699.43 693.19 699.43H691.307C691.063 701.345 690.149 703.104 688.737 704.378C687.324 705.653 685.508 706.357 683.628 706.359H669.957L666.298 709H650.105Z" fill="#24BF79"/>
</g>
<path d="M643.803 709.482C643.757 709.219 643.733 708.953 643.732 708.686C642.511 707.714 641.506 706.499 640.78 705.117C640.054 703.736 639.624 702.218 639.516 700.662C639.409 699.105 639.627 697.542 640.156 696.074C640.685 694.606 641.514 693.264 642.59 692.134C641.991 691.018 641.655 689.781 641.606 688.516C641.557 687.251 641.797 685.992 642.307 684.833C642.817 683.675 643.584 682.647 644.55 681.829C645.517 681.011 646.656 680.424 647.883 680.112C648.388 677.139 649.93 674.44 652.235 672.495C654.54 670.55 657.459 669.484 660.475 669.486C661.181 669.483 661.886 669.538 662.584 669.649C663.871 668.239 665.458 667.136 667.228 666.42C668.998 665.705 670.906 665.395 672.811 665.514C674.716 665.633 676.571 666.178 678.238 667.108C679.905 668.038 681.342 669.331 682.444 670.89C683.53 670.616 684.661 670.572 685.766 670.76C686.87 670.949 687.922 671.365 688.856 671.984C689.79 672.602 690.584 673.409 691.189 674.352C691.793 675.295 692.194 676.354 692.365 677.461C694.972 678.251 697.208 679.952 698.666 682.253C700.123 684.554 700.706 687.302 700.306 689.997C699.907 692.691 698.553 695.153 696.491 696.932C694.429 698.712 691.795 699.691 689.072 699.691H687.093C686.836 701.65 685.877 703.449 684.392 704.753C682.908 706.058 681.001 706.778 679.025 706.78H664.661C664.661 706.78 662.441 708.628 660.817 709.482C654.935 712.572 643.849 709.745 643.803 709.482Z" fill="#24BF79"/>
<g opacity="0.4">
<path d="M671.353 677.712C671.353 678.192 671.495 678.661 671.762 679.06C672.029 679.46 672.408 679.771 672.852 679.955C673.295 680.138 673.783 680.186 674.254 680.093C674.725 679.999 675.158 679.768 675.497 679.428C675.837 679.089 676.068 678.656 676.161 678.185C676.255 677.714 676.207 677.226 676.023 676.783C675.839 676.339 675.528 675.96 675.129 675.693C674.73 675.427 674.261 675.284 673.78 675.284C673.462 675.284 673.146 675.347 672.852 675.469C672.557 675.591 672.289 675.77 672.064 675.995C671.839 676.221 671.66 676.488 671.538 676.783C671.416 677.077 671.353 677.393 671.353 677.712Z" fill="white"/>
<path d="M675.594 698.622C676.074 698.622 676.543 698.48 676.943 698.213C677.342 697.946 677.653 697.567 677.837 697.123C678.02 696.68 678.068 696.192 677.975 695.721C677.881 695.25 677.65 694.818 677.31 694.478C676.971 694.139 676.538 693.907 676.067 693.814C675.596 693.72 675.108 693.768 674.665 693.952C674.221 694.136 673.842 694.447 673.575 694.846C673.309 695.245 673.166 695.715 673.166 696.195C673.166 696.513 673.229 696.829 673.351 697.124C673.473 697.418 673.652 697.686 673.877 697.911C674.103 698.137 674.37 698.315 674.665 698.437C674.959 698.559 675.275 698.622 675.594 698.622Z" fill="white"/>
<path d="M653.419 682.876C653.419 683.282 653.539 683.678 653.764 684.015C653.989 684.352 654.309 684.615 654.684 684.77C655.058 684.925 655.47 684.966 655.868 684.887C656.265 684.807 656.631 684.612 656.917 684.326C657.204 684.039 657.399 683.674 657.478 683.276C657.557 682.879 657.517 682.467 657.362 682.092C657.206 681.718 656.944 681.398 656.607 681.173C656.27 680.947 655.873 680.827 655.468 680.827C654.925 680.827 654.403 681.043 654.019 681.427C653.635 681.812 653.419 682.333 653.419 682.876Z" fill="white"/>
<path d="M688.864 685.398C688.864 684.993 688.744 684.597 688.519 684.26C688.294 683.923 687.974 683.66 687.599 683.505C687.225 683.35 686.813 683.309 686.415 683.388C686.018 683.467 685.652 683.663 685.366 683.949C685.079 684.236 684.884 684.601 684.805 684.998C684.726 685.396 684.766 685.808 684.921 686.183C685.077 686.557 685.339 686.877 685.676 687.102C686.013 687.327 686.409 687.448 686.815 687.448C687.358 687.448 687.88 687.232 688.264 686.848C688.648 686.463 688.864 685.942 688.864 685.398Z" fill="white"/>
<path d="M665.046 687.655C665.046 688.158 665.195 688.649 665.474 689.068C665.754 689.486 666.151 689.812 666.616 690.005C667.081 690.197 667.592 690.248 668.086 690.149C668.579 690.051 669.032 689.809 669.388 689.453C669.744 689.097 669.986 688.644 670.084 688.151C670.182 687.657 670.132 687.146 669.939 686.681C669.747 686.216 669.421 685.819 669.002 685.54C668.584 685.26 668.092 685.111 667.589 685.111C667.255 685.111 666.924 685.177 666.616 685.304C666.307 685.432 666.027 685.62 665.791 685.856C665.554 686.092 665.367 686.373 665.239 686.681C665.111 686.99 665.046 687.321 665.046 687.655Z" fill="white"/>
<path d="M644 703.723C644 704.227 644.149 704.718 644.429 705.137C644.708 705.555 645.105 705.881 645.57 706.073C646.035 706.266 646.546 706.316 647.04 706.218C647.533 706.12 647.987 705.878 648.342 705.522C648.698 705.166 648.94 704.713 649.038 704.22C649.137 703.726 649.086 703.215 648.894 702.75C648.701 702.285 648.375 701.888 647.957 701.608C647.539 701.329 647.047 701.18 646.544 701.18C646.21 701.18 645.879 701.245 645.57 701.373C645.262 701.501 644.981 701.689 644.745 701.925C644.509 702.161 644.321 702.441 644.194 702.75C644.066 703.059 644 703.389 644 703.723Z" fill="white"/>
<path d="M654.645 683.23H656.295V672.741C656.295 672.522 656.208 672.312 656.053 672.158C655.899 672.003 655.689 671.916 655.47 671.916C655.251 671.916 655.041 672.003 654.887 672.158C654.732 672.312 654.645 672.522 654.645 672.741V683.23Z" fill="white"/>
<path d="M687.638 685.045L685.988 685.045L685.988 695.534C685.988 695.753 686.075 695.963 686.23 696.118C686.384 696.272 686.594 696.359 686.813 696.359C687.032 696.359 687.242 696.272 687.396 696.118C687.551 695.963 687.638 695.753 687.638 695.534L687.638 685.045Z" fill="white"/>
<path d="M666.631 686.788H668.281V679.756C668.281 679.648 668.26 679.54 668.218 679.44C668.177 679.34 668.116 679.249 668.039 679.173C667.963 679.096 667.872 679.035 667.772 678.994C667.672 678.952 667.564 678.931 667.456 678.931C667.348 678.931 667.241 678.952 667.14 678.994C667.04 679.035 666.949 679.096 666.873 679.173C666.796 679.249 666.735 679.34 666.694 679.44C666.653 679.54 666.631 679.648 666.631 679.756V686.788Z" fill="white"/>
<path d="M645.586 702.857L647.235 702.857L647.235 695.825C647.235 695.717 647.214 695.609 647.173 695.509C647.131 695.409 647.07 695.318 646.994 695.242C646.917 695.165 646.826 695.104 646.726 695.063C646.626 695.021 646.519 695 646.41 695C646.302 695 646.195 695.021 646.095 695.063C645.995 695.104 645.904 695.165 645.827 695.242C645.751 695.318 645.69 695.409 645.648 695.509C645.607 695.609 645.586 695.717 645.586 695.825L645.586 702.857Z" fill="white"/>
<path d="M672.956 676.473H674.606V668.342C674.606 668.123 674.519 667.913 674.364 667.758C674.209 667.604 673.999 667.517 673.781 667.517C673.562 667.517 673.352 667.604 673.197 667.758C673.043 667.913 672.956 668.123 672.956 668.342V676.473Z" fill="white"/>
<path d="M674.356 697.02L674.356 695.37L666.224 695.37C666.005 695.37 665.796 695.457 665.641 695.611C665.486 695.766 665.399 695.976 665.399 696.195C665.399 696.413 665.486 696.623 665.641 696.778C665.796 696.933 666.005 697.02 666.224 697.02L674.356 697.02Z" fill="white"/>
<path d="M660.973 698.223C660.973 698.442 661.06 698.652 661.215 698.807C661.37 698.961 661.58 699.048 661.798 699.048C662.017 699.048 662.227 698.961 662.382 698.807C662.536 698.652 662.623 698.442 662.623 698.223V671.481C662.623 671.262 662.536 671.052 662.382 670.897C662.227 670.743 662.017 670.656 661.798 670.656C661.58 670.656 661.37 670.743 661.215 670.897C661.06 671.052 660.973 671.262 660.973 671.481V698.223Z" fill="white"/>
<path d="M680.837 703.475C680.837 703.694 680.923 703.904 681.078 704.058C681.233 704.213 681.443 704.3 681.662 704.3C681.88 704.3 682.09 704.213 682.245 704.058C682.4 703.904 682.487 703.694 682.487 703.475V676.732C682.487 676.513 682.4 676.304 682.245 676.149C682.09 675.994 681.88 675.907 681.662 675.907C681.443 675.907 681.233 675.994 681.078 676.149C680.923 676.304 680.837 676.513 680.837 676.732V703.475Z" fill="white"/>
<path d="M655.306 683.736V682.086H647.226C647.007 682.086 646.798 682.173 646.643 682.328C646.488 682.483 646.401 682.693 646.401 682.911C646.401 683.13 646.488 683.34 646.643 683.495C646.798 683.649 647.007 683.736 647.226 683.736H655.306Z" fill="white"/>
<path d="M686.977 684.539L686.977 686.189L695.057 686.189C695.276 686.189 695.485 686.102 695.64 685.947C695.795 685.793 695.882 685.583 695.882 685.364C695.882 685.145 695.795 684.935 695.64 684.781C695.485 684.626 695.276 684.539 695.057 684.539L686.977 684.539Z" fill="white"/>
<path d="M678.678 688.478C678.897 688.478 679.106 688.391 679.261 688.236C679.416 688.082 679.503 687.872 679.503 687.653C679.503 687.434 679.416 687.224 679.261 687.07C679.106 686.915 678.897 686.828 678.678 686.828H668.346V687.653C668.346 687.872 668.433 688.082 668.588 688.236C668.743 688.391 668.953 688.478 669.171 688.478H678.678Z" fill="white"/>
<path d="M657.632 704.547C657.851 704.547 658.061 704.46 658.216 704.305C658.37 704.151 658.457 703.941 658.457 703.722C658.457 703.503 658.37 703.293 658.216 703.139C658.061 702.984 657.851 702.897 657.632 702.897L647.301 702.897L647.301 703.722C647.301 703.941 647.388 704.151 647.542 704.305C647.697 704.46 647.907 704.547 648.126 704.547L657.632 704.547Z" fill="white"/>
<path d="M653.941 687.58H661.536V689.23H653.941V687.58Z" fill="white"/>
<path d="M652.519 693.277C652.519 693.682 652.64 694.078 652.865 694.415C653.09 694.752 653.41 695.015 653.784 695.17C654.159 695.325 654.571 695.366 654.969 695.287C655.366 695.208 655.731 695.013 656.018 694.726C656.304 694.439 656.5 694.074 656.579 693.677C656.658 693.279 656.617 692.867 656.462 692.493C656.307 692.118 656.044 691.798 655.707 691.573C655.37 691.348 654.974 691.228 654.569 691.228C654.025 691.228 653.504 691.443 653.12 691.828C652.735 692.212 652.519 692.733 652.519 693.277Z" fill="white"/>
<path d="M653.742 687.581H655.392V692.007H653.742V687.581Z" fill="white"/>
</g>
<path d="M664.188 706.4C664.188 706.4 661.981 706.549 661.294 705.757L660.85 705.411C660.677 705.276 660.548 705.093 660.479 704.886C660.409 704.678 660.403 704.454 660.46 704.242L660.546 703.932C660.73 703.256 660.749 702.545 660.601 701.86L660.565 701.695C660.516 701.469 660.381 701.271 660.188 701.144C659.995 701.017 659.76 700.972 659.533 701.017C659.203 701.083 659.092 701.259 658.956 701.567C658.699 702.735 658.322 703.873 657.833 704.964L657.444 705.423C656.964 705.989 656.585 706.632 656.321 707.326L652 709.266L654.075 712.527L658.121 710.485C658.403 710.363 658.715 710.326 659.018 710.38C659.214 710.415 659.417 710.406 659.61 710.353L663.559 709.269L664.103 709.12L665.285 709.034C665.466 709.021 665.64 708.964 665.794 708.869L667.006 708.116L669.878 706.945C669.993 706.898 670.111 706.856 670.23 706.818L671.555 706.4H664.188Z" fill="#FAC8D3"/>
<path d="M514.43 765.527C514.43 765.527 494.807 768.268 488.212 756.003C488.212 756.003 481.517 739.705 465.333 744.46L509.887 725.128L514.43 765.527Z" fill="#27426A"/>
<path d="M502.001 751.14L502.028 850.489C486.852 845.06 456.247 846.855 430.111 848.974C430.019 848.967 429.876 848.957 430.104 848.975C429.165 848.931 428.231 849.135 427.395 849.567C426.341 850.521 424.555 852.184 424.555 852.184L425.418 849.198L418.399 849.228L418.418 853.661L420.634 853.651C419.609 855.324 419.043 857.238 418.996 859.199V867.684L427.157 867.735C426.288 865.275 423.732 865.147 422.42 865.254C422.591 862.758 423.197 858.183 425.356 856.401L425.436 856.379C426.577 856.055 427.776 855.981 428.949 856.162L503.721 867.531C507.181 868.057 510.713 867.26 513.612 865.299C516.511 863.338 518.564 860.356 519.363 856.949L543.823 752.628L502.001 751.14Z" fill="#112441"/>
<path d="M547.782 746.107L526.511 768.317C533.316 788.714 561.143 788.499 561.143 788.499C560.886 788.293 561.389 788.713 561.143 788.499C554.527 783.926 543.417 772.017 547.782 746.107Z" fill="#27426A"/>
<path d="M525.522 554.861C525.522 554.861 525.718 553.681 526.681 554.217C527.643 554.753 528.788 558.393 526.635 557.929C526.635 557.929 526.267 559.986 525.123 559.808C525.123 559.808 524.872 561.626 523.798 561.404C523.631 561.377 523.472 561.315 523.331 561.222C523.19 561.129 523.071 561.007 522.98 560.864C522.841 561.19 522.612 561.47 522.32 561.671C521.352 562.31 520.849 560.673 520.849 560.673L521.557 560.346C521.908 558.269 521.986 556.899 525.522 554.861Z" fill="#FAC8D3"/>
<path d="M508.29 564.192L513.066 559.81C513.066 559.81 516.584 554.494 519.731 552.366C520.608 551.775 521.664 551.511 522.716 551.62C523.767 551.728 524.747 552.203 525.484 552.96C525.484 552.96 526.629 551.905 527.55 552.932C528.879 554.415 524.007 557.692 524.007 557.692C523.749 558.69 523.275 559.619 522.62 560.415C521.965 561.21 521.143 561.853 520.213 562.297C518.571 563.218 516.652 563.514 514.809 563.131L510.86 566.663L508.29 564.192Z" fill="#FAC8D3"/>
<path d="M523.428 554.313C524.032 553.782 524.67 553.289 525.335 552.836L525.486 552.963C525.486 552.963 524.823 553.553 523.991 554.383C523.036 555.519 521.733 556.309 520.284 556.629C520.284 556.629 520.572 553.726 523.428 554.313Z" fill="#FAC8D3"/>
<path d="M586.408 678.225C587.173 680.307 587.778 682.445 588.219 684.619L588.523 685.843L611.583 726.023L654.262 707.146L657.115 711.977L610.967 740.824C609.488 741.749 607.716 742.087 606 741.773C604.284 741.458 602.747 740.513 601.692 739.124L583.981 715.8C585.829 712.125 586.602 708.004 586.211 703.909C586.243 707.498 583.576 711.784 582.259 713.679L561.761 734.534C549.811 749.707 547.197 776.323 561.144 788.501C554.528 783.928 543.418 772.019 547.782 746.109L563.118 730.095C563.118 730.095 564.205 728.914 565.768 727.214L568.746 722.36L567.769 717.294L576.552 705.621L583.46 693.538C584.095 686.434 583.47 679.159 581.201 673.106L586.408 678.225Z" fill="#112441"/>
<path d="M584.905 674.125C579.533 672.17 576.397 666.012 570.456 661.729L567.766 662.04C565.601 662.291 563.463 662.74 561.38 663.382C554.1 665.624 538.24 671.853 526.543 686.095L503.551 735.913L503.551 735.913C502.322 739.54 501.382 743.259 500.738 747.035L541.864 754.013L541.865 754.014L573.543 718.834C576.49 715.567 578.959 711.899 580.875 707.938C590.8 687.408 584.905 674.125 584.905 674.125Z" fill="white"/>
<g style="mix-blend-mode:multiply" opacity="0.7">
<path d="M531.936 731.878C532.912 731.544 534.096 731.139 535.455 730.674C536.972 730.155 538.453 729.538 539.89 728.826C541.465 728.055 543.305 727.407 545.034 726.38C546.783 725.366 548.628 724.297 550.537 723.192C552.331 721.903 554.185 720.572 556.068 719.22C557.782 717.671 559.672 716.215 561.336 714.532C562.871 712.87 564.561 711.309 565.922 709.519L572.323 712.526C572.141 712.817 571.963 713.102 571.78 713.395C570.369 715.613 568.836 717.751 567.189 719.8C565.555 721.887 563.669 723.753 561.924 725.717C560.032 727.514 558.095 729.217 556.239 730.905C554.273 732.432 552.316 733.847 550.472 735.224C548.634 736.613 546.705 737.582 545.013 738.661C543.481 739.647 541.892 740.539 540.252 741.332C538.79 742.035 537.515 742.647 536.465 743.151C534.354 744.159 533.147 744.734 533.147 744.734L524.87 740.847L528.643 732.814C529.759 732.57 530.859 732.257 531.936 731.878Z" fill="#D1D1D0"/>
</g>
<path d="M536.559 727.436C537.48 727.122 538.598 726.74 539.881 726.302C541.313 725.813 542.712 725.231 544.068 724.56C545.555 723.834 547.292 723.224 548.923 722.255C550.575 721.299 552.317 720.292 554.118 719.249C555.811 718.035 557.561 716.78 559.339 715.504C560.956 714.044 562.741 712.671 564.311 711.084C568.195 707.255 571.571 702.941 574.354 698.25C577.109 693.46 579.947 688.536 581.245 683.112C581.379 682.554 581.767 680.086 581.857 679.677L580.584 675.072L584.179 674.091L585.289 676.219L586.057 678.262L584.416 680.481C584.416 680.481 584.222 682.743 584.143 683.41C583.995 684.472 583.81 685.761 583.509 687.219C583.211 688.68 582.843 690.323 582.318 692.083C581.88 693.875 581.129 695.718 580.461 697.729C579.591 699.645 578.865 701.784 577.728 703.801C577.192 704.832 576.647 705.877 576.095 706.939C575.461 707.954 574.82 708.979 574.172 710.016C572.84 712.108 571.394 714.125 569.839 716.057C568.298 718.025 566.517 719.785 564.871 721.637C563.085 723.331 561.257 724.938 559.506 726.529C557.65 727.969 555.803 729.303 554.062 730.601C552.327 731.911 550.506 732.825 548.909 733.842C547.464 734.771 545.963 735.612 544.416 736.36C543.035 737.022 541.831 737.599 540.84 738.074C538.847 739.024 537.708 739.566 537.708 739.566L529.892 735.895L533.451 728.318C534.504 728.088 535.542 727.794 536.559 727.436Z" fill="#24BF79"/>
<path d="M573.603 677.576C571.376 666.997 571.038 666.44 570.457 661.735L573.098 660.709C576.112 666.05 577.709 669.165 584.906 674.133C584.906 674.133 580.236 678.693 573.603 677.576Z" fill="#D1D1D0"/>
<g style="mix-blend-mode:multiply" opacity="0.7">
<path d="M535.07 719.883C545.711 716.919 553.446 712.654 558.95 707.153C558.95 707.153 553.963 714.415 539.541 721.133C537.013 722.308 534.415 723.322 531.759 724.169C525.957 726.018 511.309 730.955 503.658 735.967L503.55 735.917L506.633 729.236C516.164 725.744 526.061 722.395 535.07 719.883Z" fill="#D1D1D0"/>
</g>
<path d="M583.703 674.788L584.907 674.126L587.462 680.787C586.298 680.005 585.385 678.901 584.835 677.611L584.834 677.685L583.703 674.788Z" fill="#D1D1D0"/>
<path d="M430.367 757.161C430.247 757.081 430.458 757.219 430.367 757.161V757.161Z" fill="#242F66"/>
<path style="mix-blend-mode:multiply" opacity="0.2" d="M538.554 775.099L508.186 768.917C508.186 768.917 514.594 782.246 535.207 789.374L538.554 775.099Z" fill="url(#paint3_linear)"/>
<path opacity="0.4" d="M335.286 397.142L117.012 178.868L103.593 192.287L321.868 410.56L313.251 419.176H343.901V388.526L335.286 397.142Z" fill="#24BF79"/>
<path opacity="0.2" d="M164.453 347.286L151.035 360.704L369.309 578.978L360.693 587.593H391.343V556.943L382.727 565.56L164.453 347.286Z" fill="#24BF79"/>
<path opacity="0.6" d="M485.525 390.937L267.251 172.664L253.833 186.082L472.107 404.356L463.492 412.972H494.141V382.322L485.525 390.937Z" fill="#24BF79"/>
<path opacity="0.8" d="M715.099 280.396H686.478L694.079 287.997L489.333 492.743L278.95 282.361L265.531 295.779L475.915 506.162L475.893 506.183L489.311 519.602L707.498 301.415L715.099 309.017V280.396Z" fill="#24BF79"/>
<g opacity="0.1">
<path d="M158.019 311.495C157.494 312.02 157.137 312.688 156.992 313.415C156.847 314.143 156.922 314.897 157.206 315.582C157.489 316.267 157.97 316.853 158.587 317.265C159.203 317.677 159.928 317.897 160.67 317.897C161.412 317.897 162.137 317.677 162.753 317.265C163.37 316.853 163.851 316.267 164.135 315.582C164.418 314.897 164.493 314.143 164.348 313.415C164.203 312.688 163.846 312.02 163.322 311.495C162.618 310.792 161.665 310.397 160.67 310.397C159.676 310.397 158.722 310.792 158.019 311.495Z" fill="#24BF79"/>
<path d="M168.919 322.396C168.395 322.921 168.038 323.589 167.893 324.316C167.748 325.044 167.823 325.798 168.106 326.483C168.39 327.168 168.871 327.754 169.488 328.166C170.104 328.578 170.829 328.798 171.571 328.798C172.313 328.798 173.038 328.578 173.654 328.166C174.271 327.754 174.752 327.168 175.035 326.483C175.319 325.798 175.394 325.044 175.249 324.316C175.104 323.589 174.747 322.921 174.223 322.396C173.874 322.048 173.461 321.772 173.006 321.583C172.551 321.395 172.063 321.298 171.571 321.298C171.078 321.298 170.591 321.395 170.136 321.583C169.681 321.772 169.267 322.048 168.919 322.396Z" fill="#24BF79"/>
<path d="M179.82 333.297C179.296 333.822 178.939 334.49 178.794 335.217C178.649 335.945 178.723 336.699 179.007 337.384C179.291 338.069 179.772 338.655 180.388 339.067C181.005 339.479 181.73 339.699 182.472 339.699C183.213 339.699 183.938 339.479 184.555 339.067C185.172 338.655 185.652 338.069 185.936 337.384C186.22 336.699 186.294 335.945 186.15 335.217C186.005 334.49 185.648 333.822 185.123 333.297C184.775 332.949 184.362 332.673 183.907 332.484C183.452 332.296 182.964 332.199 182.472 332.199C181.979 332.199 181.492 332.296 181.037 332.484C180.582 332.673 180.168 332.949 179.82 333.297Z" fill="#24BF79"/>
<path d="M190.721 344.198C190.197 344.722 189.839 345.39 189.695 346.118C189.55 346.845 189.624 347.599 189.908 348.285C190.192 348.97 190.673 349.555 191.289 349.968C191.906 350.38 192.631 350.599 193.373 350.599C194.114 350.599 194.839 350.38 195.456 349.968C196.073 349.555 196.553 348.97 196.837 348.285C197.121 347.599 197.195 346.845 197.051 346.118C196.906 345.39 196.549 344.722 196.024 344.198C195.321 343.495 194.367 343.1 193.373 343.1C192.378 343.1 191.424 343.495 190.721 344.198Z" fill="#24BF79"/>
<path d="M204.273 361.5C206.344 361.5 208.023 359.821 208.023 357.75C208.023 355.679 206.344 354 204.273 354C202.202 354 200.524 355.679 200.524 357.75C200.524 359.821 202.202 361.5 204.273 361.5Z" fill="#24BF79"/>
<path d="M212.526 366C212.001 366.524 211.644 367.192 211.499 367.92C211.355 368.647 211.429 369.401 211.713 370.086C211.997 370.772 212.477 371.357 213.094 371.769C213.71 372.181 214.435 372.401 215.177 372.401C215.919 372.401 216.644 372.181 217.261 371.769C217.877 371.357 218.358 370.772 218.642 370.086C218.925 369.401 219 368.647 218.855 367.92C218.71 367.192 218.353 366.524 217.829 366C217.126 365.296 216.172 364.901 215.177 364.901C214.183 364.901 213.229 365.296 212.526 366Z" fill="#24BF79"/>
<path d="M223.426 376.901C222.902 377.425 222.545 378.093 222.4 378.821C222.255 379.548 222.33 380.302 222.614 380.987C222.897 381.673 223.378 382.258 223.995 382.67C224.611 383.082 225.336 383.302 226.078 383.302C226.82 383.302 227.545 383.082 228.161 382.67C228.778 382.258 229.259 381.673 229.543 380.987C229.826 380.302 229.901 379.548 229.756 378.821C229.611 378.093 229.254 377.425 228.73 376.901C228.382 376.552 227.968 376.276 227.513 376.088C227.058 375.899 226.571 375.802 226.078 375.802C225.586 375.802 225.098 375.899 224.643 376.088C224.188 376.276 223.775 376.552 223.426 376.901Z" fill="#24BF79"/>
<path d="M236.979 394.203C239.05 394.203 240.729 392.524 240.729 390.453C240.729 388.382 239.05 386.703 236.979 386.703C234.908 386.703 233.229 388.382 233.229 390.453C233.229 392.524 234.908 394.203 236.979 394.203Z" fill="#24BF79"/>
<path d="M245.228 398.702C244.704 399.227 244.347 399.895 244.202 400.622C244.057 401.35 244.131 402.104 244.415 402.789C244.699 403.474 245.18 404.06 245.796 404.472C246.413 404.884 247.138 405.104 247.88 405.104C248.621 405.104 249.346 404.884 249.963 404.472C250.58 404.06 251.06 403.474 251.344 402.789C251.628 402.104 251.702 401.35 251.558 400.622C251.413 399.895 251.056 399.227 250.531 398.702C249.828 397.999 248.874 397.604 247.88 397.604C246.885 397.604 245.931 397.999 245.228 398.702Z" fill="#24BF79"/>
<path d="M256.129 409.603C255.605 410.128 255.247 410.796 255.103 411.523C254.958 412.251 255.032 413.005 255.316 413.69C255.6 414.375 256.081 414.961 256.697 415.373C257.314 415.785 258.039 416.005 258.781 416.005C259.522 416.005 260.247 415.785 260.864 415.373C261.48 414.961 261.961 414.375 262.245 413.69C262.529 413.005 262.603 412.251 262.458 411.523C262.314 410.796 261.957 410.128 261.432 409.603C261.084 409.255 260.671 408.979 260.216 408.79C259.761 408.602 259.273 408.505 258.781 408.505C258.288 408.505 257.8 408.602 257.346 408.79C256.891 408.979 256.477 409.255 256.129 409.603Z" fill="#24BF79"/>
<path d="M269.682 426.906C271.753 426.906 273.432 425.227 273.432 423.156C273.432 421.085 271.753 419.406 269.682 419.406C267.61 419.406 265.932 421.085 265.932 423.156C265.932 425.227 267.61 426.906 269.682 426.906Z" fill="#24BF79"/>
<path d="M277.931 431.405C277.406 431.929 277.049 432.598 276.905 433.325C276.76 434.052 276.834 434.806 277.118 435.492C277.402 436.177 277.882 436.763 278.499 437.175C279.116 437.587 279.841 437.807 280.583 437.807C281.324 437.807 282.049 437.587 282.666 437.175C283.283 436.763 283.763 436.177 284.047 435.492C284.331 434.806 284.405 434.052 284.261 433.325C284.116 432.598 283.759 431.929 283.234 431.405C282.531 430.702 281.577 430.307 280.583 430.307C279.588 430.307 278.634 430.702 277.931 431.405Z" fill="#24BF79"/>
<path d="M288.832 442.306C288.307 442.831 287.95 443.499 287.805 444.226C287.661 444.953 287.735 445.707 288.019 446.393C288.303 447.078 288.783 447.663 289.4 448.075C290.016 448.487 290.741 448.707 291.483 448.707C292.225 448.707 292.95 448.487 293.566 448.075C294.183 447.663 294.664 447.078 294.947 446.393C295.231 445.707 295.306 444.953 295.161 444.226C295.016 443.499 294.659 442.831 294.135 442.306C293.787 441.958 293.373 441.682 292.918 441.493C292.463 441.305 291.976 441.208 291.483 441.208C290.991 441.208 290.503 441.305 290.048 441.493C289.593 441.682 289.18 441.958 288.832 442.306Z" fill="#24BF79"/>
<path d="M299.733 453.207C299.208 453.731 298.851 454.399 298.706 455.127C298.562 455.854 298.636 456.608 298.92 457.293C299.203 457.979 299.684 458.564 300.301 458.976C300.917 459.388 301.642 459.608 302.384 459.608C303.126 459.608 303.851 459.388 304.467 458.976C305.084 458.564 305.565 457.979 305.849 457.293C306.132 456.608 306.207 455.854 306.062 455.127C305.917 454.399 305.56 453.731 305.036 453.207C304.332 452.503 303.379 452.108 302.384 452.108C301.39 452.108 300.436 452.503 299.733 453.207Z" fill="#24BF79"/>
<path d="M310.633 464.108C310.109 464.632 309.752 465.3 309.607 466.028C309.462 466.755 309.537 467.509 309.82 468.194C310.104 468.88 310.585 469.465 311.202 469.877C311.818 470.289 312.543 470.509 313.285 470.509C314.027 470.509 314.752 470.289 315.368 469.877C315.985 469.465 316.466 468.88 316.75 468.194C317.034 467.509 317.108 466.755 316.963 466.028C316.818 465.3 316.461 464.632 315.937 464.108C315.233 463.404 314.28 463.009 313.285 463.009C312.291 463.009 311.337 463.404 310.633 464.108Z" fill="#24BF79"/>
<path d="M324.186 481.41C326.257 481.41 327.936 479.731 327.936 477.66C327.936 475.589 326.257 473.91 324.186 473.91C322.115 473.91 320.436 475.589 320.436 477.66C320.436 479.731 322.115 481.41 324.186 481.41Z" fill="#24BF79"/>
<path d="M335.09 492.311C337.161 492.311 338.84 490.632 338.84 488.561C338.84 486.49 337.161 484.811 335.09 484.811C333.019 484.811 331.34 486.49 331.34 488.561C331.34 490.632 333.019 492.311 335.09 492.311Z" fill="#24BF79"/>
</g>
<g opacity="0.25">
<path d="M110.044 85.6373C109.277 86.4044 108.754 87.3819 108.543 88.446C108.331 89.5101 108.44 90.613 108.855 91.6154C109.27 92.6178 109.973 93.4745 110.875 94.0773C111.777 94.68 112.838 95.0018 113.923 95.0018C115.008 95.0018 116.068 94.68 116.971 94.0773C117.873 93.4745 118.576 92.6178 118.991 91.6154C119.406 90.613 119.515 89.5101 119.303 88.446C119.091 87.3819 118.569 86.4044 117.802 85.6373C116.773 84.6086 115.378 84.0308 113.923 84.0308C112.468 84.0308 111.073 84.6086 110.044 85.6373Z" fill="#24BF79"/>
<path d="M125.989 101.583C125.222 102.35 124.7 103.327 124.488 104.392C124.277 105.456 124.385 106.559 124.8 107.561C125.216 108.563 125.919 109.42 126.821 110.023C127.723 110.625 128.783 110.947 129.868 110.947C130.953 110.947 132.014 110.625 132.916 110.023C133.818 109.42 134.521 108.563 134.936 107.561C135.351 106.559 135.46 105.456 135.248 104.392C135.037 103.327 134.514 102.35 133.747 101.583C133.238 101.073 132.633 100.669 131.968 100.394C131.302 100.118 130.589 99.9761 129.868 99.9761C129.148 99.9761 128.435 100.118 127.769 100.394C127.103 100.669 126.499 101.073 125.989 101.583Z" fill="#24BF79"/>
<path d="M141.938 117.529C141.171 118.296 140.648 119.273 140.436 120.337C140.225 121.401 140.333 122.504 140.749 123.507C141.164 124.509 141.867 125.366 142.769 125.969C143.671 126.571 144.732 126.893 145.817 126.893C146.902 126.893 147.962 126.571 148.864 125.969C149.766 125.366 150.469 124.509 150.885 123.507C151.3 122.504 151.408 121.401 151.197 120.337C150.985 119.273 150.463 118.296 149.696 117.529C149.186 117.019 148.581 116.615 147.916 116.339C147.25 116.064 146.537 115.922 145.817 115.922C145.096 115.922 144.383 116.064 143.717 116.339C143.052 116.615 142.447 117.019 141.938 117.529Z" fill="#24BF79"/>
<path d="M157.883 133.474C157.116 134.241 156.594 135.218 156.382 136.282C156.17 137.346 156.279 138.449 156.694 139.452C157.109 140.454 157.812 141.311 158.714 141.914C159.617 142.516 160.677 142.838 161.762 142.838C162.847 142.838 163.908 142.516 164.81 141.914C165.712 141.311 166.415 140.454 166.83 139.452C167.245 138.449 167.354 137.346 167.142 136.282C166.931 135.218 166.408 134.241 165.641 133.474C164.612 132.445 163.217 131.867 161.762 131.867C160.307 131.867 158.912 132.445 157.883 133.474Z" fill="#24BF79"/>
<path d="M173.829 149.419C173.061 150.186 172.539 151.164 172.327 152.228C172.116 153.292 172.224 154.395 172.639 155.397C173.055 156.399 173.758 157.256 174.66 157.859C175.562 158.462 176.622 158.783 177.707 158.783C178.792 158.783 179.853 158.462 180.755 157.859C181.657 157.256 182.36 156.399 182.775 155.397C183.19 154.395 183.299 153.292 183.087 152.228C182.876 151.164 182.353 150.186 181.586 149.419C180.557 148.39 179.162 147.812 177.707 147.812C176.253 147.812 174.857 148.39 173.829 149.419Z" fill="#24BF79"/>
<path d="M189.777 165.364C189.01 166.132 188.487 167.109 188.276 168.173C188.064 169.237 188.173 170.34 188.588 171.342C189.003 172.345 189.706 173.201 190.608 173.804C191.51 174.407 192.571 174.729 193.656 174.729C194.741 174.729 195.801 174.407 196.703 173.804C197.605 173.201 198.308 172.345 198.724 171.342C199.139 170.34 199.247 169.237 199.036 168.173C198.824 167.109 198.302 166.132 197.534 165.364C196.506 164.336 195.11 163.758 193.656 163.758C192.201 163.758 190.806 164.336 189.777 165.364Z" fill="#24BF79"/>
<path d="M209.601 190.686C212.631 190.686 215.087 188.23 215.087 185.2C215.087 182.17 212.631 179.714 209.601 179.714C206.572 179.714 204.116 182.17 204.116 185.2C204.116 188.23 206.572 190.686 209.601 190.686Z" fill="#24BF79"/>
<path d="M225.547 206.631C228.576 206.631 231.032 204.175 231.032 201.146C231.032 198.116 228.576 195.66 225.547 195.66C222.517 195.66 220.061 198.116 220.061 201.146C220.061 204.175 222.517 206.631 225.547 206.631Z" fill="#24BF79"/>
<path d="M237.616 213.212C236.849 213.979 236.326 214.957 236.115 216.021C235.903 217.085 236.012 218.188 236.427 219.19C236.842 220.192 237.545 221.049 238.447 221.652C239.349 222.255 240.41 222.576 241.495 222.576C242.58 222.576 243.64 222.255 244.542 221.652C245.445 221.049 246.148 220.192 246.563 219.19C246.978 218.188 247.087 217.085 246.875 216.021C246.663 214.957 246.141 213.979 245.374 213.212C244.345 212.183 242.95 211.605 241.495 211.605C240.04 211.605 238.645 212.183 237.616 213.212Z" fill="#24BF79"/>
<path d="M257.44 238.522C260.47 238.522 262.925 236.066 262.925 233.036C262.925 230.007 260.47 227.551 257.44 227.551C254.411 227.551 251.955 230.007 251.955 233.036C251.955 236.066 254.411 238.522 257.44 238.522Z" fill="#24BF79"/>
<path d="M273.386 254.467C276.415 254.467 278.871 252.011 278.871 248.982C278.871 245.952 276.415 243.496 273.386 243.496C270.356 243.496 267.9 245.952 267.9 248.982C267.9 252.011 270.356 254.467 273.386 254.467Z" fill="#24BF79"/>
<path d="M285.455 261.049C284.688 261.816 284.165 262.793 283.954 263.857C283.742 264.921 283.851 266.024 284.266 267.027C284.681 268.029 285.384 268.886 286.286 269.489C287.188 270.091 288.249 270.413 289.334 270.413C290.419 270.413 291.48 270.091 292.382 269.489C293.284 268.886 293.987 268.029 294.402 267.027C294.817 266.024 294.926 264.921 294.714 263.857C294.503 262.793 293.98 261.816 293.213 261.049C292.184 260.02 290.789 259.442 289.334 259.442C287.879 259.442 286.484 260.02 285.455 261.049Z" fill="#24BF79"/>
<path d="M301.4 276.994C300.633 277.761 300.111 278.739 299.899 279.803C299.688 280.867 299.796 281.97 300.211 282.972C300.627 283.974 301.33 284.831 302.232 285.434C303.134 286.037 304.194 286.358 305.279 286.358C306.364 286.358 307.425 286.037 308.327 285.434C309.229 284.831 309.932 283.974 310.347 282.972C310.762 281.97 310.871 280.867 310.659 279.803C310.448 278.739 309.925 277.761 309.158 276.994C308.649 276.485 308.044 276.081 307.378 275.805C306.713 275.529 306 275.387 305.279 275.387C304.559 275.387 303.845 275.529 303.18 275.805C302.514 276.081 301.91 276.485 301.4 276.994Z" fill="#24BF79"/>
<path d="M317.346 292.939C316.579 293.706 316.056 294.684 315.845 295.748C315.633 296.812 315.742 297.915 316.157 298.917C316.572 299.919 317.275 300.776 318.177 301.379C319.079 301.982 320.14 302.303 321.225 302.303C322.31 302.303 323.37 301.982 324.272 301.379C325.175 300.776 325.878 299.919 326.293 298.917C326.708 297.915 326.817 296.812 326.605 295.748C326.393 294.684 325.871 293.706 325.104 292.939C324.075 291.91 322.68 291.333 321.225 291.333C319.77 291.333 318.375 291.91 317.346 292.939Z" fill="#24BF79"/>
<path d="M333.294 308.885C332.527 309.652 332.005 310.63 331.793 311.694C331.581 312.758 331.69 313.861 332.105 314.863C332.52 315.866 333.223 316.722 334.125 317.325C335.028 317.928 336.088 318.25 337.173 318.25C338.258 318.25 339.319 317.928 340.221 317.325C341.123 316.722 341.826 315.866 342.241 314.863C342.656 313.861 342.765 312.758 342.553 311.694C342.342 310.63 341.819 309.652 341.052 308.885C340.023 307.856 338.628 307.278 337.173 307.278C335.718 307.278 334.323 307.856 333.294 308.885Z" fill="#24BF79"/>
<path d="M349.24 324.83C348.472 325.597 347.95 326.575 347.738 327.639C347.527 328.703 347.635 329.806 348.051 330.808C348.466 331.811 349.169 332.668 350.071 333.27C350.973 333.873 352.034 334.195 353.119 334.195C354.204 334.195 355.264 333.873 356.166 333.27C357.068 332.668 357.771 331.811 358.187 330.808C358.602 329.806 358.711 328.703 358.499 327.639C358.287 326.575 357.765 325.597 356.998 324.83C355.969 323.802 354.573 323.224 353.119 323.224C351.664 323.224 350.268 323.802 349.24 324.83Z" fill="#24BF79"/>
<path d="M369.064 350.14C372.094 350.14 374.55 347.684 374.55 344.655C374.55 341.625 372.094 339.169 369.064 339.169C366.034 339.169 363.578 341.625 363.578 344.655C363.578 347.684 366.034 350.14 369.064 350.14Z" fill="#24BF79"/>
</g>
<g opacity="0.05">
<path d="M261.947 385.782C261.5 386.229 261.196 386.797 261.073 387.416C260.95 388.035 261.013 388.677 261.255 389.26C261.496 389.843 261.905 390.342 262.43 390.692C262.955 391.043 263.572 391.23 264.203 391.23C264.834 391.23 265.451 391.043 265.976 390.692C266.501 390.342 266.91 389.843 267.151 389.26C267.393 388.677 267.456 388.035 267.333 387.416C267.21 386.797 266.906 386.229 266.46 385.782C265.861 385.184 265.049 384.848 264.203 384.848C263.357 384.848 262.545 385.184 261.947 385.782Z" fill="#24BF79"/>
<path d="M271.224 395.06C270.777 395.506 270.474 396.075 270.35 396.694C270.227 397.313 270.291 397.954 270.532 398.538C270.774 399.121 271.183 399.619 271.707 399.97C272.232 400.32 272.849 400.508 273.48 400.508C274.112 400.508 274.729 400.32 275.253 399.97C275.778 399.619 276.187 399.121 276.429 398.538C276.67 397.954 276.733 397.313 276.61 396.694C276.487 396.075 276.183 395.506 275.737 395.06C275.441 394.763 275.089 394.528 274.702 394.368C274.314 394.208 273.899 394.125 273.48 394.125C273.061 394.125 272.646 394.208 272.259 394.368C271.872 394.528 271.52 394.763 271.224 395.06Z" fill="#24BF79"/>
<path d="M280.501 404.337C280.055 404.783 279.751 405.352 279.628 405.971C279.505 406.59 279.568 407.232 279.809 407.815C280.051 408.398 280.46 408.896 280.985 409.247C281.51 409.598 282.127 409.785 282.758 409.785C283.389 409.785 284.006 409.598 284.531 409.247C285.055 408.896 285.464 408.398 285.706 407.815C285.947 407.232 286.011 406.59 285.888 405.971C285.764 405.352 285.461 404.783 285.014 404.337C284.718 404.041 284.366 403.806 283.979 403.645C283.592 403.485 283.177 403.402 282.758 403.402C282.339 403.402 281.924 403.485 281.536 403.645C281.149 403.806 280.797 404.041 280.501 404.337Z" fill="#24BF79"/>
<path d="M289.778 413.614C289.332 414.061 289.028 414.629 288.905 415.248C288.782 415.867 288.845 416.509 289.087 417.092C289.328 417.675 289.737 418.174 290.262 418.524C290.787 418.875 291.404 419.062 292.035 419.062C292.666 419.062 293.283 418.875 293.808 418.524C294.333 418.174 294.742 417.675 294.983 417.092C295.225 416.509 295.288 415.867 295.165 415.248C295.042 414.629 294.738 414.061 294.292 413.614C293.693 413.016 292.881 412.68 292.035 412.68C291.189 412.68 290.377 413.016 289.778 413.614Z" fill="#24BF79"/>
<path d="M299.053 422.892C298.607 423.338 298.303 423.907 298.18 424.526C298.056 425.145 298.12 425.786 298.361 426.369C298.603 426.953 299.012 427.451 299.537 427.802C300.061 428.152 300.678 428.339 301.309 428.339C301.941 428.339 302.558 428.152 303.082 427.802C303.607 427.451 304.016 426.953 304.258 426.369C304.499 425.786 304.563 425.145 304.439 424.526C304.316 423.907 304.012 423.338 303.566 422.892C303.27 422.595 302.918 422.36 302.531 422.2C302.144 422.04 301.729 421.957 301.309 421.957C300.89 421.957 300.475 422.04 300.088 422.2C299.701 422.36 299.349 422.595 299.053 422.892Z" fill="#24BF79"/>
<path d="M308.33 432.169C307.884 432.615 307.58 433.184 307.457 433.803C307.334 434.422 307.397 435.064 307.639 435.647C307.88 436.23 308.289 436.728 308.814 437.079C309.339 437.43 309.956 437.617 310.587 437.617C311.218 437.617 311.835 437.43 312.36 437.079C312.885 436.728 313.294 436.23 313.535 435.647C313.777 435.064 313.84 434.422 313.717 433.803C313.594 433.184 313.29 432.615 312.843 432.169C312.547 431.873 312.195 431.638 311.808 431.477C311.421 431.317 311.006 431.234 310.587 431.234C310.168 431.234 309.753 431.317 309.366 431.477C308.978 431.638 308.627 431.873 308.33 432.169Z" fill="#24BF79"/>
<path d="M317.608 441.446C317.161 441.893 316.857 442.461 316.734 443.08C316.611 443.699 316.674 444.341 316.916 444.924C317.157 445.507 317.566 446.006 318.091 446.356C318.616 446.707 319.233 446.894 319.864 446.894C320.495 446.894 321.112 446.707 321.637 446.356C322.162 446.006 322.571 445.507 322.812 444.924C323.054 444.341 323.117 443.699 322.994 443.08C322.871 442.461 322.567 441.893 322.121 441.446C321.824 441.15 321.473 440.915 321.085 440.755C320.698 440.594 320.283 440.512 319.864 440.512C319.445 440.512 319.03 440.594 318.643 440.755C318.256 440.915 317.904 441.15 317.608 441.446Z" fill="#24BF79"/>
<path d="M326.885 450.724C326.439 451.17 326.135 451.739 326.012 452.358C325.888 452.977 325.952 453.618 326.193 454.202C326.435 454.785 326.844 455.283 327.368 455.634C327.893 455.984 328.51 456.172 329.141 456.172C329.773 456.172 330.39 455.984 330.914 455.634C331.439 455.283 331.848 454.785 332.09 454.202C332.331 453.618 332.394 452.977 332.271 452.358C332.148 451.739 331.844 451.17 331.398 450.724C331.102 450.427 330.75 450.192 330.363 450.032C329.975 449.872 329.561 449.789 329.141 449.789C328.722 449.789 328.307 449.872 327.92 450.032C327.533 450.192 327.181 450.427 326.885 450.724Z" fill="#24BF79"/>
<path d="M336.162 460.001C335.716 460.447 335.412 461.015 335.289 461.635C335.166 462.254 335.229 462.895 335.47 463.478C335.712 464.061 336.121 464.56 336.646 464.911C337.171 465.261 337.788 465.448 338.419 465.448C339.05 465.448 339.667 465.261 340.192 464.911C340.717 464.56 341.126 464.061 341.367 463.478C341.609 462.895 341.672 462.254 341.549 461.635C341.426 461.015 341.122 460.447 340.675 460.001C340.077 459.402 339.265 459.066 338.419 459.066C337.572 459.066 336.761 459.402 336.162 460.001Z" fill="#24BF79"/>
<path d="M345.439 469.278C344.993 469.724 344.689 470.293 344.566 470.912C344.443 471.531 344.506 472.172 344.748 472.756C344.989 473.339 345.398 473.837 345.923 474.188C346.448 474.538 347.065 474.726 347.696 474.726C348.327 474.726 348.944 474.538 349.469 474.188C349.994 473.837 350.403 473.339 350.644 472.756C350.886 472.172 350.949 471.531 350.826 470.912C350.703 470.293 350.399 469.724 349.952 469.278C349.656 468.982 349.304 468.747 348.917 468.586C348.53 468.426 348.115 468.343 347.696 468.343C347.277 468.343 346.862 468.426 346.475 468.586C346.088 468.747 345.736 468.982 345.439 469.278Z" fill="#24BF79"/>
<path d="M354.714 478.555C354.268 479.001 353.964 479.57 353.841 480.189C353.718 480.808 353.781 481.45 354.022 482.033C354.264 482.616 354.673 483.115 355.198 483.465C355.722 483.816 356.339 484.003 356.971 484.003C357.602 484.003 358.219 483.816 358.744 483.465C359.268 483.115 359.677 482.616 359.919 482.033C360.161 481.45 360.224 480.808 360.101 480.189C359.977 479.57 359.673 479.001 359.227 478.555C358.629 477.957 357.817 477.621 356.971 477.621C356.124 477.621 355.313 477.957 354.714 478.555Z" fill="#24BF79"/>
<path d="M363.991 487.833C363.545 488.279 363.241 488.848 363.118 489.467C362.995 490.086 363.058 490.727 363.3 491.311C363.541 491.894 363.95 492.392 364.475 492.743C365 493.093 365.617 493.281 366.248 493.281C366.879 493.281 367.496 493.093 368.021 492.743C368.546 492.392 368.955 491.894 369.196 491.311C369.438 490.727 369.501 490.086 369.378 489.467C369.255 488.848 368.951 488.279 368.505 487.833C367.906 487.234 367.094 486.898 366.248 486.898C365.402 486.898 364.59 487.234 363.991 487.833Z" fill="#24BF79"/>
<path d="M373.269 497.11C372.822 497.556 372.518 498.125 372.395 498.744C372.272 499.363 372.335 500.005 372.577 500.588C372.818 501.171 373.227 501.669 373.752 502.02C374.277 502.371 374.894 502.558 375.525 502.558C376.156 502.558 376.773 502.371 377.298 502.02C377.823 501.669 378.232 501.171 378.473 500.588C378.715 500.005 378.778 499.363 378.655 498.744C378.532 498.125 378.228 497.556 377.782 497.11C377.485 496.814 377.133 496.579 376.746 496.418C376.359 496.258 375.944 496.175 375.525 496.175C375.106 496.175 374.691 496.258 374.304 496.418C373.917 496.579 373.565 496.814 373.269 497.11Z" fill="#24BF79"/>
<path d="M382.546 506.387C382.1 506.834 381.796 507.402 381.673 508.021C381.549 508.64 381.613 509.282 381.854 509.865C382.096 510.448 382.505 510.947 383.03 511.297C383.554 511.648 384.171 511.835 384.803 511.835C385.434 511.835 386.051 511.648 386.575 511.297C387.1 510.947 387.509 510.448 387.751 509.865C387.992 509.282 388.056 508.64 387.932 508.021C387.809 507.402 387.505 506.834 387.059 506.387C386.461 505.789 385.649 505.453 384.803 505.453C383.956 505.453 383.145 505.789 382.546 506.387Z" fill="#24BF79"/>
<path d="M391.823 515.653C391.377 516.1 391.073 516.668 390.95 517.287C390.827 517.906 390.89 518.548 391.132 519.131C391.373 519.714 391.782 520.213 392.307 520.563C392.832 520.914 393.449 521.101 394.08 521.101C394.711 521.101 395.328 520.914 395.853 520.563C396.378 520.213 396.787 519.714 397.028 519.131C397.27 518.548 397.333 517.906 397.21 517.287C397.087 516.668 396.783 516.1 396.336 515.653C395.738 515.055 394.926 514.719 394.08 514.719C393.233 514.719 392.422 515.055 391.823 515.653Z" fill="#24BF79"/>
<path d="M401.101 524.931C400.654 525.377 400.35 525.946 400.227 526.565C400.104 527.184 400.167 527.825 400.409 528.409C400.65 528.992 401.059 529.49 401.584 529.841C402.109 530.191 402.726 530.379 403.357 530.379C403.988 530.379 404.605 530.191 405.13 529.841C405.655 529.49 406.064 528.992 406.306 528.409C406.547 527.825 406.61 527.184 406.487 526.565C406.364 525.946 406.06 525.377 405.614 524.931C405.015 524.332 404.204 523.996 403.357 523.996C402.511 523.996 401.699 524.332 401.101 524.931Z" fill="#24BF79"/>
<path d="M414.891 534.208C414.445 533.762 413.876 533.458 413.257 533.335C412.638 533.212 411.996 533.275 411.413 533.516C410.83 533.758 410.332 534.167 409.981 534.692C409.63 535.217 409.443 535.834 409.443 536.465C409.443 537.096 409.63 537.713 409.981 538.238C410.332 538.763 410.83 539.172 411.413 539.413C411.996 539.655 412.638 539.718 413.257 539.595C413.876 539.472 414.445 539.168 414.891 538.721C415.489 538.123 415.826 537.311 415.826 536.465C415.826 535.618 415.489 534.807 414.891 534.208Z" fill="#24BF79"/>
</g>
<path d="M445.538 502.159L479.429 521.094L445.538 510.161V502.159Z" fill="#196E57"/>
<path d="M481.906 519.221L429.726 468.622L426.168 472.18L481.906 519.221Z" fill="#196E57"/>
<path d="M517.069 500.969L541.971 476.067L545.944 480.487L517.069 500.969Z" fill="#196E57"/>
<path d="M621.487 763.757C622.246 761.914 622.542 759.914 622.347 757.931C622.152 755.948 621.474 754.043 620.37 752.383C619.267 750.724 617.773 749.361 616.02 748.414C614.266 747.468 612.307 746.966 610.315 746.954L500.737 747.034C499.295 773.393 522.904 779.527 531.66 780.893C533.539 781.186 535.453 781.165 537.325 780.83L595.781 770.466L603.064 768.855L594.975 773.777C579.462 815.814 576.396 850.86 575.961 857.019C575.939 857.329 575.98 857.64 576.081 857.935C576.182 858.229 576.341 858.5 576.549 858.731C577.501 859.788 579.16 861.579 579.16 861.579L576.174 860.708L576.186 867.731L580.621 867.724L580.617 865.506C582.288 866.537 584.201 867.107 586.163 867.16L598.914 867.138C598.914 867.138 599.186 864.089 593.919 863.821C593.919 863.821 585.881 863.834 583.381 860.789L582.941 859.182C582.735 858.428 582.785 857.627 583.083 856.905L621.487 763.757Z" fill="#163666"/>
<path d="M570.457 661.728L569.043 661.891C563.873 636.017 544.278 630.67 532.3 629.896C527.56 623.357 520.576 620.705 514.954 619.662L491.131 601.184L514.32 563.757L509.537 560.444C497.069 571.322 486.012 583.716 476.623 597.339C475.568 598.874 475.057 600.718 475.172 602.577C475.287 604.436 476.021 606.203 477.256 607.597L512.422 647.284L521.687 657.738C522.036 663.093 523.619 668.295 526.313 672.937L535.139 671.018L525.638 675.355L519.063 697.638L519.209 697.531L514.707 710.313C514.707 710.313 501.135 715.654 491.865 716.591C488.785 716.896 485.777 717.713 482.966 719.008C475.812 722.279 465.199 729.954 461.904 747.32C461.904 747.32 503.859 728.58 535.071 719.878C566.297 711.182 572.399 691.277 570.457 661.728Z" fill="#163666"/>
<path d="M535.277 719.149C534.021 719.515 532.742 719.903 531.453 720.3L531.44 720.3C567.848 704.736 559.079 678.44 559.079 678.44L565.047 675.895L557.025 673.625L569.912 662.529C571.535 691.348 565.373 710.397 535.277 719.149Z" fill="#204B84"/>
<path opacity="0.15" d="M606.656 515.841C568.257 484.284 501.741 500.208 457.214 551.945C412.225 604.219 406.809 673.15 445.013 706.029C453.544 711.642 495.937 674.878 540.39 623.228C585.378 570.955 615.522 523.134 607.717 516.417C607.405 516.156 607.045 515.96 606.656 515.841Z" fill="#24BF79"/>
<path opacity="0.15" d="M446.465 701.185C412.002 669.516 418.187 604.512 460.786 555.015C487.4 524.092 523.188 505.166 556.519 504.387C574.828 503.959 591.132 509.178 603.665 519.477L604.284 519.987C604.644 527.353 585.666 563.394 536.818 620.149C489.233 675.441 455.349 701.518 447.369 701.78L446.465 701.185Z" fill="#24BF79"/>
<path style="mix-blend-mode:multiply" opacity="0.35" d="M604.268 520.451C603.912 528.72 584.756 564.448 536.813 620.146C533.904 623.53 531.045 626.803 528.236 629.965C522.757 636.156 517.486 641.93 512.423 647.287C477.834 684.027 453.903 701.562 447.365 701.776L447.104 701.602C443.277 671.1 452.148 635.405 473.004 602.8C483.115 587.024 495.416 572.764 509.538 560.448C537.881 535.781 571.466 521.194 603.177 520.451C603.541 520.443 603.904 520.451 604.268 520.451Z" fill="url(#paint4_linear)"/>
<defs>
<filter id="filter0_f" x="31" y="0" width="823" height="823" filterUnits="userSpaceOnUse" color-interpolation-filters="sRGB">
<feFlood flood-opacity="0" result="BackgroundImageFix"/>
<feBlend mode="normal" in="SourceGraphic" in2="BackgroundImageFix" result="shape"/>
<feGaussianBlur stdDeviation="75" result="effect1_foregroundBlur"/>
</filter>
<filter id="filter1_f" x="631" y="651" width="88" height="73" filterUnits="userSpaceOnUse" color-interpolation-filters="sRGB">
<feFlood flood-opacity="0" result="BackgroundImageFix"/>
<feBlend mode="normal" in="SourceGraphic" in2="BackgroundImageFix" result="shape"/>
<feGaussianBlur stdDeviation="7.5" result="effect1_foregroundBlur"/>
</filter>
<radialGradient id="paint0_angular" cx="0" cy="0" r="1" gradientUnits="userSpaceOnUse" gradientTransform="translate(442.5 411.5) scale(261.5)">
<stop stop-color="#1B3660"/>
</radialGradient>
<linearGradient id="paint1_linear" x1="575.41" y1="635.91" x2="585.629" y2="656.92" gradientUnits="userSpaceOnUse">
<stop stop-color="#FBE1EC"/>
<stop offset="0.57487" stop-color="#FBDFEA"/>
<stop offset="0.79942" stop-color="#FBD8E3"/>
<stop offset="0.96245" stop-color="#FACCD7"/>
<stop offset="1" stop-color="#FAC8D3"/>
</linearGradient>
<linearGradient id="paint2_linear" x1="574.318" y1="663.878" x2="600.577" y2="663.878" gradientUnits="userSpaceOnUse">
<stop stop-color="#FAC8D3"/>
<stop offset="0.42782" stop-color="#FACBD6"/>
<stop offset="0.76585" stop-color="#FBD5E0"/>
<stop offset="1" stop-color="#FBE1EC"/>
</linearGradient>
<linearGradient id="paint3_linear" x1="18927.7" y1="19572.3" x2="20028.4" y2="19572.3" gradientUnits="userSpaceOnUse">
<stop stop-color="#121A41"/>
<stop offset="0.62663" stop-color="#1F295C"/>
<stop offset="1" stop-color="#242F66"/>
</linearGradient>
<linearGradient id="paint4_linear" x1="481.618" y1="573.814" x2="534.981" y2="618.876" gradientUnits="userSpaceOnUse">
<stop stop-color="#24BF79"/>
<stop offset="1" stop-color="#24BF79" stop-opacity="0"/>
</linearGradient>
</defs>
</svg>
