<svg width="900" height="866" viewBox="0 0 900 866" fill="none" xmlns="http://www.w3.org/2000/svg">
<g opacity="0.65" filter="url(#filter0_f)">
<path d="M450 716C629.493 716 775 570.716 775 391.5C775 212.284 629.493 67 450 67C270.507 67 125 212.284 125 391.5C125 570.716 270.507 716 450 716Z" fill="url(#paint0_angular)"/>
</g>
<path d="M556.492 621.52L443.95 628.23L331.407 621.52C331.407 621.52 325.419 731.602 387.722 780.095C392.031 783.451 397.062 785.759 402.416 786.838C411.296 788.614 426.912 791.174 443.412 791.283V791.293C443.592 791.293 443.77 791.288 443.95 791.288C444.129 791.288 444.307 791.293 444.487 791.293V791.283C460.987 791.174 476.603 788.614 485.483 786.838C490.838 785.76 495.868 783.451 500.177 780.095C562.481 731.602 556.492 621.52 556.492 621.52Z" fill="white"/>
<path d="M556.492 621.52C556.492 636.244 506.226 648.181 444.027 648.181C381.829 648.181 331.407 636.244 331.407 621.52C331.407 606.795 381.829 594.859 444.027 594.859C506.226 594.859 556.492 606.795 556.492 621.52Z" fill="white"/>
<path d="M543.777 621.52C541.386 623.12 537.36 624.922 531.733 626.742C515.461 631.945 485.858 637.149 444.027 637.149C402.16 637.149 372.521 631.945 356.23 626.742C350.585 624.922 346.54 623.12 344.149 621.52C353.472 615.305 387.672 605.891 444.027 605.891C500.347 605.891 534.491 615.305 543.777 621.52Z" fill="white"/>
<path d="M491.833 788.731C491.833 793.681 470.121 797.694 443.338 797.694C416.554 797.694 394.842 793.681 394.842 788.731V778.848H491.833V788.731Z" fill="white"/>
<path d="M559.182 665.776C559.916 665.776 560.648 665.84 561.371 665.965C567.752 667.075 571.63 672.801 573.374 676.115C577.149 683.289 578.376 692.8 576.74 702.209C575.219 710.955 571.431 718.822 566.073 724.359C561.725 728.852 556.809 731.327 552.229 731.327C551.495 731.327 550.762 731.263 550.038 731.138C543.658 730.028 539.779 724.302 538.035 720.988C534.26 713.814 533.033 704.303 534.669 694.894C536.19 686.148 539.978 678.282 545.336 672.744C549.684 668.251 554.6 665.776 559.181 665.776H559.182ZM559.18 647.747C539.639 647.748 521.344 666.288 516.907 691.805C512.072 719.612 525.523 745.174 546.95 748.9C548.693 749.203 550.46 749.356 552.229 749.356C571.77 749.356 590.065 730.815 594.502 705.298C599.337 677.491 585.886 651.929 564.459 648.203C562.716 647.9 560.949 647.747 559.18 647.747Z" fill="white"/>
<path d="M531.733 626.742C515.461 631.945 485.858 637.149 444.027 637.149C402.16 637.149 372.521 631.945 356.23 626.742C372.521 621.52 402.16 616.316 444.027 616.316C485.858 616.316 515.461 621.52 531.733 626.742Z" fill="#7D343B"/>
<path d="M444.028 637.61C394.127 637.61 365.906 630.317 356.089 627.181L354.715 626.742L356.089 626.302C365.889 623.16 394.075 615.854 444.028 615.854C493.931 615.854 522.086 623.16 531.874 626.302L533.247 626.742L531.874 627.181C522.068 630.317 493.879 637.61 444.028 637.61ZM357.78 626.741C368.684 630.054 396.465 636.687 444.028 636.687C491.543 636.687 519.293 630.054 530.184 626.741C519.31 623.421 491.589 616.778 444.028 616.778C396.419 616.778 368.667 623.421 357.78 626.741Z" fill="#BA8A7E"/>
<path d="M341.694 632.649C342.067 661.82 347.891 740.983 398.141 780.094C400.419 781.863 402.905 783.346 405.544 784.51C372.246 740.193 366.054 673.066 365.112 640.535C355.415 638.279 347.449 635.61 341.694 632.649Z" fill="#DFF2F8"/>
<path d="M556.492 621.52C556.492 626.298 551.173 630.779 541.897 634.657C541.388 665.515 535.444 743.276 490.424 785.448C493.937 784.189 497.229 782.383 500.177 780.094C562.481 731.602 556.492 621.52 556.492 621.52Z" fill="#DFF2F8"/>
<path d="M372.535 642.12C373.644 675.839 379.923 742.653 411.105 778.505C387.789 737.922 382.7 676.397 381.722 643.728C378.545 643.227 375.474 642.692 372.535 642.12Z" fill="#DFF2F8"/>
<path d="M256.314 665.273C256.269 665.279 256.224 665.272 256.183 665.252C256.121 665.222 256.025 665.174 255.964 665.142C255.175 664.697 254.501 664.073 253.996 663.321C253.491 662.568 253.17 661.708 253.058 660.809C252.914 659.784 253.138 658.741 253.69 657.866C254.177 657.007 254.899 656.255 255.13 655.272C255.299 654.55 255.191 653.789 255.337 653.064L255.344 653.032C255.344 653.032 258.768 655.35 259.359 659.395C259.554 660.724 259.318 662.08 258.686 663.265C258.195 664.187 257.428 665.131 256.314 665.273Z" fill="#163666"/>
<path d="M249.134 659.845C249.221 659.828 249.301 659.786 249.364 659.724C249.461 659.63 249.61 659.483 249.702 659.386C252.248 656.706 252.998 653.124 252.434 649.561C252.105 647.477 250.992 645.878 249.455 644.489C248.024 643.195 246.223 642.242 245.191 640.559C244.433 639.324 244.167 637.845 243.45 636.59L243.418 636.534C243.418 636.534 238.488 642.939 239.875 650.807C240.33 653.392 241.6 655.764 243.499 657.575C244.977 658.983 246.98 660.264 249.134 659.845Z" fill="#163666"/>
<path d="M251.903 731.312H250.234C250.303 729.585 250.196 727.854 249.915 726.148C249.763 725.119 249.365 724.142 248.755 723.301C248.144 722.459 247.34 721.777 246.409 721.313C244.753 720.461 243.049 719.702 241.307 719.042C238 717.875 238.393 712.914 235.086 710.487C231.737 708.027 231.517 706.347 231.941 705.358C232.089 705.014 232.358 704.737 232.698 704.578C233.038 704.42 233.424 704.392 233.783 704.5C243.228 707.305 247.319 714.202 249.052 718.822C250.454 721.925 252.081 726.603 251.903 731.312Z" fill="#163666"/>
<path d="M268.528 686.376C268.528 686.376 280 677.043 291.277 679.765C295.603 680.809 300.817 684.701 300.85 689.533C300.883 694.336 296.223 693.451 293.088 692.107C289.143 690.415 285.947 687.418 281.756 686.273C279.75 685.747 277.68 685.503 275.606 685.549C274.003 685.571 269.8 685.34 268.528 686.376Z" fill="#163666"/>
<path d="M301.97 662.848C301.97 673.91 293.252 675.637 287.334 675.998C284.416 676.169 281.609 677.177 279.249 678.902C278.883 679.163 278.517 679.43 278.145 679.697C275.633 681.518 273.07 683.339 270.574 685.244C270.249 685.479 269.961 685.725 269.679 685.976C269.38 686.215 269.097 686.472 268.831 686.746L268.046 687.578C267.79 687.86 267.57 688.179 267.329 688.478L266.979 688.933C266.864 689.085 266.769 689.252 266.659 689.409L266.032 690.372L265.477 691.377C265.288 691.706 265.111 692.046 264.954 692.397C263.676 695.113 262.687 697.956 262.002 700.879C260.974 705.31 260.295 709.816 259.972 714.353C259.909 715.175 259.852 715.975 259.805 716.755C259.527 721.449 259.548 725.379 259.606 728.12C259.637 729.502 259.684 730.58 259.721 731.312H258.549C258.517 730.575 258.476 729.497 258.455 728.141C258.413 725.379 258.413 721.423 258.722 716.687C258.992 712.141 259.577 707.62 260.475 703.155C260.647 702.323 260.836 701.486 261.045 700.644C261.761 697.657 262.79 694.754 264.117 691.984C264.279 691.624 264.461 691.273 264.661 690.932L265.247 689.896L265.901 688.896C266.016 688.729 266.121 688.561 266.236 688.399L266.607 687.923C266.864 687.614 267.094 687.285 267.366 686.986L268.198 686.107C268.486 685.822 268.788 685.551 269.103 685.296C269.412 685.029 269.726 684.768 270.04 684.543C272.562 682.638 275.147 680.828 277.664 679.028C280.191 677.228 282.651 675.438 284.953 673.606C287.175 671.865 289.288 669.988 291.279 667.987C293.06 666.198 294.673 664.25 296.099 662.168C299.086 657.689 300.347 652.801 301.876 647.705L301.97 662.848Z" fill="#163666"/>
<path d="M264.591 710.583C264.591 710.583 260.361 699.209 268.965 693.521C268.965 693.521 272.319 690.751 278.444 689.292C278.444 689.292 283.986 706.646 264.591 710.583Z" fill="#163666"/>
<path d="M265.671 707.88C265.671 707.88 265.561 708.263 265.398 708.932C265.32 709.262 265.21 709.665 265.111 710.136C265.006 710.601 264.891 711.13 264.76 711.705C264.629 712.281 264.519 712.909 264.383 713.568C264.258 714.233 264.101 714.929 263.991 715.656C263.865 716.383 263.74 717.137 263.609 717.896C263.473 718.66 263.379 719.439 263.269 720.219C263.164 720.993 263.054 721.773 262.95 722.537C262.845 723.306 262.793 724.065 262.709 724.792C262.699 724.871 262.693 724.949 262.688 725.028C262.62 725.677 262.562 726.305 262.5 726.907C262.468 727.173 262.447 727.435 262.426 727.691C262.4 728.073 262.379 728.445 262.358 728.795C262.296 729.8 262.243 730.658 262.207 731.312H260.49C260.564 730.637 260.663 729.727 260.778 728.649C260.841 728.052 260.899 727.414 261.014 726.739C261.113 726.064 261.218 725.352 261.333 724.615C261.448 723.882 261.542 723.118 261.683 722.354C261.825 721.585 261.971 720.805 262.118 720.026C262.264 719.246 262.395 718.466 262.573 717.707C262.74 716.943 262.908 716.195 263.065 715.468C263.216 714.741 263.405 714.05 263.562 713.39C263.729 712.726 263.876 712.103 264.033 711.528C264.19 710.957 264.336 710.434 264.462 709.968C264.587 709.502 264.718 709.1 264.813 708.765C265.011 708.095 265.137 707.723 265.137 707.723L265.671 707.88Z" fill="#163666"/>
<path d="M261.592 728.075C261.592 728.075 263.265 720.382 269.494 718.613C269.629 718.574 269.771 718.573 269.907 718.607C270.043 718.641 270.167 718.711 270.267 718.809C270.367 718.907 270.439 719.029 270.477 719.164C270.514 719.299 270.516 719.441 270.48 719.577C269.986 721.474 268.179 725.217 261.592 728.075Z" fill="#163666"/>
<path d="M291.473 641.849C291.473 641.849 256.539 645.434 263.541 672.382C263.95 673.947 263.89 675.597 263.368 677.128C262.077 681.165 261.144 685.308 260.579 689.508C261.354 682.988 257.455 666.537 256.576 662.958C256.529 662.775 256.412 662.619 256.25 662.523C256.089 662.427 255.895 662.399 255.713 662.445L255.692 662.45C255.595 662.476 255.505 662.521 255.426 662.582C255.347 662.643 255.281 662.719 255.231 662.806C255.182 662.894 255.152 662.991 255.142 663.09C255.132 663.19 255.143 663.291 255.174 663.387C256.702 668.321 260.045 687.666 258.025 699.403C256.691 707.185 256.67 720.522 256.843 729.423C256.859 730.077 256.874 730.711 256.885 731.312H259.972V730.512C259.846 724.531 259.857 719.167 259.972 714.353C260.071 710.225 260.244 706.504 260.474 703.155C261.416 689.341 263.295 681.848 264.645 678.075C264.851 677.496 265.236 676.997 265.744 676.65C266.252 676.303 266.856 676.126 267.471 676.144C274.587 676.343 292.566 673.716 291.473 641.849ZM260.558 689.681C260.563 689.655 260.563 689.629 260.569 689.603C260.563 689.655 260.558 689.681 260.558 689.681Z" fill="#163666"/>
<path d="M252.001 672.376C252.001 672.376 259.282 678.644 258.922 689.804C258.969 688.356 257.255 685.955 256.463 684.874C251.14 677.601 243.88 679.051 236.157 680.745L252.001 672.376Z" fill="#163666"/>
<path d="M246.268 705.697C246.254 705.591 246.264 705.483 246.298 705.381C246.332 705.28 246.389 705.187 246.464 705.111C246.539 705.035 246.63 704.977 246.731 704.941C246.832 704.905 246.94 704.893 247.046 704.906C249.5 705.195 256.389 706.901 258.611 716.903C258.611 716.903 248.14 719.707 246.268 705.697Z" fill="#163666"/>
<path d="M250.567 693.138C250.567 693.138 258.15 696.249 258.15 703.637C258.15 703.637 252.317 705.387 250.567 693.138Z" fill="#163666"/>
<path d="M224.779 684.82C224.779 684.82 244.703 680.624 247.528 697.847C247.528 697.847 240.408 701.238 233.529 697.847C226.703 694.484 224.779 684.82 224.779 684.82Z" fill="#163666"/>
<path d="M243.377 694.294C243.377 694.294 243.442 694.327 243.565 694.389C243.692 694.453 243.862 694.552 244.084 694.678C244.68 695.038 245.258 695.429 245.813 695.851C246.149 696.121 246.526 696.401 246.893 696.732C247.27 697.053 247.656 697.405 248.038 697.786C248.436 698.153 248.802 698.574 249.194 698.984C249.574 699.406 249.939 699.852 250.31 700.294C250.656 700.755 251.015 701.208 251.344 701.67C251.66 702.141 251.98 702.601 252.274 703.055C252.553 703.519 252.822 703.968 253.077 704.394C253.326 704.823 253.531 705.245 253.736 705.627C253.938 706.011 254.128 706.361 254.266 706.685C254.412 707.005 254.539 707.284 254.644 707.514C254.853 707.975 254.973 708.239 254.973 708.239L253.512 708.808C253.512 708.808 253.411 708.55 253.235 708.098C253.147 707.872 253.04 707.597 252.918 707.282C252.803 706.963 252.64 706.619 252.467 706.241C252.29 705.865 252.117 705.447 251.9 705.022C251.678 704.6 251.444 704.155 251.202 703.694C250.937 703.246 250.662 702.784 250.383 702.314C250.091 701.852 249.771 701.398 249.463 700.934C249.129 700.491 248.801 700.04 248.459 699.614C248.103 699.198 247.772 698.77 247.409 698.396C247.06 698.007 246.707 697.647 246.361 697.317C246.024 696.976 245.676 696.688 245.365 696.407C244.854 695.972 244.319 695.565 243.765 695.186C243.563 695.055 243.401 694.949 243.295 694.888C243.183 694.824 243.124 694.79 243.124 694.79L243.377 694.294Z" fill="#163666"/>
<path d="M210.585 677.237C210.585 677.237 225.751 652.348 252 672.376C252 672.376 233.723 689.875 210.585 677.237Z" fill="#163666"/>
<path d="M257.575 731.312H253.002C256.555 693.956 247.168 658.458 247.168 658.458L248.167 657.757C253.52 679.169 255.027 705.4 255.44 720.449C255.491 722.231 255.673 724.006 255.985 725.76C256.198 726.997 256.485 728.22 256.843 729.423C257.034 730.072 257.279 730.704 257.575 731.312Z" fill="#163666"/>
<path d="M233.982 735.157V787.812C233.982 788.766 234.169 789.711 234.534 790.592C234.9 791.474 235.435 792.275 236.109 792.949C236.784 793.624 237.585 794.159 238.466 794.524C239.348 794.889 240.292 795.077 241.247 795.077H270.306C271.26 795.077 272.205 794.889 273.086 794.524C273.968 794.159 274.769 793.624 275.443 792.949C276.118 792.275 276.653 791.474 277.018 790.592C277.383 789.711 277.571 788.766 277.571 787.812V735.157H233.982Z" fill="white"/>
<path d="M249.549 735.157V787.812C249.549 788.766 249.737 789.711 250.102 790.592C250.467 791.474 251.002 792.275 251.677 792.949C252.351 793.624 253.152 794.159 254.034 794.524C254.915 794.889 255.86 795.077 256.814 795.077H270.306C271.26 795.077 272.205 794.889 273.086 794.524C273.968 794.159 274.769 793.624 275.443 792.949C276.118 792.275 276.653 791.474 277.018 790.592C277.383 789.711 277.571 788.766 277.571 787.812V735.157H249.549Z" fill="#D7E3ED"/>
<path d="M281.325 729.141H230.228V735.992H281.325V729.141Z" fill="white"/>
<path d="M245.103 729.141H235.87V735.992H245.103V729.141Z" fill="#D7E3ED"/>
<path d="M297.617 796.123C297.484 795.189 297.113 794.305 296.538 793.556C295.964 792.808 295.206 792.22 294.338 791.85C293.47 791.48 292.521 791.34 291.583 791.444C290.645 791.548 289.75 791.892 288.984 792.443C288.433 791.256 287.555 790.25 286.452 789.546C285.349 788.841 284.067 788.466 282.758 788.466C282.591 788.466 282.428 788.479 282.264 788.491C281.652 785.838 280.092 783.5 277.877 781.915C275.663 780.331 272.947 779.608 270.238 779.884C267.529 780.16 265.014 781.415 263.165 783.413C261.316 785.411 260.259 788.016 260.193 790.738C258.319 790.785 256.486 791.303 254.865 792.244C253.243 793.185 251.884 794.519 250.913 796.123H297.617Z" fill="#112441"/>
<path d="M255.994 796.123C255.911 795.537 255.678 794.982 255.317 794.512C254.957 794.042 254.481 793.674 253.936 793.442C253.392 793.209 252.796 793.122 252.208 793.187C251.619 793.252 251.057 793.468 250.577 793.814C250.231 793.069 249.68 792.438 248.988 791.996C248.295 791.553 247.491 791.318 246.67 791.318C246.565 791.318 246.463 791.326 246.36 791.333C245.975 789.669 244.997 788.202 243.607 787.207C242.218 786.213 240.513 785.76 238.813 785.933C237.114 786.106 235.535 786.893 234.375 788.147C233.214 789.401 232.551 791.035 232.51 792.744C231.334 792.773 230.184 793.098 229.166 793.689C228.149 794.279 227.296 795.116 226.686 796.123H255.994Z" fill="#112441"/>
<path d="M650.205 665.273C650.25 665.279 650.295 665.272 650.336 665.252C650.398 665.222 650.494 665.174 650.554 665.142C651.344 664.697 652.018 664.073 652.523 663.321C653.027 662.568 653.349 661.708 653.461 660.809C653.605 659.784 653.381 658.741 652.829 657.866C652.342 657.007 651.62 656.255 651.389 655.272C651.22 654.55 651.328 653.789 651.181 653.064L651.175 653.032C651.175 653.032 647.75 655.35 647.16 659.395C646.965 660.724 647.201 662.08 647.832 663.265C648.324 664.187 649.091 665.131 650.205 665.273Z" fill="#163666"/>
<path d="M657.385 659.845C657.298 659.828 657.218 659.786 657.155 659.724C657.058 659.63 656.909 659.483 656.817 659.386C654.271 656.706 653.521 653.124 654.084 649.561C654.414 647.477 655.527 645.878 657.063 644.489C658.495 643.195 660.296 642.242 661.328 640.559C662.085 639.324 662.352 637.845 663.069 636.59L663.101 636.534C663.101 636.534 668.031 642.939 666.644 650.807C666.189 653.392 664.919 655.764 663.02 657.575C661.542 658.983 659.538 660.264 657.385 659.845Z" fill="#163666"/>
<path d="M654.615 731.312H656.284C656.216 729.585 656.323 727.854 656.604 726.148C656.756 725.119 657.154 724.142 657.764 723.301C658.374 722.459 659.179 721.777 660.109 721.313C661.766 720.461 663.469 719.702 665.211 719.042C668.519 717.875 668.126 712.914 671.433 710.487C674.782 708.027 675.002 706.347 674.578 705.358C674.43 705.014 674.16 704.737 673.82 704.578C673.481 704.42 673.095 704.392 672.736 704.5C663.291 707.305 659.199 714.202 657.467 718.822C656.065 721.925 654.437 726.603 654.615 731.312Z" fill="#163666"/>
<path d="M637.991 686.376C637.991 686.376 626.518 677.043 615.241 679.765C610.916 680.809 605.701 684.701 605.668 689.533C605.636 694.336 610.296 693.451 613.431 692.107C617.376 690.415 620.572 687.418 624.762 686.273C626.769 685.747 628.839 685.503 630.912 685.549C632.516 685.571 636.718 685.34 637.991 686.376Z" fill="#163666"/>
<path d="M604.549 662.848C604.549 673.91 613.266 675.637 619.185 675.998C622.102 676.169 624.909 677.177 627.269 678.902C627.635 679.163 628.002 679.43 628.373 679.697C630.885 681.518 633.449 683.339 635.945 685.244C636.269 685.479 636.557 685.725 636.84 685.976C637.138 686.215 637.421 686.472 637.688 686.746L638.473 687.578C638.729 687.86 638.948 688.179 639.189 688.478L639.54 688.933C639.655 689.085 639.749 689.252 639.859 689.409L640.487 690.372L641.042 691.377C641.23 691.706 641.408 692.046 641.565 692.397C642.843 695.113 643.832 697.956 644.516 700.879C645.545 705.31 646.223 709.816 646.546 714.353C646.609 715.175 646.667 715.975 646.714 716.755C646.991 721.449 646.97 725.379 646.913 728.12C646.881 729.502 646.834 730.58 646.798 731.312H647.97C648.001 730.575 648.043 729.497 648.064 728.141C648.106 725.379 648.106 721.423 647.797 716.687C647.527 712.141 646.941 707.62 646.044 703.155C645.871 702.323 645.683 701.486 645.474 700.644C644.758 697.657 643.728 694.754 642.402 691.984C642.24 691.624 642.058 691.273 641.858 690.932L641.272 689.896L640.618 688.896C640.503 688.729 640.398 688.561 640.283 688.399L639.911 687.923C639.655 687.614 639.425 687.285 639.153 686.986L638.321 686.107C638.033 685.822 637.731 685.551 637.415 685.296C637.107 685.029 636.793 684.768 636.479 684.543C633.957 682.638 631.372 680.828 628.855 679.028C626.327 677.228 623.868 675.438 621.566 673.606C619.343 671.865 617.23 669.988 615.239 667.987C613.459 666.198 611.846 664.25 610.42 662.168C607.432 657.689 606.171 652.801 604.643 647.705L604.549 662.848Z" fill="#163666"/>
<path d="M641.928 710.583C641.928 710.583 646.157 699.209 637.553 693.521C637.553 693.521 634.199 690.751 628.074 689.292C628.074 689.292 622.533 706.646 641.928 710.583Z" fill="#163666"/>
<path d="M640.848 707.88C640.848 707.88 640.958 708.263 641.12 708.932C641.199 709.262 641.309 709.665 641.408 710.136C641.513 710.601 641.628 711.13 641.758 711.705C641.889 712.281 641.999 712.909 642.135 713.568C642.261 714.233 642.418 714.929 642.528 715.656C642.653 716.383 642.779 717.137 642.91 717.896C643.046 718.66 643.14 719.439 643.25 720.219C643.354 720.993 643.464 721.773 643.569 722.537C643.674 723.306 643.726 724.065 643.81 724.792C643.82 724.871 643.825 724.949 643.831 725.028C643.899 725.677 643.956 726.305 644.019 726.907C644.05 727.173 644.071 727.435 644.092 727.691C644.118 728.073 644.139 728.445 644.16 728.795C644.223 729.8 644.275 730.658 644.312 731.312H646.028C645.955 730.637 645.856 729.727 645.74 728.649C645.678 728.052 645.62 727.414 645.505 726.739C645.406 726.064 645.301 725.352 645.186 724.615C645.071 723.882 644.976 723.118 644.835 722.354C644.694 721.585 644.548 720.805 644.401 720.026C644.254 719.246 644.124 718.466 643.946 717.707C643.778 716.943 643.611 716.195 643.454 715.468C643.302 714.741 643.114 714.05 642.957 713.39C642.789 712.726 642.643 712.103 642.486 711.528C642.329 710.957 642.182 710.434 642.057 709.968C641.931 709.502 641.8 709.1 641.706 708.765C641.507 708.095 641.382 707.723 641.382 707.723L640.848 707.88Z" fill="#163666"/>
<path d="M644.927 728.075C644.927 728.075 643.253 720.382 637.024 718.613C636.89 718.575 636.747 718.573 636.612 718.607C636.476 718.641 636.352 718.711 636.252 718.809C636.152 718.907 636.079 719.029 636.042 719.164C636.004 719.299 636.003 719.441 636.038 719.577C636.533 721.474 638.34 725.217 644.927 728.075Z" fill="#163666"/>
<path d="M639.048 676.144C639.663 676.126 640.267 676.303 640.775 676.65C641.282 676.997 641.667 677.496 641.874 678.075C643.224 681.848 645.102 689.341 646.044 703.155C646.274 706.504 646.447 710.225 646.546 714.353C646.662 719.167 646.672 724.531 646.546 730.512V731.312H649.634C649.644 730.711 649.66 730.077 649.676 729.423C649.848 720.522 649.827 707.185 648.493 699.403C646.473 687.666 649.817 668.321 651.345 663.387C651.376 663.291 651.387 663.19 651.377 663.09C651.367 662.991 651.336 662.894 651.287 662.806C651.238 662.719 651.172 662.643 651.093 662.582C651.014 662.521 650.923 662.476 650.827 662.45L650.806 662.445C650.623 662.399 650.43 662.427 650.268 662.523C650.106 662.619 649.989 662.775 649.943 662.958C649.063 666.537 645.165 682.988 645.94 689.508C645.375 685.308 644.441 681.165 643.151 677.128C642.628 675.597 642.568 673.947 642.978 672.382C649.979 645.434 615.046 641.849 615.046 641.849C613.952 673.716 631.932 676.343 639.048 676.144ZM645.95 689.603C645.955 689.629 645.955 689.655 645.961 689.681C645.961 689.681 645.955 689.655 645.95 689.603Z" fill="#163666"/>
<path d="M654.518 672.376C654.518 672.376 647.237 678.644 647.596 689.804C647.55 688.356 649.264 685.955 650.055 684.874C655.379 677.601 662.638 679.051 670.362 680.745L654.518 672.376Z" fill="#163666"/>
<path d="M660.251 705.697C660.265 705.591 660.255 705.483 660.221 705.381C660.187 705.28 660.13 705.187 660.055 705.111C659.98 705.035 659.888 704.977 659.787 704.941C659.686 704.905 659.579 704.893 659.472 704.906C657.018 705.195 650.13 706.901 647.907 716.903C647.907 716.903 658.378 719.707 660.251 705.697Z" fill="#163666"/>
<path d="M655.951 693.138C655.951 693.138 648.368 696.249 648.368 703.637C648.368 703.637 654.201 705.387 655.951 693.138Z" fill="#163666"/>
<path d="M681.74 684.82C681.74 684.82 661.816 680.624 658.99 697.847C658.99 697.847 666.11 701.238 672.99 697.847C679.815 694.484 681.74 684.82 681.74 684.82Z" fill="#163666"/>
<path d="M663.141 694.294C663.141 694.294 663.076 694.327 662.954 694.389C662.826 694.453 662.656 694.552 662.435 694.678C661.838 695.038 661.261 695.429 660.705 695.851C660.37 696.121 659.992 696.401 659.625 696.732C659.248 697.053 658.863 697.405 658.48 697.786C658.082 698.153 657.717 698.574 657.324 698.984C656.945 699.406 656.58 699.852 656.208 700.294C655.863 700.755 655.504 701.208 655.175 701.67C654.858 702.141 654.538 702.601 654.244 703.055C653.966 703.519 653.697 703.968 653.442 704.394C653.192 704.823 652.988 705.245 652.782 705.627C652.581 706.011 652.39 706.361 652.253 706.685C652.107 707.005 651.98 707.284 651.875 707.514C651.665 707.975 651.546 708.239 651.546 708.239L653.007 708.808C653.007 708.808 653.107 708.55 653.283 708.098C653.371 707.872 653.478 707.597 653.601 707.282C653.715 706.963 653.879 706.619 654.051 706.241C654.228 705.865 654.402 705.447 654.618 705.022C654.84 704.6 655.074 704.155 655.316 703.694C655.582 703.246 655.857 702.784 656.136 702.314C656.427 701.852 656.748 701.398 657.056 700.934C657.389 700.491 657.717 700.04 658.06 699.614C658.415 699.198 658.746 698.77 659.11 698.396C659.458 698.007 659.812 697.647 660.158 697.317C660.495 696.976 660.843 696.688 661.153 696.407C661.665 695.972 662.199 695.565 662.754 695.186C662.956 695.055 663.117 694.949 663.224 694.888C663.335 694.824 663.395 694.79 663.395 694.79L663.141 694.294Z" fill="#163666"/>
<path d="M695.934 677.237C695.934 677.237 680.767 652.348 654.518 672.376C654.518 672.376 672.795 689.875 695.934 677.237Z" fill="#163666"/>
<path d="M648.943 731.312H653.516C649.963 693.956 659.351 658.458 659.351 658.458L658.351 657.757C652.998 679.169 651.491 705.4 651.078 720.449C651.028 722.231 650.846 724.006 650.534 725.76C650.32 726.997 650.033 728.22 649.676 729.423C649.485 730.072 649.24 730.704 648.943 731.312Z" fill="#163666"/>
<path d="M672.537 735.157V787.812C672.537 788.766 672.349 789.711 671.984 790.592C671.619 791.474 671.084 792.275 670.409 792.949C669.735 793.624 668.934 794.159 668.052 794.524C667.171 794.889 666.226 795.077 665.272 795.077H636.213C635.258 795.077 634.314 794.889 633.432 794.524C632.551 794.159 631.75 793.624 631.075 792.949C630.401 792.275 629.865 791.474 629.5 790.592C629.135 789.711 628.948 788.766 628.948 787.812V735.157H672.537Z" fill="white"/>
<path d="M656.969 735.157V787.812C656.969 788.766 656.782 789.711 656.416 790.592C656.051 791.474 655.516 792.275 654.842 792.949C654.167 793.624 653.366 794.159 652.485 794.524C651.603 794.889 650.658 795.077 649.704 795.077H636.212C635.258 795.077 634.314 794.889 633.432 794.524C632.551 794.159 631.75 793.624 631.075 792.949C630.401 792.275 629.865 791.474 629.5 790.592C629.135 789.711 628.948 788.766 628.948 787.812V735.157H656.969Z" fill="#D7E3ED"/>
<path d="M676.291 729.141H625.194V735.992H676.291V729.141Z" fill="white"/>
<path d="M670.649 729.141H661.416V735.992H670.649V729.141Z" fill="#D7E3ED"/>
<path d="M608.901 795.123C609.034 794.189 609.406 793.305 609.98 792.556C610.555 791.808 611.313 791.22 612.181 790.85C613.049 790.48 613.998 790.34 614.936 790.444C615.873 790.548 616.769 790.892 617.535 791.443C618.085 790.256 618.964 789.25 620.067 788.546C621.17 787.841 622.452 787.466 623.761 787.466C623.927 787.466 624.09 787.479 624.254 787.491C624.867 784.838 626.427 782.5 628.641 780.915C630.855 779.331 633.572 778.608 636.28 778.884C638.989 779.16 641.504 780.415 643.354 782.413C645.203 784.411 646.26 787.016 646.325 789.738C648.2 789.785 650.032 790.303 651.654 791.244C653.276 792.185 654.635 793.519 655.606 795.123H608.901Z" fill="#112441"/>
<path d="M650.524 795.123C650.608 794.537 650.841 793.982 651.201 793.512C651.562 793.043 652.038 792.674 652.582 792.442C653.127 792.209 653.722 792.122 654.311 792.187C654.899 792.252 655.461 792.468 655.942 792.814C656.287 792.069 656.839 791.438 657.531 790.996C658.223 790.553 659.027 790.318 659.849 790.318C659.953 790.318 660.056 790.326 660.158 790.333C660.543 788.669 661.522 787.202 662.911 786.207C664.301 785.213 666.005 784.76 667.705 784.933C669.405 785.106 670.983 785.893 672.144 787.147C673.304 788.401 673.967 790.036 674.009 791.744C675.185 791.773 676.335 792.098 677.352 792.689C678.37 793.279 679.223 794.116 679.832 795.123H650.524Z" fill="#112441"/>
<path opacity="0.3" d="M545.829 455.971C526.585 446.659 516.031 459.075 516.031 459.075C504.857 476.457 526.585 491.977 526.585 491.977C556.901 518.829 531.66 555.192 496.014 548.725C488.076 547.285 473.25 546.232 470.604 556.208C468.981 562.324 474.001 568.958 476.921 573.922C489.337 595.029 475.679 603.099 475.679 603.099H440.294C445.745 593.081 450.416 577.107 435.256 573.385C423.995 570.62 412.812 579.04 401.57 578.848C388.893 578.631 377.886 568.355 377.887 555.338C377.888 545.379 384.488 535.638 394.189 532.863C401.377 530.806 439.515 533.115 424.325 513.676C418.603 506.358 402.952 505.1 394.355 504.317C374.504 502.509 354.49 494.517 344.689 475.831C324.829 437.966 349.658 414.999 349.658 414.999L546.349 415.518L545.829 455.971Z" fill="white"/>
<path opacity="0.3" d="M499.668 464.003C486.344 453.344 491.673 445.883 491.673 445.883H439.979C439.354 447.556 419.584 430.49 405.484 430.49C400.822 430.49 396.205 431.408 391.897 433.192C387.589 434.976 383.675 437.592 380.379 440.889C377.082 444.186 374.466 448.1 372.682 452.407C370.898 456.715 369.98 461.332 369.98 465.995C369.98 476.647 374.732 486.234 382.685 493.18C386.556 496.596 391.222 498.988 396.256 500.135C398.571 500.683 401.392 500.399 404.082 500.466C403.486 502.249 403.182 504.117 403.182 505.997C403.182 514.131 409.194 521.775 417.328 523.046C429.665 524.974 447.955 513.94 451.345 533.96C451.978 537.698 451.17 540.213 451.17 540.213C451.17 540.213 449.572 558.332 431.985 562.596C422.088 564.995 412.794 570.053 412.871 581.365C412.936 590.88 420.426 599.952 429.32 603.099L444.242 601.5C434.099 596.649 425.035 582.773 434.646 572.942C442.252 565.16 450.209 566.782 459.338 561.9C481.091 550.264 457.314 524.969 470.231 512.259C475.404 507.169 481.246 504.686 487.943 503.44C510.859 499.177 510.326 484.787 510.326 484.787C510.859 472.53 499.668 464.003 499.668 464.003Z" fill="white"/>
<path opacity="0.3" d="M592.672 459.913C596.138 445.228 587.044 430.514 572.36 427.048C557.676 423.582 542.962 432.675 539.495 447.359C536.029 462.044 545.123 476.758 559.807 480.224C574.491 483.691 589.205 474.597 592.672 459.913Z" fill="white"/>
<path opacity="0.3" d="M616.484 471.848C637.265 471.848 654.111 455.002 654.111 434.222C654.111 413.441 637.265 396.595 616.484 396.595C595.703 396.595 578.857 413.441 578.857 434.222C578.857 455.002 595.703 471.848 616.484 471.848Z" fill="white"/>
<path opacity="0.3" d="M637.732 430.555C658.513 430.555 675.359 413.708 675.359 392.928C675.359 372.147 658.513 355.301 637.732 355.301C616.951 355.301 600.105 372.147 600.105 392.928C600.105 413.708 616.951 430.555 637.732 430.555Z" fill="white"/>
<path opacity="0.3" d="M616.484 441.494C637.265 441.494 654.111 424.648 654.111 403.868C654.111 383.087 637.265 366.241 616.484 366.241C595.703 366.241 578.857 383.087 578.857 403.868C578.857 424.648 595.703 441.494 616.484 441.494Z" fill="white"/>
<path d="M541.992 483.652C558.661 466.983 558.661 439.957 541.992 423.288C525.323 406.619 498.297 406.619 481.628 423.288C464.959 439.957 464.959 466.983 481.628 483.652C498.297 500.32 525.323 500.32 541.992 483.652Z" fill="white"/>
<path d="M255.37 411.319C272.342 411.319 286.1 397.561 286.1 380.59C286.1 363.618 272.342 349.86 255.37 349.86C238.399 349.86 224.641 363.618 224.641 380.59C224.641 397.561 238.399 411.319 255.37 411.319Z" fill="white"/>
<path d="M312.566 418.906C315.728 402.232 304.774 386.152 288.1 382.99C271.425 379.828 255.345 390.782 252.183 407.457C249.022 424.131 259.976 440.211 276.65 443.373C293.324 446.534 309.404 435.58 312.566 418.906Z" fill="white"/>
<path d="M373.036 459.077C393.79 438.323 393.79 404.674 373.036 383.92C352.282 363.166 318.633 363.166 297.879 383.92C277.125 404.674 277.125 438.323 297.879 459.077C318.633 479.831 352.282 479.831 373.036 459.077Z" fill="white"/>
<path d="M347.926 384.414C367.983 384.414 384.243 368.155 384.243 348.098C384.243 328.041 367.983 311.781 347.926 311.781C327.869 311.781 311.61 328.041 311.61 348.098C311.61 368.155 327.869 384.414 347.926 384.414Z" fill="white"/>
<path d="M569.119 455.214C580.049 455.214 588.909 446.353 588.909 435.423C588.909 424.494 580.049 415.633 569.119 415.633C558.189 415.633 549.328 424.494 549.328 435.423C549.328 446.353 558.189 455.214 569.119 455.214Z" fill="white"/>
<path d="M502.98 381.29C524.472 381.29 541.894 363.868 541.894 342.376C541.894 320.885 524.472 303.462 502.98 303.462C481.489 303.462 464.066 320.885 464.066 342.376C464.066 363.868 481.489 381.29 502.98 381.29Z" fill="white"/>
<path d="M571.681 443.789C605.627 443.789 633.145 416.896 633.145 383.721C633.145 350.547 605.627 323.653 571.681 323.653C537.735 323.653 510.216 350.547 510.216 383.721C510.216 416.896 537.735 443.789 571.681 443.789Z" fill="white"/>
<path d="M447.855 414.197C490.102 414.197 524.35 380.727 524.35 339.44C524.35 298.153 490.102 264.683 447.855 264.683C405.607 264.683 371.359 298.153 371.359 339.44C371.359 380.727 405.607 414.197 447.855 414.197Z" fill="white"/>
<path d="M394.573 441.518C425.061 441.518 449.776 416.803 449.776 386.314C449.776 355.826 425.061 331.11 394.573 331.11C364.084 331.11 339.369 355.826 339.369 386.314C339.369 416.803 364.084 441.518 394.573 441.518Z" fill="white"/>
<path d="M502.682 450.602C517.129 436.156 517.129 412.734 502.682 398.287C488.236 383.841 464.814 383.841 450.367 398.287C435.921 412.734 435.921 436.156 450.367 450.602C464.814 465.049 488.236 465.049 502.682 450.602Z" fill="white"/>
<path d="M394.202 496.132C412.014 496.132 426.454 481.693 426.454 463.881C426.454 446.069 412.014 431.629 394.202 431.629C376.391 431.629 361.951 446.069 361.951 463.881C361.951 481.693 376.391 496.132 394.202 496.132Z" fill="white"/>
<path d="M461.113 476.154C474.597 462.67 474.597 440.808 461.113 427.324C447.629 413.84 425.768 413.84 412.284 427.324C398.8 440.808 398.8 462.67 412.284 476.154C425.768 489.638 447.629 489.638 461.113 476.154Z" fill="white"/>
<path d="M491.468 326.826L503.624 356.404C507.25 367.417 518.8 366.074 518.8 366.074H534.648L540.692 364.731H542.169C543.004 364.754 543.818 364.467 544.453 363.925L548.885 358.284C550.496 356.672 549.288 354.389 549.288 354.389L547.676 349.285C546.736 347.405 545.796 348.48 545.796 348.48C543.513 346.465 540.961 349.688 540.961 349.688L538.185 354.076L533.35 355.15C531.824 355.524 530.411 356.261 529.231 357.299L527.082 358.015C522.785 352.285 516.076 349.196 516.076 349.196L509.737 315.268L491.468 326.826ZM542.035 359.09L543.557 353.001L545.124 350.091L545.93 355.463C545.917 356.188 545.682 356.891 545.258 357.478L542.035 359.09Z" fill="#ECB382"/>
<path d="M405.667 315.268L399.328 349.196C399.328 349.196 392.619 352.285 388.321 358.015L386.173 357.299C384.993 356.261 383.58 355.524 382.054 355.15L377.219 354.076L374.443 349.688C374.443 349.688 371.891 346.465 369.608 348.48C369.608 348.48 368.668 347.405 367.728 349.285L366.116 354.389C366.116 354.389 364.907 356.672 366.519 358.284L370.951 363.925C371.586 364.467 372.4 364.754 373.234 364.731H374.712L380.755 366.074H396.604C396.604 366.074 408.154 367.417 411.78 356.404L423.936 326.826L405.667 315.268ZM370.145 357.478C369.721 356.891 369.487 356.188 369.474 355.463L370.279 350.091L371.846 353.001L373.369 359.09L370.145 357.478Z" fill="#ECB382"/>
<path opacity="0.5" d="M517.468 268.821C525.067 294.541 501.978 294.541 501.978 294.541L447.032 276.712C425.241 275.932 434.464 262.684 436.218 255.377C437.972 248.07 440.894 249.532 431.542 237.841C426.293 231.282 426.749 226.197 428.175 222.994C428.805 221.517 429.755 220.2 430.957 219.136L435.341 216.213C438.007 214.414 440.21 212.01 441.771 209.199C443.085 206.417 445.319 204.174 448.096 202.851C450.687 201.664 453.559 201.231 456.384 201.6C470.355 200.887 476.457 216.669 478.269 222.69C479.609 227.145 482.346 231.052 486.077 233.833C489.807 236.614 494.333 238.121 498.985 238.133H499.055C505.148 238.191 511.11 239.909 516.299 243.102C530.912 255.669 517.468 268.821 517.468 268.821Z" fill="#24BF79"/>
<path d="M518.78 320.256C517.958 321.244 517.068 322.175 516.118 323.042C512.002 326.889 503.535 333.008 493.591 330.066C493.244 329.968 492.91 329.829 492.596 329.652C491.387 328.97 488.088 327.024 485.66 324.63C485.279 324.268 484.921 323.883 484.587 323.478H429.924C429.578 323.901 429.204 324.301 428.805 324.674C426.389 327.046 423.112 328.981 421.915 329.652C421.599 329.824 421.265 329.963 420.92 330.066C410.831 333.052 402.251 326.699 398.213 322.874C397.328 322.058 396.498 321.184 395.73 320.256L407.833 304.34C410.801 300.446 412.458 295.711 412.564 290.816L412.62 288.725C412.697 285.464 413.573 282.273 415.17 279.43C418.727 273.054 423.828 271.768 426.837 271.6C429.013 271.497 431.167 271.113 433.246 270.459C434.4 270.11 435.526 269.672 436.613 269.15C438.737 268.135 440.785 266.969 442.742 265.661C443.044 265.459 443.346 265.247 443.66 265.023C443.822 264.912 443.975 264.789 444.118 264.654C448.726 261.063 449.196 254.486 448.928 250.113C448.917 249.9 448.905 249.699 448.883 249.498C448.782 248.231 448.603 246.972 448.346 245.728H466.164C465.907 246.972 465.728 248.231 465.628 249.498C465.605 249.699 465.594 249.9 465.583 250.113C465.494 251.514 465.505 252.919 465.616 254.319C465.941 258.032 467.115 262.104 470.393 264.654C470.535 264.789 470.689 264.912 470.851 265.023C471.164 265.247 471.477 265.459 471.78 265.661C473.732 266.971 475.776 268.137 477.898 269.15C480.965 270.609 484.292 271.442 487.685 271.6C490.683 271.768 495.783 273.054 499.352 279.43C500.944 282.275 501.819 285.465 501.902 288.725L501.946 290.816C502.064 295.709 503.719 300.441 506.678 304.34L518.78 320.256Z" fill="white"/>
<path d="M480.717 350.076C477.82 346.251 476.712 342.795 476.634 339.775C476.399 331.553 483.927 326.688 483.927 326.688L456.746 323.187V323.183L429.566 326.69C429.566 326.69 443.594 335.75 432.78 350.071C421.967 364.392 420.797 370.238 418.752 375.498L456.746 383.097V383.096L492.427 375.959L494.743 375.501C492.696 370.232 491.522 364.394 480.717 350.076Z" fill="white"/>
<path d="M529.185 365.769C529.185 365.769 516.765 361.372 491.045 366.633C465.326 371.894 456.558 371.699 456.558 371.699V371.774C456.512 371.729 456.482 371.699 456.482 371.699C456.482 371.699 447.714 371.894 421.994 366.633C396.275 361.372 383.855 365.769 383.855 365.769L377.375 377.349C379.394 381.043 382.061 384.355 384.911 387.436C388.841 391.601 393.074 395.469 397.575 399.008C434.259 428.384 479.101 428.127 515.464 399.009C519.965 395.469 524.199 391.601 528.129 387.436C530.979 384.355 533.646 381.043 535.665 377.349L529.185 365.769Z" fill="#112441"/>
<path d="M433.707 391.417C436.59 390.36 438.535 389.527 438.535 389.527C438.535 389.527 465.716 374.037 492.604 368.776C492.604 368.776 509.251 364.058 529.184 365.769C530.577 365.889 531.925 366.315 533.133 367.018C534.342 367.72 535.38 368.68 536.173 369.83C537.957 372.421 538.734 376.222 534.301 380.856C525.728 389.819 514.427 400.341 477.017 402.679C477.017 402.679 452.943 403.935 436.58 406.443C437.325 400.333 435.197 394.565 433.707 391.417Z" fill="#163666"/>
<path d="M381.543 397.126L390.018 398.587C390.018 398.587 394.11 400.925 395.572 396.249C396.757 392.455 401.983 391.933 407.502 393.587C405.737 397.183 402.29 402.315 396.448 404.14C396.448 404.14 387.959 407.56 386.91 415.038C382.013 416.258 377.35 417.844 375.697 419.046C375.697 419.046 368.685 422.844 368.099 418.17C367.223 411.191 372.216 395.518 381.543 397.126Z" fill="#ECB382"/>
<path d="M396.448 404.141C402.29 402.315 405.737 397.183 407.502 393.587C408.823 393.985 410.11 394.484 411.354 395.08C416.006 397.305 427.231 393.793 433.707 391.417C435.197 394.565 437.325 400.333 436.58 406.443C433.132 406.923 429.718 407.618 426.357 408.525L414.666 411.642C414.666 411.642 404.632 413.493 399.079 413.201C396.38 413.059 391.541 413.884 386.91 415.038C387.959 407.56 396.448 404.141 396.448 404.141Z" fill="#ECB382"/>
<g style="mix-blend-mode:multiply" opacity="0.5">
<path d="M430.651 319.742L428.805 324.674C426.389 327.046 423.112 328.981 421.915 329.652C421.599 329.824 421.265 329.963 420.92 330.066C410.83 333.052 402.251 326.699 398.213 322.874C406.689 326.259 411.417 325.027 413.856 323.478C414.51 323.062 415.073 322.518 415.51 321.878C415.948 321.238 416.251 320.515 416.4 319.755L420.953 296.622L430.651 319.742Z" fill="#88B8E3"/>
</g>
<g style="mix-blend-mode:multiply" opacity="0.5">
<path d="M516.118 323.042C512.002 326.889 503.535 333.008 493.591 330.066C493.244 329.968 492.91 329.829 492.596 329.652C491.387 328.97 488.088 327.024 485.66 324.63L483.871 319.842L493.557 296.733L498.11 319.854C498.26 320.615 498.564 321.338 499.002 321.978C499.44 322.619 500.005 323.163 500.66 323.578C503.076 325.122 507.752 326.341 516.118 323.042Z" fill="#88B8E3"/>
</g>
<path d="M494.083 310.615V314.415C494.083 318.833 492.328 323.07 489.204 326.195C486.08 329.319 481.843 331.074 477.424 331.074H437.092C434.904 331.074 432.738 330.643 430.716 329.806C428.695 328.969 426.859 327.742 425.312 326.195C423.765 324.648 422.538 322.811 421.7 320.79C420.863 318.769 420.432 316.602 420.432 314.415V291.033H494.083V310.615Z" fill="white"/>
<path opacity="0.3" d="M463.98 331.074H437.092C436.879 331.074 436.673 331.05 436.462 331.042C437.471 332.547 438.809 335.292 439.036 339.502C439.036 339.502 440.714 334.283 453.577 332.791L470.283 331.074H463.98Z" fill="#88B8E3"/>
<path d="M457.316 304.862H457.187C438.671 305.818 435.423 286.346 440.204 277.179C441.115 275.468 441.84 273.664 442.367 271.799C443.148 268.953 443.035 266.927 442.739 265.667C443.042 265.455 443.346 265.242 443.664 265.022C443.825 264.912 443.977 264.79 444.12 264.658C447.36 261.85 448.552 254.899 448.878 249.496C448.969 248.107 448.999 246.817 448.984 245.732C448.969 245.041 448.961 244.419 448.923 243.918L457.187 243.683L465.588 243.918C465.55 244.419 465.535 245.041 465.527 245.732C465.512 246.817 465.535 248.107 465.633 249.496C465.724 250.968 465.876 252.562 466.119 254.163C466.764 258.39 468.039 262.624 470.391 264.658C470.534 264.79 470.686 264.912 470.847 265.022C471.158 265.242 471.477 265.455 471.78 265.667C471.34 267.617 471.287 271.359 474.315 277.179C479.088 286.346 475.84 305.818 457.316 304.862Z" fill="#ECB382"/>
<g style="mix-blend-mode:multiply">
<path d="M465.633 249.496C465.724 250.968 465.876 252.562 466.119 254.163C465.944 254.208 465.785 254.254 465.618 254.315C459.965 256.007 456.831 259.968 455.192 262.988C453.907 265.369 452.073 267.41 449.843 268.942C447.613 270.474 445.05 271.453 442.367 271.799C443.148 268.953 443.035 266.927 442.739 265.667C443.042 265.455 443.346 265.242 443.664 265.022C443.825 264.912 443.977 264.79 444.12 264.658C447.36 261.85 448.552 254.899 448.878 249.496C448.777 248.231 448.597 246.974 448.339 245.732H448.984C448.969 245.041 448.961 244.419 448.923 243.918L457.187 243.683L457.24 245.732H463.068L465.588 243.918C465.55 244.419 465.535 245.041 465.527 245.732H466.172C465.909 246.973 465.729 248.231 465.633 249.496Z" fill="#F7D2AB"/>
</g>
<path d="M516.299 243.102C511.11 239.908 505.148 238.191 499.055 238.133C499.032 238.133 499.01 238.133 498.987 238.133C494.334 238.121 489.809 236.613 486.079 233.832C482.349 231.051 479.612 227.144 478.272 222.689C476.455 216.664 470.349 200.889 456.384 201.6C453.559 201.243 450.69 201.676 448.096 202.851C445.319 204.174 443.084 206.417 441.771 209.199C440.21 212.01 438.007 214.413 435.341 216.213L430.957 219.136C429.755 220.2 428.805 221.517 428.175 222.994C443.361 229.222 447.451 218.387 448.47 213.92C456.336 218.95 465.205 222.58 472.109 229.02C482.628 238.834 479.618 254.288 492.326 263.552C496.111 266.311 500.542 268.645 505.155 269.61C509.319 270.482 513.758 270.331 517.124 268.318C519.018 267.181 520.502 265.471 521.361 263.436C524.447 256.403 523.058 247.697 516.299 243.102Z" fill="#24BF79"/>
<path d="M474.035 229.921C473.464 229.743 472.864 229.674 472.267 229.718C472.252 226.934 471.833 224.167 471.023 221.503C469.151 218.233 466.498 215.479 463.302 213.485C458.041 217.772 452.195 211.342 452.195 211.342C450.789 214.388 448.262 213.627 446.465 212.539C442.665 216.501 440.189 222.706 440.135 229.718C439.539 229.674 438.939 229.743 438.368 229.921C435.355 231.184 436.725 235.905 437.889 238.21C438.675 239.765 440.732 240.037 441.93 240.012C444.605 247.051 449.986 253.916 456.201 253.916C462.417 253.916 467.797 247.051 470.472 240.012C471.67 240.037 473.727 239.765 474.513 238.21C475.678 235.905 477.048 231.184 474.035 229.921Z" fill="#ECB382"/>
<path d="M479.332 391.417C476.45 390.36 474.505 389.527 474.505 389.527C474.505 389.527 447.324 374.037 420.436 368.776C420.436 368.776 403.789 364.058 383.855 365.769C382.463 365.889 381.115 366.315 379.906 367.018C378.698 367.72 377.66 368.68 376.867 369.83C375.083 372.421 374.306 376.222 378.739 380.856C387.312 389.819 398.613 400.341 436.023 402.679C436.023 402.679 460.097 403.935 476.46 406.443C475.715 400.333 477.843 394.565 479.332 391.417Z" fill="#163666"/>
<path d="M386.173 357.299C384.993 356.261 383.58 355.524 382.054 355.15L377.219 354.076L374.443 349.689C374.443 349.689 371.891 346.465 369.608 348.48C369.608 348.48 368.668 347.405 367.728 349.286L366.116 354.389C366.116 354.389 364.907 356.672 366.519 358.284L370.951 363.925C371.586 364.467 372.4 364.755 373.234 364.731H374.712L380.755 366.074C380.755 366.074 386.279 367.839 390.194 363.085L386.173 357.299ZM370.145 357.478C369.721 356.891 369.487 356.188 369.474 355.464L370.279 350.091L371.846 353.001L373.369 359.09L370.145 357.478Z" fill="#ECB382"/>
<path opacity="0.3" d="M491.046 366.633C491.101 366.622 491.155 366.612 491.211 366.6C489.322 362.633 486.319 357.5 480.717 350.076C477.82 346.251 476.712 342.795 476.634 339.775C475.096 342.696 467.199 359.017 476.102 369.43C480.281 368.732 485.225 367.823 491.046 366.633Z" fill="#88B8E3"/>
<path d="M525.21 363.085C529.125 367.839 534.648 366.074 534.648 366.074L540.692 364.731H542.17C543.004 364.755 543.818 364.467 544.453 363.925L548.885 358.284C550.497 356.672 549.288 354.389 549.288 354.389L547.676 349.286C546.736 347.405 545.796 348.48 545.796 348.48C543.513 346.465 540.961 349.689 540.961 349.689L538.185 354.076L533.35 355.15C531.824 355.524 530.411 356.261 529.231 357.299L525.21 363.085ZM542.035 359.09L543.557 353.001L545.124 350.091L545.93 355.464C545.917 356.188 545.682 356.891 545.259 357.478L542.035 359.09Z" fill="#ECB382"/>
<path d="M454.828 230.598V230.659C454.829 231.631 454.562 232.585 454.058 233.416C453.553 234.247 452.83 234.923 451.967 235.371C451.51 235.612 451.018 235.781 450.51 235.872C450.183 235.94 449.85 235.973 449.516 235.971C448.534 235.969 447.572 235.696 446.736 235.181C445.9 234.666 445.223 233.929 444.781 233.053C444.338 232.176 444.147 231.194 444.229 230.216C444.311 229.237 444.663 228.301 445.245 227.51C445.827 226.719 446.616 226.105 447.526 225.736C448.436 225.367 449.43 225.258 450.399 225.419C451.367 225.581 452.272 226.008 453.012 226.653C453.752 227.298 454.299 228.136 454.593 229.073C454.741 229.568 454.82 230.081 454.828 230.598Z" fill="white"/>
<path d="M468.783 230.659C468.783 232.067 468.223 233.418 467.227 234.415C466.231 235.411 464.88 235.97 463.471 235.971C463.135 235.973 462.799 235.94 462.469 235.872C461.961 235.781 461.469 235.612 461.012 235.371C460.151 234.922 459.429 234.245 458.926 233.414C458.423 232.583 458.158 231.63 458.159 230.659V230.598C458.166 230.081 458.246 229.568 458.394 229.073C458.774 227.861 459.576 226.825 460.653 226.152C461.731 225.48 463.014 225.216 464.269 225.408C465.525 225.599 466.67 226.234 467.498 227.197C468.326 228.161 468.782 229.388 468.783 230.659Z" fill="white"/>
<path opacity="0.3" d="M442.368 271.802C443.151 268.95 443.034 266.927 442.742 265.665C440.787 266.974 438.74 268.138 436.616 269.148C435.527 269.667 434.402 270.105 433.249 270.458C433.295 270.481 433.342 270.505 433.401 270.528C436.218 271.761 439.318 272.202 442.368 271.802Z" fill="#88B8E3"/>
<path d="M458.394 229.073C457.161 228.658 455.826 228.658 454.592 229.073C453.38 229.473 452.324 230.244 451.575 231.278C450.825 232.312 450.421 233.556 450.418 234.833C450.418 235.181 450.448 235.529 450.509 235.872C451.018 235.781 451.51 235.612 451.967 235.371C451.945 235.193 451.935 235.013 451.936 234.833C451.936 233.918 452.212 233.024 452.728 232.269C453.244 231.513 453.975 230.931 454.827 230.598C455.517 230.327 456.263 230.228 457 230.311C457.737 230.393 458.442 230.654 459.055 231.072C459.667 231.489 460.169 232.05 460.515 232.706C460.862 233.361 461.043 234.091 461.043 234.833C461.044 235.013 461.034 235.193 461.012 235.371C461.469 235.612 461.96 235.781 462.469 235.872C462.53 235.529 462.561 235.181 462.56 234.833C462.559 233.556 462.156 232.313 461.408 231.279C460.66 230.245 459.606 229.473 458.394 229.073Z" fill="white"/>
<path d="M654.907 393.004C658.33 378.5 649.348 363.967 634.845 360.543C620.341 357.119 605.808 366.101 602.384 380.605C598.96 395.108 607.942 409.642 622.446 413.065C636.949 416.489 651.483 407.507 654.907 393.004Z" fill="white"/>
<path d="M604.026 452.118C616.531 452.118 626.668 441.981 626.668 429.476C626.668 416.972 616.531 406.835 604.026 406.835C591.521 406.835 581.384 416.972 581.384 429.476C581.384 441.981 591.521 452.118 604.026 452.118Z" fill="white"/>
<path d="M302.643 407.042C320.108 407.042 334.266 392.884 334.266 375.419C334.266 357.955 320.108 343.797 302.643 343.797C285.178 343.797 271.02 357.955 271.02 375.419C271.02 392.884 285.178 407.042 302.643 407.042Z" fill="white"/>
<path opacity="0.3" d="M360.185 483.488C375.694 467.979 375.694 442.834 360.185 427.325C344.675 411.816 319.53 411.816 304.021 427.325C288.512 442.834 288.512 467.979 304.021 483.488C319.53 498.997 344.676 498.997 360.185 483.488Z" fill="white"/>
<path opacity="0.3" d="M378.519 509.918C392.783 495.654 392.783 472.527 378.519 458.263C364.255 443.999 341.129 443.999 326.865 458.263C312.601 472.527 312.601 495.654 326.865 509.918C341.129 524.182 364.255 524.182 378.519 509.918Z" fill="white"/>
<path opacity="0.3" d="M295.045 461.351C309.309 447.087 309.309 423.96 295.045 409.696C280.781 395.432 257.655 395.432 243.391 409.696C229.127 423.96 229.127 447.087 243.391 461.351C257.655 475.615 280.781 475.615 295.045 461.351Z" fill="white"/>
<path d="M624.787 425.509C630.207 423.263 632.782 417.049 630.536 411.628C628.291 406.207 622.076 403.633 616.655 405.878C611.235 408.124 608.66 414.338 610.906 419.759C613.151 425.18 619.366 427.754 624.787 425.509Z" fill="white"/>
<path opacity="0.3" d="M561.401 497.159C562.289 491.684 558.571 486.526 553.096 485.637C547.622 484.749 542.463 488.467 541.575 493.942C540.686 499.417 544.404 504.575 549.879 505.463C555.354 506.352 560.512 502.634 561.401 497.159Z" fill="white"/>
<path opacity="0.3" d="M400.581 197.326C401.574 193.416 399.209 189.442 395.299 188.449C391.39 187.457 387.415 189.821 386.423 193.731C385.43 197.641 387.795 201.615 391.705 202.608C395.614 203.601 399.589 201.236 400.581 197.326Z" fill="white"/>
<path opacity="0.3" d="M512.633 217.302C513.329 214.358 511.505 211.407 508.561 210.712C505.616 210.017 502.666 211.841 501.971 214.785C501.275 217.73 503.099 220.68 506.043 221.375C508.988 222.07 511.938 220.247 512.633 217.302Z" fill="white"/>
<path opacity="0.3" d="M382.061 178.748C382.697 179.273 383.164 179.975 383.401 180.765C383.638 181.556 383.636 182.399 383.394 183.188C383.153 183.977 382.682 184.677 382.043 185.198C381.403 185.72 380.624 186.041 379.802 186.119C378.981 186.198 378.154 186.031 377.428 185.64C376.701 185.249 376.106 184.651 375.719 183.922C375.332 183.193 375.17 182.366 375.253 181.545C375.337 180.724 375.661 179.946 376.187 179.31C376.536 178.887 376.964 178.537 377.448 178.28C377.932 178.023 378.462 177.864 379.007 177.812C379.553 177.76 380.103 177.816 380.627 177.976C381.151 178.137 381.638 178.399 382.061 178.748Z" fill="white"/>
<path opacity="0.3" d="M281.015 341.567C281.446 339.745 280.319 337.918 278.497 337.486C276.675 337.054 274.848 338.181 274.417 340.003C273.985 341.825 275.112 343.652 276.934 344.084C278.756 344.516 280.583 343.389 281.015 341.567Z" fill="white"/>
<path opacity="0.3" d="M629.501 320.531C629.931 318.709 628.803 316.883 626.981 316.453C625.158 316.023 623.332 317.151 622.902 318.973C622.472 320.796 623.601 322.622 625.423 323.052C627.245 323.482 629.071 322.354 629.501 320.531Z" fill="white"/>
<path opacity="0.3" d="M553.616 296.99C554.311 294.046 552.487 291.095 549.543 290.4C546.598 289.705 543.648 291.529 542.953 294.473C542.258 297.417 544.081 300.368 547.026 301.063C549.97 301.758 552.921 299.935 553.616 296.99Z" fill="white"/>
<path opacity="0.3" d="M273.548 333.507C274.292 330.574 272.518 327.594 269.585 326.85C266.653 326.106 263.672 327.881 262.928 330.813C262.185 333.746 263.959 336.726 266.892 337.47C269.824 338.214 272.804 336.44 273.548 333.507Z" fill="white"/>
<path opacity="0.3" d="M341.096 293.928C345.13 293.928 348.4 290.658 348.4 286.624C348.4 282.59 345.13 279.32 341.096 279.32C337.062 279.32 333.792 282.59 333.792 286.624C333.792 290.658 337.062 293.928 341.096 293.928Z" fill="white"/>
<path opacity="0.3" d="M634.803 341.741C638.836 341.741 642.107 338.471 642.107 334.437C642.107 330.403 638.836 327.133 634.803 327.133C630.769 327.133 627.499 330.403 627.499 334.437C627.499 338.471 630.769 341.741 634.803 341.741Z" fill="white"/>
<path d="M443.149 456.671C456.141 456.671 466.673 446.139 466.673 433.147C466.673 420.155 456.141 409.622 443.149 409.622C430.156 409.622 419.624 420.155 419.624 433.147C419.624 446.139 430.156 456.671 443.149 456.671Z" fill="white"/>
<path d="M420.882 444.494C430.069 435.307 430.069 420.412 420.882 411.225C411.695 402.038 396.8 402.038 387.613 411.225C378.426 420.412 378.426 435.307 387.613 444.494C396.8 453.681 411.695 453.681 420.882 444.494Z" fill="white"/>
<path d="M471.226 461.983C484.219 461.983 494.751 451.451 494.751 438.459C494.751 425.467 484.219 414.934 471.226 414.934C458.234 414.934 447.702 425.467 447.702 438.459C447.702 451.451 458.234 461.983 471.226 461.983Z" fill="white"/>
<path d="M539.523 416.452C552.516 416.452 563.048 405.92 563.048 392.928C563.048 379.935 552.516 369.403 539.523 369.403C526.531 369.403 515.999 379.935 515.999 392.928C515.999 405.92 526.531 416.452 539.523 416.452Z" fill="white"/>
<path d="M516.592 404.141C510.75 402.315 507.303 397.183 505.538 393.587C504.217 393.985 502.93 394.484 501.686 395.081C497.034 397.305 485.809 393.793 479.333 391.417C477.843 394.566 475.715 400.333 476.46 406.443C479.908 406.923 483.322 407.618 486.683 408.525L498.373 411.642C498.373 411.642 508.408 413.493 513.961 413.201C516.66 413.059 521.499 413.885 526.13 415.038C525.081 407.56 516.592 404.141 516.592 404.141Z" fill="#ECB382"/>
<path d="M531.497 397.126L523.021 398.588C523.021 398.588 518.93 400.926 517.468 396.25C516.283 392.456 511.057 391.933 505.538 393.587C507.303 397.183 510.75 402.315 516.592 404.141C516.592 404.141 525.081 407.561 526.13 415.038C531.027 416.258 535.69 417.845 537.342 419.046C537.342 419.046 544.355 422.844 544.941 418.171C545.817 411.191 540.824 395.518 531.497 397.126Z" fill="#ECB382"/>
<path d="M510.661 451.056C523.485 448.975 532.194 436.891 530.113 424.067C528.032 411.242 515.949 402.533 503.124 404.614C490.3 406.695 481.591 418.779 483.672 431.603C485.753 444.428 497.836 453.137 510.661 451.056Z" fill="white"/>
<defs>
<filter id="filter0_f" x="-25" y="-83" width="950" height="949" filterUnits="userSpaceOnUse" color-interpolation-filters="sRGB">
<feFlood flood-opacity="0" result="BackgroundImageFix"/>
<feBlend mode="normal" in="SourceGraphic" in2="BackgroundImageFix" result="shape"/>
<feGaussianBlur stdDeviation="75" result="effect1_foregroundBlur"/>
</filter>
<radialGradient id="paint0_angular" cx="0" cy="0" r="1" gradientUnits="userSpaceOnUse" gradientTransform="translate(450 391.5) scale(325 324.5)">
<stop stop-color="#1B3660"/>
</radialGradient>
</defs>
</svg>
