<svg width="849" height="851" viewBox="0 0 849 851" fill="none" xmlns="http://www.w3.org/2000/svg">
<g opacity="0.65" filter="url(#filter0_f)">
<path d="M424.639 700.695C575.868 700.695 698.463 577.578 698.463 425.706C698.463 273.833 575.868 150.716 424.639 150.716C273.41 150.716 150.814 273.833 150.814 425.706C150.814 577.578 273.41 700.695 424.639 700.695Z" fill="url(#paint0_angular)"/>
</g>
<path opacity="0.1" d="M681.39 640.26H644.757V800.116H681.39V640.26Z" fill="#24BF79"/>
<path opacity="0.4" d="M557.61 527.335H520.976V800.111H557.61V527.335Z" fill="#24BF79"/>
<path opacity="0.2" d="M620.332 590.301H583.699V800.112H620.332V590.301Z" fill="#24BF79"/>
<path opacity="0.8" d="M267.872 409.358H231.239V800.109H267.872V409.358Z" fill="#24BF79"/>
<path opacity="0.6" d="M204.595 487.054H167.962V800.105H204.595V487.054Z" fill="#24BF79"/>
<path d="M594.499 768.674L576.118 629.816L542.082 586.342C510.698 532.781 471.055 513.067 471.055 513.067L506.799 800.102H592.221L588.97 776.968L594.499 768.674Z" fill="#163666"/>
<path d="M147.669 219.126C148.5 219.125 149.321 219.317 150.065 219.686C150.81 220.056 151.459 220.593 151.961 221.255C153.608 220.416 155.432 219.982 157.28 219.989C159.128 219.996 160.949 220.444 162.589 221.295C163.154 219.785 164.103 218.449 165.344 217.42C166.584 216.391 168.072 215.704 169.66 215.428C171.669 212.175 174.694 209.676 178.267 208.317C177.606 205.508 177.738 202.57 178.648 199.831C179.559 197.092 181.212 194.66 183.423 192.806C185.635 190.951 188.318 189.747 191.173 189.328C194.029 188.908 196.944 189.29 199.596 190.43C200.681 189.577 201.968 189.021 203.333 188.815C203.684 186.544 204.542 184.381 205.842 182.486C207.142 180.591 208.852 179.012 210.844 177.867C212.837 176.721 215.061 176.038 217.353 175.869C219.645 175.699 221.946 176.046 224.085 176.886C225.858 174.278 228.415 172.302 231.386 171.244C234.356 170.186 237.586 170.101 240.609 171C243.631 171.9 246.289 173.738 248.197 176.248C250.106 178.758 251.166 181.81 251.224 184.963C255.984 186.117 260.244 188.779 263.367 192.552C266.49 196.325 268.309 201.007 268.553 205.898C270.89 204.682 273.505 204.098 276.138 204.204C278.771 204.311 281.33 205.103 283.562 206.503L283.562 206.496C283.562 202.755 284.948 199.147 287.453 196.368C289.957 193.59 293.402 191.837 297.123 191.45C300.843 191.062 304.576 192.066 307.599 194.269C310.622 196.472 312.722 199.717 313.494 203.377C318.526 201.971 323.894 202.403 328.636 204.597C333.378 206.79 337.183 210.602 339.37 215.347C341.777 213.503 344.814 212.682 347.822 213.06C350.831 213.437 353.57 214.984 355.447 217.365C356.708 216.621 358.144 216.223 359.608 216.212C361.073 216.201 362.514 216.578 363.786 217.304C365.058 218.03 366.115 219.08 366.85 220.347C367.586 221.614 367.973 223.052 367.972 224.517H142.278C142.278 223.087 142.846 221.716 143.857 220.705C144.868 219.694 146.239 219.126 147.669 219.126Z" fill="#112441"/>
<path d="M362.479 224.517H296.742C295.338 223.288 294.246 221.745 293.555 220.012C292.021 220.582 290.385 220.826 288.751 220.728C287.118 220.629 285.522 220.191 284.068 219.441C283.16 220.07 282.122 220.486 281.031 220.658C279.941 220.831 278.825 220.756 277.768 220.438C276.71 220.12 275.738 219.569 274.922 218.823C274.107 218.078 273.471 217.159 273.06 216.134C272.304 217.237 271.261 218.113 270.044 218.668C268.827 219.222 267.482 219.434 266.154 219.281C264.825 219.128 263.564 218.616 262.505 217.799C261.446 216.982 260.63 215.892 260.145 214.646C258.194 214.229 256.381 213.323 254.877 212.014C253.372 210.704 252.225 209.034 251.542 207.16C250.175 208.364 248.41 209.018 246.588 208.993C244.766 208.969 243.019 208.268 241.685 207.027C239.657 208.344 237.271 209.003 234.855 208.912C232.438 208.821 230.109 207.985 228.185 206.519C226.262 205.053 224.839 203.029 224.11 200.723C223.382 198.417 223.384 195.942 224.116 193.637C222.426 191.172 221.519 188.255 221.514 185.266C221.509 182.278 222.405 179.357 224.086 176.886H224.086C225.859 174.278 228.416 172.302 231.387 171.244C234.357 170.186 237.587 170.101 240.61 171C243.632 171.9 246.29 173.738 248.198 176.248C250.107 178.758 251.167 181.81 251.225 184.963C255.985 186.117 260.245 188.779 263.368 192.552C266.491 196.325 268.31 201.007 268.554 205.898C270.891 204.682 273.506 204.098 276.139 204.204C278.772 204.311 281.331 205.103 283.563 206.503L283.563 206.496C283.563 202.755 284.95 199.147 287.454 196.368C289.958 193.59 293.403 191.837 297.124 191.45C300.844 191.062 304.577 192.066 307.6 194.269C310.623 196.472 312.724 199.717 313.495 203.377C318.527 201.971 323.895 202.403 328.637 204.597C333.379 206.79 337.184 210.602 339.371 215.347C341.778 213.503 344.815 212.682 347.823 213.06C350.832 213.437 353.571 214.984 355.448 217.365C356.709 216.621 358.145 216.223 359.609 216.212C361.074 216.201 362.515 216.578 363.787 217.304C365.059 218.03 366.116 219.08 366.852 220.347C367.587 221.614 367.974 223.052 367.973 224.517H362.479Z" fill="#163666"/>
<g opacity="0.4">
<path d="M543.281 501.703C543.893 501.703 544.496 501.842 545.044 502.111C545.592 502.379 546.069 502.769 546.439 503.25C547.65 502.641 548.992 502.326 550.352 502.331C551.712 502.336 553.051 502.661 554.258 503.279C554.673 502.182 555.371 501.212 556.284 500.464C557.197 499.716 558.291 499.218 559.46 499.017C560.937 496.654 563.163 494.839 565.792 493.851C565.305 491.81 565.402 489.676 566.072 487.687C566.742 485.697 567.958 483.93 569.585 482.583C571.212 481.236 573.186 480.361 575.287 480.057C577.387 479.752 579.533 480.029 581.483 480.858C582.281 480.238 583.229 479.834 584.233 479.684C584.491 478.034 585.122 476.463 586.079 475.086C587.035 473.709 588.293 472.563 589.759 471.731C591.224 470.898 592.861 470.402 594.547 470.279C596.233 470.156 597.926 470.408 599.5 471.018C600.804 469.124 602.686 467.688 604.871 466.92C607.056 466.151 609.433 466.089 611.656 466.742C613.88 467.396 615.835 468.731 617.239 470.555C618.643 472.378 619.423 474.596 619.466 476.886C622.968 477.724 626.102 479.658 628.399 482.399C630.697 485.139 632.035 488.541 632.215 492.094C633.934 491.211 635.858 490.787 637.795 490.864C639.732 490.941 641.615 491.516 643.257 492.534L643.257 492.528C643.257 489.811 644.277 487.19 646.119 485.171C647.962 483.153 650.496 481.88 653.233 481.598C655.971 481.316 658.716 482.046 660.941 483.646C663.165 485.246 664.71 487.603 665.278 490.263C668.98 489.241 672.929 489.555 676.418 491.149C679.906 492.742 682.706 495.511 684.314 498.958C686.086 497.619 688.32 497.022 690.533 497.297C692.746 497.571 694.761 498.695 696.142 500.425C697.07 499.883 698.126 499.594 699.204 499.586C700.281 499.579 701.342 499.852 702.278 500.38C703.213 500.908 703.991 501.67 704.532 502.59C705.073 503.511 705.358 504.556 705.357 505.62H539.315C539.315 504.581 539.733 503.585 540.476 502.85C541.22 502.116 542.229 501.703 543.281 501.703Z" fill="#112441"/>
<path d="M701.292 505.62H652.653C651.615 504.727 650.807 503.606 650.296 502.347C649.161 502.761 647.95 502.938 646.741 502.867C645.532 502.796 644.352 502.477 643.276 501.932C642.604 502.389 641.836 502.691 641.029 502.817C640.222 502.942 639.397 502.887 638.614 502.657C637.832 502.426 637.112 502.025 636.509 501.484C635.906 500.943 635.435 500.275 635.131 499.53C634.572 500.332 633.8 500.968 632.9 501.371C632 501.774 631.004 501.928 630.021 501.816C629.038 501.705 628.105 501.333 627.322 500.739C626.538 500.146 625.934 499.354 625.575 498.449C624.132 498.146 622.791 497.488 621.678 496.537C620.564 495.586 619.715 494.372 619.21 493.011C618.199 493.886 616.893 494.36 615.545 494.343C614.197 494.325 612.904 493.816 611.917 492.914C610.416 493.871 608.651 494.349 606.863 494.283C605.075 494.217 603.352 493.61 601.929 492.545C600.505 491.48 599.452 490.01 598.913 488.335C598.375 486.659 598.376 484.862 598.918 483.187C597.668 481.397 596.997 479.277 596.993 477.106C596.989 474.935 597.652 472.813 598.896 471.018H598.896C600.208 469.124 602.099 467.688 604.297 466.92C606.495 466.151 608.885 466.089 611.121 466.742C613.358 467.396 615.324 468.731 616.736 470.555C618.148 472.378 618.933 474.596 618.976 476.886C622.498 477.724 625.65 479.658 627.96 482.399C630.271 485.139 631.617 488.541 631.797 492.094C633.527 491.211 635.461 490.787 637.409 490.864C639.357 490.941 641.251 491.516 642.903 492.534L642.903 492.528C642.903 489.811 643.928 487.19 645.781 485.171C647.634 483.153 650.183 481.88 652.936 481.598C655.689 481.316 658.45 482.046 660.687 483.646C662.924 485.246 664.478 487.603 665.049 490.263C668.772 489.241 672.744 489.555 676.252 491.149C679.761 492.742 682.577 495.511 684.194 498.958C685.976 497.619 688.222 497.022 690.448 497.297C692.674 497.571 694.701 498.695 696.09 500.425C697.023 499.883 698.085 499.594 699.169 499.586C700.252 499.579 701.319 499.852 702.26 500.38C703.201 500.908 703.983 501.67 704.527 502.59C705.071 503.511 705.358 504.556 705.357 505.62H701.292Z" fill="#163666"/>
</g>
<path d="M460.041 369.744H400.042V495.179H460.041V369.744Z" fill="#1E4785"/>
<path d="M470.067 450.563H395.339V461.813H470.067V450.563Z" fill="#1E4785"/>
<path d="M465.232 427.641H404.211V445.056H465.232V427.641Z" fill="#1E4785"/>
<path d="M390.04 497.818L479.469 514.966L470.039 466.983H395.665L390.04 474.477V497.818Z" fill="#1E4785"/>
<path d="M439.329 390.09H382.679L415.585 485.842L431.941 444.413L439.329 390.09Z" fill="#1E4785"/>
<path d="M360.261 379.128C360.133 378.394 360.066 377.65 360.063 376.905C356.653 374.191 353.845 370.796 351.817 366.938C349.79 363.079 348.588 358.841 348.288 354.492C347.988 350.144 348.596 345.78 350.074 341.68C351.551 337.579 353.866 333.831 356.872 330.674C355.201 327.558 354.261 324.102 354.125 320.569C353.988 317.036 354.657 313.518 356.082 310.282C357.507 307.046 359.65 304.177 362.348 301.892C365.047 299.608 368.23 297.967 371.657 297.096C373.067 288.791 377.373 281.254 383.811 275.821C390.249 270.389 398.403 267.412 406.826 267.418C408.799 267.41 410.769 267.562 412.717 267.873C416.312 263.935 420.745 260.853 425.688 258.854C430.632 256.856 435.96 255.991 441.282 256.323C446.604 256.656 451.784 258.177 456.44 260.776C461.096 263.374 465.111 266.983 468.188 271.338C471.222 270.573 474.382 270.45 477.466 270.976C480.549 271.502 483.489 272.666 486.098 274.394C488.706 276.121 490.925 278.374 492.612 281.008C494.3 283.642 495.419 286.6 495.899 289.691C503.18 291.898 509.425 296.648 513.497 303.075C517.569 309.502 519.195 317.178 518.08 324.704C516.965 332.231 513.183 339.105 507.423 344.076C501.662 349.046 494.308 351.781 486.699 351.782H481.173C480.456 357.254 477.776 362.279 473.63 365.921C469.484 369.564 464.156 371.575 458.638 371.582H418.519L407.781 379.128H360.261Z" fill="#24BF79"/>
<path d="M517.623 467.611L473.965 449.233C460.409 439.62 458.672 430.052 458.672 418.574V383.117C458.672 375.127 460.368 367.228 463.646 359.942L468.748 348.605C470.581 344.531 471.529 340.115 471.529 335.648V283.854H510.1L517.242 385.281L517.623 467.611Z" fill="#D7E2EE"/>
<path d="M372.088 393.665C372.088 396.474 373.204 399.168 375.19 401.154C377.177 403.141 379.871 404.257 382.68 404.257H404.206C407.011 404.25 409.699 403.131 411.679 401.145C413.66 399.16 414.773 396.47 414.773 393.665C414.773 390.86 413.66 388.17 411.679 386.185C409.699 384.199 407.011 383.08 404.206 383.073H382.68C379.871 383.073 377.177 384.189 375.19 386.175C373.204 388.162 372.088 390.856 372.088 393.665Z" fill="white"/>
<path d="M387.138 418.824C387.138 421.633 388.254 424.327 390.24 426.314C392.227 428.3 394.921 429.416 397.73 429.416H419.256C422.061 429.409 424.749 428.29 426.729 426.305C428.71 424.319 429.823 421.629 429.823 418.824C429.823 416.019 428.71 413.329 426.729 411.344C424.749 409.358 422.061 408.239 419.256 408.232H397.73C394.921 408.232 392.227 409.348 390.24 411.335C388.254 413.321 387.138 416.015 387.138 418.824Z" fill="white"/>
<path d="M389.233 444.41C389.233 445.801 389.507 447.178 390.039 448.463C390.572 449.748 391.352 450.916 392.335 451.9C393.319 452.883 394.487 453.663 395.772 454.196C397.057 454.728 398.434 455.002 399.825 455.002H421.352C422.742 455.002 424.12 454.728 425.405 454.196C426.69 453.663 427.857 452.883 428.841 451.9C429.825 450.916 430.605 449.748 431.137 448.463C431.669 447.178 431.943 445.801 431.943 444.41C431.943 443.019 431.669 441.642 431.137 440.357C430.605 439.072 429.825 437.904 428.841 436.921C427.857 435.937 426.69 435.157 425.405 434.625C424.12 434.092 422.742 433.818 421.352 433.818H399.825C398.434 433.818 397.057 434.092 395.772 434.625C394.487 435.157 393.319 435.937 392.335 436.921C391.352 437.904 390.572 439.072 390.039 440.357C389.507 441.642 389.233 443.019 389.233 444.41Z" fill="white"/>
<path d="M558.043 775.653L555.645 800.113H272.982L267.506 636.754C266.711 613.032 272.35 589.537 283.827 568.761C295.303 547.985 312.189 530.702 332.692 518.745L391.546 484.426L435.447 517.37L478.294 521.865C478.294 521.865 572.81 628.455 558.043 775.653Z" fill="url(#paint1_linear)"/>
<g style="mix-blend-mode:multiply" opacity="0.5">
<path d="M425.856 800.107H341.241L435.098 605.049C435.098 605.049 450.864 702.365 425.856 800.107Z" fill="#DEF2F9"/>
</g>
<path d="M436.523 697.592C432.694 728.977 423.883 763.277 407.957 800.113H259.926L231.951 675.691C226.025 649.346 228.357 621.815 238.629 596.842L239.19 595.473C239.431 594.887 239.677 594.301 239.93 593.715C239.93 593.709 239.936 593.703 239.936 593.697C240.263 592.939 240.596 592.186 240.935 591.434C241.138 590.99 241.342 590.546 241.545 590.102C253.31 564.733 272.866 543.782 297.365 530.299L380.327 484.598C380.327 484.598 452.703 565.143 436.523 697.592Z" fill="#163666"/>
<path d="M427.006 685.192C424.348 718.71 416.302 755.884 400.079 796.159C399.555 797.473 399.019 798.788 398.47 800.106H371.994C374.053 791.967 375.989 783.606 377.734 775.097C379.682 765.632 381.397 755.976 382.796 746.228C383.425 741.819 383.99 737.394 384.492 732.953C388.981 692.844 387.55 651.902 374.374 616.67C370.42 605.952 365.226 595.734 358.897 586.223L388.413 566.233L336.145 567.294L334.776 567.318L335.282 566.381L376.23 490.997C376.23 490.997 436.606 564.353 427.006 685.192Z" fill="#204B84"/>
<g style="mix-blend-mode:multiply" opacity="0.5">
<path d="M391.395 741.081L382.794 746.236L361.898 758.753C361.454 758.821 361.01 758.876 360.566 758.932C327.843 762.662 300.43 722.732 280.97 737.135C263.175 750.305 263.225 777.004 263.151 800.113H259.926L231.951 675.692C226.025 649.347 228.357 621.816 238.629 596.842L239.19 595.474C239.431 594.888 239.677 594.302 239.93 593.716C239.93 593.71 239.936 593.704 239.936 593.698C240.263 592.939 240.596 592.187 240.935 591.435C241.138 590.991 241.342 590.547 241.545 590.103C244.016 584.819 246.832 579.702 249.974 574.787L384.489 732.961L391.395 741.081Z" fill="#223166"/>
</g>
<path d="M515.269 800.113H404.271L400.078 796.167L377.733 775.104L360.567 758.931L257.153 661.479C248.139 652.988 241.732 642.105 238.682 630.103C235.632 618.102 236.066 605.48 239.931 593.716C239.931 593.71 239.938 593.704 239.938 593.698C242.274 586.585 245.82 579.929 250.42 574.022C251.721 572.345 253.106 570.732 254.575 569.182L256.777 566.864C261.823 561.545 267.893 557.301 274.621 554.387C281.348 551.472 288.596 549.947 295.927 549.902C303.259 549.858 310.525 551.296 317.287 554.129C324.049 556.962 330.17 561.132 335.281 566.389C335.583 566.691 335.867 566.993 336.144 567.301C337.297 568.535 338.388 569.83 339.424 571.174L374.373 616.678L427.005 685.2L436.525 697.593L475.419 748.233L508.043 790.704V790.71L508.049 790.716L508.271 791L515.269 800.113Z" fill="#163666"/>
<g style="mix-blend-mode:multiply" opacity="0.25">
<path d="M499.361 441.812L492.512 407.311C492.512 407.311 492.507 407.287 492.498 407.24C492.237 405.921 491.526 404.734 490.487 403.881C489.447 403.028 488.143 402.563 486.799 402.565H458.672V397.307H483.45C484.076 397.307 484.69 397.141 485.23 396.826C485.771 396.512 486.218 396.059 486.526 395.515C486.835 394.971 486.994 394.355 486.986 393.73C486.979 393.104 486.806 392.492 486.485 391.955C485.089 389.599 483.44 387.402 481.567 385.404C475.229 378.717 476.697 371.268 480.202 366.87C480.425 366.591 480.564 366.253 480.604 365.898C480.644 365.542 480.583 365.183 480.427 364.86C480.272 364.538 480.029 364.266 479.726 364.076C479.423 363.886 479.072 363.785 478.714 363.785H462.104C462.576 362.489 463.079 361.204 463.646 359.942L464.283 358.527H482.38C484.928 358.528 487.384 357.572 489.26 355.847C491.137 354.123 492.297 351.756 492.51 349.217L492.512 349.2V310.157C492.512 310.157 492.512 302.546 486.339 299.687C484.293 298.553 482.182 297.544 480.016 296.663C477.505 295.625 475.358 293.866 473.848 291.608C472.337 289.35 471.53 286.695 471.53 283.978V283.854H510.099L515.457 359.924L517.243 385.281L517.624 467.611C507.609 462.127 501.585 453.012 499.361 441.812Z" fill="#24BF79"/>
</g>
<path d="M505.33 310.165V349.208C504.857 354.926 502.964 361.118 497.246 363.504C491.527 365.89 485.808 376.36 494.386 385.411C502.964 394.462 505.33 407.319 505.33 407.319L517.625 467.619L532.823 473.507C535.981 474.73 539.479 474.744 542.646 473.545L546.465 472.1C549.072 471.113 551.318 469.356 552.903 467.061C554.488 464.767 555.336 462.045 555.336 459.256V452.553L561.055 444.449C566.3 440.17 563.283 432.48 563.283 432.48L563.48 432.302L566.773 429.206C567.454 428.132 567.765 426.865 567.661 425.598C567.424 422.463 564.86 420.175 564.86 420.175C562.948 404.933 575.824 402.074 575.824 402.074C583.908 398.741 579.156 393.496 579.156 393.496L549.618 358.259C555.336 347.788 550.091 334.458 550.091 334.458L548.671 323.022C540.824 272.305 480.11 269.466 480.11 269.466V293.03C490.107 294.449 499.158 299.694 499.158 299.694C505.33 302.554 505.33 310.165 505.33 310.165Z" fill="white"/>
<g style="mix-blend-mode:multiply">
<path d="M546.878 432.295H563.481L566.774 429.199C567.454 428.125 567.766 426.858 567.661 425.591L546.878 432.295Z" fill="#D0DDEB"/>
</g>
<path opacity="0.5" d="M561.054 444.452L555.336 452.557V460.426L550.727 456.585C549.525 455.583 548.558 454.329 547.894 452.912C547.23 451.495 546.886 449.949 546.886 448.384L562.104 443.409C561.786 443.788 561.435 444.137 561.054 444.452Z" fill="#D0DDEB"/>
<g style="mix-blend-mode:multiply">
<path d="M579.782 394.406C580.74 396.049 581.851 399.59 575.816 402.076C572.831 402.909 570.16 404.607 568.139 406.957H557.601C561.54 400.006 572.539 396.214 579.782 394.406Z" fill="#D0DDEB"/>
</g>
<path opacity="0.5" d="M499.158 299.694C499.158 299.694 490.107 294.449 480.11 293.03V269.466C483.481 269.7 486.835 270.14 490.152 270.786C490.371 277.425 492.244 287.181 500.816 291.242C514.387 297.67 515.101 305.527 515.101 320.884V345.526C515.101 345.526 516.53 357.312 503.673 367.311C503.673 367.311 492.602 374.811 502.959 383.382C504.368 384.567 505.632 385.914 506.723 387.397L506.75 387.127L520.06 398.465H530.905L519.074 402.902L511.441 396.444C514.252 404.181 515.086 412.529 516.173 417.31L524.387 461.952C524.387 461.952 525.255 467.244 533.135 473.59L517.626 467.619L505.33 407.319C505.33 407.319 502.964 394.462 494.386 385.411C485.808 376.361 491.527 365.89 497.246 363.504C502.964 361.118 504.857 354.926 505.33 349.208V310.165C505.33 310.165 505.33 302.554 499.158 299.694Z" fill="#D0DDEB"/>
<path d="M542.978 371.774C542.773 369.748 541.205 367.273 540.599 365.757C540.142 364.612 540.013 363.362 540.229 362.148C540.444 360.934 540.995 359.804 541.818 358.886C543.028 357.408 543.858 355.657 544.239 353.785C544.239 353.785 539.239 358.428 532.453 358.071C532.453 358.071 523.525 358.428 520.311 363.785C520.311 363.785 535.844 374.03 536.034 374.156C537.956 375.424 541.557 375.8 542.737 373.428C542.972 372.911 543.056 372.337 542.978 371.774Z" fill="#24BF79"/>
<g opacity="0.5">
<path d="M450.263 292.978C451.686 289.515 450.033 285.553 446.569 284.13C443.106 282.706 439.144 284.36 437.72 287.824C436.297 291.287 437.951 295.249 441.414 296.672C444.878 298.096 448.84 296.442 450.263 292.978Z" fill="white"/>
<path d="M397.366 308.333C399.304 305.835 398.85 302.239 396.352 300.302C393.854 298.364 390.258 298.818 388.321 301.316C386.383 303.814 386.837 307.41 389.335 309.347C391.833 311.285 395.429 310.831 397.366 308.333Z" fill="white"/>
<path d="M426.703 325.237C430.626 325.237 433.807 322.056 433.807 318.132C433.807 314.208 430.626 311.027 426.703 311.027C422.779 311.027 419.598 314.208 419.598 318.132C419.598 322.056 422.779 325.237 426.703 325.237Z" fill="white"/>
<path d="M390.539 305.794H395.147V276.498C395.147 275.886 394.905 275.3 394.472 274.868C394.04 274.436 393.454 274.193 392.843 274.193C392.232 274.193 391.646 274.436 391.214 274.868C390.782 275.3 390.539 275.886 390.539 276.498V305.794Z" fill="white"/>
<path d="M424.023 315.751H428.631V296.11C428.631 295.499 428.389 294.913 427.956 294.481C427.524 294.048 426.938 293.806 426.327 293.806C425.716 293.806 425.13 294.048 424.698 294.481C424.266 294.913 424.023 295.499 424.023 296.11V315.751Z" fill="white"/>
<path d="M441.689 286.921H446.297V264.208C446.297 263.597 446.055 263.011 445.622 262.579C445.19 262.147 444.604 261.904 443.993 261.904C443.382 261.904 442.796 262.147 442.364 262.579C441.932 263.011 441.689 263.597 441.689 264.208V286.921Z" fill="white"/>
<path d="M408.222 347.675C408.222 348.286 408.465 348.872 408.897 349.304C409.329 349.736 409.915 349.979 410.526 349.979C411.137 349.979 411.723 349.736 412.155 349.304C412.587 348.872 412.83 348.286 412.83 347.675V272.981C412.83 272.37 412.587 271.784 412.155 271.352C411.723 270.92 411.137 270.677 410.526 270.677C409.915 270.677 409.329 270.92 408.897 271.352C408.465 271.784 408.222 272.37 408.222 272.981V347.675Z" fill="white"/>
<path d="M392.385 307.221V302.612H369.818C369.207 302.612 368.62 302.855 368.188 303.287C367.756 303.719 367.513 304.305 367.513 304.917C367.513 305.528 367.756 306.114 368.188 306.546C368.62 306.978 369.207 307.221 369.818 307.221H392.385Z" fill="white"/>
<path d="M457.671 320.432C458.283 320.432 458.869 320.189 459.301 319.757C459.733 319.325 459.976 318.739 459.976 318.127C459.976 317.516 459.733 316.93 459.301 316.498C458.869 316.066 458.283 315.823 457.671 315.823H428.815V318.127C428.815 318.739 429.058 319.325 429.49 319.757C429.922 320.189 430.508 320.432 431.119 320.432H457.671Z" fill="white"/>
<path d="M409.794 317.939H388.58V322.548H409.794V317.939Z" fill="white"/>
<path d="M390.336 339.561C393.497 339.561 396.06 336.998 396.06 333.837C396.06 330.676 393.497 328.113 390.336 328.113C387.175 328.113 384.612 330.676 384.612 333.837C384.612 336.998 387.175 339.561 390.336 339.561Z" fill="white"/>
<path d="M392.638 317.94H388.03V330.302H392.638V317.94Z" fill="white"/>
</g>
<path d="M398.627 446.387H389.001C384.612 446.388 380.318 445.108 376.645 442.705C359.37 431.431 358.161 416.354 360.189 405.691C360.938 401.758 363.035 398.209 366.118 395.654C369.201 393.099 373.078 391.699 377.082 391.693L377.095 395.637H377.082C373.996 395.642 371.008 396.722 368.632 398.691C366.256 400.661 364.64 403.396 364.063 406.428C362.26 415.907 363.354 429.322 378.801 439.402C381.832 441.387 385.377 442.444 389.001 442.444H398.627V446.387Z" fill="white"/>
<path d="M389.353 421.624C389.007 421.612 380.808 421.244 375.095 414.608C370.772 409.588 369.101 402.464 370.129 393.435L374.047 393.88C373.152 401.749 374.499 407.844 378.051 411.997C382.612 417.331 389.432 417.681 389.5 417.684L389.353 421.624Z" fill="white"/>
<path d="M430.914 506.241H480.333L488.94 476.848H430.914V506.241Z" fill="#1E4785"/>
<path d="M511.715 740.329C511.709 741.093 511.697 741.858 511.685 742.616C511.666 743.917 511.641 745.22 511.611 746.525C511.567 748.277 511.524 750.034 511.456 751.785C511.456 751.84 511.456 751.902 511.45 751.964C511.42 752.864 511.389 753.764 511.345 754.664C511.321 755.312 511.29 755.959 511.259 756.613C511.235 757.143 511.21 757.661 511.185 758.185C511.186 758.21 511.184 758.235 511.179 758.259C511.13 759.295 511.074 760.331 511.012 761.367C510.982 761.891 510.957 762.421 510.92 762.951C510.889 763.475 510.858 764.006 510.821 764.53C510.791 764.992 510.76 765.449 510.729 765.911C510.673 766.805 510.606 767.699 510.538 768.587C510.488 769.296 510.433 769.999 510.377 770.702C510.322 771.43 510.26 772.151 510.199 772.872C510.149 773.409 510.106 773.945 510.057 774.482C509.927 775.998 509.785 777.515 509.631 779.032C509.514 780.234 509.385 781.437 509.255 782.639C509.169 783.428 509.083 784.218 508.99 785.007C508.885 785.975 508.768 786.943 508.651 787.911C508.54 788.879 508.417 789.847 508.293 790.815C508.287 790.871 508.281 790.926 508.269 790.988C508.256 791.093 508.244 791.197 508.232 791.308V791.314C508.152 791.931 508.065 792.554 507.985 793.17C507.831 794.323 507.671 795.483 507.504 796.636C507.338 797.789 507.171 798.942 506.992 800.101H461.938C467.761 783.181 472.268 765.836 475.417 748.221C480.078 722.682 482.249 696.637 482.803 670.895C483.624 632.518 478.37 590.091 471.816 552.232L458.787 538.451L474.652 521.772L485.985 532.248L481.126 551.677C483.266 557.942 485.177 564.286 487.021 570.643C487.021 570.65 487.027 570.656 487.027 570.662C487.132 571.026 487.237 571.383 487.342 571.741C499.649 614.39 507.751 658.483 510.643 702.797C511.456 715.289 511.839 727.812 511.715 740.329Z" fill="#24BF79"/>
<path d="M454.494 733.396V709.35L391.394 601.064L328.952 564.256L454.494 733.396Z" fill="#163666"/>
<path d="M298.336 664.167C325.134 664.167 346.858 642.443 346.858 615.645C346.858 588.847 325.134 567.123 298.336 567.123C271.538 567.123 249.814 588.847 249.814 615.645C249.814 642.443 271.538 664.167 298.336 664.167Z" fill="#39547D"/>
<g style="mix-blend-mode:multiply" opacity="0.5">
<path d="M298.339 579.925C306.002 579.925 313.462 582.388 319.617 586.952C325.773 591.515 330.298 597.937 332.525 605.269C334.752 612.602 334.562 620.455 331.984 627.671C329.406 634.887 324.576 641.083 318.207 645.344L352.874 700.812V751.678L347.101 746.238V702.468L313.145 648.14C308.291 650.353 303.004 651.451 297.67 651.352C292.336 651.254 287.092 649.963 282.323 647.572C277.554 645.182 273.381 641.753 270.11 637.539C266.84 633.324 264.555 628.431 263.423 623.218C262.292 618.005 262.342 612.604 263.571 607.413C264.8 602.222 267.177 597.372 270.526 593.22C273.875 589.067 278.111 585.718 282.924 583.417C287.737 581.116 293.004 579.923 298.339 579.925Z" fill="#163666"/>
</g>
<path d="M380.327 484.598L304.445 513.337C295.652 516.667 288.052 522.545 282.617 530.218L244.309 584.299L332.69 518.747L380.327 484.598Z" fill="#163666"/>
<path d="M298.334 630.539C306.556 630.539 313.221 623.874 313.221 615.652C313.221 607.431 306.556 600.766 298.334 600.766C290.112 600.766 283.447 607.431 283.447 615.652C283.447 623.874 290.112 630.539 298.334 630.539Z" fill="#24BF79"/>
<path d="M430.119 556.147C396.043 508.61 393.451 506.626 380.324 484.59L389.998 474.476C416.564 494.355 432.148 505.54 478.615 514.463L478.614 514.464L478.615 514.462L509.057 538.266C491.63 539.81 485.986 532.253 485.986 532.253L474.652 521.776C468.7 531.877 455.213 549.803 430.119 556.147Z" fill="#CDE0EB"/>
<path style="mix-blend-mode:multiply" opacity="0.5" d="M291.725 520.789C291.725 519.597 304.431 518.631 320.103 518.631C335.776 518.631 348.481 519.597 348.481 520.789C348.481 521.981 335.776 522.947 320.103 522.947C304.431 522.947 291.725 521.981 291.725 520.789Z" fill="url(#paint2_linear)"/>
<path d="M523.622 789.717C523.437 793.176 523.213 796.641 522.95 800.113H506.992C507.171 798.954 507.338 797.801 507.504 796.648C507.671 795.495 507.831 794.335 507.985 793.182C508.071 792.56 508.152 791.949 508.232 791.326V791.32C508.244 791.209 508.256 791.104 508.269 791C508.281 790.938 508.287 790.883 508.293 790.827C508.417 789.859 508.54 788.891 508.651 787.923C508.774 786.955 508.885 785.987 508.99 785.019C509.083 784.229 509.169 783.44 509.255 782.651C509.385 781.449 509.514 780.246 509.631 779.044C509.786 777.527 509.927 776.01 510.057 774.494C510.106 773.957 510.155 773.421 510.199 772.884C510.26 772.163 510.322 771.441 510.377 770.714C510.433 770.011 510.488 769.308 510.538 768.599C510.606 767.711 510.673 766.817 510.729 765.923C510.766 765.467 510.797 765.004 510.821 764.542C510.858 764.018 510.889 763.487 510.92 762.963C510.957 762.433 510.988 761.909 511.012 761.379C511.074 760.343 511.13 759.307 511.179 758.271C511.184 758.247 511.186 758.222 511.185 758.197C511.216 757.673 511.241 757.149 511.259 756.625C511.29 755.971 511.321 755.324 511.345 754.676C511.389 753.776 511.42 752.876 511.45 751.976C511.456 751.914 511.456 751.852 511.456 751.797C511.518 750.046 511.574 748.288 511.611 746.537C511.641 745.236 511.666 743.929 511.685 742.628C511.697 741.864 511.709 741.105 511.715 740.341C511.839 727.824 511.456 715.301 510.643 702.809C507.751 658.495 499.649 614.402 487.342 571.753C487.237 571.395 487.132 571.038 487.027 570.674C488.624 574.996 490.141 579.343 491.621 583.696C505.919 625.723 516.081 669.384 521.051 713.513C522.5 726.393 523.486 739.323 523.93 752.284V752.29C524.362 764.764 524.282 777.25 523.622 789.717Z" fill="#CDE0EB"/>
<path d="M94.5094 798.271C95.8356 797.65 97.28 797.328 98.742 797.328C100.204 797.328 101.648 797.65 102.975 798.271C103.49 797.148 104.313 796.198 105.345 795.531C106.378 794.865 107.578 794.511 108.803 794.511C109.045 794.512 109.288 794.526 109.529 794.554C110.742 790.68 113.371 787.419 116.881 785.435C115.211 780.63 114.797 775.47 115.68 770.456C116.564 765.442 118.715 760.744 121.924 756.816C125.133 752.889 129.293 749.865 133.999 748.038C138.705 746.211 143.799 745.643 148.787 746.389C149.115 741.454 151.252 736.82 154.779 733.39C153.965 729.113 154.096 724.708 155.162 720.488C156.229 716.269 158.205 712.339 160.95 708.981C163.695 705.622 167.141 702.918 171.04 701.06C174.94 699.203 179.198 698.239 183.51 698.237C184.42 698.237 185.32 698.281 186.21 698.363C189.477 689.03 195.526 680.949 203.524 675.229C211.523 669.509 221.079 666.431 230.88 666.419C240.68 666.407 250.243 669.461 258.256 675.161C266.269 680.861 272.337 688.927 275.627 698.252C275.925 698.243 276.224 698.237 276.525 698.237C284.284 698.237 291.726 701.35 297.213 706.892C302.699 712.434 305.782 719.951 305.782 727.789C310.773 727.789 315.578 729.697 319.234 733.13C322.889 736.562 325.123 741.264 325.487 746.292C328.253 745.721 331.119 745.894 333.798 746.794C336.477 747.693 338.876 749.287 340.753 751.416C342.764 746.956 346.391 743.444 350.888 741.604C355.385 739.764 360.409 739.736 364.925 741.526C367.117 738.27 370.278 735.803 373.95 734.482C377.622 733.161 381.616 733.054 385.352 734.177C389.088 735.3 392.373 737.595 394.733 740.73C397.092 743.864 398.403 747.675 398.475 751.612C404.359 753.052 409.625 756.376 413.486 761.087C417.346 765.799 419.595 771.645 419.896 777.753C422.786 776.234 426.018 775.505 429.273 775.638C432.528 775.77 435.692 776.76 438.451 778.508L438.451 778.499C438.451 773.828 440.165 769.323 443.261 765.853C446.357 762.384 450.615 760.196 455.215 759.711C459.814 759.227 464.428 760.482 468.165 763.232C471.903 765.982 474.499 770.034 475.453 774.604C481.673 772.849 488.31 773.389 494.171 776.128C500.033 778.867 504.738 783.625 507.44 789.55C510.417 787.249 514.17 786.223 517.89 786.695C521.609 787.166 524.995 789.098 527.315 792.071C528.543 791.339 529.909 790.873 531.326 790.703C532.742 790.534 534.178 790.664 535.541 791.086C536.905 791.508 538.167 792.213 539.246 793.154C540.325 794.096 541.198 795.255 541.81 796.557C544.96 795.25 548.47 795.125 551.703 796.206C552.642 794.135 554.167 792.392 556.086 791.197C558.006 790.002 560.232 789.408 562.486 789.49C564.739 789.573 566.917 790.328 568.745 791.661C570.574 792.993 571.97 794.844 572.758 796.977C574.786 795.915 577.036 795.356 579.321 795.347C581.606 795.339 583.86 795.881 585.896 796.928C586.74 795.806 587.911 794.98 589.245 794.566C590.579 794.152 592.007 794.171 593.33 794.621C594.652 795.071 595.801 795.929 596.615 797.073C597.429 798.218 597.867 799.591 597.867 801.001H91C91.9552 799.84 93.1539 798.907 94.5094 798.271Z" fill="url(#paint3_linear)"/>
<path d="M202.86 693.509C202.859 689.951 203.561 686.428 204.926 683.14C206.291 679.853 208.293 676.866 210.817 674.35C213.341 671.834 216.337 669.839 219.635 668.478C222.932 667.117 226.467 666.417 230.036 666.418C239.926 666.418 249.574 669.469 257.657 675.151C265.739 680.833 271.861 688.869 275.181 698.157C275.483 698.147 275.785 698.141 276.088 698.141C283.927 698.142 291.445 701.246 296.988 706.771C302.53 712.297 305.644 719.792 305.644 727.606C310.686 727.607 315.541 729.509 319.234 732.931C322.926 736.353 325.183 741.042 325.551 746.054C328.337 745.487 331.223 745.657 333.922 746.547C336.621 747.437 339.04 749.015 340.938 751.126V751.163C339.893 753.451 339.311 755.921 339.226 758.433C339.141 760.945 339.554 763.448 340.442 765.801C339.255 768.625 337.21 771.006 334.594 772.611C331.979 774.216 328.924 774.962 325.861 774.746C322.797 774.529 319.879 773.361 317.516 771.404C315.154 769.448 313.466 766.802 312.691 763.84C311.777 764.722 310.659 765.363 309.435 765.707C308.211 766.051 306.921 766.087 305.68 765.81C304.439 765.534 303.287 764.954 302.326 764.123C301.366 763.293 300.628 762.237 300.178 761.052C296.304 763.723 291.815 765.373 287.129 765.85C282.442 766.327 277.711 765.615 273.375 763.779C269.04 761.944 265.24 759.045 262.33 755.352C259.42 751.66 257.494 747.293 256.731 742.659C252.601 744.268 248.013 744.262 243.888 742.64C239.763 741.019 236.405 737.903 234.487 733.917C231.458 735.089 228.162 735.4 224.965 734.816C221.769 734.233 218.797 732.776 216.381 730.61C213.966 728.443 212.2 725.651 211.28 722.544C210.361 719.437 210.324 716.137 211.174 713.01C208.541 710.486 206.447 707.457 205.019 704.106C203.59 700.755 202.856 697.15 202.86 693.509Z" fill="url(#paint4_linear)"/>
<path d="M361.868 751.526C361.863 747.839 362.972 744.237 365.049 741.191V741.191C367.242 737.966 370.405 735.522 374.078 734.214C377.752 732.905 381.747 732.799 385.485 733.912C389.223 735.024 392.51 737.298 394.87 740.402C397.231 743.507 398.542 747.282 398.614 751.181C404.501 752.607 409.77 755.9 413.632 760.566C417.494 765.232 419.744 771.023 420.045 777.073C422.936 775.569 426.17 774.847 429.427 774.978C432.683 775.109 435.848 776.089 438.609 777.821L438.609 777.812C438.609 773.186 440.323 768.723 443.421 765.287C446.518 761.85 450.778 759.683 455.38 759.203C459.981 758.724 464.597 759.966 468.337 762.69C472.076 765.414 474.673 769.427 475.627 773.954C481.851 772.215 488.49 772.75 494.354 775.463C500.219 778.176 504.925 782.89 507.63 788.758C510.607 786.479 514.362 785.462 518.083 785.93C521.804 786.397 525.192 788.31 527.513 791.255C528.742 790.53 530.109 790.068 531.526 789.9C532.943 789.732 534.379 789.861 535.743 790.279C537.108 790.697 538.37 791.395 539.45 792.328C540.529 793.261 541.403 794.409 542.015 795.698C545.167 794.403 548.678 794.28 551.913 795.35C552.852 793.3 554.378 791.573 556.298 790.389C558.218 789.205 560.446 788.617 562.7 788.699C564.954 788.781 567.133 789.529 568.962 790.849C570.792 792.169 572.188 794.001 572.977 796.115C575.006 795.062 577.257 794.509 579.543 794.5C581.829 794.492 584.084 795.028 586.121 796.066C586.965 794.955 588.137 794.136 589.472 793.726C590.806 793.316 592.235 793.335 593.558 793.781C594.881 794.226 596.03 795.076 596.845 796.209C597.659 797.343 598.097 798.704 598.097 800.1H454.907C453.171 798.58 451.821 796.671 450.967 794.528C449.069 795.233 447.046 795.535 445.025 795.413C443.005 795.291 441.032 794.75 439.233 793.822C438.11 794.599 436.826 795.114 435.478 795.328C434.129 795.541 432.749 795.448 431.441 795.055C430.133 794.662 428.93 793.98 427.922 793.058C426.914 792.137 426.127 791 425.618 789.732C424.683 791.097 423.394 792.18 421.889 792.866C420.384 793.552 418.72 793.814 417.077 793.625C415.434 793.435 413.874 792.801 412.564 791.791C411.255 790.781 410.246 789.432 409.645 787.891C407.233 787.376 404.991 786.256 403.13 784.636C401.269 783.017 399.85 780.951 399.006 778.633C397.316 780.123 395.132 780.931 392.879 780.901C390.626 780.87 388.465 780.004 386.815 778.469C384.307 780.098 381.356 780.912 378.367 780.8C375.379 780.687 372.498 779.654 370.119 777.841C367.74 776.028 365.98 773.524 365.079 770.672C364.178 767.82 364.181 764.759 365.087 761.909C362.986 758.855 361.863 755.233 361.868 751.526Z" fill="url(#paint5_linear)"/>
<path d="M398.719 356.907C398.719 356.754 398.658 356.608 398.55 356.5C398.442 356.392 398.295 356.331 398.143 356.331C398.143 356.331 394.344 356.331 394.344 356.327H392.746C391.982 356.327 391.241 356.591 390.648 357.074C390.582 357.129 390.509 357.178 390.432 357.219C390.414 357.228 390.394 357.236 390.376 357.245C390.309 357.277 390.239 357.304 390.167 357.324C390.143 357.33 390.119 357.338 390.095 357.343C390.003 357.364 389.91 357.375 389.816 357.376H386.293V359.297L386.831 359.297H389.095C389.253 359.297 389.407 359.349 389.533 359.445C390.129 359.983 390.83 360.394 391.591 360.651C392.353 360.908 393.159 361.007 393.96 360.941H394.983C395.136 360.941 395.282 360.88 395.39 360.772C395.499 360.664 395.559 360.517 395.559 360.364C395.559 360.212 395.499 360.065 395.39 359.957C395.282 359.849 395.136 359.788 394.983 359.788H395.239C395.392 359.788 395.538 359.727 395.646 359.619C395.755 359.511 395.815 359.365 395.815 359.212C395.815 359.059 395.755 358.913 395.646 358.805C395.538 358.696 395.392 358.636 395.239 358.636H395.431C395.584 358.636 395.731 358.575 395.839 358.467C395.947 358.359 396.007 358.212 396.007 358.06C396.007 357.907 395.947 357.76 395.839 357.652C395.731 357.544 395.584 357.483 395.431 357.483H398.143C398.295 357.483 398.442 357.423 398.55 357.315C398.658 357.207 398.719 357.06 398.719 356.907Z" fill="#FFE9D5"/>
<path d="M360.901 406.098L361.972 406.865L361.978 406.869C362.426 407.193 364.772 407.201 364.772 407.201C364.836 407.214 364.901 407.214 364.965 407.202C365.029 407.19 365.09 407.165 365.144 407.129C365.199 407.093 365.245 407.046 365.282 406.993C365.318 406.939 365.344 406.878 365.357 406.814C365.378 406.705 365.361 406.591 365.309 406.492C365.257 406.394 365.173 406.316 365.07 406.272L365.074 406.26L365.412 406.329C365.537 406.355 365.666 406.333 365.774 406.265C365.882 406.198 365.96 406.092 365.991 405.969C366.022 405.846 366.005 405.715 365.942 405.605C365.879 405.494 365.776 405.412 365.654 405.376L366.053 405.457C366.177 405.483 366.307 405.461 366.415 405.393C366.523 405.326 366.6 405.22 366.632 405.097C366.663 404.974 366.645 404.843 366.583 404.732C366.52 404.622 366.417 404.54 366.295 404.504L366.693 404.585C366.757 404.598 366.823 404.599 366.887 404.586C366.951 404.574 367.012 404.549 367.066 404.513C367.121 404.477 367.168 404.431 367.204 404.377C367.241 404.323 367.266 404.262 367.279 404.198C367.292 404.134 367.292 404.068 367.28 404.004C367.267 403.94 367.242 403.88 367.206 403.825C367.17 403.771 367.124 403.724 367.07 403.688C367.016 403.651 366.955 403.626 366.891 403.613L363.999 402.708L365.53 402.501C365.737 402.472 365.926 402.368 366.061 402.208C366.196 402.049 366.266 401.844 366.259 401.635L366.257 401.58L362.805 401.773C362.692 401.779 362.583 401.814 362.488 401.876L361.023 402.822C360.866 402.892 359.92 402.818 359.784 402.92L356.06 401.49L355.263 403.311L359.758 405.09L360.901 406.098Z" fill="#FFE9D5"/>
<path d="M326.664 356.926H388.787V359.702L333.674 368.026L326.664 356.926Z" fill="#163666"/>
<path d="M326.11 357.15C326.11 357.15 331.639 354.454 339.895 357.151L326.11 357.15Z" fill="#002842"/>
<g style="mix-blend-mode:multiply">
<path d="M329.827 359.4L333.906 368.028L338.183 367.402C335.739 359.498 329.827 359.4 329.827 359.4Z" fill="#8093A0"/>
</g>
<path d="M316.331 419.742C316.331 419.742 304.41 414.465 297.755 420.647L309.327 400.483L316.331 419.742Z" fill="#476477"/>
<path d="M329.379 347.69L326.624 356.913L320.641 357.535L316.675 354.876L321.063 343.577L329.379 347.69Z" fill="#FFE9D5"/>
<path d="M311.037 409.035L332.195 409.048L334.125 467.974L330.821 516.099H330.802C330.788 516.634 330.928 517.162 331.205 517.62L331.212 517.63L331.223 517.645C331.394 517.924 331.63 518.158 331.909 518.328C333.307 518.868 334.79 519.152 336.288 519.167C339.003 519.328 338.848 520.775 338.848 520.775H332.273C331.232 520.715 330.236 520.332 329.422 519.68L329.414 520.775H327.748C327.756 517.671 327.755 518.145 327.76 516.09C326.377 499.466 322.845 478.935 326.092 467.952L317.569 425.281C315.24 423.31 313.427 420.8 312.289 417.968C311.15 415.137 310.721 412.07 311.037 409.035Z" fill="#112441"/>
<path d="M324.006 356.349C324.006 356.349 335.213 355.704 336.564 370.798C337.282 378.814 332.46 405.304 332.46 405.304L324.006 356.349Z" fill="#112441"/>
<path d="M326.633 357.691C326.633 357.691 336.452 368.764 334.919 384.055L332.196 409.045L311.038 409.033L305.368 388.446L304.757 370.233C304.668 367.585 305.297 364.963 306.578 362.644C307.859 360.325 309.744 358.396 312.032 357.061L317.622 353.802L322.183 357.224L326.633 357.691Z" fill="url(#paint6_linear)"/>
<path d="M327.433 358.781L327.506 361.878L324.608 359.425L326.256 357.692L327.433 358.781Z" fill="#24BF79"/>
<g style="mix-blend-mode:multiply" opacity="0.5">
<path d="M322.756 451.245L332.197 409.053L325.205 451.451L326.093 467.957L322.756 451.245Z" fill="#233166"/>
</g>
<g style="mix-blend-mode:multiply" opacity="0.7">
<path d="M312.953 402.908L315.788 398.014C325.329 385.988 322.148 366.347 322.148 366.347L307.603 396.573L311.039 409.047L313.716 409.048L312.953 402.908Z" fill="#D1D1D0"/>
</g>
<path d="M316.456 353.818C316.456 353.818 329.889 368.768 316.831 391.561L296.503 423.761C296.503 423.761 288.275 415.172 305.342 392.797L301.042 373.67C300.427 370.933 300.669 368.073 301.736 365.478L301.794 365.337C302.978 362.457 305.11 360.068 307.837 358.566L316.456 353.818Z" fill="#163666"/>
<path d="M316.029 354.484C316.029 354.484 330.857 372.5 311.29 398.761C311.29 398.761 322.162 376.218 314.228 364.377L317.295 362.301L311.722 362.413L316.029 354.484Z" fill="#204B84"/>
<path d="M321.63 361.262C318.09 356.323 317.821 356.117 316.457 353.828L317.462 352.777C320.222 354.843 321.841 356.004 326.668 356.931L326.668 356.931L326.668 356.931L329.831 359.404C328.02 359.565 327.434 358.779 327.434 358.779L326.257 357.691C325.761 358.564 325.097 359.329 324.303 359.942C323.508 360.555 322.6 361.004 321.63 361.262Z" fill="white"/>
<g style="mix-blend-mode:multiply" opacity="0.5">
<path d="M302.913 363.188C302.476 363.87 302.101 364.589 301.792 365.337L301.734 365.479C300.667 368.074 300.425 370.934 301.04 373.671L304.272 388.046C304.267 387.031 303.939 385.302 304.009 384.464C304.027 383.739 304.118 383.018 304.278 382.311C304.424 381.723 304.712 381.181 305.118 380.732C305.524 380.284 306.035 379.943 306.605 379.74C307.175 379.536 307.787 379.478 308.385 379.568C308.984 379.659 309.55 379.897 310.034 380.26L318.01 386.231L302.913 363.188Z" fill="#223166"/>
</g>
<path opacity="0.4" d="M305.335 392.769L305.342 392.8C305.106 393.11 304.877 393.415 304.65 393.719L308.913 395.02L305.335 392.769Z" fill="#B0C6DD"/>
<path d="M317.659 469.661L332.195 409.048L311.037 409.035C311.037 409.035 305.764 418.053 311.501 425.987C309.734 440.19 309.182 451.722 309.397 468.114L313.117 469.695L309.294 469.271C309.204 469.744 309.169 469.478 309.169 469.478C303.512 481.386 303.885 502.123 302.905 516.16C302.899 518.214 302.901 517.687 302.892 520.791L304.559 520.795L304.567 519.613C305.362 520.308 306.364 520.724 307.418 520.795H313.993C313.993 520.795 314.147 519.262 311.432 519.1C309.935 519.085 308.451 518.801 307.054 518.261C306.774 518.091 306.539 517.857 306.367 517.578L306.358 517.565L306.35 517.553C306.073 517.146 305.932 516.661 305.947 516.168L317.659 469.661Z" fill="#112441"/>
<g style="mix-blend-mode:multiply">
<path d="M325.495 350.713C324.901 350.271 324.426 349.689 324.111 349.019C323.797 348.349 323.652 347.611 323.69 346.872C323.661 346.928 323.633 346.984 323.605 347.04C323.108 348.018 322.817 349.088 322.753 350.183C322.725 350.813 322.798 351.443 322.97 352.05C322.987 351.881 323.051 351.72 323.155 351.585C323.55 352.561 324.097 353.469 324.776 354.274C324.77 354.127 324.806 353.96 324.8 353.813C325.283 354.522 325.865 355.158 326.529 355.702C326.556 355.576 326.628 355.396 326.655 355.27C326.743 355.484 326.83 355.698 326.918 355.913L328.129 351.86C327.173 351.689 326.271 351.297 325.495 350.713Z" fill="#FFE9D5"/>
</g>
<path d="M327.414 358.785L327.489 358.938L327.696 359.385C327.872 359.775 328.115 360.35 328.405 361.089C328.695 361.827 329.019 362.733 329.367 363.782C329.715 364.83 330.067 366.024 330.427 367.336C330.776 368.65 331.126 370.083 331.448 371.609C331.764 373.137 332.071 374.756 332.324 376.441C332.593 378.126 332.799 379.876 332.988 381.66C333.07 382.553 333.151 383.453 333.221 384.359C333.274 385.264 333.351 386.175 333.385 387.086C333.471 388.909 333.518 390.735 333.516 392.534C333.521 394.333 333.474 396.104 333.403 397.819C333.359 398.675 333.323 399.519 333.273 400.343C333.212 401.167 333.153 401.973 333.095 402.759C333.038 403.544 332.951 404.304 332.884 405.043C332.814 405.781 332.744 406.494 332.655 407.175C332.573 407.858 332.494 408.512 332.419 409.135C332.346 409.759 332.249 410.345 332.172 410.899C332.012 412.005 331.878 412.973 331.735 413.762C331.467 415.347 331.314 416.253 331.314 416.253L326.59 418.656L323.618 414.382C323.618 414.382 323.866 413.548 324.3 412.089C324.526 411.361 324.763 410.468 325.042 409.444C325.177 408.932 325.338 408.389 325.478 407.811C325.621 407.233 325.77 406.626 325.927 405.991C326.09 405.357 326.239 404.693 326.389 404.005C326.538 403.316 326.709 402.606 326.854 401.871C326.999 401.136 327.149 400.381 327.301 399.608C327.445 398.834 327.576 398.04 327.718 397.234C327.984 395.619 328.234 393.943 328.439 392.234C328.651 390.526 328.818 388.783 328.95 387.036C329.024 386.163 329.056 385.289 329.112 384.416C329.151 383.544 329.179 382.675 329.205 381.811C329.233 380.085 329.242 378.381 329.181 376.735C329.137 375.087 329.033 373.496 328.908 371.988C328.779 370.48 328.61 369.058 328.429 367.748C328.236 366.44 328.038 365.242 327.825 364.188C327.613 363.135 327.407 362.219 327.214 361.472C327.023 360.725 326.856 360.143 326.734 359.751L326.592 359.31L326.54 359.16L327.414 358.785Z" fill="#24BF79"/>
<path d="M305.053 360.64C305.431 360.335 305.866 360.108 306.333 359.973C306.799 359.837 307.288 359.795 307.77 359.849C308.253 359.903 308.72 360.052 309.145 360.288C309.57 360.523 309.944 360.841 310.246 361.221L331.196 387.662L360.125 402.611L358.966 405.227L328.664 394.956C328.092 394.762 327.562 394.461 327.104 394.067L305.032 375.152C303.788 374.085 302.852 372.707 302.319 371.158C301.785 369.609 301.675 367.946 301.998 366.34C302.424 364.237 303.302 362.049 305.053 360.64Z" fill="#163666"/>
<path d="M313.512 334.252C313.396 334.038 313.331 333.801 313.322 333.558C313.314 333.314 313.361 333.073 313.462 332.851C313.592 332.614 313.78 332.413 314.009 332.268C314.238 332.123 314.5 332.039 314.771 332.023C315.315 331.999 315.852 332.157 316.296 332.472C316.621 332.657 316.884 332.934 317.053 333.267C317.222 333.601 317.29 333.976 317.247 334.348C317.241 334.373 317.234 334.397 317.227 334.422C317.147 334.482 317.066 334.54 316.981 334.593C316.506 334.891 315.966 335.068 315.406 335.108C315.134 335.126 314.861 335.109 314.593 335.058C314.364 335.014 314.148 334.918 313.96 334.779C313.773 334.639 313.619 334.459 313.512 334.252Z" fill="#196E57"/>
<path d="M324.672 330.994C324.672 330.994 334.232 329.609 332.026 341.805L324.672 330.994Z" fill="#196E57"/>
<path d="M321.287 347.211C320.939 346.972 320.625 346.687 320.354 346.364C319.859 345.891 319.267 345.532 318.619 345.311C317.971 345.09 317.282 345.012 316.602 345.085C316.104 344.097 315.838 343.009 315.823 341.903C315.793 340.158 316.33 338.45 317.355 337.036C318.379 335.622 319.834 334.578 321.502 334.062C322.368 333.811 323.261 333.66 324.162 333.611C325.27 333.494 326.39 333.57 327.472 333.836C328.578 334.142 329.554 334.798 330.255 335.706C331.135 336.87 331.715 338.233 331.942 339.675C332.023 340.387 332.05 341.103 332.024 341.819C332.014 342.738 332.004 343.658 331.993 344.578C331.972 346.441 331.95 348.304 331.928 350.166C331.953 350.843 331.875 351.52 331.698 352.174C331.606 352.5 331.443 352.802 331.22 353.058C330.996 353.313 330.719 353.515 330.407 353.649C328.724 354.258 326.914 352.733 325.839 351.619C325.448 351.215 322.137 347.545 322.477 347.148C322.312 347.286 322.107 347.367 321.893 347.378C321.678 347.39 321.466 347.331 321.287 347.211Z" fill="#FFE9D5"/>
<g style="mix-blend-mode:multiply">
<path d="M323.383 345.814C323.157 345.771 322.943 345.684 322.752 345.555C322.562 345.427 322.4 345.261 322.277 345.067C322.153 344.874 322.071 344.657 322.034 344.43C321.998 344.203 322.009 343.972 322.066 343.749C322.094 343.611 322.15 343.48 322.231 343.363C322.312 343.247 322.415 343.149 322.535 343.073C322.653 343.012 322.785 342.98 322.919 342.98C323.052 342.979 323.184 343.01 323.304 343.07C323.542 343.194 323.727 343.403 323.821 343.655C324.092 344.353 323.553 345.084 323.383 345.814Z" fill="#FFE9D5"/>
</g>
<g style="mix-blend-mode:multiply">
<path d="M323.746 346.017C324.077 345.001 324.658 344.085 325.436 343.353C326.177 342.59 327.002 341.91 327.698 341.106C329.11 339.465 329.922 337.393 330 335.23C326.712 337.979 324.498 341.798 323.746 346.017Z" fill="#FFE9D5"/>
</g>
<path d="M317.596 332.652C317.965 333.861 317.463 335.177 316.73 336.206C315.998 337.236 315.039 338.089 314.312 339.123C313.244 340.653 312.73 342.503 312.856 344.365C312.504 343.467 312.357 342.503 312.427 341.541C312.497 340.58 312.782 339.646 313.26 338.809C312.698 339.533 312.329 340.387 312.188 341.293C312.07 339.804 312.402 338.314 313.143 337.017C314.164 335.24 315.944 333.864 317.596 332.652Z" fill="#196E57"/>
<path d="M313.418 328.786C314.074 328.393 314.843 328.231 315.602 328.328C316.36 328.425 317.064 328.775 317.6 329.32C318.136 329.866 318.472 330.576 318.555 331.337C318.637 332.097 318.462 332.863 318.056 333.511C317.837 333.86 317.556 334.166 317.229 334.415C317.236 334.39 317.243 334.366 317.249 334.341C317.292 333.969 317.224 333.594 317.055 333.26C316.886 332.926 316.623 332.65 316.298 332.465C315.854 332.15 315.317 331.992 314.773 332.016C314.502 332.032 314.24 332.116 314.011 332.261C313.782 332.406 313.594 332.607 313.464 332.844C313.363 333.066 313.316 333.307 313.324 333.55C313.333 333.794 313.398 334.031 313.513 334.245C313.674 334.496 313.883 334.713 314.129 334.883C313.624 334.711 313.163 334.428 312.782 334.055C312.4 333.683 312.107 333.229 311.924 332.728C311.712 331.998 311.743 331.219 312.013 330.508C312.282 329.797 312.776 329.193 313.418 328.786Z" fill="#24BF79"/>
<path d="M329.071 342.72L330.848 342.601L331.15 341.751L329.071 342.72Z" fill="#24BF79"/>
<path d="M331.229 341.238L328.58 342.588L330.965 340.47L331.229 341.238Z" fill="#196E57"/>
<path d="M323.244 348.475C323.308 347.38 323.598 346.31 324.096 345.332C324.124 345.276 324.152 345.22 324.18 345.164C324.142 345.903 324.287 346.641 324.602 347.311C324.917 347.981 325.392 348.563 325.986 349.005C327.19 349.88 328.648 350.335 330.136 350.302C330.613 350.323 331.085 350.199 331.49 349.946C331.612 349.862 331.716 349.753 331.795 349.627C331.875 349.501 331.927 349.36 331.949 349.213C332.094 349.48 332.211 349.762 332.297 350.054C332.182 349.914 332.12 349.877 332.006 349.737C332.403 350.808 332.521 351.962 332.349 353.091C332.282 352.959 332.174 352.785 332.108 352.652C331.946 353.184 331.648 353.663 331.242 354.042C330.836 354.42 330.337 354.685 329.796 354.809C329.874 354.674 329.935 354.484 330.014 354.348C329.488 354.6 328.897 354.682 328.323 354.581C328.412 354.477 328.359 354.311 328.323 354.186C328.073 354.326 327.823 354.467 327.573 354.607C327.431 354.258 327.288 353.91 327.146 353.562C327.119 353.688 327.046 353.868 327.019 353.994C326.356 353.45 325.774 352.814 325.291 352.105C325.296 352.252 325.261 352.419 325.266 352.566C324.588 351.761 324.04 350.853 323.645 349.877C323.542 350.012 323.478 350.173 323.461 350.342C323.289 349.735 323.216 349.105 323.244 348.475Z" fill="#196E57"/>
<path d="M331.739 347.423C331.747 347.541 331.79 347.654 331.862 347.748C331.934 347.842 332.033 347.912 332.145 347.95C332.257 347.988 332.378 347.992 332.492 347.961C332.606 347.93 332.709 347.866 332.787 347.777C332.864 347.688 332.914 347.578 332.929 347.46C332.945 347.343 332.925 347.224 332.872 347.118C332.82 347.012 332.737 346.924 332.635 346.865C332.532 346.806 332.414 346.779 332.296 346.786C332.138 346.797 331.99 346.87 331.886 346.99C331.782 347.109 331.729 347.265 331.739 347.423Z" fill="#FFE9D5"/>
<path d="M331.488 348.449C331.496 348.567 331.538 348.68 331.61 348.773C331.683 348.867 331.781 348.937 331.893 348.975C332.005 349.013 332.126 349.017 332.24 348.986C332.354 348.955 332.457 348.891 332.535 348.802C332.613 348.713 332.662 348.603 332.677 348.486C332.693 348.368 332.673 348.249 332.62 348.143C332.568 348.037 332.485 347.949 332.383 347.89C332.28 347.831 332.162 347.804 332.044 347.812C331.886 347.823 331.738 347.896 331.634 348.015C331.53 348.134 331.477 348.29 331.488 348.449Z" fill="#FFE9D5"/>
<path d="M333.633 347.11L331.538 347.251L327.697 351.782L332.123 348.402C332.3 348.449 332.486 348.452 332.665 348.41C332.843 348.369 333.009 348.284 333.147 348.165C333.306 348.053 333.435 347.903 333.52 347.729C333.606 347.555 333.646 347.361 333.637 347.168L333.633 347.11Z" fill="#196E57"/>
<path d="M331.401 341.272L334.183 346.15C334.434 346.512 334.478 347.077 333.91 347.102L331.32 347.276L331.401 341.272Z" fill="#FFE9D5"/>
<path d="M321.221 331.213C318.922 331.975 315.775 334.421 314.683 336.606C313.414 339.177 313.175 342.136 314.016 344.877C314.319 345.997 314.923 347.013 315.762 347.814C316.198 348.196 316.723 348.462 317.288 348.588C317.854 348.714 318.442 348.697 318.999 348.537C318.954 348.78 318.849 349.008 318.693 349.2C318.537 349.392 318.336 349.541 318.107 349.635C317.868 349.725 317.611 349.756 317.357 349.724C317.103 349.693 316.861 349.601 316.65 349.456C316.727 349.662 316.86 349.842 317.034 349.976C317.209 350.109 317.418 350.191 317.637 350.211C318.078 350.242 318.517 350.12 318.878 349.865C319.254 349.602 319.601 349.298 319.911 348.96C319.746 349.787 319.337 350.546 318.736 351.138C319.449 350.613 320.01 349.908 320.363 349.096C320.716 348.284 320.848 347.393 320.746 346.514C320.87 346.712 321.064 346.857 321.29 346.918C321.516 346.978 321.756 346.951 321.963 346.842C321.735 346.858 321.511 346.783 321.338 346.635C321.165 346.486 321.057 346.275 321.039 346.048C321.198 346.235 321.4 346.38 321.628 346.473C321.856 346.566 322.102 346.603 322.347 346.581C321.769 346.165 321.34 345.574 321.125 344.896C320.91 344.217 320.92 343.487 321.153 342.814C321.285 342.404 321.556 342.053 321.92 341.823C322.245 341.67 322.617 341.651 322.956 341.77C323.295 341.889 323.574 342.137 323.731 342.46C323.248 343.27 322.947 344.175 322.85 345.113C322.752 346.05 322.861 346.998 323.167 347.89C323.023 347.313 323.054 346.707 323.254 346.148C323.148 346.812 323.242 347.492 323.524 348.102C323.806 348.712 324.263 349.224 324.837 349.574C324.38 348.558 324.187 347.444 324.277 346.334C324.366 345.224 324.736 344.155 325.35 343.227C326.337 341.771 327.904 340.732 328.665 339.146C328.937 338.487 329.172 337.813 329.369 337.127C329.537 336.593 329.806 336.097 330.161 335.664C330.951 334.673 331.498 333.511 331.758 332.271C331.758 332.271 326.025 328.855 321.221 331.213Z" fill="#24BF79"/>
<path opacity="0.5" d="M402.74 388.489C402.201 389.923 402.004 391.466 402.166 392.993C402.328 394.519 402.845 395.984 403.673 397.267C404.501 398.55 405.617 399.614 406.929 400.372C408.24 401.13 409.71 401.559 411.217 401.624C412.597 400.385 413.674 398.835 414.362 397.098C415.05 395.361 415.33 393.484 415.18 391.617C415.03 389.75 414.454 387.945 413.498 386.344C412.542 384.744 411.232 383.393 409.672 382.398L408.657 382.739C407.313 383.189 406.084 383.939 405.061 384.934C404.037 385.929 403.245 387.143 402.74 388.489Z" fill="#B0C5DC"/>
<path d="M437.076 407.081C454.174 407.081 468.035 393.221 468.035 376.123C468.035 359.025 454.174 345.165 437.076 345.165C419.979 345.165 406.118 359.025 406.118 376.123C406.118 393.221 419.979 407.081 437.076 407.081Z" fill="#196E57"/>
<path d="M437.074 385.042C441.997 385.042 445.987 381.052 445.987 376.13C445.987 371.208 441.997 367.218 437.074 367.218C432.152 367.218 428.162 371.208 428.162 376.13C428.162 381.052 432.152 385.042 437.074 385.042Z" fill="#24BF79"/>
<path d="M433.078 376.131C433.078 376.921 433.312 377.694 433.752 378.351C434.191 379.009 434.815 379.521 435.545 379.823C436.276 380.126 437.079 380.205 437.855 380.051C438.63 379.897 439.342 379.516 439.901 378.957C440.46 378.398 440.841 377.686 440.995 376.91C441.149 376.135 441.07 375.331 440.768 374.601C440.465 373.871 439.953 373.247 439.295 372.807C438.638 372.368 437.865 372.134 437.075 372.134C436.55 372.134 436.03 372.237 435.545 372.438C435.06 372.639 434.62 372.933 434.249 373.304C433.877 373.676 433.583 374.116 433.382 374.601C433.181 375.086 433.078 375.606 433.078 376.131Z" fill="#132F58"/>
<path d="M430.751 393.186C431.044 391.775 431.815 390.509 432.933 389.6C434.051 388.691 435.447 388.195 436.888 388.195C438.329 388.195 439.725 388.691 440.843 389.6C441.961 390.509 442.731 391.775 443.025 393.186L445.217 403.708C445.475 404.946 445.454 406.226 445.155 407.455C444.856 408.683 444.287 409.83 443.489 410.811C442.691 411.792 441.685 412.583 440.543 413.126C439.401 413.67 438.152 413.951 436.888 413.951C435.623 413.951 434.375 413.67 433.233 413.126C432.091 412.583 431.084 411.792 430.287 410.811C429.489 409.83 428.92 408.683 428.621 407.455C428.322 406.226 428.301 404.946 428.559 403.708L430.751 393.186Z" fill="white"/>
<path d="M419.144 379.173C420.512 378.722 421.994 378.757 423.34 379.27C424.686 379.784 425.814 380.745 426.534 381.993C427.254 383.241 427.523 384.698 427.295 386.121C427.066 387.543 426.355 388.844 425.281 389.803L417.264 396.963C416.321 397.805 415.202 398.427 413.988 398.782C412.775 399.138 411.497 399.218 410.249 399.018C409 398.817 407.812 398.341 406.771 397.624C405.729 396.907 404.861 395.966 404.228 394.871C403.596 393.776 403.216 392.554 403.115 391.293C403.015 390.032 403.197 388.765 403.648 387.584C404.098 386.402 404.807 385.336 405.721 384.463C406.636 383.59 407.734 382.931 408.935 382.536L419.144 379.173Z" fill="white"/>
<path d="M425.469 362.117C426.543 363.077 427.254 364.377 427.483 365.799C427.711 367.222 427.442 368.68 426.722 369.927C426.002 371.175 424.873 372.136 423.527 372.65C422.181 373.163 420.7 373.198 419.331 372.747L409.123 369.384C407.922 368.989 406.824 368.33 405.909 367.457C404.995 366.584 404.286 365.518 403.835 364.336C403.385 363.155 403.203 361.888 403.303 360.627C403.404 359.366 403.784 358.144 404.416 357.049C405.049 355.954 405.917 355.013 406.958 354.296C408 353.579 409.188 353.103 410.437 352.902C411.685 352.702 412.963 352.783 414.176 353.138C415.39 353.493 416.509 354.115 417.452 354.957L425.469 362.117Z" fill="white"/>
<path d="M443.401 359.07C443.107 360.48 442.336 361.746 441.219 362.655C440.101 363.564 438.704 364.06 437.264 364.06C435.823 364.06 434.426 363.564 433.309 362.655C432.191 361.746 431.42 360.48 431.126 359.069L428.934 348.547C428.676 347.309 428.698 346.029 428.997 344.801C429.295 343.572 429.865 342.425 430.662 341.444C431.46 340.463 432.467 339.672 433.608 339.129C434.75 338.586 435.999 338.304 437.264 338.304C438.528 338.304 439.777 338.586 440.919 339.129C442.061 339.672 443.067 340.463 443.865 341.444C444.663 342.425 445.232 343.572 445.531 344.801C445.83 346.029 445.851 347.309 445.593 348.547L443.401 359.07Z" fill="white"/>
<path d="M455.01 373.071C453.641 373.522 452.16 373.488 450.814 372.974C449.468 372.46 448.34 371.499 447.619 370.251C446.899 369.004 446.63 367.546 446.859 366.124C447.087 364.701 447.798 363.401 448.873 362.441L456.889 355.282C457.832 354.439 458.951 353.818 460.165 353.462C461.378 353.107 462.656 353.026 463.905 353.227C465.153 353.427 466.341 353.903 467.383 354.62C468.424 355.338 469.293 356.278 469.925 357.373C470.557 358.468 470.937 359.691 471.038 360.951C471.138 362.212 470.957 363.479 470.506 364.66C470.055 365.842 469.347 366.908 468.432 367.781C467.517 368.654 466.42 369.313 465.218 369.708L455.01 373.071Z" fill="white"/>
<path d="M448.681 390.127C447.606 389.168 446.895 387.867 446.667 386.445C446.439 385.022 446.707 383.565 447.428 382.317C448.148 381.069 449.276 380.108 450.622 379.594C451.968 379.081 453.45 379.047 454.818 379.497L465.027 382.86C466.228 383.256 467.326 383.914 468.24 384.787C469.155 385.661 469.863 386.727 470.314 387.908C470.765 389.09 470.947 390.357 470.846 391.617C470.746 392.878 470.365 394.1 469.733 395.195C469.101 396.29 468.232 397.231 467.191 397.948C466.15 398.665 464.961 399.142 463.713 399.342C462.464 399.542 461.187 399.462 459.973 399.106C458.76 398.751 457.64 398.129 456.697 397.287L448.681 390.127Z" fill="white"/>
<defs>
<filter id="filter0_f" x="0.814148" y="0.71582" width="847.649" height="849.979" filterUnits="userSpaceOnUse" color-interpolation-filters="sRGB">
<feFlood flood-opacity="0" result="BackgroundImageFix"/>
<feBlend mode="normal" in="SourceGraphic" in2="BackgroundImageFix" result="shape"/>
<feGaussianBlur stdDeviation="75" result="effect1_foregroundBlur"/>
</filter>
<radialGradient id="paint0_angular" cx="0" cy="0" r="1" gradientUnits="userSpaceOnUse" gradientTransform="translate(424.639 425.705) scale(273.824 274.99)">
<stop stop-color="#1B3660"/>
</radialGradient>
<linearGradient id="paint1_linear" x1="413.521" y1="501.482" x2="413.521" y2="992.341" gradientUnits="userSpaceOnUse">
<stop stop-color="white"/>
<stop offset="0.2562" stop-color="#F2FAFD"/>
<stop offset="0.66327" stop-color="#E3F4FA"/>
<stop offset="1" stop-color="#DEF2F9"/>
</linearGradient>
<linearGradient id="paint2_linear" x1="348.481" y1="520.789" x2="291.725" y2="520.789" gradientUnits="userSpaceOnUse">
<stop stop-color="#9FB6C6"/>
<stop offset="1" stop-color="white"/>
</linearGradient>
<linearGradient id="paint3_linear" x1="272.69" y1="671.324" x2="273.581" y2="801.023" gradientUnits="userSpaceOnUse">
<stop stop-color="#163666"/>
<stop offset="1" stop-color="#0E1B30"/>
</linearGradient>
<linearGradient id="paint4_linear" x1="284.57" y1="688.903" x2="251.204" y2="755.842" gradientUnits="userSpaceOnUse">
<stop stop-color="#0E1B30"/>
<stop offset="1" stop-color="#163666"/>
</linearGradient>
<linearGradient id="paint5_linear" x1="479.889" y1="740.7" x2="450.613" y2="816.293" gradientUnits="userSpaceOnUse">
<stop stop-color="#0E1B30"/>
<stop offset="1" stop-color="#163666"/>
</linearGradient>
<linearGradient id="paint6_linear" x1="319.915" y1="404.906" x2="319.915" y2="368.774" gradientUnits="userSpaceOnUse">
<stop stop-color="#F0F8F1"/>
<stop offset="0.53358" stop-color="#F5FAF6"/>
<stop offset="1" stop-color="white"/>
</linearGradient>
</defs>
</svg>
