<svg width="811" height="770" viewBox="0 0 811 770" fill="none" xmlns="http://www.w3.org/2000/svg">
<path d="M426.113 665.406H419.915V750.458H426.113V665.406Z" fill="white"/>
<path d="M432.828 659.187H413.2V672.626H432.828V659.187Z" fill="#27426A"/>
<path d="M154.19 752.018H99.2049C96.5326 752.019 93.8998 751.373 91.531 750.135C89.1622 748.898 87.1277 747.105 85.601 744.911C84.0743 742.716 83.1008 740.185 82.7634 737.532C82.4261 734.88 82.7349 732.185 83.6636 729.678C83.7418 729.467 83.8224 729.259 83.9054 729.053C85.6262 724.83 88.6533 721.269 92.5435 718.892C125.049 699.102 121.556 626.272 121.517 625.539L121.515 582.572C121.515 552.373 156.164 549.923 156.514 549.902L156.607 551.44C150.745 551.996 145.028 553.591 139.724 556.149C128.664 561.647 123.056 570.537 123.056 582.572V625.498C123.509 638.719 122.773 651.954 120.855 665.043C115.56 700.019 102.972 714.348 93.344 720.209C89.7368 722.413 86.9297 725.715 85.3336 729.631C85.2565 729.822 85.1813 730.016 85.108 730.213C84.2658 732.488 83.9858 734.932 84.2919 737.338C84.5979 739.744 85.481 742.04 86.8658 744.03C88.2506 746.021 90.096 747.646 92.2445 748.769C94.3931 749.891 96.7811 750.477 99.2049 750.476H154.19C157.949 750.486 161.6 749.223 164.551 746.893C167.502 744.563 169.579 741.304 170.444 737.643L177.139 709.626C177.608 707.642 178.733 705.875 180.333 704.613C181.932 703.35 183.91 702.666 185.948 702.671H196.895V704.212H185.948C184.257 704.208 182.615 704.776 181.288 705.824C179.961 706.872 179.027 708.338 178.638 709.984L171.942 738.002C170.998 741.999 168.729 745.56 165.507 748.104C162.284 750.649 158.295 752.028 154.19 752.018Z" fill="white"/>
<g opacity="0.75" filter="url(#filter0_f)">
<path d="M434 547C559.369 547 661 445.369 661 320C661 194.631 559.369 93 434 93C308.631 93 207 194.631 207 320C207 445.369 308.631 547 434 547Z" fill="url(#paint0_angular)"/>
</g>
<path opacity="0.5" d="M168.026 442.13L203.415 551.93H275.064L218.509 408.226L168.026 442.13Z" fill="url(#paint1_linear)"/>
<path opacity="0.5" d="M544.199 529.338V583.787H330.445V529.338L478.901 384.14C481.176 381.924 483.232 379.493 485.04 376.88C486.362 374.952 487.484 372.894 488.388 370.738C488.921 369.869 489.27 368.901 489.414 367.892C489.558 366.884 489.494 365.856 489.226 364.874V309.308C489.226 305.586 487.737 302.235 484.761 299.256C481.916 296.516 478.105 295.011 474.157 295.067H399.65C395.701 295.009 391.89 296.515 389.046 299.256C386.068 302.235 384.579 305.586 384.581 309.308V349.802H329.328V300.931C329.263 292.868 330.879 284.879 334.072 277.476C337.036 270.335 341.293 263.803 346.629 258.209C351.852 252.615 358.233 248.232 365.326 245.365C372.437 242.192 380.143 240.573 387.93 240.618H485.877C493.663 240.574 501.369 242.193 508.48 245.365C515.522 248.327 521.884 252.698 527.177 258.209C532.578 263.807 536.927 270.334 540.013 277.476C543.205 284.88 544.82 292.868 544.757 300.931V360.964C544.819 369.544 543.306 378.062 540.292 386.095C537.791 393.138 534.515 399.88 530.525 406.199L524.386 415.414C522.179 418.551 519.654 421.452 516.852 424.07L404.952 529.338H544.199Z" fill="#0E1B30"/>
<path opacity="0.5" d="M718.176 467.8V240.617H655.947L537.628 463.891V522.529H663.202V585.075H718.176V522.529H752.499V467.8H718.176ZM599.299 467.8L663.202 341.832V467.8H599.299Z" fill="#0E1B30"/>
<path d="M434.115 463.559C433.902 463.559 433.69 463.517 433.493 463.435C433.296 463.354 433.117 463.234 432.967 463.083C432.816 462.932 432.696 462.753 432.615 462.556C432.533 462.359 432.491 462.148 432.491 461.934V313.939C432.491 313.508 432.662 313.095 432.967 312.79C433.271 312.485 433.684 312.314 434.115 312.314C434.545 312.314 434.958 312.485 435.263 312.79C435.567 313.095 435.738 313.508 435.738 313.939V461.934C435.738 462.148 435.696 462.359 435.615 462.556C435.533 462.753 435.414 462.932 435.263 463.083C435.112 463.234 434.933 463.354 434.736 463.435C434.539 463.517 434.328 463.559 434.115 463.559Z" fill="#24BF79"/>
<path opacity="0.4" d="M598.662 299.383C588.135 218.077 518.494 155.067 434.419 155.067C343.095 155.067 268.797 229.41 268.797 320.792C268.797 385.549 306.113 441.74 360.354 468.992L371.467 458.123C319.545 434.197 283.409 381.641 283.409 320.792C283.409 237.473 351.152 169.688 434.419 169.688C517.686 169.688 585.429 237.473 585.429 320.792C585.429 322.012 585.414 323.228 585.383 324.441L598.662 299.383Z" fill="#24BF79"/>
<path opacity="0.1" d="M223.579 320.792C223.503 348.508 228.922 375.964 239.522 401.571C250.123 427.178 265.693 450.426 285.333 469.971C297.676 482.341 311.498 493.138 326.485 502.118L315.707 512.659C300.946 503.47 287.288 492.616 275.001 480.311C254 459.411 237.35 434.551 226.015 407.17C214.68 379.788 208.886 350.429 208.966 320.792H223.579Z" fill="#24BF79"/>
<path d="M434.116 348.47C439.496 348.47 443.857 344.106 443.857 338.722C443.857 333.339 439.496 328.974 434.116 328.974C428.736 328.974 424.374 333.339 424.374 338.722C424.374 344.106 428.736 348.47 434.116 348.47Z" fill="#163666"/>
<path d="M461.688 353.983C461.183 354.891 460.339 355.56 459.34 355.845C458.342 356.129 457.271 356.005 456.364 355.5L365.628 304.945C365.179 304.695 364.783 304.358 364.464 303.955C364.145 303.552 363.908 303.09 363.767 302.595C363.627 302.101 363.585 301.583 363.644 301.072C363.703 300.561 363.862 300.067 364.112 299.618C364.362 299.168 364.698 298.773 365.101 298.453C365.504 298.134 365.966 297.897 366.46 297.756C366.955 297.615 367.472 297.573 367.982 297.633C368.493 297.692 368.987 297.851 369.436 298.101L460.173 348.656C460.622 348.906 461.017 349.242 461.336 349.645C461.656 350.049 461.892 350.511 462.033 351.005C462.174 351.5 462.216 352.018 462.157 352.528C462.097 353.039 461.938 353.534 461.688 353.983Z" fill="#163666"/>
<path d="M558.269 271.347C558.547 271.189 558.791 270.977 558.986 270.724C559.182 270.471 559.327 270.182 559.411 269.873C559.495 269.565 559.518 269.242 559.478 268.925C559.438 268.607 559.335 268.301 559.177 268.023C559.018 267.745 558.807 267.501 558.554 267.305C558.301 267.109 558.012 266.965 557.704 266.88C557.395 266.796 557.073 266.773 556.756 266.813C556.439 266.854 556.132 266.956 555.854 267.115L408.507 351.265C408.229 351.424 407.986 351.635 407.79 351.888C407.594 352.141 407.45 352.43 407.365 352.739C407.281 353.048 407.258 353.37 407.298 353.688C407.339 354.005 407.441 354.311 407.599 354.589C407.758 354.867 407.97 355.111 408.222 355.307C408.475 355.503 408.764 355.648 409.072 355.732C409.381 355.817 409.703 355.839 410.02 355.799C410.338 355.759 410.644 355.657 410.922 355.498L558.269 271.347Z" fill="#163666"/>
<path opacity="0.2" d="M295.832 182.75C277.675 200.919 263.271 222.488 253.445 246.227C243.618 269.965 238.56 295.408 238.56 321.102C238.56 346.797 243.618 372.24 253.445 395.978C263.272 419.717 277.675 441.286 295.832 459.454C308.242 471.893 322.262 482.612 337.518 491.323L348.431 480.65C332.884 472.252 318.645 461.628 306.165 449.115C280.894 423.83 263.673 391.622 256.674 356.555C249.675 321.488 253.212 285.132 266.839 252.074C280.466 219.016 303.572 190.736 333.243 170.803C362.913 150.87 397.819 140.177 433.556 140.071V125.45C407.959 125.45 382.614 130.512 358.979 140.346C335.343 150.179 313.883 164.59 295.832 182.75Z" fill="#24BF79"/>
<path d="M257.774 529.01C257.6 528.908 257.413 528.827 257.218 528.772L252.453 527.409C251.812 527.226 251.136 527.207 250.486 527.353L245.816 528.4C245.6 528.448 245.394 528.535 245.208 528.657L243.883 529.204C243.681 529.286 243.502 529.416 243.36 529.582L242.242 530.907L239.377 533.343C239.261 533.443 239.14 533.535 239.015 533.621L235.417 536.203C235.345 536.255 235.288 536.327 235.254 536.409C235.22 536.492 235.209 536.582 235.224 536.67C235.238 536.758 235.277 536.841 235.335 536.908C235.394 536.975 235.47 537.025 235.556 537.051L235.694 537.097C236.009 537.193 236.34 537.221 236.666 537.181C236.993 537.142 237.307 537.034 237.59 536.866L237.636 536.835C237.629 536.934 237.659 537.031 237.721 537.108C237.782 537.185 237.87 537.236 237.967 537.252L238.098 537.275C238.375 537.316 238.657 537.298 238.927 537.222C239.196 537.147 239.447 537.015 239.662 536.835L239.708 536.797C239.736 536.849 239.777 536.893 239.827 536.926C239.877 536.958 239.934 536.977 239.993 536.982L240.109 536.989C240.352 537.002 240.595 536.964 240.822 536.876C241.049 536.788 241.255 536.654 241.426 536.481L244.407 533.505L246.202 531.763C246.731 531.471 247.315 531.294 247.916 531.244C248.517 531.193 249.123 531.27 249.692 531.47C249.592 531.609 249.467 531.726 249.322 531.817L248.991 532.025C247.876 532.756 246.876 533.65 246.025 534.677L245.917 534.862C245.779 535.105 245.741 535.393 245.812 535.663C245.882 535.934 246.056 536.166 246.295 536.311C246.443 536.398 246.612 536.442 246.783 536.438C246.955 536.434 247.122 536.382 247.265 536.288C247.265 536.288 249.8 534.569 251.31 533.737C251.61 533.55 251.934 533.405 252.273 533.305L252.997 533.212C253.303 533.173 253.607 533.113 253.906 533.035C254.478 532.895 255.031 532.688 255.555 532.418L257.565 533.313L265.646 538.069L267.58 534.785L257.774 529.01Z" fill="white"/>
<path d="M261.666 532.657C261.488 533.25 261.138 533.778 260.66 534.172C260.183 534.566 259.599 534.81 258.983 534.872C258.367 534.934 257.746 534.813 257.2 534.522C256.653 534.231 256.204 533.785 255.911 533.239C255.618 532.694 255.493 532.073 255.552 531.456C255.611 530.84 255.852 530.254 256.243 529.774C256.635 529.295 257.16 528.942 257.752 528.76C258.344 528.579 258.976 528.577 259.569 528.756C259.963 528.874 260.33 529.069 260.648 529.329C260.966 529.589 261.231 529.909 261.425 530.272C261.62 530.634 261.742 531.031 261.783 531.44C261.824 531.85 261.785 532.263 261.666 532.657Z" fill="#24BF79"/>
<path d="M259.69 532.063C259.629 532.265 259.51 532.445 259.347 532.579C259.184 532.713 258.985 532.796 258.775 532.818C258.565 532.839 258.354 532.797 258.167 532.698C257.981 532.599 257.828 532.447 257.728 532.261C257.628 532.075 257.586 531.864 257.606 531.653C257.626 531.443 257.708 531.244 257.841 531.08C257.975 530.916 258.154 530.796 258.356 530.734C258.558 530.672 258.773 530.672 258.975 530.733C259.246 530.814 259.474 531 259.608 531.25C259.742 531.499 259.772 531.791 259.69 532.063Z" fill="white"/>
<path d="M225.021 636.829H192.305V756.454H225.021V636.829Z" fill="#163666"/>
<path d="M281.88 636.829H225.021V756.454H281.88V636.829Z" fill="#112441"/>
<path d="M278.871 641.413H228.028V747.539H278.871V641.413Z" fill="#163666"/>
<path d="M249.734 645.582H246.818V656.158H249.734V645.582Z" fill="#24BF79"/>
<g style="mix-blend-mode:multiply">
<path d="M231.124 645.582H230.054V656.158H231.124V645.582Z" fill="#71789C"/>
</g>
<path d="M255.929 645.582H253.013V656.158H255.929V645.582Z" fill="#112441"/>
<path d="M262.127 645.582H259.211V656.158H262.127V645.582Z" fill="#24BF79"/>
<path d="M268.322 645.582H265.406V656.158H268.322V645.582Z" fill="#24BF79"/>
<path d="M274.517 645.582H271.601V656.158H274.517V645.582Z" fill="#24BF79"/>
<path d="M276.845 649.038H244.043V650.017H276.845V649.038Z" fill="#163666"/>
<path d="M235.007 645.582H233.349V647.241H235.007V645.582Z" fill="#24BF79"/>
<path d="M238.365 645.582H236.707V647.241H238.365V645.582Z" fill="white"/>
<path d="M241.727 645.582H240.069V647.241H241.727V645.582Z" fill="white"/>
<path d="M235.007 648.664H233.349V650.323H235.007V648.664Z" fill="white"/>
<path d="M238.365 648.664H236.707V650.323H238.365V648.664Z" fill="white"/>
<path d="M241.727 648.664H240.069V650.323H241.727V648.664Z" fill="white"/>
<path d="M280.423 660.535H226.479V662.358H280.423V660.535Z" fill="#112441"/>
<path d="M249.734 666.735H246.818V677.312H249.734V666.735Z" fill="#112441"/>
<g style="mix-blend-mode:multiply">
<path d="M231.124 666.735H230.054V677.312H231.124V666.735Z" fill="#71789C"/>
</g>
<path d="M255.929 666.735H253.013V677.312H255.929V666.735Z" fill="#24BF79"/>
<path d="M262.127 666.735H259.211V677.312H262.127V666.735Z" fill="#112441"/>
<path d="M268.322 666.735H265.406V677.312H268.322V666.735Z" fill="#24BF79"/>
<path d="M274.517 666.735H271.601V677.312H274.517V666.735Z" fill="#24BF79"/>
<path d="M276.845 670.191H244.043V671.171H276.845V670.191Z" fill="#163666"/>
<path d="M235.007 666.735H233.349V668.394H235.007V666.735Z" fill="white"/>
<path d="M238.365 666.735H236.707V668.394H238.365V666.735Z" fill="white"/>
<path d="M241.727 666.735H240.069V668.394H241.727V666.735Z" fill="white"/>
<path d="M235.007 669.817H233.349V671.476H235.007V669.817Z" fill="white"/>
<path d="M238.365 669.817H236.707V671.476H238.365V669.817Z" fill="#24BF79"/>
<path d="M241.727 669.817H240.069V671.476H241.727V669.817Z" fill="#24BF79"/>
<path d="M280.423 681.688H226.479V683.512H280.423V681.688Z" fill="#112441"/>
<path d="M249.734 687.888H246.818V698.465H249.734V687.888Z" fill="#24BF79"/>
<g style="mix-blend-mode:multiply">
<path d="M231.124 687.888H230.054V698.465H231.124V687.888Z" fill="#71789C"/>
</g>
<path d="M255.929 687.888H253.013V698.465H255.929V687.888Z" fill="#24BF79"/>
<path d="M262.127 687.888H259.211V698.465H262.127V687.888Z" fill="#112441"/>
<path d="M268.322 687.888H265.406V698.465H268.322V687.888Z" fill="#112441"/>
<path d="M274.517 687.888H271.601V698.465H274.517V687.888Z" fill="#24BF79"/>
<path d="M276.845 691.345H244.043V692.324H276.845V691.345Z" fill="#163666"/>
<path d="M235.007 687.888H233.349V689.547H235.007V687.888Z" fill="white"/>
<path d="M238.365 687.888H236.707V689.547H238.365V687.888Z" fill="#24BF79"/>
<path d="M241.727 687.888H240.069V689.547H241.727V687.888Z" fill="white"/>
<path d="M235.007 690.971H233.349V692.63H235.007V690.971Z" fill="white"/>
<path d="M238.365 690.971H236.707V692.63H238.365V690.971Z" fill="#24BF79"/>
<path d="M241.727 690.971H240.069V692.63H241.727V690.971Z" fill="white"/>
<path d="M280.423 702.842H226.479V704.665H280.423V702.842Z" fill="#112441"/>
<path d="M276.413 725.727H230.488V743.963H276.413V725.727Z" fill="#112441"/>
<path d="M238.141 727.733H232.674V741.957H238.141V727.733Z" fill="#163666"/>
<path d="M245.251 727.733H239.783V741.957H245.251V727.733Z" fill="#163666"/>
<path d="M252.357 727.733H246.89V741.957H252.357V727.733Z" fill="#163666"/>
<path d="M273.897 727.733H255.058V741.957H273.897V727.733Z" fill="#163666"/>
<path d="M272.495 729.067H256.457V732.691H272.495V729.067Z" fill="#24BF79"/>
<path d="M272.495 734.173H256.457V737.797H272.495V734.173Z" fill="#24BF79"/>
<path d="M276.413 707.247H230.488V712.011H276.413V707.247Z" fill="#112441"/>
<path d="M234.498 709.629C234.498 709.846 234.434 710.057 234.314 710.237C234.194 710.417 234.023 710.557 233.823 710.64C233.624 710.723 233.404 710.745 233.192 710.702C232.98 710.66 232.785 710.556 232.632 710.403C232.479 710.25 232.375 710.055 232.333 709.843C232.29 709.63 232.312 709.41 232.395 709.21C232.478 709.011 232.618 708.84 232.798 708.719C232.977 708.599 233.189 708.535 233.405 708.535C233.695 708.535 233.973 708.65 234.178 708.855C234.383 709.061 234.498 709.339 234.498 709.629Z" fill="#24BF79"/>
<path d="M238.142 709.629C238.142 709.846 238.078 710.057 237.958 710.237C237.838 710.417 237.667 710.557 237.468 710.64C237.268 710.723 237.048 710.745 236.836 710.702C236.624 710.66 236.429 710.556 236.276 710.403C236.123 710.25 236.019 710.055 235.977 709.843C235.934 709.63 235.956 709.41 236.039 709.21C236.122 709.011 236.262 708.84 236.442 708.719C236.621 708.599 236.833 708.535 237.049 708.535C237.339 708.535 237.617 708.65 237.822 708.855C238.027 709.061 238.142 709.339 238.142 709.629Z" fill="#24BF79"/>
<path d="M270.824 709.629C270.824 709.846 270.76 710.057 270.64 710.237C270.519 710.417 270.349 710.557 270.149 710.64C269.949 710.723 269.729 710.745 269.517 710.702C269.305 710.66 269.11 710.556 268.957 710.403C268.804 710.25 268.7 710.055 268.658 709.843C268.616 709.63 268.637 709.41 268.72 709.21C268.803 709.011 268.943 708.84 269.123 708.719C269.303 708.599 269.514 708.535 269.73 708.535C270.02 708.535 270.298 708.65 270.504 708.855C270.709 709.061 270.824 709.339 270.824 709.629Z" fill="#24BF79"/>
<path d="M274.47 709.629C274.47 709.846 274.406 710.057 274.286 710.237C274.166 710.417 273.995 710.557 273.795 710.64C273.596 710.723 273.376 710.745 273.164 710.702C272.952 710.66 272.757 710.556 272.604 710.403C272.451 710.25 272.347 710.055 272.304 709.843C272.262 709.63 272.284 709.41 272.367 709.21C272.449 709.011 272.59 708.84 272.769 708.719C272.949 708.599 273.161 708.535 273.377 708.535C273.667 708.535 273.945 708.65 274.15 708.855C274.355 709.061 274.47 709.339 274.47 709.629Z" fill="white"/>
<path d="M263.656 709.629C263.656 709.846 263.592 710.057 263.471 710.237C263.351 710.417 263.181 710.557 262.981 710.64C262.781 710.723 262.561 710.745 262.349 710.702C262.137 710.66 261.942 710.556 261.789 710.403C261.636 710.25 261.532 710.055 261.49 709.843C261.448 709.63 261.469 709.41 261.552 709.21C261.635 709.011 261.775 708.84 261.955 708.719C262.135 708.599 262.346 708.535 262.562 708.535C262.852 708.535 263.13 708.65 263.336 708.855C263.541 709.061 263.656 709.339 263.656 709.629Z" fill="white"/>
<path d="M267.302 709.629C267.302 709.846 267.238 710.057 267.118 710.237C266.998 710.417 266.827 710.557 266.627 710.64C266.428 710.723 266.208 710.745 265.996 710.702C265.784 710.66 265.589 710.556 265.436 710.403C265.283 710.25 265.179 710.055 265.136 709.843C265.094 709.63 265.116 709.41 265.199 709.21C265.281 709.011 265.422 708.84 265.601 708.719C265.781 708.599 265.993 708.535 266.209 708.535C266.499 708.535 266.777 708.65 266.982 708.855C267.187 709.061 267.302 709.339 267.302 709.629Z" fill="white"/>
<g style="mix-blend-mode:multiply">
<g style="mix-blend-mode:multiply">
<g style="mix-blend-mode:multiply">
<path d="M231.172 715.978C231.679 715.978 232.091 715.567 232.091 715.059C232.091 714.552 231.679 714.141 231.172 714.141C230.665 714.141 230.254 714.552 230.254 715.059C230.254 715.567 230.665 715.978 231.172 715.978Z" fill="#71789C"/>
</g>
<g style="mix-blend-mode:multiply">
<path d="M235.213 715.978C235.721 715.978 236.132 715.567 236.132 715.059C236.132 714.552 235.721 714.141 235.213 714.141C234.706 714.141 234.295 714.552 234.295 715.059C234.295 715.567 234.706 715.978 235.213 715.978Z" fill="#71789C"/>
</g>
<g style="mix-blend-mode:multiply">
<path d="M239.255 715.978C239.762 715.978 240.173 715.567 240.173 715.059C240.173 714.552 239.762 714.141 239.255 714.141C238.747 714.141 238.336 714.552 238.336 715.059C238.336 715.567 238.747 715.978 239.255 715.978Z" fill="#71789C"/>
</g>
<g style="mix-blend-mode:multiply">
<path d="M243.296 715.978C243.803 715.978 244.214 715.567 244.214 715.059C244.214 714.552 243.803 714.141 243.296 714.141C242.789 714.141 242.377 714.552 242.377 715.059C242.377 715.567 242.789 715.978 243.296 715.978Z" fill="#71789C"/>
</g>
<g style="mix-blend-mode:multiply">
<path d="M247.337 715.978C247.844 715.978 248.255 715.567 248.255 715.059C248.255 714.552 247.844 714.141 247.337 714.141C246.83 714.141 246.418 714.552 246.418 715.059C246.418 715.567 246.83 715.978 247.337 715.978Z" fill="#71789C"/>
</g>
<g style="mix-blend-mode:multiply">
<path d="M251.378 715.978C251.885 715.978 252.297 715.567 252.297 715.059C252.297 714.552 251.885 714.141 251.378 714.141C250.871 714.141 250.46 714.552 250.46 715.059C250.46 715.567 250.871 715.978 251.378 715.978Z" fill="#71789C"/>
</g>
<g style="mix-blend-mode:multiply">
<path d="M256.338 715.059C256.338 715.241 256.284 715.419 256.183 715.57C256.082 715.721 255.939 715.839 255.771 715.909C255.603 715.978 255.418 715.996 255.24 715.961C255.062 715.925 254.898 715.838 254.77 715.709C254.641 715.581 254.554 715.417 254.519 715.239C254.483 715.061 254.501 714.876 254.571 714.708C254.64 714.54 254.758 714.396 254.909 714.295C255.06 714.194 255.238 714.141 255.419 714.141C255.663 714.14 255.896 714.237 256.069 714.41C256.241 714.582 256.338 714.816 256.338 715.059Z" fill="#71789C"/>
</g>
<g style="mix-blend-mode:multiply">
<path d="M260.379 715.059C260.379 715.241 260.325 715.419 260.224 715.57C260.123 715.721 259.98 715.839 259.812 715.909C259.644 715.978 259.459 715.996 259.281 715.961C259.103 715.925 258.939 715.838 258.811 715.709C258.683 715.581 258.595 715.417 258.56 715.239C258.524 715.06 258.542 714.876 258.612 714.708C258.681 714.54 258.799 714.396 258.95 714.295C259.101 714.194 259.279 714.14 259.461 714.141C259.704 714.141 259.938 714.237 260.11 714.41C260.282 714.582 260.379 714.816 260.379 715.059Z" fill="#71789C"/>
</g>
<g style="mix-blend-mode:multiply">
<path d="M263.502 715.978C264.009 715.978 264.42 715.567 264.42 715.059C264.42 714.552 264.009 714.141 263.502 714.141C262.994 714.141 262.583 714.552 262.583 715.059C262.583 715.567 262.994 715.978 263.502 715.978Z" fill="#71789C"/>
</g>
<g style="mix-blend-mode:multiply">
<path d="M267.543 715.978C268.05 715.978 268.461 715.567 268.461 715.059C268.461 714.552 268.05 714.141 267.543 714.141C267.036 714.141 266.624 714.552 266.624 715.059C266.624 715.567 267.036 715.978 267.543 715.978Z" fill="#71789C"/>
</g>
<g style="mix-blend-mode:multiply">
<path d="M271.584 715.978C272.091 715.978 272.502 715.567 272.502 715.059C272.502 714.552 272.091 714.141 271.584 714.141C271.077 714.141 270.666 714.552 270.666 715.059C270.666 715.567 271.077 715.978 271.584 715.978Z" fill="#71789C"/>
</g>
<g style="mix-blend-mode:multiply">
<path d="M275.625 715.978C276.132 715.978 276.544 715.567 276.544 715.059C276.544 714.552 276.132 714.141 275.625 714.141C275.118 714.141 274.707 714.552 274.707 715.059C274.707 715.567 275.118 715.978 275.625 715.978Z" fill="#71789C"/>
</g>
</g>
<g style="mix-blend-mode:multiply">
<g style="mix-blend-mode:multiply">
<path d="M231.172 720.173C231.679 720.173 232.091 719.761 232.091 719.254C232.091 718.746 231.679 718.335 231.172 718.335C230.665 718.335 230.254 718.746 230.254 719.254C230.254 719.761 230.665 720.173 231.172 720.173Z" fill="#71789C"/>
</g>
<g style="mix-blend-mode:multiply">
<path d="M235.213 720.173C235.721 720.173 236.132 719.761 236.132 719.254C236.132 718.746 235.721 718.335 235.213 718.335C234.706 718.335 234.295 718.746 234.295 719.254C234.295 719.761 234.706 720.173 235.213 720.173Z" fill="#71789C"/>
</g>
<g style="mix-blend-mode:multiply">
<path d="M239.255 720.173C239.762 720.173 240.173 719.761 240.173 719.254C240.173 718.746 239.762 718.335 239.255 718.335C238.747 718.335 238.336 718.746 238.336 719.254C238.336 719.761 238.747 720.173 239.255 720.173Z" fill="#71789C"/>
</g>
<g style="mix-blend-mode:multiply">
<path d="M243.296 720.173C243.803 720.173 244.214 719.761 244.214 719.254C244.214 718.746 243.803 718.335 243.296 718.335C242.789 718.335 242.377 718.746 242.377 719.254C242.377 719.761 242.789 720.173 243.296 720.173Z" fill="#71789C"/>
</g>
<g style="mix-blend-mode:multiply">
<path d="M247.337 720.173C247.844 720.173 248.255 719.761 248.255 719.254C248.255 718.746 247.844 718.335 247.337 718.335C246.83 718.335 246.418 718.746 246.418 719.254C246.418 719.761 246.83 720.173 247.337 720.173Z" fill="#71789C"/>
</g>
<g style="mix-blend-mode:multiply">
<path d="M251.378 720.173C251.885 720.173 252.297 719.761 252.297 719.254C252.297 718.746 251.885 718.335 251.378 718.335C250.871 718.335 250.46 718.746 250.46 719.254C250.46 719.761 250.871 720.173 251.378 720.173Z" fill="#71789C"/>
</g>
<g style="mix-blend-mode:multiply">
<path d="M256.338 719.254C256.338 719.436 256.284 719.613 256.183 719.764C256.082 719.916 255.939 720.033 255.771 720.103C255.603 720.172 255.418 720.191 255.24 720.155C255.062 720.12 254.898 720.032 254.77 719.904C254.641 719.775 254.554 719.611 254.519 719.433C254.483 719.255 254.501 719.07 254.571 718.902C254.64 718.734 254.758 718.591 254.909 718.49C255.06 718.389 255.238 718.335 255.419 718.335C255.54 718.335 255.659 718.359 255.771 718.405C255.882 718.451 255.983 718.519 256.069 718.604C256.154 718.689 256.222 718.791 256.268 718.902C256.314 719.014 256.338 719.133 256.338 719.254Z" fill="#71789C"/>
</g>
<g style="mix-blend-mode:multiply">
<path d="M260.379 719.254C260.379 719.436 260.325 719.613 260.224 719.764C260.123 719.916 259.98 720.033 259.812 720.103C259.644 720.172 259.459 720.191 259.281 720.155C259.103 720.12 258.939 720.032 258.811 719.904C258.683 719.775 258.595 719.611 258.56 719.433C258.524 719.255 258.542 719.07 258.612 718.902C258.681 718.734 258.799 718.591 258.95 718.49C259.101 718.389 259.279 718.335 259.461 718.335C259.581 718.335 259.701 718.359 259.812 718.405C259.923 718.451 260.025 718.519 260.11 718.604C260.195 718.689 260.263 718.791 260.309 718.902C260.355 719.014 260.379 719.133 260.379 719.254Z" fill="#71789C"/>
</g>
<g style="mix-blend-mode:multiply">
<path d="M263.502 720.173C264.009 720.173 264.42 719.761 264.42 719.254C264.42 718.746 264.009 718.335 263.502 718.335C262.994 718.335 262.583 718.746 262.583 719.254C262.583 719.761 262.994 720.173 263.502 720.173Z" fill="#71789C"/>
</g>
<g style="mix-blend-mode:multiply">
<path d="M267.543 720.173C268.05 720.173 268.461 719.761 268.461 719.254C268.461 718.746 268.05 718.335 267.543 718.335C267.036 718.335 266.624 718.746 266.624 719.254C266.624 719.761 267.036 720.173 267.543 720.173Z" fill="#71789C"/>
</g>
<g style="mix-blend-mode:multiply">
<path d="M271.584 720.173C272.091 720.173 272.502 719.761 272.502 719.254C272.502 718.746 272.091 718.335 271.584 718.335C271.077 718.335 270.666 718.746 270.666 719.254C270.666 719.761 271.077 720.173 271.584 720.173Z" fill="#71789C"/>
</g>
<g style="mix-blend-mode:multiply">
<path d="M275.625 720.173C276.132 720.173 276.544 719.761 276.544 719.254C276.544 718.746 276.132 718.335 275.625 718.335C275.118 718.335 274.707 718.746 274.707 719.254C274.707 719.761 275.118 720.173 275.625 720.173Z" fill="#71789C"/>
</g>
</g>
<g style="mix-blend-mode:multiply">
<g style="mix-blend-mode:multiply">
<path d="M233.099 718.167C233.607 718.167 234.018 717.756 234.018 717.248C234.018 716.741 233.607 716.329 233.099 716.329C232.592 716.329 232.181 716.741 232.181 717.248C232.181 717.756 232.592 718.167 233.099 718.167Z" fill="#71789C"/>
</g>
<g style="mix-blend-mode:multiply">
<path d="M237.141 718.167C237.648 718.167 238.059 717.756 238.059 717.248C238.059 716.741 237.648 716.329 237.141 716.329C236.633 716.329 236.222 716.741 236.222 717.248C236.222 717.756 236.633 718.167 237.141 718.167Z" fill="#71789C"/>
</g>
<g style="mix-blend-mode:multiply">
<path d="M241.182 718.167C241.689 718.167 242.1 717.756 242.1 717.248C242.1 716.741 241.689 716.329 241.182 716.329C240.675 716.329 240.263 716.741 240.263 717.248C240.263 717.756 240.675 718.167 241.182 718.167Z" fill="#71789C"/>
</g>
<g style="mix-blend-mode:multiply">
<path d="M245.223 718.167C245.73 718.167 246.141 717.756 246.141 717.248C246.141 716.741 245.73 716.329 245.223 716.329C244.716 716.329 244.305 716.741 244.305 717.248C244.305 717.756 244.716 718.167 245.223 718.167Z" fill="#71789C"/>
</g>
<g style="mix-blend-mode:multiply">
<path d="M250.183 717.248C250.183 717.43 250.129 717.607 250.028 717.759C249.927 717.91 249.783 718.028 249.616 718.097C249.448 718.167 249.263 718.185 249.085 718.149C248.907 718.114 248.743 718.026 248.615 717.898C248.486 717.769 248.399 717.606 248.363 717.427C248.328 717.249 248.346 717.064 248.416 716.896C248.485 716.728 248.603 716.585 248.754 716.484C248.905 716.383 249.082 716.329 249.264 716.329C249.385 716.329 249.504 716.353 249.616 716.399C249.727 716.445 249.828 716.513 249.914 716.598C249.999 716.684 250.067 716.785 250.113 716.896C250.159 717.008 250.183 717.127 250.183 717.248Z" fill="#71789C"/>
</g>
<g style="mix-blend-mode:multiply">
<path d="M254.224 717.248C254.224 717.43 254.17 717.607 254.069 717.759C253.968 717.91 253.825 718.028 253.657 718.097C253.489 718.167 253.304 718.185 253.126 718.149C252.948 718.114 252.784 718.026 252.656 717.898C252.527 717.769 252.44 717.606 252.404 717.427C252.369 717.249 252.387 717.064 252.457 716.896C252.526 716.728 252.644 716.585 252.795 716.484C252.946 716.383 253.124 716.329 253.305 716.329C253.426 716.329 253.545 716.353 253.657 716.399C253.768 716.445 253.869 716.513 253.955 716.598C254.04 716.684 254.108 716.785 254.154 716.896C254.2 717.008 254.224 717.127 254.224 717.248Z" fill="#71789C"/>
</g>
<g style="mix-blend-mode:multiply">
<path d="M257.346 718.167C257.854 718.167 258.265 717.756 258.265 717.248C258.265 716.741 257.854 716.329 257.346 716.329C256.839 716.329 256.428 716.741 256.428 717.248C256.428 717.756 256.839 718.167 257.346 718.167Z" fill="#71789C"/>
</g>
<g style="mix-blend-mode:multiply">
<path d="M261.388 718.167C261.895 718.167 262.306 717.756 262.306 717.248C262.306 716.741 261.895 716.329 261.388 716.329C260.88 716.329 260.469 716.741 260.469 717.248C260.469 717.756 260.88 718.167 261.388 718.167Z" fill="#71789C"/>
</g>
<g style="mix-blend-mode:multiply">
<path d="M265.429 718.167C265.936 718.167 266.347 717.756 266.347 717.248C266.347 716.741 265.936 716.329 265.429 716.329C264.922 716.329 264.51 716.741 264.51 717.248C264.51 717.756 264.922 718.167 265.429 718.167Z" fill="#71789C"/>
</g>
<g style="mix-blend-mode:multiply">
<path d="M269.47 718.167C269.977 718.167 270.388 717.756 270.388 717.248C270.388 716.741 269.977 716.329 269.47 716.329C268.963 716.329 268.552 716.741 268.552 717.248C268.552 717.756 268.963 718.167 269.47 718.167Z" fill="#71789C"/>
</g>
<g style="mix-blend-mode:multiply">
<path d="M273.511 718.167C274.018 718.167 274.43 717.756 274.43 717.248C274.43 716.741 274.018 716.329 273.511 716.329C273.004 716.329 272.593 716.741 272.593 717.248C272.593 717.756 273.004 718.167 273.511 718.167Z" fill="#71789C"/>
</g>
</g>
</g>
<path d="M388.951 510.362L368.064 546.921L313.749 571.454L260.85 535.866L263.29 531.498L316.831 555.652L349.729 529.907L350.632 526.566L370.779 511.414L384.385 510.016C385.915 509.978 387.444 510.094 388.951 510.362Z" fill="#142C50"/>
<path d="M387.293 469.503H373.406V498.554H387.293V469.503Z" fill="#163666"/>
<path d="M388.383 488.223H371.092V490.828H388.383V488.223Z" fill="#1E4785"/>
<path d="M388.383 491.942H371.092V494.547H388.383V491.942Z" fill="#1E4785"/>
<path d="M386.329 484.341H371.777V486.947H386.329V484.341Z" fill="#1E4785"/>
<path d="M389.717 502.179L371.208 507.969L371.224 497.686H388.417L389.717 498.778V502.179Z" fill="#163666"/>
<path d="M378.199 474.214H391.311L383.694 496.39L379.909 486.795L378.199 474.214Z" fill="#163666"/>
<g filter="url(#filter1_f)">
<path d="M400.465 471.979C400.493 471.801 400.507 471.621 400.508 471.44C401.249 470.781 401.86 469.957 402.301 469.021C402.742 468.085 403.003 467.056 403.069 466.001C403.134 464.945 403.002 463.886 402.68 462.891C402.359 461.896 401.855 460.986 401.202 460.22C401.565 459.464 401.769 458.625 401.799 457.768C401.829 456.91 401.683 456.057 401.373 455.271C401.064 454.486 400.597 453.79 400.011 453.235C399.424 452.681 398.731 452.283 397.986 452.071C397.679 450.056 396.743 448.227 395.343 446.908C393.943 445.59 392.169 444.867 390.337 444.869C389.908 444.867 389.48 444.904 389.056 444.979C388.274 444.023 387.31 443.276 386.235 442.791C385.16 442.305 384.001 442.096 382.844 442.176C381.686 442.257 380.56 442.626 379.547 443.257C378.534 443.887 377.661 444.763 376.992 445.82C376.332 445.634 375.645 445.604 374.974 445.732C374.304 445.86 373.664 446.142 373.097 446.562C372.53 446.981 372.047 447.528 371.68 448.167C371.313 448.806 371.07 449.524 370.966 450.274C369.382 450.81 368.024 451.963 367.138 453.522C366.253 455.082 365.899 456.945 366.141 458.772C366.384 460.598 367.206 462.266 368.459 463.473C369.712 464.679 371.311 465.343 372.966 465.343H374.168C374.324 466.671 374.907 467.89 375.809 468.774C376.71 469.658 377.869 470.147 379.069 470.148H387.794L390.13 471.979H400.465Z" fill="#24BF79"/>
</g>
<path d="M396.501 471.674C396.531 471.504 396.547 471.331 396.547 471.159C397.337 470.53 397.987 469.744 398.456 468.85C398.925 467.957 399.203 466.975 399.273 465.968C399.342 464.961 399.201 463.95 398.859 463.001C398.517 462.051 397.982 461.183 397.286 460.452C397.673 459.73 397.89 458.93 397.922 458.111C397.953 457.293 397.798 456.478 397.469 455.729C397.139 454.98 396.643 454.315 396.018 453.786C395.394 453.257 394.657 452.877 393.864 452.675C393.537 450.752 392.541 449.006 391.051 447.748C389.561 446.49 387.673 445.8 385.724 445.802C385.267 445.8 384.811 445.835 384.36 445.907C383.528 444.995 382.502 444.281 381.358 443.818C380.214 443.355 378.98 443.155 377.749 443.232C376.517 443.309 375.318 443.661 374.24 444.263C373.162 444.865 372.233 445.701 371.521 446.709C370.819 446.532 370.088 446.504 369.374 446.626C368.66 446.747 367.979 447.017 367.376 447.417C366.772 447.817 366.259 448.339 365.868 448.949C365.477 449.559 365.218 450.244 365.107 450.96C363.422 451.471 361.976 452.571 361.034 454.06C360.092 455.548 359.715 457.326 359.973 459.069C360.231 460.812 361.107 462.404 362.44 463.556C363.773 464.707 365.476 465.34 367.237 465.34H368.516C368.681 466.608 369.302 467.771 370.261 468.615C371.221 469.459 372.454 469.925 373.732 469.926H383.017L385.503 471.674H396.501Z" fill="#24BF79"/>
<path d="M360.078 492.169L370.183 487.913C373.32 485.686 373.723 483.198 373.723 480.812V472.6C373.723 470.75 373.33 468.92 372.571 467.233L371.39 464.607C370.966 463.664 370.747 462.641 370.747 461.606V449.611H361.819L360.166 473.101L360.078 492.169Z" fill="#CAD6E1"/>
<path d="M393.763 475.041C393.763 475.692 393.504 476.316 393.045 476.776C392.585 477.236 391.961 477.494 391.311 477.494H386.329C385.678 477.494 385.055 477.236 384.595 476.776C384.135 476.316 383.877 475.692 383.877 475.041C383.877 474.391 384.135 473.767 384.595 473.307C385.055 472.847 385.678 472.588 386.329 472.588H391.311C391.633 472.588 391.952 472.652 392.249 472.775C392.547 472.898 392.817 473.079 393.045 473.307C393.272 473.534 393.453 473.805 393.576 474.102C393.699 474.4 393.763 474.719 393.763 475.041Z" fill="#D7E2EE"/>
<path d="M390.281 480.868C390.281 481.519 390.023 482.142 389.563 482.602C389.103 483.063 388.48 483.321 387.83 483.321H382.847C382.197 483.321 381.573 483.063 381.114 482.602C380.654 482.142 380.396 481.519 380.396 480.868C380.396 480.217 380.654 479.593 381.114 479.133C381.573 478.673 382.197 478.415 382.847 478.415H387.83C388.48 478.415 389.103 478.673 389.563 479.133C390.023 479.593 390.281 480.217 390.281 480.868Z" fill="#D7E2EE"/>
<path d="M389.796 486.795C389.796 487.445 389.538 488.069 389.078 488.529C388.618 488.989 387.995 489.248 387.344 489.248H382.362C381.712 489.248 381.088 488.989 380.629 488.529C380.169 488.069 379.911 487.445 379.911 486.795C379.911 486.144 380.169 485.52 380.629 485.06C381.088 484.6 381.712 484.342 382.362 484.342H387.344C387.995 484.342 388.618 484.6 389.078 485.06C389.538 485.52 389.796 486.144 389.796 486.795Z" fill="#D7E2EE"/>
<g style="mix-blend-mode:multiply" opacity="0.25">
<path d="M364.305 486.194L365.89 478.204L365.893 478.187C365.954 477.882 366.118 477.607 366.359 477.409C366.6 477.212 366.901 477.104 367.213 477.104H373.723V475.887H367.988C367.843 475.887 367.701 475.848 367.576 475.775C367.451 475.702 367.347 475.598 367.276 475.472C367.204 475.346 367.167 475.203 367.169 475.058C367.171 474.913 367.211 474.771 367.285 474.647C367.608 474.101 367.99 473.593 368.423 473.13C369.01 472.587 369.369 471.843 369.427 471.046C369.486 470.249 369.24 469.46 368.739 468.837C368.688 468.773 368.656 468.695 368.646 468.612C368.637 468.53 368.651 468.447 368.687 468.372C368.723 468.297 368.78 468.234 368.85 468.19C368.92 468.146 369.001 468.123 369.084 468.123H372.928C372.819 467.823 372.703 467.525 372.571 467.233L372.424 466.905H368.202C367.624 466.905 367.066 466.689 366.639 466.299C366.213 465.909 365.947 465.373 365.895 464.797L365.89 464.745V455.703C365.894 455.208 366.028 454.724 366.279 454.298C366.53 453.872 366.889 453.52 367.319 453.278C367.792 453.015 368.281 452.781 368.782 452.577C369.364 452.337 369.86 451.93 370.21 451.407C370.56 450.884 370.747 450.269 370.747 449.64V449.611H361.819L360.58 467.229L360.166 473.101L360.078 492.169C361.187 491.557 362.144 490.701 362.876 489.666C363.608 488.632 364.096 487.444 364.305 486.194Z" fill="#24BF79"/>
</g>
<path d="M362.924 455.703V464.745C363.033 466.069 363.472 467.503 364.795 468.056C365.24 468.288 365.623 468.624 365.911 469.036C366.198 469.447 366.383 469.922 366.448 470.42C366.513 470.918 366.456 471.425 366.284 471.896C366.111 472.368 365.828 472.791 365.457 473.13C364.194 474.577 363.322 476.324 362.924 478.204L360.078 492.169L356.56 493.533C355.83 493.816 355.02 493.819 354.287 493.542L353.403 493.207C352.799 492.978 352.28 492.571 351.913 492.04C351.546 491.508 351.35 490.878 351.35 490.232V488.68L350.026 486.803C348.812 485.812 349.51 484.031 349.51 484.031L349.465 483.99L348.703 483.273C348.545 483.024 348.473 482.73 348.497 482.437C348.563 481.956 348.792 481.513 349.145 481.181C349.588 477.651 346.608 476.989 346.608 476.989C344.736 476.217 345.836 475.002 345.836 475.002L352.673 466.841C351.35 464.416 352.564 461.329 352.564 461.329L352.892 458.68C354.709 446.934 368.761 446.277 368.761 446.277V451.734C367.215 451.997 365.725 452.519 364.352 453.278C363.922 453.52 363.563 453.872 363.313 454.298C363.062 454.724 362.928 455.208 362.924 455.703Z" fill="white"/>
<g style="mix-blend-mode:multiply">
<path d="M353.308 483.989H349.465L348.703 483.272C348.545 483.023 348.473 482.73 348.497 482.437L353.308 483.989Z" fill="#D0DDEB"/>
</g>
<path opacity="0.5" d="M350.026 486.803L351.349 488.68V490.502L352.416 489.613C352.694 489.381 352.918 489.09 353.072 488.762C353.226 488.434 353.305 488.076 353.305 487.713L349.783 486.561C349.856 486.649 349.938 486.73 350.026 486.803Z" fill="#D0DDEB"/>
<g style="mix-blend-mode:multiply">
<path d="M345.691 475.212C345.469 475.593 345.212 476.413 346.609 476.988C347.3 477.181 347.918 477.575 348.385 478.119H350.825C349.913 476.509 347.367 475.631 345.691 475.212Z" fill="#D0DDEB"/>
</g>
<path opacity="0.5" d="M364.351 453.278C365.724 452.519 367.214 451.997 368.76 451.734V446.277C367.98 446.331 367.204 446.433 366.436 446.582C366.385 448.12 365.952 450.38 363.968 451.32C360.827 452.809 360.661 454.628 360.661 458.185V463.892C360.661 463.892 360.33 466.622 363.306 468.938C363.306 468.938 365.869 470.675 363.472 472.66C363.145 472.934 362.853 473.246 362.6 473.59L362.594 473.527L359.514 476.153H357.003L359.742 477.18L361.508 475.685C361.026 477.267 360.66 478.882 360.413 480.517L358.512 490.856C358.512 490.856 358.311 492.082 356.487 493.552L360.077 492.169L362.923 478.203C363.321 476.324 364.193 474.577 365.456 473.13C365.827 472.791 366.11 472.368 366.283 471.896C366.455 471.425 366.511 470.918 366.446 470.42C366.381 469.922 366.197 469.447 365.91 469.035C365.622 468.624 365.239 468.288 364.794 468.056C363.47 467.503 363.032 466.069 362.923 464.745V455.703C362.927 455.208 363.061 454.724 363.312 454.298C363.562 453.872 363.921 453.52 364.351 453.278Z" fill="#D0DDEB"/>
<g style="mix-blend-mode:multiply">
<path d="M354.209 469.973C354.332 469.486 354.517 469.018 354.76 468.579C354.866 468.314 354.895 468.024 354.846 467.743C354.796 467.462 354.668 467.2 354.478 466.988C354.198 466.645 354.006 466.24 353.917 465.806C354.675 466.46 355.645 466.814 356.645 466.799C356.645 466.799 358.712 466.882 359.456 468.122C359.456 468.122 355.861 470.495 355.816 470.524C355.372 470.818 354.538 470.905 354.265 470.356C354.211 470.236 354.191 470.103 354.209 469.973Z" fill="#24BF79"/>
</g>
<g opacity="0.7">
<path d="M377.121 452.696C377.988 452.696 378.691 451.993 378.691 451.126C378.691 450.259 377.988 449.556 377.121 449.556C376.255 449.556 375.552 450.259 375.552 451.126C375.552 451.993 376.255 452.696 377.121 452.696Z" fill="white"/>
<path d="M390.285 454.468C390.285 454.73 390.208 454.986 390.062 455.204C389.916 455.422 389.71 455.592 389.467 455.692C389.225 455.793 388.959 455.819 388.702 455.768C388.445 455.717 388.209 455.59 388.024 455.405C387.838 455.219 387.712 454.983 387.661 454.726C387.61 454.469 387.636 454.202 387.737 453.96C387.837 453.718 388.007 453.511 388.225 453.365C388.442 453.22 388.699 453.142 388.961 453.142C389.135 453.142 389.307 453.176 389.468 453.243C389.628 453.309 389.774 453.407 389.897 453.53C390.02 453.653 390.118 453.799 390.185 453.96C390.251 454.121 390.285 454.293 390.285 454.468Z" fill="white"/>
<path d="M381.123 459.195C382.031 459.195 382.768 458.459 382.768 457.55C382.768 456.641 382.031 455.905 381.123 455.905C380.215 455.905 379.479 456.641 379.479 457.55C379.479 458.459 380.215 459.195 381.123 459.195Z" fill="white"/>
<path d="M389.494 454.693H388.427V447.907C388.427 447.837 388.441 447.768 388.468 447.703C388.495 447.638 388.534 447.58 388.584 447.53C388.633 447.481 388.692 447.441 388.757 447.414C388.821 447.388 388.891 447.374 388.961 447.374C389.031 447.374 389.1 447.388 389.165 447.414C389.23 447.441 389.288 447.481 389.338 447.53C389.387 447.58 389.427 447.638 389.453 447.703C389.48 447.768 389.494 447.837 389.494 447.907V454.693Z" fill="white"/>
<path d="M381.742 456.997H380.676V452.448C380.676 452.306 380.732 452.171 380.832 452.071C380.932 451.97 381.068 451.914 381.209 451.914C381.35 451.914 381.486 451.97 381.586 452.071C381.686 452.171 381.742 452.306 381.742 452.448V456.997Z" fill="white"/>
<path d="M377.653 450.322H376.586V445.061C376.586 444.92 376.643 444.784 376.743 444.684C376.843 444.584 376.978 444.528 377.12 444.528C377.261 444.528 377.397 444.584 377.497 444.684C377.597 444.784 377.653 444.92 377.653 445.061V450.322Z" fill="white"/>
<path d="M385.4 464.394C385.399 464.535 385.343 464.67 385.243 464.77C385.143 464.869 385.007 464.925 384.866 464.925C384.725 464.925 384.59 464.869 384.49 464.77C384.39 464.67 384.333 464.535 384.333 464.394V447.095C384.333 447.024 384.346 446.955 384.373 446.89C384.4 446.825 384.439 446.766 384.488 446.716C384.538 446.666 384.597 446.627 384.662 446.6C384.727 446.573 384.796 446.559 384.866 446.559C384.936 446.559 385.006 446.573 385.071 446.6C385.136 446.627 385.195 446.666 385.244 446.716C385.294 446.766 385.333 446.825 385.36 446.89C385.386 446.955 385.4 447.024 385.4 447.095V464.394Z" fill="white"/>
<path d="M389.067 455.023V453.955H394.29C394.432 453.955 394.567 454.012 394.667 454.112C394.767 454.212 394.824 454.347 394.824 454.489C394.824 454.631 394.767 454.766 394.667 454.866C394.567 454.966 394.432 455.023 394.29 455.023H389.067Z" fill="white"/>
<path d="M373.956 458.083C373.814 458.083 373.678 458.027 373.578 457.927C373.478 457.827 373.422 457.691 373.422 457.55C373.422 457.408 373.478 457.273 373.578 457.172C373.678 457.072 373.814 457.016 373.956 457.016H380.635V457.55C380.635 457.62 380.621 457.689 380.594 457.754C380.567 457.819 380.528 457.878 380.478 457.927C380.429 457.977 380.37 458.016 380.305 458.043C380.241 458.07 380.171 458.084 380.101 458.083H373.956Z" fill="white"/>
<path d="M389.947 457.507H385.037V458.574H389.947V457.507Z" fill="white"/>
<path d="M390.864 461.188C390.864 461.45 390.786 461.706 390.641 461.924C390.495 462.142 390.288 462.312 390.046 462.413C389.804 462.513 389.538 462.539 389.281 462.488C389.024 462.437 388.788 462.311 388.602 462.125C388.417 461.94 388.291 461.704 388.24 461.447C388.189 461.189 388.215 460.923 388.315 460.681C388.415 460.438 388.585 460.231 388.803 460.086C389.021 459.94 389.277 459.862 389.539 459.862C389.89 459.862 390.227 460.002 390.476 460.251C390.724 460.499 390.864 460.836 390.864 461.188Z" fill="white"/>
<path d="M390.073 457.507H389.006V460.37H390.073V457.507Z" fill="white"/>
</g>
<path d="M378.722 478.15C382.679 478.15 385.887 474.94 385.887 470.98C385.887 467.02 382.679 463.81 378.722 463.81C374.764 463.81 371.556 467.02 371.556 470.98C371.556 474.94 374.764 478.15 378.722 478.15Z" fill="#196E57"/>
<path d="M380.784 470.98C380.784 471.388 380.663 471.787 380.436 472.127C380.21 472.466 379.888 472.731 379.511 472.887C379.134 473.043 378.719 473.084 378.319 473.004C377.919 472.925 377.551 472.728 377.263 472.439C376.974 472.151 376.778 471.783 376.698 471.383C376.618 470.982 376.659 470.567 376.815 470.19C376.972 469.813 377.236 469.49 377.575 469.264C377.914 469.037 378.313 468.916 378.721 468.916C378.992 468.916 379.26 468.969 379.511 469.073C379.761 469.177 379.988 469.329 380.18 469.52C380.371 469.712 380.523 469.94 380.627 470.19C380.731 470.441 380.784 470.709 380.784 470.98Z" fill="white"/>
<path d="M379.647 470.98C379.647 471.163 379.593 471.342 379.491 471.494C379.389 471.646 379.245 471.765 379.076 471.835C378.907 471.905 378.721 471.923 378.541 471.888C378.362 471.852 378.197 471.764 378.068 471.634C377.938 471.505 377.85 471.34 377.814 471.16C377.779 470.981 377.797 470.795 377.867 470.626C377.937 470.456 378.056 470.312 378.208 470.21C378.36 470.108 378.539 470.054 378.722 470.054C378.967 470.054 379.202 470.152 379.376 470.325C379.549 470.499 379.647 470.734 379.647 470.98Z" fill="#24BF79"/>
<path d="M380.187 474.93C380.119 474.603 379.94 474.31 379.682 474.099C379.423 473.889 379.1 473.774 378.766 473.774C378.433 473.774 378.11 473.889 377.851 474.099C377.592 474.31 377.414 474.603 377.346 474.93L376.838 477.366C376.779 477.653 376.784 477.95 376.853 478.234C376.922 478.519 377.054 478.784 377.238 479.012C377.423 479.239 377.656 479.422 377.92 479.548C378.185 479.674 378.474 479.739 378.766 479.739C379.059 479.739 379.348 479.674 379.612 479.548C379.877 479.422 380.11 479.239 380.294 479.012C380.479 478.784 380.611 478.519 380.68 478.234C380.749 477.95 380.754 477.653 380.694 477.366L380.187 474.93Z" fill="white"/>
<path d="M382.871 471.685C382.554 471.581 382.211 471.589 381.9 471.708C381.588 471.827 381.327 472.05 381.161 472.339C380.994 472.628 380.932 472.965 380.985 473.295C381.037 473.624 381.202 473.925 381.451 474.147L383.306 475.806C383.524 476.001 383.783 476.145 384.064 476.227C384.345 476.309 384.641 476.328 384.93 476.281C385.219 476.235 385.494 476.125 385.735 475.959C385.976 475.793 386.177 475.575 386.323 475.321C386.47 475.067 386.558 474.784 386.581 474.492C386.604 474.2 386.562 473.907 386.458 473.633C386.353 473.36 386.189 473.113 385.978 472.911C385.766 472.708 385.512 472.556 385.234 472.464L382.871 471.685Z" fill="white"/>
<path d="M381.408 467.736C381.159 467.958 380.995 468.259 380.942 468.589C380.889 468.918 380.951 469.256 381.118 469.545C381.285 469.834 381.546 470.056 381.857 470.175C382.169 470.294 382.512 470.302 382.828 470.198L385.191 469.419C385.469 469.327 385.723 469.175 385.935 468.973C386.147 468.77 386.311 468.524 386.415 468.25C386.519 467.976 386.561 467.683 386.538 467.391C386.515 467.099 386.427 466.816 386.281 466.562C386.134 466.309 385.933 466.091 385.692 465.925C385.451 465.759 385.176 465.648 384.887 465.602C384.598 465.555 384.302 465.574 384.022 465.656C383.741 465.739 383.482 465.883 383.263 466.078L381.408 467.736Z" fill="white"/>
<path d="M377.258 467.03C377.326 467.357 377.504 467.65 377.763 467.861C378.022 468.071 378.345 468.186 378.678 468.186C379.012 468.186 379.335 468.071 379.594 467.861C379.852 467.65 380.031 467.357 380.099 467.03L380.606 464.593C380.666 464.307 380.661 464.01 380.592 463.726C380.523 463.441 380.391 463.175 380.206 462.948C380.022 462.721 379.789 462.538 379.524 462.412C379.26 462.286 378.971 462.221 378.678 462.221C378.386 462.221 378.097 462.286 377.832 462.412C377.568 462.538 377.335 462.721 377.15 462.948C376.966 463.175 376.834 463.441 376.765 463.726C376.696 464.01 376.691 464.307 376.75 464.593L377.258 467.03Z" fill="white"/>
<path d="M374.571 470.274C374.888 470.378 375.231 470.37 375.542 470.251C375.854 470.132 376.115 469.91 376.282 469.621C376.449 469.332 376.511 468.994 376.458 468.665C376.405 468.335 376.24 468.034 375.992 467.812L374.136 466.154C373.918 465.959 373.659 465.815 373.378 465.732C373.097 465.65 372.801 465.631 372.512 465.678C372.223 465.724 371.948 465.835 371.707 466.001C371.466 466.167 371.265 466.385 371.119 466.638C370.973 466.892 370.885 467.175 370.861 467.467C370.838 467.759 370.88 468.052 370.985 468.326C371.089 468.6 371.253 468.847 371.465 469.049C371.676 469.251 371.93 469.403 372.208 469.495L374.571 470.274Z" fill="white"/>
<path d="M376.034 474.223C376.283 474.001 376.448 473.7 376.501 473.37C376.553 473.041 376.491 472.703 376.325 472.414C376.158 472.126 375.897 471.903 375.585 471.784C375.274 471.665 374.931 471.657 374.614 471.761L372.251 472.54C371.973 472.632 371.719 472.784 371.507 472.987C371.296 473.189 371.132 473.436 371.027 473.709C370.923 473.983 370.881 474.276 370.904 474.568C370.927 474.86 371.015 475.143 371.162 475.397C371.308 475.651 371.509 475.869 371.75 476.035C371.991 476.201 372.266 476.311 372.555 476.357C372.844 476.404 373.14 476.385 373.421 476.303C373.702 476.221 373.961 476.077 374.179 475.882L376.034 474.223Z" fill="white"/>
<path d="M389.851 487.252H387.622V486.338H389.851C390.689 486.338 391.51 486.093 392.211 485.634C395.8 483.29 396.044 480.169 395.616 477.964C395.481 477.271 395.11 476.646 394.566 476.196C394.022 475.746 393.338 475.5 392.633 475.498L392.606 474.585H392.633C393.55 474.586 394.439 474.907 395.146 475.492C395.854 476.076 396.337 476.889 396.512 477.79C396.993 480.27 396.724 483.778 392.71 486.399C391.86 486.955 390.867 487.252 389.851 487.252Z" fill="#D7E3EE"/>
<path d="M389.767 481.518L389.734 480.606C390.751 480.516 391.697 480.045 392.383 479.288C393.205 478.327 393.517 476.915 393.31 475.093L394.217 474.989C394.455 477.081 394.068 478.731 393.067 479.894C392.218 480.841 391.036 481.423 389.767 481.518Z" fill="#D7E3EE"/>
<path d="M381.491 503.856H370.782L367.095 497.686H381.491V503.856Z" fill="#1E4785"/>
<path d="M319.591 562.846C319.064 561.681 318.203 560.698 317.118 560.021C316.032 559.345 314.771 559.006 313.493 559.047C312.215 559.088 310.978 559.508 309.938 560.252C308.898 560.997 308.103 562.033 307.652 563.231C307.201 564.428 307.114 565.732 307.404 566.978C307.694 568.224 308.346 569.356 309.279 570.231C310.211 571.107 311.382 571.685 312.644 571.894C313.905 572.104 315.2 571.934 316.365 571.406C317.927 570.699 319.145 569.4 319.75 567.795C320.355 566.19 320.297 564.41 319.591 562.846Z" fill="#0C2147"/>
<path d="M315.507 564.694C315.346 564.337 315.082 564.035 314.749 563.828C314.416 563.62 314.029 563.516 313.637 563.529C313.245 563.541 312.865 563.67 312.546 563.899C312.227 564.127 311.983 564.445 311.845 564.812C311.706 565.18 311.68 565.58 311.769 565.962C311.857 566.344 312.058 566.692 312.344 566.96C312.63 567.229 312.989 567.406 313.376 567.47C313.763 567.534 314.161 567.482 314.518 567.321C314.755 567.213 314.969 567.06 315.147 566.87C315.325 566.68 315.464 566.456 315.556 566.213C315.648 565.969 315.691 565.709 315.683 565.449C315.674 565.188 315.615 564.932 315.507 564.694Z" fill="#19593C"/>
<path d="M318.076 567.164C317.751 568.03 317.176 568.78 316.425 569.319C315.674 569.858 314.779 570.162 313.856 570.192C312.932 570.223 312.02 569.979 311.234 569.49C310.449 569.002 309.826 568.292 309.445 567.45C309.063 566.607 308.939 565.67 309.09 564.758C309.24 563.845 309.657 562.998 310.289 562.322C310.921 561.647 311.738 561.174 312.638 560.964C313.539 560.754 314.481 560.815 315.346 561.141C315.91 561.351 316.427 561.669 316.868 562.077L324.982 554.871L325.503 548.928L326.79 547.819L326.115 555.443L317.621 562.987C318.02 563.598 318.269 564.295 318.348 565.021C318.427 565.747 318.334 566.481 318.076 567.164Z" fill="#0C2147"/>
<path d="M341.674 648.853C340.69 656.722 338.436 667.11 335.182 679.186C335.004 679.822 334.835 680.458 334.656 681.111C329.504 699.877 322.021 722.501 313.165 746.025V755.531H309.334L309.326 752.817C309.326 752.817 306.385 755.514 302.775 755.531H287.681C287.681 755.531 287.334 751.944 293.563 751.596C293.563 751.596 299.682 751.571 303.622 749.688C304.268 749.303 304.811 748.767 305.207 748.128C305.215 748.119 305.215 748.102 305.224 748.094C305.232 748.094 305.232 748.085 305.241 748.068C305.554 747.611 306.69 746.584 307.275 745.66L327.546 623.133L341.674 648.853Z" fill="#112441"/>
<path d="M457.639 633.497C457.639 633.497 475.043 624.155 485.805 632.738L471.11 603.144L457.639 633.497Z" fill="#27426A"/>
<path d="M377.97 512.043C377.97 512.043 369.602 540.279 388.081 567.752C395.522 575.073 403.184 580.879 410.174 588.645C414.936 593.937 424.626 602.013 426.493 608.927L427.123 611.258H475.429L448.626 545.983L428.745 505.721C426.991 502.168 424.266 499.184 420.888 497.114C417.509 495.045 413.614 493.975 409.653 494.027L394.072 494.235L384.931 503.831L377.97 512.043Z" fill="url(#paint2_linear)"/>
<path d="M389.835 491.691L388.14 488.723L370.343 508.366L377.083 519.493L389.835 491.691Z" fill="white"/>
<path d="M370.343 508.366L371.755 516.282L376.589 518.573L370.343 508.366Z" fill="#24BF79"/>
<g style="mix-blend-mode:multiply" opacity="0.7">
<path d="M475.904 614.534C475.884 614.496 475.861 614.459 475.84 614.421C475.843 614.459 475.845 614.496 475.847 614.534H475.904Z" fill="#DEF2F9"/>
</g>
<g style="mix-blend-mode:multiply" opacity="0.7">
<path d="M429.437 582.31C441.632 588.609 458.567 597.468 464.322 611.258H473.984C468.582 602.664 461.115 595.597 454.698 590.522C448.346 585.516 441.17 581.657 433.493 579.119C426.989 577.004 420.642 574.432 414.5 571.422C418.831 575.867 423.881 579.549 429.437 582.31Z" fill="#DEF2F9"/>
</g>
<path d="M373.905 515.231C373.905 515.231 374.024 514.952 374.045 515.888C373.552 519.539 373.457 523.233 373.76 526.904C374.128 529.292 374.605 531.974 375.31 534.874C375.974 537.776 376.866 540.894 377.883 544.173C378.899 547.453 380.111 550.892 381.392 554.449C382.715 558.017 384.081 561.705 385.47 565.452C385.818 566.396 386.167 567.344 386.517 568.295L387.039 569.729L387.3 570.448L387.43 570.808L387.463 570.898L387.517 571.074L387.577 571.253C388.214 573.174 388.854 575.099 389.494 577.03C390.069 579.067 390.643 581.101 391.215 583.133C391.697 585.149 392.177 587.155 392.654 589.15C393.05 591.156 393.443 593.143 393.832 595.112C394.148 597.089 394.46 599.038 394.768 600.962C395.288 604.81 395.728 608.545 395.992 612.092C396.168 613.867 396.242 615.592 396.331 617.263C396.375 618.099 396.418 618.921 396.46 619.729C396.49 620.527 396.519 621.31 396.548 622.077C396.579 622.807 396.59 623.59 396.599 624.361C396.607 625.127 396.628 625.87 396.61 626.61C396.6 627.348 396.59 628.066 396.58 628.765C396.545 629.481 396.51 630.175 396.476 630.848C396.434 632.184 396.242 633.505 396.134 634.695C395.975 635.905 395.765 637.038 395.599 638.054C395.372 639.084 395.139 640.012 394.944 640.817C394.768 641.62 394.479 642.32 394.31 642.879C393.929 644.003 393.726 644.603 393.726 644.603L380.003 649.21L375.762 637.604L376.242 636.655C376.455 636.277 376.646 635.886 376.813 635.485C377.013 634.991 377.244 634.424 377.502 633.788C377.71 633.102 377.973 632.363 378.219 631.514C378.422 630.63 378.716 629.728 378.904 628.649C379.01 628.118 379.12 627.57 379.233 627.006C379.326 626.42 379.423 625.819 379.522 625.2C379.629 624.586 379.703 623.934 379.793 623.274C379.882 622.619 379.972 621.942 380.051 621.18C380.129 620.455 380.208 619.715 380.289 618.961C380.357 618.214 380.427 617.454 380.498 616.68C380.64 615.132 380.806 613.528 380.878 611.878C381.11 608.576 381.202 605.087 381.237 601.468C381.21 599.658 381.182 597.821 381.154 595.956C381.057 594.092 380.959 592.209 380.86 590.305C380.684 588.406 380.508 586.494 380.33 584.569C380.08 582.682 379.829 580.79 379.577 578.892C379.219 576.918 378.86 574.946 378.503 572.976L378.469 572.792L378.461 572.746C378.437 572.653 378.483 572.819 378.475 572.785L378.456 572.694L378.379 572.33L378.225 571.602L377.918 570.148C377.709 569.177 377.5 568.21 377.292 567.246C376.446 563.365 375.613 559.545 374.807 555.848C374.032 552.125 373.306 548.513 372.751 545.058C372.196 541.606 371.746 538.33 371.494 535.293C371.202 532.261 371.109 529.472 371.087 527.01C371.09 524.545 371.153 522.408 371.307 520.64C371.406 518.868 371.602 517.52 371.713 516.591C371.827 515.664 371.888 515.169 371.888 515.169L373.905 515.231Z" fill="#24BF79"/>
<g style="mix-blend-mode:multiply" opacity="0.5">
<path d="M332.41 645.776L330.969 642.246L328.587 674.259L328.562 674.632L334.655 681.11C334.833 680.457 335.002 679.821 335.18 679.186L330.307 674.004L332.41 645.776Z" fill="#233166"/>
</g>
<path d="M216.368 651.531H196.895V654.226H216.368V651.531Z" fill="#112441"/>
<path d="M216.368 658.942H196.895V661.637H216.368V658.942Z" fill="#112441"/>
<path d="M216.368 666.353H196.895V669.048H216.368V666.353Z" fill="#112441"/>
<path d="M216.368 673.764H196.895V676.458H216.368V673.764Z" fill="#112441"/>
<path d="M216.368 681.175H196.895V683.87H216.368V681.175Z" fill="#112441"/>
<path d="M216.368 688.586H196.895V691.281H216.368V688.586Z" fill="#112441"/>
<path d="M315.821 571.967C315.821 573.143 315.59 574.307 315.14 575.393C314.69 576.479 314.031 577.466 313.201 578.297C312.37 579.129 311.384 579.788 310.298 580.238C309.213 580.688 308.049 580.92 306.874 580.919H136.643V571.967H315.821Z" fill="white"/>
<path d="M162.09 755.83H151.704V689.336C151.683 676.748 155.575 664.465 162.84 654.187L219.65 573.547L228.139 579.535L171.329 660.175C165.302 668.701 162.073 678.892 162.09 689.336L162.09 755.83Z" fill="white"/>
<path d="M165.421 577.365L163.953 578.834L196.673 611.574L198.141 610.105L165.421 577.365Z" fill="white"/>
<path d="M196.555 612.988C199.587 611.885 201.151 608.531 200.049 605.497C198.946 602.463 195.595 600.898 192.563 602.001C189.53 603.104 187.966 606.458 189.069 609.492C190.171 612.526 193.523 614.092 196.555 612.988Z" fill="#24BF79"/>
<path d="M197.179 607.495C197.179 608.014 197.025 608.521 196.737 608.952C196.449 609.383 196.04 609.719 195.561 609.918C195.082 610.116 194.555 610.168 194.047 610.067C193.538 609.966 193.071 609.716 192.705 609.349C192.338 608.982 192.089 608.515 191.988 608.006C191.886 607.498 191.938 606.97 192.137 606.491C192.335 606.012 192.671 605.602 193.102 605.314C193.533 605.026 194.04 604.872 194.558 604.872C194.902 604.872 195.243 604.94 195.561 605.072C195.879 605.204 196.168 605.397 196.411 605.64C196.655 605.884 196.848 606.173 196.98 606.491C197.111 606.809 197.179 607.151 197.179 607.495Z" fill="white"/>
<path d="M470.536 652.468C470.536 653.758 470.282 655.035 469.789 656.226C469.296 657.418 468.573 658.5 467.662 659.412C466.75 660.324 465.669 661.047 464.478 661.541C463.287 662.034 462.011 662.288 460.722 662.288H385.308C382.705 662.288 380.209 661.254 378.368 659.412C376.527 657.57 375.493 655.073 375.493 652.468C375.493 649.864 376.527 647.366 378.368 645.524C380.209 643.682 382.705 642.648 385.308 642.648H460.722C462.011 642.648 463.287 642.902 464.478 643.395C465.669 643.889 466.75 644.612 467.662 645.524C468.573 646.436 469.296 647.519 469.789 648.71C470.282 649.902 470.536 651.179 470.536 652.468Z" fill="white"/>
<path d="M371.11 752.107H365.601V740.288C365.601 738.86 366.092 737.474 366.991 736.365C367.89 735.255 369.143 734.489 370.54 734.193L422.747 723.163L423.47 733.131L371.86 739.969C371.653 739.996 371.462 740.098 371.324 740.255C371.186 740.413 371.11 740.615 371.11 740.825V752.107Z" fill="white"/>
<path d="M373.663 749.081C373.663 750.103 373.36 751.102 372.793 751.952C372.225 752.802 371.419 753.464 370.475 753.856C369.531 754.247 368.492 754.349 367.49 754.15C366.488 753.95 365.568 753.458 364.846 752.735C364.123 752.012 363.631 751.092 363.432 750.089C363.233 749.086 363.335 748.047 363.726 747.103C364.117 746.158 364.779 745.351 365.628 744.783C366.478 744.215 367.476 743.912 368.498 743.912C369.868 743.912 371.182 744.457 372.15 745.426C373.119 746.395 373.663 747.71 373.663 749.081Z" fill="white"/>
<path d="M474.916 752.107H480.425V740.288C480.425 738.86 479.934 737.474 479.035 736.365C478.136 735.255 476.883 734.488 475.486 734.193L423.279 723.163L422.556 733.131L474.166 739.969C474.374 739.996 474.564 740.098 474.702 740.255C474.84 740.413 474.916 740.615 474.916 740.825V752.107Z" fill="white"/>
<path d="M472.362 749.081C472.362 750.103 472.665 751.102 473.232 751.952C473.8 752.802 474.607 753.464 475.55 753.856C476.494 754.247 477.533 754.349 478.535 754.15C479.537 753.95 480.457 753.458 481.18 752.735C481.902 752.012 482.394 751.091 482.593 750.089C482.793 749.086 482.69 748.047 482.299 747.103C481.908 746.158 481.246 745.351 480.397 744.783C479.547 744.215 478.549 743.912 477.527 743.912C476.157 743.912 474.843 744.457 473.875 745.426C472.906 746.395 472.362 747.71 472.362 749.081Z" fill="white"/>
<path d="M428.179 749.081C428.179 750.103 427.876 751.102 427.309 751.952C426.741 752.802 425.934 753.464 424.991 753.856C424.047 754.247 423.008 754.349 422.006 754.15C421.004 753.95 420.084 753.458 419.361 752.735C418.639 752.012 418.147 751.091 417.948 750.089C417.748 749.086 417.851 748.047 418.242 747.103C418.633 746.158 419.295 745.351 420.144 744.783C420.994 744.215 421.992 743.912 423.014 743.912C423.692 743.912 424.364 744.046 424.991 744.305C425.617 744.565 426.187 744.946 426.666 745.426C427.146 745.906 427.527 746.476 427.786 747.103C428.046 747.73 428.179 748.402 428.179 749.081Z" fill="white"/>
<path d="M205.018 548.803C205.118 549.113 205.156 549.441 205.13 549.766C205.104 550.091 205.014 550.408 204.865 550.698C204.716 550.989 204.512 551.247 204.263 551.458C204.015 551.67 203.727 551.83 203.417 551.93C203.107 552.03 202.78 552.068 202.455 552.042C202.13 552.016 201.813 551.926 201.523 551.777C201.232 551.628 200.974 551.424 200.763 551.175C200.552 550.926 200.392 550.639 200.292 550.328L166.427 445.258C166.224 444.631 166.279 443.949 166.58 443.362C166.88 442.776 167.401 442.333 168.028 442.13C168.654 441.928 169.336 441.983 169.922 442.284C170.508 442.584 170.951 443.105 171.153 443.732L205.018 548.803Z" fill="white"/>
<path d="M194.556 544.579C192.197 545.341 189.632 545.134 187.425 544.004C185.219 542.874 183.551 540.913 182.789 538.553L160.047 468.093C159.285 465.733 159.491 463.166 160.621 460.958C161.75 458.75 163.71 457.081 166.069 456.319L194.556 544.579Z" fill="white"/>
<path d="M168.076 486.289L149.382 572.024H159.508L170.413 491.745L166.518 474.599L168.076 486.289Z" fill="white"/>
<path d="M197.674 572.023H155.612V567.347H193C193.614 567.347 194.222 567.468 194.789 567.703C195.356 567.938 195.871 568.282 196.305 568.716C196.739 569.151 197.083 569.666 197.318 570.234C197.553 570.801 197.674 571.409 197.674 572.023Z" fill="white"/>
<path d="M273.395 570.021C273.357 570.302 273.264 570.572 273.122 570.817C272.979 571.062 272.79 571.277 272.564 571.448C272.339 571.62 272.082 571.746 271.808 571.818C271.534 571.89 271.249 571.908 270.968 571.87L211.118 563.753C210.551 563.676 210.038 563.377 209.692 562.922C209.345 562.466 209.194 561.892 209.27 561.325C209.347 560.757 209.646 560.244 210.101 559.897C210.557 559.55 211.131 559.399 211.698 559.476L271.548 567.592C272.114 567.669 272.628 567.968 272.974 568.424C273.321 568.879 273.472 569.454 273.395 570.021Z" fill="white"/>
<path d="M210.133 574.152L217.452 562.589H212.829L210.133 574.152Z" fill="white"/>
<path d="M449.156 643.485L405.384 640.907L403.478 640.797L350.807 637.702C353.638 642.645 356.265 649.175 358.748 656.832C358.943 657.443 359.147 658.062 359.342 658.689C360.401 662.065 361.426 665.643 362.435 669.4C362.604 669.993 362.765 670.595 362.918 671.206C368.621 692.821 373.621 719.669 378.749 745.159C378.903 745.735 378.983 746.328 378.986 746.923V755.53H375.155L375.147 752.817C375.147 752.817 372.198 755.513 368.587 755.53H353.494C353.494 755.53 353.146 751.943 359.384 751.596C359.384 751.596 365.503 751.57 369.443 749.688C370.086 749.302 370.627 748.766 371.02 748.127C371.028 748.119 371.037 748.102 371.045 748.094C371.052 748.086 371.058 748.077 371.062 748.068C371.376 747.61 372.511 746.584 373.096 745.66L373.121 745.524L325.138 627.958C324.25 625.795 324.015 623.419 324.46 621.123C324.755 619.511 325.381 617.978 326.299 616.62C326.451 616.392 326.604 616.18 326.773 615.968C327.903 614.502 329.354 613.316 331.015 612.5C332.675 611.684 334.5 611.26 336.35 611.261H475.428C476.58 615.866 477.97 643.485 449.156 643.485Z" fill="#163666"/>
<g style="mix-blend-mode:multiply" opacity="0.8">
<path d="M457.319 638.866C455.198 639.607 452.961 639.961 450.715 639.911L350.812 637.7L449.158 643.482C468.107 643.482 473.992 631.54 475.473 622.052C473.276 631.97 462.971 636.883 457.319 638.866Z" fill="#D9DCED"/>
</g>
<path d="M333.656 628.199C337.788 626.423 339.698 621.631 337.922 617.497C336.147 613.363 331.359 611.452 327.227 613.228C323.095 615.004 321.185 619.796 322.961 623.93C324.736 628.064 329.524 629.976 333.656 628.199Z" fill="#39547D"/>
<g style="mix-blend-mode:multiply" opacity="0.5">
<path d="M405.385 640.907L403.478 640.797L398.978 630.579L336.257 622.192C336.146 622.623 335.99 623.041 335.791 623.439C335.229 624.55 334.33 625.455 333.223 626.025L354.901 665.542L362.435 669.4C362.605 669.994 362.766 670.596 362.918 671.206L353.842 666.559L331.927 626.525C330.518 626.889 329.026 626.727 327.729 626.07C326.431 625.413 325.417 624.306 324.876 622.955L324.63 622.175C324.539 621.831 324.482 621.479 324.46 621.124C324.384 620.04 324.604 618.955 325.096 617.986C325.497 617.196 326.071 616.506 326.774 615.968C327.475 615.425 328.289 615.045 329.155 614.854C330.021 614.664 330.918 614.667 331.783 614.865L333.164 615.366C334.12 615.85 334.928 616.582 335.504 617.486C336.08 618.39 336.401 619.433 336.435 620.505L400.148 629.019L405.385 640.907Z" fill="#163666"/>
</g>
<path d="M332.91 621.092C332.835 621.581 332.617 622.037 332.284 622.401C331.95 622.766 331.516 623.023 331.036 623.141C330.556 623.259 330.052 623.231 329.588 623.062C329.123 622.894 328.719 622.591 328.427 622.192C328.135 621.793 327.967 621.317 327.945 620.823C327.924 620.329 328.049 619.84 328.305 619.417C328.561 618.995 328.937 618.657 329.384 618.448C329.832 618.239 330.332 618.167 330.82 618.243C331.144 618.292 331.456 618.406 331.736 618.576C332.017 618.746 332.261 618.97 332.455 619.234C332.649 619.499 332.789 619.799 332.867 620.118C332.945 620.437 332.96 620.768 332.91 621.092Z" fill="#24BF79"/>
<path d="M496.919 606.282C496.663 601.359 494.96 596.621 492.024 592.662C491.483 591.927 490.85 591.264 490.139 590.691L471.613 575.716C468.031 572.546 463.922 569.206 459.215 565.694L456.081 563.161L449.295 539.466L447.463 534.374C437.858 493.67 389.835 491.533 389.835 491.533L379.254 507.44L378.777 508.317C377.804 510.106 377.368 512.138 377.519 514.169C377.671 516.2 378.405 518.144 379.632 519.769L380.258 541.52C380.258 541.52 401.125 568.42 433.493 579.119C441.171 581.657 448.347 585.516 454.698 590.523C466.499 599.855 481.886 615.903 481.362 635.85C481.362 635.85 499.351 624.943 496.919 606.282Z" fill="#163666"/>
<g style="mix-blend-mode:multiply" opacity="0.5">
<path d="M456.682 592.132L456.704 592.151C457.381 592.712 458.064 593.294 458.754 593.897L458.756 593.899C454.63 588.005 448.244 583.388 442.061 579.847C438.755 577.953 435.092 576.722 431.583 575.216C428.815 574.121 426.227 572.617 423.903 570.756C418.924 566.549 416.094 560.664 410.639 556.893C405.936 553.641 399.795 549.983 399.516 543.575C399.003 531.756 405.936 527.901 403.368 521.734L380.409 541.711C382.133 543.873 399.996 565.686 427.44 576.883C427.511 576.911 427.583 576.942 427.654 576.97C428.161 577.176 428.678 577.368 429.191 577.566C429.838 577.814 430.486 578.061 431.121 578.29C431.906 578.573 432.692 578.855 433.492 579.119C441.169 581.657 448.345 585.516 454.697 590.522C455.347 591.037 456.01 591.575 456.679 592.13L456.682 592.132Z" fill="#112441"/>
</g>
<path d="M453.108 569.856L456.179 563.24L458.081 564.777L453.108 569.856Z" fill="#27426A"/>
<path d="M275.846 559.299L260.734 557.371L243.69 558.974L240.549 561.398C240.421 561.497 240.327 561.632 240.28 561.786C240.232 561.94 240.233 562.105 240.283 562.258C240.333 562.412 240.428 562.546 240.557 562.643C240.686 562.739 240.842 562.794 241.003 562.799C241.678 562.805 242.346 562.67 242.966 562.402C243.585 562.133 244.141 561.738 244.598 561.241L251.068 560.944C251.068 560.944 256.869 565.679 261.554 563.349L263.702 562.002L275.337 564.005L275.846 559.299Z" fill="white"/>
<path d="M251.6 559.025L246.506 560.997L244.769 563.256C244.707 563.336 244.667 563.43 244.652 563.53C244.637 563.631 244.648 563.733 244.684 563.827C244.72 563.922 244.78 564.006 244.857 564.071C244.935 564.136 245.027 564.18 245.127 564.199C245.731 564.314 246.593 564.168 247.422 562.941L250.232 561.564L255.178 560.435L251.6 559.025Z" fill="white"/>
<path d="M251.757 559.575L249.635 562.063C249.444 562.287 249.301 562.548 249.217 562.831L248.726 564.463C248.695 564.568 248.689 564.679 248.709 564.787C248.73 564.894 248.776 564.996 248.843 565.082C248.911 565.168 248.998 565.237 249.098 565.283C249.197 565.328 249.306 565.349 249.416 565.344C249.666 565.335 249.911 565.27 250.132 565.154C250.353 565.037 250.545 564.871 250.693 564.67L251.16 563.118L254.868 560.341L251.757 559.575Z" fill="white"/>
<path d="M260.814 563.709L255.109 567.102C254.877 567.24 254.602 567.286 254.338 567.23C254.073 567.174 253.84 567.02 253.684 566.8L253.661 566.768C253.579 566.652 253.521 566.52 253.49 566.382C253.459 566.243 253.455 566.1 253.48 565.96C253.505 565.82 253.557 565.686 253.634 565.566C253.71 565.447 253.81 565.344 253.927 565.263L259.019 561.739L260.814 563.709Z" fill="white"/>
<path d="M269.959 561.174C269.781 561.767 269.431 562.294 268.954 562.688C268.476 563.083 267.892 563.326 267.276 563.389C266.66 563.451 266.04 563.329 265.493 563.038C264.946 562.748 264.498 562.301 264.204 561.756C263.911 561.21 263.786 560.59 263.845 559.973C263.904 559.356 264.145 558.771 264.536 558.291C264.928 557.811 265.453 557.458 266.045 557.277C266.637 557.095 267.269 557.094 267.862 557.272C268.256 557.39 268.623 557.585 268.941 557.845C269.26 558.106 269.524 558.426 269.719 558.788C269.913 559.151 270.035 559.548 270.076 559.957C270.117 560.366 270.078 560.78 269.959 561.174Z" fill="#24BF79"/>
<path d="M267.983 560.579C267.922 560.781 267.803 560.961 267.64 561.095C267.478 561.23 267.279 561.313 267.069 561.334C266.859 561.355 266.647 561.314 266.461 561.215C266.274 561.116 266.121 560.964 266.021 560.778C265.921 560.592 265.879 560.38 265.899 560.17C265.919 559.96 266.001 559.76 266.135 559.597C266.268 559.433 266.447 559.313 266.649 559.251C266.851 559.189 267.066 559.188 267.268 559.249C267.539 559.331 267.767 559.517 267.901 559.766C268.035 560.015 268.065 560.308 267.983 560.579Z" fill="white"/>
<path d="M338.144 562.589L378.716 508.373L383.371 501.387C384.472 499.733 385.953 498.367 387.69 497.403C389.427 496.438 391.369 495.903 393.354 495.842C396.289 495.751 399.169 496.644 401.539 498.379C403.908 500.113 405.631 502.59 406.433 505.416C407.515 509.225 407.498 513.263 406.384 517.063C405.27 520.863 403.106 524.27 400.14 526.891L344.05 576.465L271.121 564.645L272.405 557.707L338.144 562.589Z" fill="#163666"/>
<path d="M401.572 520.338C405.851 515.88 405.708 508.795 401.252 504.513C396.797 500.232 389.717 500.375 385.438 504.833C381.159 509.291 381.302 516.376 385.757 520.657C390.212 524.939 397.293 524.796 401.572 520.338Z" fill="#39547D"/>
<g style="mix-blend-mode:multiply" opacity="0.5">
<path d="M374.546 549.657L374.43 542.212L389.03 519.506C387.977 518.825 387.094 517.913 386.446 516.839C385.799 515.765 385.406 514.557 385.296 513.307C385.186 512.058 385.362 510.8 385.812 509.629C386.262 508.458 386.973 507.406 387.891 506.552C388.809 505.698 389.909 505.064 391.109 504.701C392.308 504.337 393.575 504.252 394.813 504.452C396.05 504.652 397.225 505.133 398.249 505.856C399.273 506.58 400.118 507.528 400.72 508.628C401.376 509.799 401.726 511.116 401.738 512.458C401.76 513.838 401.435 515.201 400.794 516.422C400.152 517.643 399.214 518.684 398.066 519.447C396.918 520.211 395.596 520.674 394.222 520.794C392.849 520.913 391.467 520.685 390.204 520.131L375.77 542.578L375.862 548.483L374.546 549.657Z" fill="#163666"/>
</g>
<path d="M396.935 512.531C396.946 513.21 396.755 513.877 396.387 514.448C396.018 515.018 395.489 515.467 394.867 515.736C394.244 516.006 393.555 516.085 392.887 515.963C392.22 515.841 391.603 515.523 391.116 515.051C390.628 514.578 390.292 513.972 390.149 513.308C390.006 512.644 390.063 511.952 390.313 511.321C390.563 510.69 390.994 510.146 391.553 509.76C392.111 509.374 392.771 509.162 393.45 509.152C393.901 509.145 394.348 509.227 394.767 509.393C395.186 509.559 395.568 509.806 395.892 510.119C396.216 510.433 396.474 510.808 396.653 511.221C396.832 511.635 396.928 512.08 396.935 512.531Z" fill="#24BF79"/>
<path d="M389.835 491.533C389.835 491.533 428.96 481.843 443.521 523.311L389.835 491.533Z" fill="#163666"/>
<defs>
<filter id="filter0_f" x="57" y="-57" width="754" height="754" filterUnits="userSpaceOnUse" color-interpolation-filters="sRGB">
<feFlood flood-opacity="0" result="BackgroundImageFix"/>
<feBlend mode="normal" in="SourceGraphic" in2="BackgroundImageFix" result="shape"/>
<feGaussianBlur stdDeviation="75" result="effect1_foregroundBlur"/>
</filter>
<filter id="filter1_f" x="351.067" y="427.159" width="67.018" height="59.82" filterUnits="userSpaceOnUse" color-interpolation-filters="sRGB">
<feFlood flood-opacity="0" result="BackgroundImageFix"/>
<feBlend mode="normal" in="SourceGraphic" in2="BackgroundImageFix" result="shape"/>
<feGaussianBlur stdDeviation="7.5" result="effect1_foregroundBlur"/>
</filter>
<radialGradient id="paint0_angular" cx="0" cy="0" r="1" gradientUnits="userSpaceOnUse" gradientTransform="translate(434 320) scale(227)">
<stop stop-color="#1B3660"/>
</radialGradient>
<linearGradient id="paint1_linear" x1="188.672" y1="499.789" x2="243.71" y2="480.228" gradientUnits="userSpaceOnUse">
<stop stop-color="#079488"/>
<stop offset="1" stop-color="#12253F" stop-opacity="0"/>
</linearGradient>
<linearGradient id="paint2_linear" x1="425.754" y1="500.258" x2="425.754" y2="598.995" gradientUnits="userSpaceOnUse">
<stop stop-color="white"/>
<stop offset="0.46642" stop-color="#F5FAF6"/>
<stop offset="1" stop-color="#F0F8F1"/>
</linearGradient>
</defs>
</svg>
