<svg width="703" height="538" viewBox="0 0 703 538" fill="none" xmlns="http://www.w3.org/2000/svg">
<path d="M11.3595 379.867L11.427 378.444L12.8322 378.177C22.1898 376.409 33.8281 373.443 37.1769 372.579C45.6529 370.373 61.4293 366.044 71.8017 361.763L72.4992 361.485L73.1842 361.763C83.5565 366.044 99.3386 370.373 107.817 372.579C111.169 373.443 122.8 376.409 132.17 378.187L133.564 378.444L133.645 379.871C133.858 384.098 134.311 388.66 134.789 393.488C138.181 427.579 142.819 474.277 73.4833 519.023L72.4992 519.652L71.5165 519.023C2.17943 474.281 6.81796 427.586 10.2099 393.488C10.6912 388.66 11.1417 384.098 11.3595 379.867Z" fill="#196E57"/>
<path d="M72.4974 361.972C82.8708 366.223 98.4683 370.501 106.881 372.689C110.233 373.552 121.865 376.519 131.233 378.299L132.629 378.555L132.708 379.98C132.921 384.208 133.375 388.77 133.854 393.598C137.246 427.691 141.882 474.387 72.5465 519.135L72.4974 519.163V361.972Z" fill="#24BF79"/>
<path d="M72.1443 529.19L72.4991 529.413L72.8599 529.19C152.118 480.787 146.853 427.685 143.354 392.544C142.543 384.364 141.84 377.271 142.244 371.248L142.292 370.523H141.561C134.154 370.523 87.3399 359.188 72.8178 351.873L72.4991 351.73L72.1977 351.873C57.6561 359.188 10.8414 370.523 3.4461 370.523H2.71641L2.75844 371.248C3.16557 377.271 2.46237 384.364 1.64101 392.544C-1.84592 427.685 -7.11083 480.787 72.1443 529.19ZM10.6095 393.782C11.0867 388.988 11.5378 384.452 11.751 380.25L11.8199 378.839L13.2138 378.573C22.5143 376.815 34.0783 373.867 37.4066 373.009C45.8286 370.818 61.5032 366.517 71.8066 362.261L72.4991 361.987L73.1829 362.261C83.4869 366.517 99.1684 370.818 107.591 373.009C110.922 373.867 122.48 376.815 131.789 378.584L133.176 378.839L133.255 380.256C133.467 384.452 133.92 388.988 134.391 393.782C137.765 427.661 142.369 474.057 73.4774 518.517L72.4991 519.142L71.5261 518.517C2.62825 474.061 7.23935 427.663 10.6095 393.782Z" fill="#112441"/>
<path d="M98.4107 413.638L62.1865 449.865L46.5844 434.267C45.9066 433.59 44.9878 433.21 44.0299 433.21C43.072 433.211 42.1533 433.591 41.4758 434.268C40.7983 434.946 40.4174 435.864 40.4169 436.822C40.4163 437.78 40.7961 438.699 41.4728 439.377L59.5884 457.495C60.2838 458.171 61.2156 458.549 62.1855 458.549C63.1553 458.548 64.0867 458.169 64.7814 457.492L103.523 418.749C104.201 418.071 104.582 417.152 104.581 416.193C104.581 415.234 104.2 414.315 103.523 413.637C102.845 412.959 101.925 412.579 100.967 412.579C100.008 412.579 99.0886 412.96 98.4107 413.638Z" fill="white"/>
<path d="M118.959 184.094H620.975C623.619 184.094 626.155 185.145 628.025 187.015C629.895 188.884 630.945 191.421 630.945 194.065V496.245C630.945 498.889 629.895 501.425 628.025 503.295C626.155 505.164 623.62 506.215 620.975 506.215H118.959C116.315 506.215 113.779 505.164 111.909 503.294C110.039 501.425 108.989 498.888 108.989 496.244V194.064C108.989 191.42 110.039 188.884 111.909 187.014C113.779 185.145 116.315 184.094 118.959 184.094Z" fill="#163666"/>
<path d="M604.719 200.773H135.212C130.062 200.773 125.887 204.858 125.887 209.896V486.416C125.887 491.454 130.062 495.539 135.212 495.539H604.719C609.868 495.539 614.044 491.454 614.044 486.416V209.896C614.044 204.858 609.868 200.773 604.719 200.773Z" fill="white"/>
<path d="M614.044 486.416C614.044 491.454 609.868 495.539 604.719 495.539H135.212C130.061 495.539 125.887 491.454 125.887 486.416V209.896C125.887 204.858 130.061 200.773 135.212 200.773H604.719C609.868 200.773 614.044 204.858 614.044 209.896V486.416Z" fill="url(#paint0_linear)"/>
<path d="M610.595 200H129.705C125.256 200 121.65 203.161 121.65 207.061V488.939C121.65 492.839 125.256 496 129.705 496H610.595C615.044 496 618.65 492.839 618.65 488.939V207.061C618.65 203.161 615.044 200 610.595 200Z" fill="#112441"/>
<path opacity="0.3" d="M618.65 207.079C618.648 205.202 617.798 203.403 616.288 202.076C614.778 200.749 612.731 200.002 610.596 200H129.705C127.57 200.002 125.522 200.749 124.012 202.076C122.502 203.403 121.653 205.202 121.65 207.079V318.758C281.731 370.517 457.178 372.401 618.65 324.096V207.079Z" fill="#163666"/>
<path d="M646.66 525.818C646.66 527.807 642.291 529.42 636.9 529.42H103.039C97.6483 529.42 93.2791 527.807 93.2791 525.818V514.258C93.2791 512.27 97.6483 510.658 103.039 510.658H636.9C642.291 510.658 646.66 512.27 646.66 514.258V525.818Z" fill="#112441"/>
<path d="M651.436 518.15C651.436 522.482 647.142 525.994 641.843 525.994H98.0849C92.7866 525.994 88.4919 522.482 88.4919 518.15V515.075C88.4919 510.743 92.7866 507.231 98.0849 507.231H641.843C647.142 507.231 651.436 510.743 651.436 515.075V518.15Z" fill="#163666"/>
<path d="M121.672 512.635C121.672 513.044 121.551 513.444 121.324 513.784C121.097 514.124 120.774 514.389 120.396 514.546C120.018 514.702 119.602 514.743 119.201 514.663C118.8 514.584 118.432 514.387 118.142 514.098C117.853 513.808 117.656 513.44 117.576 513.039C117.497 512.638 117.537 512.222 117.694 511.844C117.85 511.466 118.115 511.143 118.456 510.916C118.796 510.689 119.195 510.567 119.604 510.567C119.876 510.567 120.145 510.621 120.396 510.725C120.647 510.828 120.875 510.981 121.067 511.173C121.259 511.365 121.411 511.593 121.515 511.844C121.619 512.095 121.672 512.364 121.672 512.635Z" fill="#24BF79"/>
<path d="M130.43 512.635C130.43 513.044 130.309 513.444 130.082 513.784C129.855 514.125 129.532 514.39 129.154 514.547C128.776 514.703 128.36 514.744 127.959 514.665C127.557 514.585 127.189 514.388 126.899 514.099C126.61 513.809 126.413 513.441 126.333 513.04C126.253 512.638 126.294 512.222 126.451 511.844C126.607 511.466 126.872 511.143 127.213 510.916C127.553 510.689 127.953 510.567 128.362 510.567C128.633 510.567 128.902 510.621 129.153 510.725C129.404 510.828 129.632 510.981 129.824 511.173C130.016 511.365 130.169 511.593 130.273 511.844C130.377 512.095 130.43 512.364 130.43 512.635Z" fill="#24BF79"/>
<path d="M139.185 512.635C139.185 513.044 139.063 513.444 138.836 513.784C138.609 514.124 138.286 514.389 137.908 514.546C137.531 514.703 137.115 514.744 136.714 514.664C136.312 514.584 135.944 514.387 135.654 514.098C135.365 513.809 135.168 513.441 135.088 513.04C135.008 512.638 135.049 512.223 135.205 511.845C135.362 511.467 135.627 511.144 135.967 510.916C136.307 510.689 136.707 510.568 137.116 510.567C137.387 510.567 137.656 510.621 137.907 510.724C138.158 510.828 138.386 510.981 138.578 511.173C138.771 511.365 138.923 511.593 139.027 511.844C139.131 512.094 139.185 512.363 139.185 512.635Z" fill="#24BF79"/>
<path d="M433.98 507.231H305.952V511.006H433.98V507.231Z" fill="#112441"/>
<path d="M481.273 250.029H334.453C325.633 238.482 314.989 226.578 308.593 226.578H254.589C252.535 226.584 250.567 227.402 249.115 228.854C247.663 230.306 246.844 232.274 246.838 234.328V407.12C246.845 409.174 247.663 411.142 249.115 412.594C250.567 414.045 252.535 414.864 254.589 414.869H481.273C483.326 414.864 485.294 414.046 486.747 412.594C488.199 411.142 489.018 409.174 489.024 407.12V257.779C489.017 255.725 488.199 253.757 486.746 252.305C485.294 250.853 483.326 250.035 481.273 250.029Z" fill="#163666"/>
<path d="M475.744 257.595H253.759V398.66H475.744V257.595Z" fill="url(#paint1_linear)"/>
<path d="M479.51 260.525H257.525V401.588H479.51V260.525Z" fill="url(#paint2_linear)"/>
<path d="M482.85 263.455H260.865V404.519H482.85V263.455Z" fill="white"/>
<path d="M239.506 272.967H406.878C417.407 263.025 430.25 252.776 437.67 252.778H500.334C505.281 252.778 508.944 255.781 508.477 259.449L489.49 408.2C489.022 411.872 485.421 414.871 481.174 414.871L254.999 414.873C250.749 414.873 246.923 411.872 246.494 408.2L231.454 279.637C231.026 275.968 234.647 272.967 239.506 272.967Z" fill="#163666"/>
<path d="M440.917 441.009H299.019C297.133 441.009 295.324 441.759 293.99 443.092C292.656 444.426 291.907 446.235 291.907 448.121C291.907 450.007 292.656 451.816 293.99 453.15C295.324 454.483 297.133 455.233 299.019 455.233H440.917C442.803 455.233 444.612 454.483 445.946 453.15C447.279 451.816 448.029 450.007 448.029 448.121C448.029 446.235 447.279 444.426 445.946 443.092C444.612 441.759 442.803 441.009 440.917 441.009Z" fill="#163666"/>
<path d="M366.443 442.682H299.268C297.897 442.686 296.582 443.233 295.612 444.203C294.642 445.173 294.095 446.488 294.091 447.86V448.387C294.095 449.759 294.642 451.074 295.612 452.044C296.582 453.014 297.897 453.561 299.268 453.565H366.443V442.682Z" fill="#24BF79"/>
<path d="M313.097 149.714C307.703 131.074 304.595 109.923 304.095 109.911L269.518 120.481C267.859 122.153 268.274 123.496 269.552 125.224L313.097 149.714Z" fill="#1FAB6C"/>
<path d="M275.061 149.838C274.114 148.165 273.294 147.28 275.284 144.15L304.513 109.959C395.328 137.759 468.372 163.653 468.436 163.838L468.447 163.882C466.795 164.877 275.061 149.838 275.061 149.838Z" fill="#196E57"/>
<path d="M325.761 156.022C315.506 138.806 306.9 117.812 306.395 118.041L274.373 146.05C273.139 148.633 273.904 149.861 275.636 151.08L325.761 156.022Z" fill="#1FAB6C"/>
<path d="M419.62 18.3931H315.706V148.445H419.62V18.3931Z" fill="white"/>
<path d="M411.432 0H315.706V18.3963H419.62V8.18794L411.432 0Z" fill="#163666"/>
<path d="M411.435 8.18794V0L419.623 8.18794H411.435Z" fill="#112441"/>
<path d="M362.342 7.70557H331.007V12.3315H362.342V7.70557Z" fill="#24BF79"/>
<path d="M404.325 7.70557H372.99V12.3315H404.325V7.70557Z" fill="#24BF79"/>
<path opacity="0.75" d="M402.298 30.3071H332.123V35.195H402.298V30.3071Z" fill="#163666"/>
<path opacity="0.75" d="M397.335 42.2412H357.767V44.6851H397.335V42.2412Z" fill="#163666"/>
<g opacity="0.75">
<path opacity="0.75" d="M385.028 49.3081H357.767V51.7521H385.028V49.3081Z" fill="#163666"/>
<path opacity="0.75" d="M410.079 49.3081H391.197V51.7521H410.079V49.3081Z" fill="#163666"/>
</g>
<path opacity="0.75" d="M397.335 57.1665H357.767V59.6103H397.335V57.1665Z" fill="#163666"/>
<g opacity="0.75">
<path opacity="0.75" d="M368.531 64.2339H357.767V66.6778H368.531V64.2339Z" fill="#163666"/>
<path opacity="0.75" d="M385.247 64.2339H374.482V66.6778H385.247V64.2339Z" fill="#163666"/>
<path opacity="0.75" d="M410.079 64.2339H391.197V66.6778H410.079V64.2339Z" fill="#163666"/>
</g>
<path opacity="0.75" d="M402.298 77.0913H332.123V81.9792H402.298V77.0913Z" fill="#163666"/>
<g opacity="0.75">
<path opacity="0.75" d="M363.904 89.0244H324.336V91.4683H363.904V89.0244Z" fill="#163666"/>
<path opacity="0.75" d="M409.289 89.0244H369.721V91.4683H409.289V89.0244Z" fill="#163666"/>
<path opacity="0.75" d="M351.598 96.0923H324.336V98.5362H351.598V96.0923Z" fill="#163666"/>
<path opacity="0.75" d="M385.028 96.0923H357.767V98.5362H385.028V96.0923Z" fill="#163666"/>
<path opacity="0.75" d="M410.079 96.0923H391.197V98.5362H410.079V96.0923Z" fill="#163666"/>
<path opacity="0.75" d="M363.904 103.95H324.336V106.394H363.904V103.95Z" fill="#163666"/>
<path opacity="0.75" d="M409.289 103.95H369.721V106.394H409.289V103.95Z" fill="#163666"/>
<path opacity="0.75" d="M351.598 111.018H324.336V113.462H351.598V111.018Z" fill="#163666"/>
<path opacity="0.75" d="M368.532 111.018H357.767V113.462H368.532V111.018Z" fill="#163666"/>
<path opacity="0.75" d="M385.247 111.018H374.482V113.462H385.247V111.018Z" fill="#163666"/>
<path opacity="0.75" d="M410.079 111.018H391.197V113.462H410.079V111.018Z" fill="#163666"/>
</g>
<path opacity="0.75" d="M346.441 128.853H324.336V131.153H346.441V128.853Z" fill="url(#paint3_linear)"/>
<path opacity="0.75" d="M409.579 128.853H387.474V131.153H409.579V128.853Z" fill="#163666"/>
<path opacity="0.75" d="M348.775 42.2412H324.336V66.6803H348.775V42.2412Z" fill="#163666"/>
<path d="M303.316 166.499C301.6 165.688 300.427 165.442 300.344 161.746L306.691 117.979C332.797 125.279 466.706 163.148 468.422 163.96L467.756 165.551C466.935 167.315 303.316 166.499 303.316 166.499Z" fill="#24BF79"/>
<path d="M586.138 316.606L585.701 313.587L583.505 298.409L583.466 298.095L582.212 288.739C582.212 288.739 574.704 247.66 587.256 264.315C587.256 264.315 593.522 270.705 594.633 283.132L597.187 318.409C597.271 319.578 597.039 320.749 596.516 321.798C595.993 322.847 595.198 323.737 594.214 324.375L588.257 328.134L582.47 319.883L586.138 316.606Z" fill="#DFF2F8"/>
<path d="M546.213 344.491C546.641 344.293 547.078 344.117 547.524 343.964L547.263 344.033C546.966 344.165 546.632 344.185 546.322 344.091C546.011 343.996 545.744 343.794 545.57 343.52C545.536 343.469 545.514 343.413 545.504 343.353C545.494 343.293 545.497 343.232 545.513 343.173C545.529 343.115 545.558 343.061 545.597 343.015C545.637 342.969 545.686 342.932 545.741 342.906C548.887 341.571 551.303 339.982 554.826 341.293C554.827 341.293 554.829 341.294 554.83 341.293C554.831 341.293 554.833 341.293 554.834 341.292C555.697 341.615 556.928 342.16 557.523 342.427C557.672 342.493 557.84 342.499 557.994 342.445L582.47 319.883L587.848 327.808L560.633 345.625L560.084 345.997C558.699 347.73 557.178 349.755 555.972 350.376C555.231 350.73 554.469 351.038 553.689 351.298C553.273 351.501 552.839 351.665 552.392 351.787L552.382 351.78C551.722 352.03 551.079 352.24 550.707 352.095C550.405 351.947 550.171 351.69 550.054 351.375C549.936 351.06 549.944 350.712 550.076 350.403C549.191 350.629 548.359 350.039 548.384 349.381C548.395 349.112 548.494 348.853 548.665 348.645C548.383 348.83 548.043 348.905 547.71 348.854C547.377 348.804 547.074 348.632 546.86 348.372C546.703 348.152 546.603 347.897 546.569 347.629C546.535 347.361 546.569 347.089 546.667 346.838C546.487 346.847 546.308 346.812 546.145 346.736C545.982 346.661 545.84 346.547 545.731 346.404C545.613 346.254 545.532 346.079 545.493 345.893C545.453 345.707 545.457 345.514 545.504 345.329C545.55 345.145 545.638 344.973 545.761 344.828C545.884 344.683 546.038 344.567 546.213 344.491Z" fill="#F4BA98"/>
<g style="mix-blend-mode:multiply">
<path d="M583.466 298.095L583.505 298.409L585.701 313.587C588.647 311.522 587.883 307.896 587.883 307.896C588.752 301.8 586.138 305.067 590.274 295.044C594.417 285.027 591.365 274.789 591.365 274.789L583.466 298.095Z" fill="#DFF2F8"/>
</g>
<path d="M583.15 317.733C583.266 317.645 583.409 317.6 583.555 317.607C583.7 317.614 583.839 317.671 583.946 317.769C587.274 320.698 589.093 323.182 590.741 327.381C590.797 327.517 590.803 327.67 590.758 327.811C590.713 327.952 590.62 328.073 590.494 328.151L585.474 331.199C585.371 331.259 585.25 331.281 585.132 331.262C585.015 331.243 584.908 331.183 584.83 331.092C581.891 327.812 580.144 325.225 578.688 321.806C578.631 321.679 578.618 321.536 578.652 321.4C578.685 321.265 578.762 321.144 578.871 321.057L583.15 317.733Z" fill="white"/>
<path d="M584.827 469.278L589.044 493.299C589.185 495.717 586.974 498.041 584.971 499.402C583.814 500.175 582.566 500.802 581.255 501.268L579.809 504.771H583.743L596.36 496.874L595.917 493.464L594.56 471.49L584.827 469.278Z" fill="#F4BA98"/>
<path d="M596.361 496.877C596.361 496.877 599.718 501.716 599.496 507.499H569.785C569.471 507.499 569.166 507.395 568.918 507.203C568.669 507.01 568.492 506.741 568.413 506.437C568.335 506.132 568.36 505.811 568.484 505.522C568.608 505.234 568.825 504.995 569.099 504.842C570.099 504.291 571.559 503.984 573.681 504.388C574.336 504.513 575.013 504.418 575.609 504.118L581.256 501.271L582.368 503.051L596.361 496.877Z" fill="#D0DDEB"/>
<path d="M560.05 347.782L573.361 423.356C573.679 425.15 574.015 426.938 574.369 428.721L587.188 492.316H597.806C596.455 478.707 595.865 463.307 594.355 449.12C593.202 438.236 591.503 428.403 588.515 421.498L584.807 360.214C588.53 351.988 587.686 344.352 585.792 338.621C584.593 334.934 582.776 331.477 580.419 328.398L561.937 333.607L560.05 347.782Z" fill="#163666"/>
<path d="M574.994 348.385C574.771 348.349 574.544 348.339 574.319 348.358L577.07 340.492L585.792 338.622C587.685 344.352 588.529 351.989 584.807 360.215L588.514 421.498C591.502 428.403 593.201 438.237 594.354 449.12C592.955 441.578 590.685 434.225 587.591 427.206C586.83 425.489 584.869 422.678 583.167 421.882L579.825 420.325L585.084 420.274C584.76 406.479 583.708 392.71 581.933 379.025C581.467 375.476 579.76 372.207 577.114 369.797C574.469 367.387 571.056 365.99 567.479 365.855L567.476 365.855L567.476 361.071L574.994 348.385Z" fill="#112441"/>
<path d="M551.173 226.018C551.173 226.018 549.297 232.247 553.741 235.972L557.023 229.4L551.173 226.018Z" fill="#24BF79"/>
<path d="M550.898 236.72C550.725 238.44 551.338 239.909 552.266 240.002C553.193 240.095 554.085 238.777 554.258 237.057C554.43 235.338 553.818 233.869 552.89 233.776C551.962 233.683 551.07 235.001 550.898 236.72Z" fill="white"/>
<path d="M551.771 239.953C552.077 238.71 552.457 237.486 552.911 236.289C553.138 233.967 553.953 231.269 555.666 227.344C555.751 227.149 557.803 226.021 557.803 226.021L562.166 228.271L567.832 231.187L570.937 237.976L571.12 238.377L572.784 242.129L572.676 255.475L560.935 255.473L560.936 251.791C560.8 251.724 560.669 251.65 560.526 251.595L556.163 249.926C555.748 249.884 555.362 249.697 555.073 249.397C554.784 249.097 554.611 248.704 554.585 248.288L554.421 245.665C553.769 244.229 553.593 243.679 553.32 241.376C552.491 241.192 551.35 240.968 551.771 239.953Z" fill="#F4BA98"/>
<path d="M557.53 231.559L557.534 245.15C557.544 245.374 557.501 245.598 557.409 245.804C557.317 246.009 557.178 246.19 557.004 246.333C556.83 246.473 556.626 246.57 556.407 246.616C556.189 246.662 555.963 246.656 555.747 246.598C555.247 246.379 554.796 246.062 554.421 245.665C554.421 245.665 553.584 246.406 553.892 247.953C554.039 248.699 553.374 249.389 553.293 250.154C553.241 250.518 553.264 250.89 553.362 251.245C553.459 251.6 553.629 251.932 553.86 252.218C554.865 253.39 556.664 253.408 558.057 253.119C558.853 252.981 559.625 252.73 560.35 252.373C560.571 252.254 560.769 252.098 560.936 251.911C560.964 251.883 560.989 251.852 561.01 251.819C561.18 251.619 561.316 251.392 561.41 251.147C561.785 250.1 561.777 248.954 561.389 247.913C560.574 245.548 559.983 243.111 559.625 240.636L559.075 236.793C559.123 236.594 559.238 236.417 559.402 236.294C559.522 236.208 559.66 236.152 559.806 236.13C559.952 236.109 560.101 236.123 560.24 236.171C562.693 237.065 561.732 241.834 562.817 243.585C563.013 243.901 563.244 244.195 563.507 244.46C564.226 245.193 565.091 245.766 566.046 246.143C566.536 246.353 567.043 246.521 567.562 246.642C568.309 246.827 569.073 246.93 569.842 246.951C570.235 246.969 570.628 246.963 571.02 246.933C571.589 246.905 572.15 246.78 572.677 246.563C574.755 245.626 574.434 243.142 575.593 240.573C576 239.66 577.017 238.656 578.047 237.577C579.567 237.355 580.947 236.566 581.91 235.368C582.872 234.17 583.345 232.652 583.233 231.119C583.122 229.586 582.434 228.153 581.309 227.106C580.184 226.06 578.704 225.478 577.167 225.479C576.836 225.481 576.506 225.512 576.181 225.571C575.969 223.42 574.964 221.425 573.363 219.974C571.761 218.522 569.677 217.718 567.516 217.718C566.416 217.717 565.325 217.928 564.305 218.34C563.465 217.211 562.352 216.314 561.069 215.734C559.786 215.155 558.377 214.912 556.975 215.028C555.572 215.145 554.222 215.617 553.053 216.4C551.884 217.183 550.933 218.251 550.291 219.504C549.649 220.756 549.337 222.152 549.384 223.558C549.432 224.965 549.837 226.336 550.561 227.543C551.285 228.749 552.306 229.751 553.525 230.454C554.744 231.157 556.123 231.537 557.53 231.559Z" fill="#24BF79"/>
<g style="mix-blend-mode:multiply">
<path d="M566.046 246.074L566.045 254.814H572.677L572.678 246.562C574.755 245.625 574.435 243.142 575.594 240.572C576.001 239.659 577.018 238.655 578.047 237.577C578.047 237.577 579.823 232.283 574.639 231.727C573.696 231.627 572.745 231.839 571.934 232.331C570.964 232.921 570.094 233.661 569.357 234.525C567.532 236.645 565.794 240.219 566.046 246.074Z" fill="#F4D3B0"/>
</g>
<path opacity="0.5" d="M569.357 234.525C570.094 233.661 570.964 232.921 571.934 232.331C572.745 231.839 573.696 231.627 574.639 231.727C579.823 232.283 578.047 237.577 578.047 237.577C577.018 238.655 576.001 239.659 575.594 240.572C574.435 243.142 574.755 245.625 572.678 246.562C572.15 246.78 571.59 246.905 571.02 246.932C570.628 246.963 570.235 246.969 569.842 246.95C569.073 246.929 568.309 246.826 567.562 246.641C567.043 246.52 566.536 246.353 566.046 246.142V246.074C565.794 240.219 567.532 236.645 569.357 234.525Z" fill="#196E57"/>
<path d="M551.756 236.128L559.577 236.913C559.64 236.919 559.701 236.937 559.757 236.967C559.813 236.997 559.863 237.038 559.903 237.087C559.943 237.136 559.973 237.192 559.992 237.253C560.01 237.314 560.016 237.378 560.01 237.441C560.003 237.504 559.985 237.565 559.955 237.621C559.925 237.677 559.884 237.726 559.835 237.766C559.785 237.807 559.729 237.837 559.668 237.855C559.607 237.873 559.544 237.879 559.48 237.872L551.659 237.088L551.756 236.128Z" fill="white"/>
<path d="M555.691 468.142L558.224 493.299C558.364 495.717 556.154 498.042 554.15 499.403C552.994 500.176 551.745 500.803 550.434 501.268L548.988 504.772H552.923L565.54 496.874L565.097 493.464L564.011 472.186L555.691 468.142Z" fill="#F4BA98"/>
<path d="M565.54 496.877C565.54 496.877 568.898 501.717 568.675 507.5H538.965C538.651 507.5 538.346 507.395 538.097 507.203C537.849 507.011 537.672 506.741 537.593 506.437C537.515 506.133 537.539 505.811 537.664 505.523C537.788 505.234 538.004 504.995 538.279 504.843C539.278 504.291 540.739 503.985 542.861 504.389C543.515 504.513 544.193 504.419 544.788 504.119L550.435 501.272L551.547 503.051L565.54 496.877Z" fill="#D0DDEB"/>
<path d="M547.874 413.116C550.29 438.732 553.502 466.066 556.218 492.317H567.279C565.91 474.219 566.541 460.502 566.807 449.052C567.055 438.299 566.981 429.639 564.624 421.498L566.648 396.481L567.942 380.468L569.476 361.503L569.491 361.332C571.208 359.627 572.708 357.716 573.956 355.643C575.003 353.896 575.848 352.036 576.475 350.098C578.068 345.209 578.254 339.971 577.012 334.982H544.762C544.671 336.224 544.591 337.493 544.524 338.79C543.497 358.592 545.196 384.733 547.874 413.116Z" fill="#163666"/>
<g style="mix-blend-mode:screen" opacity="0.5">
<path d="M547.874 413.115C549.021 405.978 551.7 388.408 551.352 382.125C550.909 374.162 541.176 365.756 552.236 360.447C563.297 355.141 559.115 340.904 559.115 340.904L544.524 338.789C543.497 358.592 545.196 384.733 547.874 413.115Z" fill="#163666"/>
</g>
<path d="M556.18 420.717C556.18 420.717 564.143 422.634 563.621 430.162C563.294 434.883 566.119 441.517 566.807 449.052C567.054 438.298 566.981 429.639 564.624 421.498L566.647 396.481L566.647 396.481L567.942 380.468L569.49 361.332C571.208 359.627 572.708 357.716 573.956 355.643C575.003 353.896 575.848 352.035 576.475 350.098C575.536 352.146 571.719 359.085 564.666 359.497L560.11 359.612C560.11 359.612 567.83 367.331 563.996 396.531L561.784 420.717H556.18Z" fill="#112441"/>
<path d="M576.631 256.56V257.09C576.628 258.317 555.049 257.921 555.215 256.546C555.215 256.54 555.224 256.533 555.224 256.52C555.73 255.657 556.676 253.893 559.006 253.585C559.032 253.579 559.05 253.579 559.076 253.572H573.472C573.472 253.572 576.3 253.696 576.631 256.56Z" fill="white"/>
<path d="M541.577 339.017C541.335 342.415 543.537 343.356 545.706 343.487C547.36 343.592 549.007 343.182 550.417 342.311C552.175 341.206 555.788 341.095 558.598 341.213C567.987 342.167 574.593 341.827 579.206 340.991C583.303 340.246 585.838 339.109 587.367 338.116C588.05 337.686 588.574 337.045 588.861 336.291C589.147 335.536 589.18 334.709 588.954 333.934C587.282 328.341 582.741 316.9 582.682 315.234C582.411 309.238 583.576 303.263 586.08 297.808C588.556 292.189 591.607 286.687 591.718 280.447C591.842 273.56 590.817 264.583 583.806 260.76C583.799 260.76 576.507 256.781 576.507 256.781L576.246 256.742C573.162 255.416 569.738 255.441 565.413 255.337C565.158 255.324 564.903 255.324 564.655 255.317C563.703 255.228 562.745 255.224 561.793 255.304C554.769 256.049 548.274 258.362 544.661 264.164C543.82 265.531 543.163 267.003 542.707 268.542C539.211 280.205 542.962 290.49 544.889 301.918C545.686 306.69 546.023 311.528 545.896 316.364C545.752 321.271 545.092 326.12 543.733 330.255C543.093 332.196 543.027 333.777 543.367 335.078C542.851 336.045 542.413 336.803 542.119 337.305C541.809 337.827 541.624 338.413 541.577 339.017Z" fill="#DFF2F8"/>
<g style="mix-blend-mode:multiply">
<path d="M541.577 339.017C541.335 342.415 543.537 343.356 545.706 343.486C547.36 343.592 549.007 343.181 550.417 342.31C552.175 341.206 555.788 341.095 558.598 341.213C567.987 342.167 574.593 341.827 579.206 340.99C561.309 338.279 560.669 325.146 560.669 325.146L557.768 297.076C557.57 295.166 557.836 293.236 558.542 291.451C559.249 289.665 560.375 288.076 561.825 286.818C563.014 285.792 564.136 284.692 565.184 283.524C571.11 271.959 563.269 261.178 563.269 261.178L544.661 264.164C543.82 265.531 543.163 267.003 542.707 268.542C539.211 280.205 542.962 290.489 544.889 301.918C545.686 306.69 546.023 311.527 545.896 316.364C545.752 321.271 545.092 326.119 543.733 330.255C543.093 332.196 543.027 333.777 543.367 335.077C542.851 336.044 542.413 336.802 542.119 337.305C541.809 337.827 541.624 338.413 541.577 339.017Z" fill="#DFF2F8"/>
</g>
<path d="M510.05 257.049L538.69 258.254C547.58 254.991 553.543 256.742 557.728 257.569C561.182 258.251 563.495 260.659 564.517 264.031C564.676 264.558 564.787 265.099 564.848 265.646L564.85 265.671C565.267 269.463 563.224 273.142 560.321 275.538C560.174 275.661 560.026 275.775 559.879 275.885C556.302 278.556 552.59 277.996 548.352 277.391C535.175 275.248 527.389 272.702 509.214 269.278C506.553 268.781 504.103 267.496 502.182 265.588L497.06 260.507L503.773 252.558L510.05 257.049Z" fill="#DFF2F8"/>
<g style="mix-blend-mode:screen" opacity="0.3">
<path d="M522.985 258.269C519.178 258.716 519.164 260.502 519.164 260.502C517.988 266.557 532.533 265.842 538.634 264.958C544.734 264.074 542.563 262.597 552.348 269.448C562.132 276.299 564.879 266.627 564.879 266.627C564.877 266.339 564.865 266.019 564.85 265.671L564.848 265.646C564.787 265.099 564.677 264.558 564.517 264.031C563.495 260.66 561.182 258.252 557.728 257.569C553.543 256.742 547.58 254.991 538.69 258.254L522.985 258.269Z" fill="#DFF2F8"/>
</g>
<path d="M503.023 252.019L498.531 248.807L475.484 232.319L475.435 232.373C474.71 231.765 474.176 231.318 474.159 231.304C474.251 231.38 474.393 229.457 474.371 229.235C474.29 228.235 474.081 227.25 473.75 226.303C473.583 225.871 473.006 225.24 472.894 224.601C472.828 224.31 472.74 224.025 472.631 223.748L470.845 225.771C470.839 226.025 470.662 226.074 470.054 225.834C469.085 225.453 467.557 222.992 467.032 222.27C466.509 221.548 465.231 219.635 464.885 219.126C464.539 218.618 464.003 217.734 463.123 218.303C462.242 218.871 463.471 220.35 463.68 220.772C463.89 221.193 464.528 222.134 464.789 222.6C465.051 223.067 466.45 225.084 466.085 225.438C465.719 225.793 464.449 224.327 463.944 223.862C463.44 223.398 462.299 222.447 461.869 222.142C461.438 221.836 460.768 221.249 460.352 220.892C459.936 220.534 459.285 220.275 458.808 220.829C458.731 220.914 458.672 221.014 458.637 221.124C458.601 221.233 458.59 221.349 458.603 221.463C458.616 221.577 458.654 221.687 458.714 221.785C458.773 221.883 458.854 221.968 458.949 222.032C459.16 222.241 460.006 222.975 460.355 223.305C460.704 223.635 461.631 224.554 462.14 225.083C462.65 225.612 463.886 226.767 464.3 227.092C464.713 227.417 464.571 227.897 464.163 227.812C463.755 227.725 461.094 226.684 460.607 226.445C460.119 226.207 459.054 225.622 458.182 225.27C457.308 224.919 456.88 225.137 456.718 225.571C456.641 225.753 456.629 225.957 456.685 226.148C456.74 226.338 456.86 226.504 457.024 226.616C457.331 226.819 458.971 227.54 459.606 227.924C460.477 228.412 461.374 228.855 462.291 229.251C462.91 229.513 463.628 230.009 463.567 230.289C463.507 230.569 462.687 230.436 462.053 230.403C461.419 230.369 459.687 230.175 458.751 230.002C457.815 229.83 457.44 230.231 457.35 230.545C457.26 230.859 457.487 231.296 458.153 231.538C459.156 231.797 460.177 231.981 461.208 232.087C461.862 232.167 463.702 232.515 463.702 232.515C464.343 232.951 464.768 233.144 465.331 233.503C465.976 233.809 466.6 234.157 467.201 234.543C468.589 235.706 470.121 235.188 471.281 234.988L472.31 235.85L472.259 235.906L487.859 251.375L495.56 259.017L497.059 260.505L503.772 252.555L503.023 252.019Z" fill="#F4BA98"/>
<path d="M506.529 253.453C506.641 253.547 506.716 253.676 506.742 253.82C506.768 253.963 506.743 254.111 506.671 254.238C504.561 258.135 502.546 260.464 498.822 263.009C498.701 263.094 498.554 263.134 498.407 263.122C498.259 263.11 498.121 263.045 498.016 262.941L493.923 258.729C493.842 258.642 493.793 258.529 493.785 258.41C493.778 258.291 493.813 258.173 493.883 258.077C496.423 254.48 498.554 252.198 501.561 250.015C501.673 249.931 501.809 249.887 501.949 249.889C502.088 249.891 502.223 249.939 502.333 250.025L506.529 253.453Z" fill="white"/>
<g style="mix-blend-mode:multiply" opacity="0.5">
<path d="M487.859 251.375L495.559 259.017L503.023 252.019L498.53 248.807C497.361 252.002 493.146 253.976 487.859 251.375Z" fill="#F4BA98"/>
</g>
<defs>
<linearGradient id="paint0_linear" x1="369.965" y1="200.773" x2="369.965" y2="495.539" gradientUnits="userSpaceOnUse">
<stop stop-color="#D7EDFA"/>
<stop offset="1" stop-color="#A7CFEE"/>
</linearGradient>
<linearGradient id="paint1_linear" x1="355648" y1="167577" x2="490180" y2="167577" gradientUnits="userSpaceOnUse">
<stop stop-color="#FBD4DA"/>
<stop offset="1" stop-color="#EDB0BA"/>
</linearGradient>
<linearGradient id="paint2_linear" x1="357932" y1="168705" x2="492464" y2="168705" gradientUnits="userSpaceOnUse">
<stop stop-color="#D7EDFA"/>
<stop offset="1" stop-color="#A7CFEE"/>
</linearGradient>
<linearGradient id="paint3_linear" x1="46159.8" y1="1756.06" x2="46159.8" y2="1770.5" gradientUnits="userSpaceOnUse">
<stop stop-color="#FADAE3"/>
<stop offset="1" stop-color="#EEB8C2"/>
</linearGradient>
</defs>
</svg>
