<svg width="160" height="23" viewBox="0 0 160 23" fill="none" xmlns="http://www.w3.org/2000/svg">
<path d="M1.488 18V1.2H9.432C11.88 1.2 13.704 1.8 14.904 3C15.896 3.992 16.392 5.32 16.392 6.984C16.392 9.448 15.24 11.168 12.936 12.144L16.944 18H11.568L8.184 12.912H6.144V18H1.488ZM6.144 9.264H9.216C10 9.264 10.608 9.088 11.04 8.736C11.488 8.368 11.712 7.864 11.712 7.224C11.712 6.568 11.488 6.072 11.04 5.736C10.608 5.4 9.992 5.232 9.192 5.232H6.144V9.264ZM34.362 15.792C32.634 17.488 30.482 18.336 27.906 18.336C25.33 18.336 23.178 17.496 21.45 15.816C19.738 14.12 18.882 12.048 18.882 9.6C18.882 7.168 19.746 5.104 21.474 3.408C23.218 1.712 25.378 0.863999 27.954 0.863999C30.53 0.863999 32.674 1.712 34.386 3.408C36.114 5.088 36.978 7.152 36.978 9.6C36.978 12.032 36.106 14.096 34.362 15.792ZM27.954 14.136C29.218 14.136 30.242 13.696 31.026 12.816C31.826 11.936 32.226 10.864 32.226 9.6C32.226 8.352 31.818 7.288 31.002 6.408C30.186 5.512 29.154 5.064 27.906 5.064C26.658 5.064 25.634 5.504 24.834 6.384C24.05 7.264 23.658 8.336 23.658 9.6C23.658 10.848 24.058 11.92 24.858 12.816C25.674 13.696 26.706 14.136 27.954 14.136ZM40.1233 18V1.2H48.7393C50.7873 1.2 52.3153 1.704 53.3233 2.712C54.0433 3.432 54.4033 4.352 54.4033 5.472C54.4033 7.216 53.5393 8.464 51.8113 9.216C52.8993 9.568 53.7233 10.072 54.2833 10.728C54.8593 11.384 55.1473 12.264 55.1473 13.368C55.1473 14.808 54.5873 15.944 53.4673 16.776C52.3473 17.592 50.7873 18 48.7873 18H40.1233ZM44.6593 14.256H48.2593C49.7473 14.256 50.4913 13.728 50.4913 12.672C50.4913 11.664 49.7313 11.16 48.2113 11.16H44.6593V14.256ZM44.6593 7.896H47.5873C49.0593 7.896 49.7953 7.392 49.7953 6.384C49.7953 5.424 49.0913 4.944 47.6833 4.944H44.6593V7.896Z" fill="white"/>
<path d="M65.4718 18V1.2H70.1518V18H65.4718ZM73.9474 18V1.2H78.2914L85.2034 10.08V1.2H89.8114V18H85.7314L78.5554 8.784V18H73.9474ZM98.9831 18.12L92.1671 1.2H97.3751L101.191 11.832L105.007 1.2H110.119L103.303 18.12H98.9831ZM112.466 18V1.2H125.978V5.16H117.074V7.704H125.138V11.376H117.074V14.04H126.098V18H112.466ZM135.793 18.288C132.625 18.288 130.001 17.36 127.921 15.504L130.513 12.408C132.193 13.752 134.009 14.424 135.961 14.424C137.241 14.424 137.881 14.024 137.881 13.224C137.881 12.872 137.689 12.584 137.305 12.36C136.921 12.12 136.169 11.872 135.049 11.616C134.025 11.376 133.177 11.144 132.505 10.92C131.849 10.68 131.201 10.368 130.561 9.984C129.937 9.584 129.473 9.08 129.169 8.472C128.865 7.864 128.713 7.136 128.713 6.288C128.713 4.704 129.297 3.416 130.465 2.424C131.649 1.416 133.233 0.912 135.217 0.912C137.969 0.912 140.273 1.656 142.129 3.144L139.801 6.432C138.233 5.328 136.665 4.776 135.097 4.776C134.553 4.776 134.137 4.88 133.849 5.088C133.561 5.296 133.417 5.568 133.417 5.904C133.417 6.288 133.609 6.592 133.993 6.816C134.393 7.04 135.169 7.28 136.321 7.536C138.433 8 140.001 8.624 141.025 9.408C142.065 10.176 142.585 11.312 142.585 12.816C142.585 14.512 141.969 15.848 140.737 16.824C139.505 17.8 137.857 18.288 135.793 18.288ZM149.205 18V5.28H144.165V1.2H158.901V5.28H153.861V18H149.205Z" fill="#24BF79"/>
</svg>
