<svg width="13" height="10" viewBox="0 0 13 10" fill="none" xmlns="http://www.w3.org/2000/svg">
<path d="M12.7461 3.47461C12.7969 3.42383 12.8477 3.41536 12.8984 3.44922C12.9661 3.48307 13 3.53385 13 3.60156V8.78125C13 9.11979 12.8815 9.40755 12.6445 9.64453C12.4076 9.88151 12.1198 10 11.7812 10H1.21875C0.880208 10 0.592448 9.88151 0.355469 9.64453C0.11849 9.40755 0 9.11979 0 8.78125V3.60156C0 3.53385 0.0253906 3.49154 0.0761719 3.47461C0.14388 3.44076 0.203125 3.44076 0.253906 3.47461C0.8125 3.89779 2.11589 4.85417 4.16406 6.34375C4.19792 6.3776 4.30794 6.4707 4.49414 6.62305C4.69727 6.77539 4.85807 6.89388 4.97656 6.97852C5.09505 7.04622 5.2474 7.13932 5.43359 7.25781C5.61979 7.35938 5.79753 7.43555 5.9668 7.48633C6.15299 7.53711 6.33073 7.5625 6.5 7.5625C6.65234 7.5625 6.80469 7.54557 6.95703 7.51172C7.10938 7.46094 7.25326 7.41016 7.38867 7.35938C7.52409 7.29167 7.66797 7.20703 7.82031 7.10547C7.97266 7.00391 8.09961 6.91927 8.20117 6.85156C8.30273 6.76693 8.42122 6.67383 8.55664 6.57227C8.69206 6.4707 8.78516 6.39453 8.83594 6.34375C10.8333 4.90495 12.1367 3.94857 12.7461 3.47461ZM6.5 6.75C6.36458 6.75 6.19531 6.70768 5.99219 6.62305C5.80599 6.52148 5.65365 6.43685 5.53516 6.36914C5.41667 6.28451 5.23893 6.15755 5.00195 5.98828C4.7819 5.80208 4.66341 5.70898 4.64648 5.70898C2.58138 4.20247 1.10872 3.11068 0.228516 2.43359C0.0761719 2.3151 0 2.1543 0 1.95117V1.46875C0 1.13021 0.11849 0.842448 0.355469 0.605469C0.592448 0.36849 0.880208 0.25 1.21875 0.25H11.7812C12.1198 0.25 12.4076 0.36849 12.6445 0.605469C12.8815 0.842448 13 1.13021 13 1.46875V1.95117C13 2.1543 12.9238 2.3151 12.7715 2.43359C11.9421 3.07682 10.4694 4.16862 8.35352 5.70898C8.33659 5.70898 8.20964 5.80208 7.97266 5.98828C7.7526 6.15755 7.58333 6.28451 7.46484 6.36914C7.34635 6.43685 7.18555 6.52148 6.98242 6.62305C6.79622 6.70768 6.63542 6.75 6.5 6.75Z" fill="#24BF79"/>
</svg>
