<svg width="20" height="30" viewBox="0 0 20 30" fill="none" xmlns="http://www.w3.org/2000/svg">
<g clip-path="url(#clip0)">
<path d="M9.75 0C1.06528 0 0.375 6.50113 0.375 15C0.375 23.4989 1.06528 30 9.75 30C18.4347 30 19.125 23.4989 19.125 15C19.125 6.50113 18.4347 0 9.75 0ZM9.75 28.125C3.29187 28.125 2.25 24.256 2.25 15C2.25 5.74403 3.29187 1.875 9.75 1.875C16.2081 1.875 17.25 5.74403 17.25 15C17.25 24.256 16.2081 28.125 9.75 28.125Z" fill="#24BF79"/>
<path d="M9.75 20.625C8.71636 20.625 7.875 21.4664 7.875 22.5C7.875 23.5336 8.71636 24.375 9.75 24.375C10.7836 24.375 11.625 23.5336 11.625 22.5C11.625 21.4664 10.7836 20.625 9.75 20.625Z" fill="#24BF79"/>
</g>
<defs>
<clipPath id="clip0">
<rect width="19.5" height="30" fill="white"/>
</clipPath>
</defs>
</svg>
