<svg width="35" height="45" viewBox="0 0 35 45" fill="none" xmlns="http://www.w3.org/2000/svg">
<path d="M34.375 45H4.14062C3.95414 45 3.7753 44.9259 3.64344 44.7941C3.51158 44.6622 3.4375 44.4834 3.4375 44.2969V0.703125C3.4375 0.516645 3.51158 0.337802 3.64344 0.205941C3.7753 0.074079 3.95414 0 4.14062 0L27.1061 0C27.2926 3.98232e-05 27.4714 0.074145 27.6032 0.206016L34.8721 7.47492C35.004 7.60675 35.0781 7.78557 35.0781 7.97203V44.2969C35.0781 44.4834 35.004 44.6622 34.8722 44.7941C34.7403 44.9259 34.5615 45 34.375 45Z" fill="url(#paint0_linear)"/>
<path d="M-0.078125 23.1653L2.73438 21.9229L4.6975 24.9357H-0.078125V23.1653Z" fill="#24BF79"/>
<path d="M33.6719 45H3.4375C3.25102 45 3.07218 44.9259 2.94032 44.7941C2.80845 44.6622 2.73438 44.4834 2.73438 44.2969V0.703125C2.73438 0.516645 2.80845 0.337802 2.94032 0.205941C3.07218 0.074079 3.25102 0 3.4375 0L26.6941 0L34.375 7.68094V44.2969C34.375 44.4834 34.3009 44.6622 34.1691 44.7941C34.0372 44.9259 33.8584 45 33.6719 45Z" fill="url(#paint1_linear)"/>
<path d="M26.6941 0V6.97781C26.6941 7.16429 26.7681 7.34314 26.9 7.475C27.0319 7.60686 27.2107 7.68094 27.3972 7.68094H34.375L30.9297 3.5325L26.6941 0Z" fill="url(#paint2_linear)"/>
<path d="M27.3592 36.914H1.16641C1.00295 36.9141 0.841071 36.8819 0.690036 36.8194C0.539 36.7569 0.401768 36.6653 0.286184 36.5497C0.1706 36.4341 0.0789322 36.2969 0.0164214 36.1458C-0.0460894 35.9948 -0.0782172 35.8329 -0.0781248 35.6695V24.4082H27.3592C27.6892 24.4084 28.0057 24.5396 28.239 24.7729C28.4724 25.0063 28.6036 25.3227 28.6037 25.6527V35.6695C28.6037 35.9995 28.4726 36.3161 28.2392 36.5495C28.0058 36.7829 27.6893 36.914 27.3592 36.914Z" fill="#24BF79"/>
<path d="M2.73438 21.9229H1.165C1.00178 21.9228 0.840149 21.9548 0.689331 22.0172C0.538512 22.0796 0.401465 22.1711 0.286021 22.2865C0.170577 22.4019 0.0789979 22.5389 0.0165163 22.6897C-0.0459652 22.8404 -0.0781248 23.0021 -0.0781248 23.1653C-0.0782172 23.3285 -0.046126 23.4902 0.0163141 23.6411C0.0787543 23.792 0.170319 23.929 0.285772 24.0445C0.401225 24.16 0.538303 24.2515 0.689168 24.314C0.840032 24.3764 1.00172 24.4085 1.165 24.4084H2.73438V21.9229Z" fill="#24BF79"/>
<path d="M5.54688 33.0713V28.252C5.54678 28.1718 5.5625 28.0924 5.59313 28.0183C5.62376 27.9441 5.6687 27.8768 5.72538 27.82C5.78207 27.7633 5.84938 27.7183 5.92347 27.6876C5.99756 27.6568 6.07698 27.641 6.15719 27.641C7.09027 27.6052 8.02472 27.6355 8.95352 27.7317C9.32934 27.8408 9.656 28.0762 9.87828 28.3983C10.1006 28.7204 10.2048 29.1093 10.1734 29.4994C10.2012 29.9129 10.0809 30.3227 9.83403 30.6556C9.5872 30.9885 9.22996 31.2227 8.82625 31.3163C8.20785 31.3903 7.58487 31.4192 6.96227 31.4027C6.91024 31.4027 6.86034 31.4234 6.82355 31.4602C6.78676 31.497 6.76609 31.5469 6.76609 31.5989V33.0713C6.76609 33.1513 6.75033 33.2306 6.71969 33.3046C6.68905 33.3785 6.64415 33.4457 6.58754 33.5023C6.53094 33.5589 6.46373 33.6038 6.38977 33.6345C6.31581 33.6651 6.23654 33.6809 6.15648 33.6809C5.99481 33.6809 5.83975 33.6166 5.72543 33.5023C5.6111 33.388 5.54688 33.2329 5.54688 33.0713ZM6.76609 28.8595V30.1807C6.76609 30.2327 6.78676 30.2826 6.82355 30.3194C6.86034 30.3562 6.91024 30.3769 6.96227 30.3769C7.44272 30.41 7.92544 30.3781 8.39735 30.282C8.56423 30.2156 8.70486 30.0965 8.79784 29.9429C8.89082 29.7892 8.93106 29.6094 8.91243 29.4308C8.89381 29.2521 8.81733 29.0845 8.69465 28.9533C8.57197 28.8222 8.4098 28.7347 8.23281 28.7042C7.81034 28.6678 7.38622 28.6539 6.96227 28.6627C6.9365 28.6628 6.91101 28.6679 6.88725 28.6779C6.86348 28.6878 6.84191 28.7023 6.82376 28.7206C6.80561 28.7389 6.79123 28.7606 6.78146 28.7844C6.77169 28.8083 6.76671 28.8338 6.7668 28.8595H6.76609Z" fill="white"/>
<path d="M11.1719 28.2521C11.1718 28.1719 11.1875 28.0924 11.2181 28.0183C11.2488 27.9442 11.2937 27.8768 11.3504 27.8201C11.4071 27.7633 11.4744 27.7183 11.5485 27.6876C11.6226 27.6569 11.702 27.6411 11.7822 27.6411C12.7062 27.5859 13.6335 27.6245 14.5497 27.7564C14.9043 27.871 15.2254 28.0709 15.4847 28.3385C15.7441 28.6061 15.9339 28.9333 16.0375 29.2913C16.1802 29.7532 16.2469 30.2353 16.2351 30.7186C16.2443 31.1544 16.1816 31.5886 16.0495 32.0039C15.9525 32.3691 15.7633 32.7033 15.4999 32.9742C15.2365 33.2451 14.9078 33.4437 14.5455 33.5508C13.6305 33.6803 12.7053 33.7232 11.7822 33.6788C11.6207 33.6788 11.4658 33.6148 11.3514 33.5008C11.237 33.3868 11.1724 33.2321 11.1719 33.0706V28.2521ZM12.3911 28.8596V32.4673C12.3911 32.5193 12.4118 32.5692 12.4486 32.606C12.4853 32.6428 12.5352 32.6635 12.5873 32.6635C13.072 32.6902 13.5582 32.6709 14.0392 32.6058C14.2421 32.5631 14.4277 32.4609 14.5722 32.3123C14.7168 32.1636 14.8137 31.9752 14.8506 31.7712C14.944 31.4102 14.9856 31.0379 14.9744 30.6652C14.9874 30.3027 14.9457 29.9402 14.8506 29.5901C14.7973 29.3729 14.6829 29.1756 14.5209 29.0215C14.3589 28.8673 14.1561 28.7628 13.9366 28.7203C13.4874 28.6709 13.0355 28.6517 12.5838 28.6627C12.5321 28.6634 12.4828 28.6845 12.4466 28.7214C12.4104 28.7582 12.3902 28.8079 12.3904 28.8596H12.3911Z" fill="white"/>
<path d="M17.2764 33.0713V28.2521C17.2764 28.0901 17.3408 27.9347 17.4554 27.8201C17.5699 27.7055 17.7254 27.6411 17.8874 27.6411H20.9059C21.0415 27.6411 21.1715 27.695 21.2674 27.7908C21.3632 27.8867 21.4171 28.0167 21.4171 28.1523C21.4171 28.2194 21.4039 28.2858 21.3782 28.3478C21.3525 28.4098 21.3148 28.4661 21.2673 28.5135C21.2199 28.5609 21.1635 28.5985 21.1015 28.6241C21.0395 28.6497 20.973 28.6628 20.9059 28.6628H18.6953C18.6695 28.6628 18.6439 28.6678 18.6201 28.6778C18.5962 28.6877 18.5746 28.7022 18.5563 28.7205C18.5381 28.7387 18.5237 28.7605 18.5139 28.7843C18.504 28.8082 18.499 28.8338 18.4991 28.8596V29.896C18.499 29.9219 18.504 29.9474 18.5139 29.9713C18.5237 29.9952 18.5381 30.0169 18.5563 30.0352C18.5746 30.0535 18.5962 30.068 18.6201 30.0779C18.6439 30.0878 18.6695 30.0929 18.6953 30.0929H20.5094C20.6448 30.0929 20.7747 30.1467 20.8706 30.2424C20.9664 30.3381 21.0203 30.4679 21.0205 30.6034C21.0203 30.7389 20.9664 30.8688 20.8706 30.9646C20.7748 31.0604 20.6449 31.1144 20.5094 31.1145H18.6953C18.6695 31.1145 18.644 31.1196 18.6202 31.1295C18.5964 31.1393 18.5748 31.1538 18.5566 31.172C18.5384 31.1902 18.5239 31.2118 18.5141 31.2357C18.5042 31.2595 18.4991 31.285 18.4991 31.3107V33.0685C18.4989 33.2303 18.4346 33.3853 18.3201 33.4996C18.2057 33.6139 18.0506 33.6781 17.8888 33.6781C17.8088 33.6785 17.7294 33.6631 17.6553 33.6328C17.5812 33.6025 17.5138 33.5579 17.4569 33.5016C17.4001 33.4452 17.3548 33.3782 17.3239 33.3044C17.2929 33.2306 17.2768 33.1514 17.2764 33.0713Z" fill="white"/>
<defs>
<linearGradient id="paint0_linear" x1="19.2578" y1="-22.4909" x2="19.2578" y2="-20.6866" gradientUnits="userSpaceOnUse">
<stop stop-color="#F3F7FF"/>
<stop offset="0.99" stop-color="#B5D1FF"/>
</linearGradient>
<linearGradient id="paint1_linear" x1="1062.7" y1="-244.305" x2="1062.7" y2="6928.96" gradientUnits="userSpaceOnUse">
<stop stop-color="#F3F7FF"/>
<stop offset="0.99" stop-color="#B5D1FF"/>
</linearGradient>
<linearGradient id="paint2_linear" x1="414.874" y1="-179.957" x2="414.874" y2="-30.7161" gradientUnits="userSpaceOnUse">
<stop stop-color="#F3F7FF"/>
<stop offset="0.99" stop-color="#B5D1FF"/>
</linearGradient>
</defs>
</svg>
