<svg width="20" height="20" viewBox="0 0 20 20" fill="none" xmlns="http://www.w3.org/2000/svg">
<g opacity="0.7">
<path d="M14.2072 0H5.79235C4.98701 0 4.33691 0.653014 4.33691 1.45689V18.5446C4.33691 19.3477 4.98701 20 5.79235 20H14.2072C15.0111 20 15.6626 19.3477 15.6626 18.5446V1.45689C15.6626 0.653014 15.0111 0 14.2072 0ZM7.92339 0.884775H12.0776C12.1826 0.884775 12.2678 1.04147 12.2678 1.23533C12.2678 1.4292 12.1826 1.58662 12.0776 1.58662H7.92339C7.81771 1.58662 7.7339 1.4292 7.7339 1.23533C7.7339 1.04147 7.81771 0.884775 7.92339 0.884775ZM10.0005 18.5621C9.48814 18.5621 9.07126 18.1452 9.07126 17.6321C9.07126 17.119 9.48814 16.7036 10.0005 16.7036C10.5114 16.7036 10.9283 17.119 10.9283 17.6321C10.9283 18.1452 10.5114 18.5621 10.0005 18.5621ZM14.5723 15.3779H5.42794V2.45828H14.5723V15.3779Z" fill="#00BF96"/>
</g>
</svg>
