<svg width="14" height="18" viewBox="0 0 14 18" fill="none" xmlns="http://www.w3.org/2000/svg">
<path d="M12.4038 12.8667L9.53791 11.4339C9.26761 11.2986 9.09961 11.0268 9.09961 10.7244V9.7101C9.16831 9.6261 9.24061 9.5304 9.31531 9.4248C9.68701 8.8998 9.98491 8.3154 10.2015 7.6851C10.6248 7.491 10.8996 7.0725 10.8996 6.6V5.4C10.8996 5.1111 10.7916 4.8312 10.5996 4.6125V3.0168C10.6164 2.8518 10.6824 1.8696 9.97201 1.0593C9.35581 0.3564 8.35591 0 6.99961 0C5.64331 0 4.64341 0.3564 4.02721 1.059C3.31681 1.8693 3.38281 2.8518 3.39961 3.0168V4.6125C3.20761 4.8312 3.09961 5.1111 3.09961 5.4V6.6C3.09961 6.9651 3.26551 7.3056 3.54871 7.5327C3.82351 8.6208 4.39861 9.4407 4.59961 9.7038V10.6965C4.59961 10.9869 4.44121 11.2533 4.18651 11.3925L1.51021 12.8523C0.639909 13.3272 0.0996094 14.2374 0.0996094 15.2286V16.2C0.0996094 17.6238 4.61311 18 6.99961 18C9.38611 18 13.8996 17.6238 13.8996 16.2V15.2871C13.8996 14.2557 13.3263 13.3281 12.4038 12.8667Z" fill="#079488"/>
</svg>
